<?xml version="1.0" encoding="utf-8" standalone="no"?>
<!DOCTYPE svg PUBLIC "-//W3C//DTD SVG 1.1//EN"
  "http://www.w3.org/Graphics/SVG/1.1/DTD/svg11.dtd">
<!-- Created with matplotlib (https://matplotlib.org/) -->
<svg height="290.75175pt" version="1.1" viewBox="0 0 492.85425 290.75175" width="492.85425pt" xmlns="http://www.w3.org/2000/svg" xmlns:xlink="http://www.w3.org/1999/xlink">
 <metadata>
  <rdf:RDF xmlns:cc="http://creativecommons.org/ns#" xmlns:dc="http://purl.org/dc/elements/1.1/" xmlns:rdf="http://www.w3.org/1999/02/22-rdf-syntax-ns#">
   <cc:Work>
    <dc:type rdf:resource="http://purl.org/dc/dcmitype/StillImage"/>
    <dc:date>2023-05-25T09:21:59.191325</dc:date>
    <dc:format>image/svg+xml</dc:format>
    <dc:creator>
     <cc:Agent>
      <dc:title>Matplotlib v3.3.2, https://matplotlib.org/</dc:title>
     </cc:Agent>
    </dc:creator>
   </cc:Work>
  </rdf:RDF>
 </metadata>
 <defs>
  <style type="text/css">*{stroke-linecap:butt;stroke-linejoin:round;}</style>
 </defs>
 <g id="figure_1">
  <g id="patch_1">
   <path d="M 0 290.75175 
L 492.85425 290.75175 
L 492.85425 0 
L 0 0 
z
" style="fill:none;"/>
  </g>
  <g id="axes_1">
   <g id="patch_2">
    <path d="M 49.978125 253.1955 
L 384.778125 253.1955 
L 384.778125 35.7555 
L 49.978125 35.7555 
z
" style="fill:#ffffff;"/>
   </g>
   <g id="matplotlib.axis_1">
    <g id="xtick_1">
     <g id="line2d_1">
      <defs>
       <path d="M 0 0 
L 0 3.5 
" id="m14d0199d63" style="stroke:#000000;stroke-width:0.8;"/>
      </defs>
      <g>
       <use style="stroke:#000000;stroke-width:0.8;" x="65.196307" xlink:href="#m14d0199d63" y="253.1955"/>
      </g>
     </g>
     <g id="text_1">
      <!-- $\mathdefault{10^{0}}$ -->
      <g transform="translate(56.396307 267.793937)scale(0.1 -0.1)">
       <defs>
        <path d="M 12.40625 8.296875 
L 28.515625 8.296875 
L 28.515625 63.921875 
L 10.984375 60.40625 
L 10.984375 69.390625 
L 28.421875 72.90625 
L 38.28125 72.90625 
L 38.28125 8.296875 
L 54.390625 8.296875 
L 54.390625 0 
L 12.40625 0 
z
" id="DejaVuSans-49"/>
        <path d="M 31.78125 66.40625 
Q 24.171875 66.40625 20.328125 58.90625 
Q 16.5 51.421875 16.5 36.375 
Q 16.5 21.390625 20.328125 13.890625 
Q 24.171875 6.390625 31.78125 6.390625 
Q 39.453125 6.390625 43.28125 13.890625 
Q 47.125 21.390625 47.125 36.375 
Q 47.125 51.421875 43.28125 58.90625 
Q 39.453125 66.40625 31.78125 66.40625 
z
M 31.78125 74.21875 
Q 44.046875 74.21875 50.515625 64.515625 
Q 56.984375 54.828125 56.984375 36.375 
Q 56.984375 17.96875 50.515625 8.265625 
Q 44.046875 -1.421875 31.78125 -1.421875 
Q 19.53125 -1.421875 13.0625 8.265625 
Q 6.59375 17.96875 6.59375 36.375 
Q 6.59375 54.828125 13.0625 64.515625 
Q 19.53125 74.21875 31.78125 74.21875 
z
" id="DejaVuSans-48"/>
       </defs>
       <use transform="translate(0 0.765625)" xlink:href="#DejaVuSans-49"/>
       <use transform="translate(63.623047 0.765625)" xlink:href="#DejaVuSans-48"/>
       <use transform="translate(128.203125 39.046875)scale(0.7)" xlink:href="#DejaVuSans-48"/>
      </g>
     </g>
    </g>
    <g id="xtick_2">
     <g id="line2d_2">
      <g>
       <use style="stroke:#000000;stroke-width:0.8;" x="217.710973" xlink:href="#m14d0199d63" y="253.1955"/>
      </g>
     </g>
     <g id="text_2">
      <!-- $\mathdefault{10^{1}}$ -->
      <g transform="translate(208.910973 267.793937)scale(0.1 -0.1)">
       <use transform="translate(0 0.684375)" xlink:href="#DejaVuSans-49"/>
       <use transform="translate(63.623047 0.684375)" xlink:href="#DejaVuSans-48"/>
       <use transform="translate(128.203125 38.965625)scale(0.7)" xlink:href="#DejaVuSans-49"/>
      </g>
     </g>
    </g>
    <g id="xtick_3">
     <g id="line2d_3">
      <g>
       <use style="stroke:#000000;stroke-width:0.8;" x="370.22564" xlink:href="#m14d0199d63" y="253.1955"/>
      </g>
     </g>
     <g id="text_3">
      <!-- $\mathdefault{10^{2}}$ -->
      <g transform="translate(361.42564 267.793937)scale(0.1 -0.1)">
       <defs>
        <path d="M 19.1875 8.296875 
L 53.609375 8.296875 
L 53.609375 0 
L 7.328125 0 
L 7.328125 8.296875 
Q 12.9375 14.109375 22.625 23.890625 
Q 32.328125 33.6875 34.8125 36.53125 
Q 39.546875 41.84375 41.421875 45.53125 
Q 43.3125 49.21875 43.3125 52.78125 
Q 43.3125 58.59375 39.234375 62.25 
Q 35.15625 65.921875 28.609375 65.921875 
Q 23.96875 65.921875 18.8125 64.3125 
Q 13.671875 62.703125 7.8125 59.421875 
L 7.8125 69.390625 
Q 13.765625 71.78125 18.9375 73 
Q 24.125 74.21875 28.421875 74.21875 
Q 39.75 74.21875 46.484375 68.546875 
Q 53.21875 62.890625 53.21875 53.421875 
Q 53.21875 48.921875 51.53125 44.890625 
Q 49.859375 40.875 45.40625 35.40625 
Q 44.1875 33.984375 37.640625 27.21875 
Q 31.109375 20.453125 19.1875 8.296875 
z
" id="DejaVuSans-50"/>
       </defs>
       <use transform="translate(0 0.765625)" xlink:href="#DejaVuSans-49"/>
       <use transform="translate(63.623047 0.765625)" xlink:href="#DejaVuSans-48"/>
       <use transform="translate(128.203125 39.046875)scale(0.7)" xlink:href="#DejaVuSans-50"/>
      </g>
     </g>
    </g>
    <g id="xtick_4">
     <g id="line2d_4">
      <defs>
       <path d="M 0 0 
L 0 2 
" id="mde6d0268e3" style="stroke:#000000;stroke-width:0.6;"/>
      </defs>
      <g>
       <use style="stroke:#000000;stroke-width:0.6;" x="50.416108" xlink:href="#mde6d0268e3" y="253.1955"/>
      </g>
     </g>
    </g>
    <g id="xtick_5">
     <g id="line2d_5">
      <g>
       <use style="stroke:#000000;stroke-width:0.6;" x="58.217618" xlink:href="#mde6d0268e3" y="253.1955"/>
      </g>
     </g>
    </g>
    <g id="xtick_6">
     <g id="line2d_6">
      <g>
       <use style="stroke:#000000;stroke-width:0.6;" x="111.107796" xlink:href="#mde6d0268e3" y="253.1955"/>
      </g>
     </g>
    </g>
    <g id="xtick_7">
     <g id="line2d_7">
      <g>
       <use style="stroke:#000000;stroke-width:0.6;" x="137.964296" xlink:href="#mde6d0268e3" y="253.1955"/>
      </g>
     </g>
    </g>
    <g id="xtick_8">
     <g id="line2d_8">
      <g>
       <use style="stroke:#000000;stroke-width:0.6;" x="157.019286" xlink:href="#mde6d0268e3" y="253.1955"/>
      </g>
     </g>
    </g>
    <g id="xtick_9">
     <g id="line2d_9">
      <g>
       <use style="stroke:#000000;stroke-width:0.6;" x="171.799484" xlink:href="#mde6d0268e3" y="253.1955"/>
      </g>
     </g>
    </g>
    <g id="xtick_10">
     <g id="line2d_10">
      <g>
       <use style="stroke:#000000;stroke-width:0.6;" x="183.875785" xlink:href="#mde6d0268e3" y="253.1955"/>
      </g>
     </g>
    </g>
    <g id="xtick_11">
     <g id="line2d_11">
      <g>
       <use style="stroke:#000000;stroke-width:0.6;" x="194.086153" xlink:href="#mde6d0268e3" y="253.1955"/>
      </g>
     </g>
    </g>
    <g id="xtick_12">
     <g id="line2d_12">
      <g>
       <use style="stroke:#000000;stroke-width:0.6;" x="202.930775" xlink:href="#mde6d0268e3" y="253.1955"/>
      </g>
     </g>
    </g>
    <g id="xtick_13">
     <g id="line2d_13">
      <g>
       <use style="stroke:#000000;stroke-width:0.6;" x="210.732285" xlink:href="#mde6d0268e3" y="253.1955"/>
      </g>
     </g>
    </g>
    <g id="xtick_14">
     <g id="line2d_14">
      <g>
       <use style="stroke:#000000;stroke-width:0.6;" x="263.622463" xlink:href="#mde6d0268e3" y="253.1955"/>
      </g>
     </g>
    </g>
    <g id="xtick_15">
     <g id="line2d_15">
      <g>
       <use style="stroke:#000000;stroke-width:0.6;" x="290.478963" xlink:href="#mde6d0268e3" y="253.1955"/>
      </g>
     </g>
    </g>
    <g id="xtick_16">
     <g id="line2d_16">
      <g>
       <use style="stroke:#000000;stroke-width:0.6;" x="309.533952" xlink:href="#mde6d0268e3" y="253.1955"/>
      </g>
     </g>
    </g>
    <g id="xtick_17">
     <g id="line2d_17">
      <g>
       <use style="stroke:#000000;stroke-width:0.6;" x="324.314151" xlink:href="#mde6d0268e3" y="253.1955"/>
      </g>
     </g>
    </g>
    <g id="xtick_18">
     <g id="line2d_18">
      <g>
       <use style="stroke:#000000;stroke-width:0.6;" x="336.390452" xlink:href="#mde6d0268e3" y="253.1955"/>
      </g>
     </g>
    </g>
    <g id="xtick_19">
     <g id="line2d_19">
      <g>
       <use style="stroke:#000000;stroke-width:0.6;" x="346.600819" xlink:href="#mde6d0268e3" y="253.1955"/>
      </g>
     </g>
    </g>
    <g id="xtick_20">
     <g id="line2d_20">
      <g>
       <use style="stroke:#000000;stroke-width:0.6;" x="355.445442" xlink:href="#mde6d0268e3" y="253.1955"/>
      </g>
     </g>
    </g>
    <g id="xtick_21">
     <g id="line2d_21">
      <g>
       <use style="stroke:#000000;stroke-width:0.6;" x="363.246952" xlink:href="#mde6d0268e3" y="253.1955"/>
      </g>
     </g>
    </g>
    <g id="text_4">
     <!-- iteration -->
     <g transform="translate(196.255469 281.472062)scale(0.1 -0.1)">
      <defs>
       <path d="M 9.421875 54.6875 
L 18.40625 54.6875 
L 18.40625 0 
L 9.421875 0 
z
M 9.421875 75.984375 
L 18.40625 75.984375 
L 18.40625 64.59375 
L 9.421875 64.59375 
z
" id="DejaVuSans-105"/>
       <path d="M 18.3125 70.21875 
L 18.3125 54.6875 
L 36.8125 54.6875 
L 36.8125 47.703125 
L 18.3125 47.703125 
L 18.3125 18.015625 
Q 18.3125 11.328125 20.140625 9.421875 
Q 21.96875 7.515625 27.59375 7.515625 
L 36.8125 7.515625 
L 36.8125 0 
L 27.59375 0 
Q 17.1875 0 13.234375 3.875 
Q 9.28125 7.765625 9.28125 18.015625 
L 9.28125 47.703125 
L 2.6875 47.703125 
L 2.6875 54.6875 
L 9.28125 54.6875 
L 9.28125 70.21875 
z
" id="DejaVuSans-116"/>
       <path d="M 56.203125 29.59375 
L 56.203125 25.203125 
L 14.890625 25.203125 
Q 15.484375 15.921875 20.484375 11.0625 
Q 25.484375 6.203125 34.421875 6.203125 
Q 39.59375 6.203125 44.453125 7.46875 
Q 49.3125 8.734375 54.109375 11.28125 
L 54.109375 2.78125 
Q 49.265625 0.734375 44.1875 -0.34375 
Q 39.109375 -1.421875 33.890625 -1.421875 
Q 20.796875 -1.421875 13.15625 6.1875 
Q 5.515625 13.8125 5.515625 26.8125 
Q 5.515625 40.234375 12.765625 48.109375 
Q 20.015625 56 32.328125 56 
Q 43.359375 56 49.78125 48.890625 
Q 56.203125 41.796875 56.203125 29.59375 
z
M 47.21875 32.234375 
Q 47.125 39.59375 43.09375 43.984375 
Q 39.0625 48.390625 32.421875 48.390625 
Q 24.90625 48.390625 20.390625 44.140625 
Q 15.875 39.890625 15.1875 32.171875 
z
" id="DejaVuSans-101"/>
       <path d="M 41.109375 46.296875 
Q 39.59375 47.171875 37.8125 47.578125 
Q 36.03125 48 33.890625 48 
Q 26.265625 48 22.1875 43.046875 
Q 18.109375 38.09375 18.109375 28.8125 
L 18.109375 0 
L 9.078125 0 
L 9.078125 54.6875 
L 18.109375 54.6875 
L 18.109375 46.1875 
Q 20.953125 51.171875 25.484375 53.578125 
Q 30.03125 56 36.53125 56 
Q 37.453125 56 38.578125 55.875 
Q 39.703125 55.765625 41.0625 55.515625 
z
" id="DejaVuSans-114"/>
       <path d="M 34.28125 27.484375 
Q 23.390625 27.484375 19.1875 25 
Q 14.984375 22.515625 14.984375 16.5 
Q 14.984375 11.71875 18.140625 8.90625 
Q 21.296875 6.109375 26.703125 6.109375 
Q 34.1875 6.109375 38.703125 11.40625 
Q 43.21875 16.703125 43.21875 25.484375 
L 43.21875 27.484375 
z
M 52.203125 31.203125 
L 52.203125 0 
L 43.21875 0 
L 43.21875 8.296875 
Q 40.140625 3.328125 35.546875 0.953125 
Q 30.953125 -1.421875 24.3125 -1.421875 
Q 15.921875 -1.421875 10.953125 3.296875 
Q 6 8.015625 6 15.921875 
Q 6 25.140625 12.171875 29.828125 
Q 18.359375 34.515625 30.609375 34.515625 
L 43.21875 34.515625 
L 43.21875 35.40625 
Q 43.21875 41.609375 39.140625 45 
Q 35.0625 48.390625 27.6875 48.390625 
Q 23 48.390625 18.546875 47.265625 
Q 14.109375 46.140625 10.015625 43.890625 
L 10.015625 52.203125 
Q 14.9375 54.109375 19.578125 55.046875 
Q 24.21875 56 28.609375 56 
Q 40.484375 56 46.34375 49.84375 
Q 52.203125 43.703125 52.203125 31.203125 
z
" id="DejaVuSans-97"/>
       <path d="M 30.609375 48.390625 
Q 23.390625 48.390625 19.1875 42.75 
Q 14.984375 37.109375 14.984375 27.296875 
Q 14.984375 17.484375 19.15625 11.84375 
Q 23.34375 6.203125 30.609375 6.203125 
Q 37.796875 6.203125 41.984375 11.859375 
Q 46.1875 17.53125 46.1875 27.296875 
Q 46.1875 37.015625 41.984375 42.703125 
Q 37.796875 48.390625 30.609375 48.390625 
z
M 30.609375 56 
Q 42.328125 56 49.015625 48.375 
Q 55.71875 40.765625 55.71875 27.296875 
Q 55.71875 13.875 49.015625 6.21875 
Q 42.328125 -1.421875 30.609375 -1.421875 
Q 18.84375 -1.421875 12.171875 6.21875 
Q 5.515625 13.875 5.515625 27.296875 
Q 5.515625 40.765625 12.171875 48.375 
Q 18.84375 56 30.609375 56 
z
" id="DejaVuSans-111"/>
       <path d="M 54.890625 33.015625 
L 54.890625 0 
L 45.90625 0 
L 45.90625 32.71875 
Q 45.90625 40.484375 42.875 44.328125 
Q 39.84375 48.1875 33.796875 48.1875 
Q 26.515625 48.1875 22.3125 43.546875 
Q 18.109375 38.921875 18.109375 30.90625 
L 18.109375 0 
L 9.078125 0 
L 9.078125 54.6875 
L 18.109375 54.6875 
L 18.109375 46.1875 
Q 21.34375 51.125 25.703125 53.5625 
Q 30.078125 56 35.796875 56 
Q 45.21875 56 50.046875 50.171875 
Q 54.890625 44.34375 54.890625 33.015625 
z
" id="DejaVuSans-110"/>
      </defs>
      <use xlink:href="#DejaVuSans-105"/>
      <use x="27.783203" xlink:href="#DejaVuSans-116"/>
      <use x="66.992188" xlink:href="#DejaVuSans-101"/>
      <use x="128.515625" xlink:href="#DejaVuSans-114"/>
      <use x="169.628906" xlink:href="#DejaVuSans-97"/>
      <use x="230.908203" xlink:href="#DejaVuSans-116"/>
      <use x="270.117188" xlink:href="#DejaVuSans-105"/>
      <use x="297.900391" xlink:href="#DejaVuSans-111"/>
      <use x="359.082031" xlink:href="#DejaVuSans-110"/>
     </g>
    </g>
   </g>
   <g id="matplotlib.axis_2">
    <g id="ytick_1">
     <g id="line2d_22">
      <defs>
       <path d="M 0 0 
L -3.5 0 
" id="mcf442de5ad" style="stroke:#000000;stroke-width:0.8;"/>
      </defs>
      <g>
       <use style="stroke:#000000;stroke-width:0.8;" x="49.978125" xlink:href="#mcf442de5ad" y="121.580544"/>
      </g>
     </g>
     <g id="text_5">
      <!-- $\mathdefault{10^{10}}$ -->
      <g transform="translate(20.878125 125.379763)scale(0.1 -0.1)">
       <use transform="translate(0 0.765625)" xlink:href="#DejaVuSans-49"/>
       <use transform="translate(63.623047 0.765625)" xlink:href="#DejaVuSans-48"/>
       <use transform="translate(128.203125 39.046875)scale(0.7)" xlink:href="#DejaVuSans-49"/>
       <use transform="translate(172.739258 39.046875)scale(0.7)" xlink:href="#DejaVuSans-48"/>
      </g>
     </g>
    </g>
    <g id="ytick_2">
     <g id="line2d_23">
      <defs>
       <path d="M 0 0 
L -2 0 
" id="m2f0357684b" style="stroke:#000000;stroke-width:0.6;"/>
      </defs>
      <g>
       <use style="stroke:#000000;stroke-width:0.6;" x="49.978125" xlink:href="#m2f0357684b" y="228.913421"/>
      </g>
     </g>
    </g>
    <g id="ytick_3">
     <g id="line2d_24">
      <g>
       <use style="stroke:#000000;stroke-width:0.6;" x="49.978125" xlink:href="#m2f0357684b" y="201.873089"/>
      </g>
     </g>
    </g>
    <g id="ytick_4">
     <g id="line2d_25">
      <g>
       <use style="stroke:#000000;stroke-width:0.6;" x="49.978125" xlink:href="#m2f0357684b" y="182.687667"/>
      </g>
     </g>
    </g>
    <g id="ytick_5">
     <g id="line2d_26">
      <g>
       <use style="stroke:#000000;stroke-width:0.6;" x="49.978125" xlink:href="#m2f0357684b" y="167.806298"/>
      </g>
     </g>
    </g>
    <g id="ytick_6">
     <g id="line2d_27">
      <g>
       <use style="stroke:#000000;stroke-width:0.6;" x="49.978125" xlink:href="#m2f0357684b" y="155.647335"/>
      </g>
     </g>
    </g>
    <g id="ytick_7">
     <g id="line2d_28">
      <g>
       <use style="stroke:#000000;stroke-width:0.6;" x="49.978125" xlink:href="#m2f0357684b" y="145.367077"/>
      </g>
     </g>
    </g>
    <g id="ytick_8">
     <g id="line2d_29">
      <g>
       <use style="stroke:#000000;stroke-width:0.6;" x="49.978125" xlink:href="#m2f0357684b" y="136.461913"/>
      </g>
     </g>
    </g>
    <g id="ytick_9">
     <g id="line2d_30">
      <g>
       <use style="stroke:#000000;stroke-width:0.6;" x="49.978125" xlink:href="#m2f0357684b" y="128.607002"/>
      </g>
     </g>
    </g>
    <g id="ytick_10">
     <g id="line2d_31">
      <g>
       <use style="stroke:#000000;stroke-width:0.6;" x="49.978125" xlink:href="#m2f0357684b" y="75.354791"/>
      </g>
     </g>
    </g>
    <g id="ytick_11">
     <g id="line2d_32">
      <g>
       <use style="stroke:#000000;stroke-width:0.6;" x="49.978125" xlink:href="#m2f0357684b" y="48.314458"/>
      </g>
     </g>
    </g>
    <g id="text_6">
     <!-- cost -->
     <g transform="translate(14.798438 154.848937)rotate(-90)scale(0.1 -0.1)">
      <defs>
       <path d="M 48.78125 52.59375 
L 48.78125 44.1875 
Q 44.96875 46.296875 41.140625 47.34375 
Q 37.3125 48.390625 33.40625 48.390625 
Q 24.65625 48.390625 19.8125 42.84375 
Q 14.984375 37.3125 14.984375 27.296875 
Q 14.984375 17.28125 19.8125 11.734375 
Q 24.65625 6.203125 33.40625 6.203125 
Q 37.3125 6.203125 41.140625 7.25 
Q 44.96875 8.296875 48.78125 10.40625 
L 48.78125 2.09375 
Q 45.015625 0.34375 40.984375 -0.53125 
Q 36.96875 -1.421875 32.421875 -1.421875 
Q 20.0625 -1.421875 12.78125 6.34375 
Q 5.515625 14.109375 5.515625 27.296875 
Q 5.515625 40.671875 12.859375 48.328125 
Q 20.21875 56 33.015625 56 
Q 37.15625 56 41.109375 55.140625 
Q 45.0625 54.296875 48.78125 52.59375 
z
" id="DejaVuSans-99"/>
       <path d="M 44.28125 53.078125 
L 44.28125 44.578125 
Q 40.484375 46.53125 36.375 47.5 
Q 32.28125 48.484375 27.875 48.484375 
Q 21.1875 48.484375 17.84375 46.4375 
Q 14.5 44.390625 14.5 40.28125 
Q 14.5 37.15625 16.890625 35.375 
Q 19.28125 33.59375 26.515625 31.984375 
L 29.59375 31.296875 
Q 39.15625 29.25 43.1875 25.515625 
Q 47.21875 21.78125 47.21875 15.09375 
Q 47.21875 7.46875 41.1875 3.015625 
Q 35.15625 -1.421875 24.609375 -1.421875 
Q 20.21875 -1.421875 15.453125 -0.5625 
Q 10.6875 0.296875 5.421875 2 
L 5.421875 11.28125 
Q 10.40625 8.6875 15.234375 7.390625 
Q 20.0625 6.109375 24.8125 6.109375 
Q 31.15625 6.109375 34.5625 8.28125 
Q 37.984375 10.453125 37.984375 14.40625 
Q 37.984375 18.0625 35.515625 20.015625 
Q 33.0625 21.96875 24.703125 23.78125 
L 21.578125 24.515625 
Q 13.234375 26.265625 9.515625 29.90625 
Q 5.8125 33.546875 5.8125 39.890625 
Q 5.8125 47.609375 11.28125 51.796875 
Q 16.75 56 26.8125 56 
Q 31.78125 56 36.171875 55.265625 
Q 40.578125 54.546875 44.28125 53.078125 
z
" id="DejaVuSans-115"/>
      </defs>
      <use xlink:href="#DejaVuSans-99"/>
      <use x="54.980469" xlink:href="#DejaVuSans-111"/>
      <use x="116.162109" xlink:href="#DejaVuSans-115"/>
      <use x="168.261719" xlink:href="#DejaVuSans-116"/>
     </g>
    </g>
   </g>
   <g id="line2d_33">
    <path clip-path="url(#pf0fe72b1d6)" d="M -1 48.392328 
L 65.196307 48.393523 
L 111.107796 50.454037 
L 137.964296 52.401521 
L 157.019286 54.367756 
L 171.799484 56.395645 
L 183.875785 58.499706 
L 194.086153 60.683689 
L 202.930775 62.946953 
L 210.732285 65.287201 
L 217.710973 67.701498 
L 224.023965 70.186903 
L 229.787275 72.740547 
L 235.089006 75.359721 
L 239.997642 78.041979 
L 244.567473 80.785027 
L 248.842265 83.586774 
L 252.857814 86.445251 
L 256.643774 89.358683 
L 260.224986 92.325378 
L 263.622463 95.343555 
L 266.854142 98.409526 
L 269.935454 101.519362 
L 272.879774 104.668234 
L 275.698764 107.84628 
L 278.402661 111.045477 
L 281.000495 114.259004 
L 283.500274 117.480276 
L 285.909131 120.702443 
L 288.23345 123.918929 
L 290.478963 127.123194 
L 292.650838 130.30863 
L 294.753754 133.468547 
L 296.791954 136.596406 
L 298.769303 139.685794 
L 300.68933 142.730489 
L 302.555264 145.724332 
L 304.37007 148.661466 
L 306.136475 151.536252 
L 307.856995 154.343232 
L 309.533952 157.077395 
L 311.169499 159.734324 
L 312.765631 162.309952 
L 314.324204 164.800203 
L 315.846944 167.201668 
L 317.335462 169.512257 
L 318.791263 171.730832 
L 320.215754 173.856979 
L 321.610254 175.891044 
L 322.975998 177.833947 
L 324.314151 179.687164 
L 325.625803 181.452647 
L 326.911985 183.132677 
L 328.173666 184.729948 
L 329.411764 186.247326 
L 330.627142 187.687892 
L 331.820621 189.054809 
L 332.992975 190.351559 
L 334.144939 191.581867 
L 335.277211 192.749539 
L 336.390452 193.858477 
L 337.485291 194.912521 
L 338.562328 195.915455 
L 339.622131 196.870972 
L 340.665243 197.782609 
L 341.692183 198.653711 
L 342.703444 199.487434 
L 343.699497 200.286757 
L 344.680793 201.054406 
L 345.647763 201.79293 
L 346.600819 202.504653 
L 347.540357 203.191697 
L 348.466753 203.856016 
L 349.380372 204.499364 
L 350.281559 205.123365 
L 351.17065 205.727593 
L 352.047965 206.315912 
L 352.913811 206.888899 
L 353.768484 207.447334 
L 354.61227 207.99134 
L 355.445442 208.524023 
L 356.268263 209.041462 
L 357.080988 209.548191 
L 357.883862 210.04574 
L 358.677121 210.532615 
L 359.460991 211.008973 
L 360.235693 211.476013 
L 361.001439 211.934732 
L 361.758433 212.382663 
L 362.506874 212.823388 
L 363.246952 213.254657 
L 363.978852 213.678116 
L 364.702753 214.093774 
L 365.418827 214.502004 
L 366.127244 214.9043 
L 366.828163 215.298472 
L 367.521743 215.688238 
L 368.208135 216.069297 
L 368.887488 216.446795 
L 369.559943 216.815363 
" style="fill:none;stroke:#1f77b4;stroke-linecap:square;stroke-width:1.5;"/>
   </g>
   <g id="line2d_34">
    <path clip-path="url(#pf0fe72b1d6)" d="M -1 52.63881 
L 65.196307 52.641849 
L 111.107796 59.788034 
L 137.964296 67.076154 
L 157.019286 74.503667 
L 171.799484 82.066835 
L 183.875785 82.06685 
L 194.086153 82.066858 
L 202.930775 82.066873 
L 210.732285 82.06688 
L 217.710973 82.066903 
L 224.023965 82.066918 
L 229.787275 82.066941 
L 235.089006 82.066956 
L 239.997642 82.066978 
L 244.567473 82.067001 
L 248.842265 82.067031 
L 252.857814 82.067054 
L 256.643774 82.067077 
L 260.224986 82.067099 
L 263.622463 82.067129 
L 266.854142 82.06716 
L 269.935454 82.06719 
L 272.879774 82.06722 
L 275.698764 82.06725 
L 278.402661 82.067288 
L 281.000495 82.067311 
L 283.500274 82.067348 
L 285.909131 82.067379 
L 288.23345 82.067416 
L 290.478963 82.067454 
L 292.650838 82.067492 
L 294.753754 82.06753 
L 296.791954 82.067567 
L 298.769303 82.067613 
L 300.68933 82.067643 
L 302.555264 82.067688 
L 304.37007 82.067726 
L 306.136475 82.067771 
L 307.856995 82.067809 
L 309.533952 82.067854 
L 311.169499 82.0679 
L 312.765631 82.067945 
L 314.324204 82.06799 
L 315.846944 82.068036 
L 317.335462 82.068081 
L 318.791263 82.068126 
L 320.215754 82.068172 
L 321.610254 82.068217 
L 322.975998 82.06827 
L 324.314151 82.068323 
L 325.625803 82.068368 
L 326.911985 82.068421 
L 328.173666 82.068474 
L 329.411764 82.068519 
L 330.627142 82.068572 
L 331.820621 82.068632 
L 332.992975 82.068678 
L 334.144939 82.068738 
L 335.277211 82.068783 
L 336.390452 82.068844 
L 337.485291 82.068889 
L 338.562328 82.06895 
L 339.622131 82.069002 
L 340.665243 82.069063 
L 341.692183 82.069123 
L 342.703444 82.069176 
L 343.699497 82.069237 
L 344.680793 82.069297 
L 345.647763 82.06935 
L 346.600819 82.06941 
L 347.540357 82.069471 
L 348.466753 82.069531 
L 349.380372 82.069591 
L 350.281559 82.069652 
L 351.17065 82.06972 
L 352.047965 82.06978 
L 352.913811 82.069841 
L 353.768484 82.069901 
L 354.61227 82.069962 
L 355.445442 82.07003 
L 356.268263 82.070097 
L 357.080988 82.070165 
L 357.883862 82.070226 
L 358.677121 82.070294 
L 359.460991 82.070354 
L 360.235693 82.070422 
L 361.001439 82.07049 
L 361.758433 82.070558 
L 362.506874 82.070619 
L 363.246952 82.070687 
L 363.978852 82.070762 
L 364.702753 82.07083 
L 365.418827 82.070898 
L 366.127244 82.070974 
L 366.828163 82.071042 
L 367.521743 82.07111 
L 368.208135 82.071178 
L 368.887488 82.071253 
L 369.559943 82.071321 
" style="fill:none;stroke:#ff7f0e;stroke-linecap:square;stroke-width:1.5;"/>
   </g>
   <g id="line2d_35">
    <path clip-path="url(#pf0fe72b1d6)" d="M -1 74.439891 
L 65.196307 74.452397 
L 111.107796 110.334813 
L 137.964296 152.904289 
L 157.019286 187.529558 
L 171.799484 185.711657 
L 183.875785 163.856733 
L 194.086153 147.872917 
L 202.930775 142.806637 
L 210.732285 146.846479 
L 217.710973 157.760568 
L 224.023965 173.430159 
L 229.787275 191.15561 
L 235.089006 207.34311 
L 239.997642 218.016932 
L 244.567473 220.99069 
L 248.842265 217.926795 
L 252.857814 212.78481 
L 256.643774 208.812116 
L 260.224986 206.98549 
L 263.622463 207.850742 
L 266.854142 210.83768 
L 269.935454 215.214108 
L 272.879774 220.009366 
L 275.698764 224.159663 
L 278.402661 226.826013 
L 281.000495 227.745862 
L 283.500274 227.301845 
L 285.909131 226.305188 
L 288.23345 225.575629 
L 290.478963 225.593023 
L 292.650838 226.541501 
L 294.753754 228.277725 
L 296.791954 230.468907 
L 298.769303 232.641881 
L 300.68933 234.430295 
L 302.555264 235.625986 
L 304.37007 236.268299 
L 306.136475 236.51088 
L 307.856995 236.581363 
L 309.533952 236.700198 
L 311.169499 236.999427 
L 312.765631 237.498677 
L 314.324204 238.130032 
L 315.846944 238.756501 
L 317.335462 239.244948 
L 318.791263 239.518885 
L 320.215754 239.590854 
L 321.610254 239.550552 
L 322.975998 239.5253 
L 324.314151 239.613515 
L 325.625803 239.849823 
L 326.911985 240.205142 
L 328.173666 240.597242 
L 329.411764 240.947108 
L 330.627142 241.214272 
L 331.820621 241.391816 
L 332.992975 241.488489 
L 334.144939 241.538969 
L 335.277211 241.578251 
L 336.390452 241.630525 
L 337.485291 241.710048 
L 338.562328 241.815335 
L 339.622131 241.931251 
L 340.665243 242.040157 
L 341.692183 242.127694 
L 342.703444 242.191774 
L 343.699497 242.237051 
L 344.680793 242.274218 
L 345.647763 242.319024 
L 346.600819 242.381282 
L 347.540357 242.455379 
L 348.466753 242.524381 
L 349.380372 242.586984 
L 350.281559 242.642251 
L 351.17065 242.691251 
L 352.047965 242.732284 
L 352.913811 242.762473 
L 353.768484 242.791204 
L 354.61227 242.82 
L 355.445442 242.853537 
L 356.268263 242.882386 
L 357.080988 242.912458 
L 357.883862 242.939089 
L 358.677121 242.967364 
L 359.460991 242.992019 
L 360.235693 243.014942 
L 361.001439 243.041767 
L 361.758433 243.071684 
L 362.506874 243.090264 
L 363.246952 243.113528 
L 363.978852 243.137582 
L 364.702753 243.153808 
L 365.418827 243.166898 
L 366.127244 243.179906 
L 366.828163 243.19612 
L 367.521743 243.206744 
L 368.208135 243.218559 
L 368.887488 243.230768 
L 369.559943 243.247545 
" style="fill:none;stroke:#2ca02c;stroke-linecap:square;stroke-width:1.5;"/>
   </g>
   <g id="line2d_36">
    <path clip-path="url(#pf0fe72b1d6)" d="M -1 46.462848 
L 65.196307 46.463205 
L 111.107796 47.311329 
L 137.964296 48.176098 
L 157.019286 49.053847 
L 171.799484 49.942427 
L 183.875785 50.840415 
L 194.086153 51.74683 
L 202.930775 52.660934 
L 210.732285 53.582163 
L 217.710973 54.510097 
L 224.023965 55.444381 
L 229.787275 56.384745 
L 235.089006 57.33094 
L 239.997642 58.282806 
L 244.567473 59.240173 
L 248.842265 60.202915 
L 252.857814 61.170914 
L 256.643774 62.144095 
L 260.224986 63.12237 
L 263.622463 64.10569 
L 266.854142 65.094 
L 269.935454 66.087245 
L 272.879774 67.08542 
L 275.698764 68.088473 
L 278.402661 69.096397 
L 281.000495 70.10917 
L 283.500274 71.126793 
L 285.909131 72.149255 
L 288.23345 73.176573 
L 290.478963 74.208719 
L 292.650838 75.245725 
L 294.753754 76.287607 
L 296.791954 77.334353 
L 298.769303 78.385991 
L 300.68933 79.442555 
L 302.555264 80.504029 
L 304.37007 81.570466 
L 306.136475 82.641878 
L 307.856995 83.718288 
L 309.533952 84.799728 
L 311.169499 85.886226 
L 312.765631 86.977807 
L 314.324204 88.074507 
L 315.846944 89.176353 
L 317.335462 90.283395 
L 318.791263 91.395637 
L 320.215754 92.513141 
L 321.610254 93.635937 
L 322.975998 94.763971 
L 324.314151 95.897014 
L 325.625803 97.034879 
L 326.911985 98.17747 
L 328.173666 99.32472 
L 329.411764 100.476578 
L 330.627142 101.632968 
L 331.820621 102.793634 
L 332.992975 103.957921 
L 334.144939 105.125169 
L 335.277211 106.295012 
L 336.390452 107.467159 
L 337.485291 108.641281 
L 338.562328 109.817116 
L 339.622131 110.994399 
L 340.665243 112.172921 
L 341.692183 113.352431 
L 342.703444 114.532692 
L 343.699497 115.713477 
L 344.680793 116.894516 
L 345.647763 118.075548 
L 346.600819 119.256349 
L 347.540357 120.436715 
L 348.466753 121.61642 
L 349.380372 122.79523 
L 350.281559 123.972944 
L 351.17065 125.14932 
L 352.047965 126.324144 
L 352.913811 127.497197 
L 353.768484 128.66823 
L 354.61227 129.837033 
L 355.445442 131.003377 
L 356.268263 132.167047 
L 357.080988 133.327814 
L 357.883862 134.485455 
L 358.677121 135.639739 
L 359.460991 136.790446 
L 360.235693 137.937384 
L 361.001439 139.080324 
L 361.758433 140.219054 
L 362.506874 141.353339 
L 363.246952 142.482955 
L 363.978852 143.607677 
L 364.702753 144.727272 
L 365.418827 145.841534 
L 366.127244 146.950225 
L 366.828163 148.053117 
L 367.521743 149.150007 
L 368.208135 150.240641 
L 368.887488 151.324804 
L 369.559943 152.402232 
" style="fill:none;stroke:#d62728;stroke-linecap:square;stroke-width:1.5;"/>
   </g>
   <g id="line2d_37">
    <path clip-path="url(#pf0fe72b1d6)" d="M -1 74.439891 
L 65.196307 74.452397 
L 111.107796 106.617765 
L 137.964296 141.043717 
L 157.019286 172.008932 
L 171.799484 190.459969 
L 183.875785 192.33957 
L 194.086153 185.322242 
L 202.930775 177.734419 
L 210.732285 172.923033 
L 217.710973 171.8042 
L 224.023965 174.101158 
L 229.787275 179.124743 
L 235.089006 186.050531 
L 239.997642 193.993869 
L 244.567473 201.976515 
L 248.842265 209.286805 
L 252.857814 215.391605 
L 256.643774 219.954989 
L 260.224986 222.988988 
L 263.622463 224.673352 
L 266.854142 225.341709 
L 269.935454 225.409251 
L 272.879774 225.207919 
L 275.698764 225.000873 
L 278.402661 224.994043 
L 281.000495 225.244848 
L 283.500274 225.770303 
L 285.909131 226.534532 
L 288.23345 227.472111 
L 290.478963 228.514021 
L 292.650838 229.585632 
L 294.753754 230.62279 
L 296.791954 231.577605 
L 298.769303 232.421452 
L 300.68933 233.144586 
L 302.555264 233.754403 
L 304.37007 234.270597 
L 306.136475 234.719192 
L 307.856995 235.126191 
L 309.533952 235.510222 
L 311.169499 235.88343 
L 312.765631 236.257172 
L 314.324204 236.607967 
L 315.846944 236.965607 
L 317.335462 237.318081 
L 318.791263 237.651581 
L 320.215754 237.962481 
L 321.610254 238.236815 
L 322.975998 238.478282 
L 324.314151 238.690349 
L 325.625803 238.878179 
L 326.911985 239.043647 
L 328.173666 239.187978 
L 329.411764 239.314921 
L 330.627142 239.431555 
L 331.820621 239.543343 
L 332.992975 239.649653 
L 334.144939 239.753 
L 335.277211 239.85795 
L 336.390452 239.964541 
L 337.485291 240.071879 
L 338.562328 240.177903 
L 339.622131 240.282654 
L 340.665243 240.383428 
L 341.692183 240.479593 
L 342.703444 240.568459 
L 343.699497 240.65094 
L 344.680793 240.724753 
L 345.647763 240.791028 
L 346.600819 240.854106 
L 347.540357 240.914868 
L 348.466753 240.974249 
L 349.380372 241.02991 
L 350.281559 241.079137 
L 351.17065 241.129278 
L 352.047965 241.177748 
L 352.913811 241.228866 
L 353.768484 241.279884 
L 354.61227 241.329616 
L 355.445442 241.375895 
L 356.268263 241.421286 
L 357.080988 241.468366 
L 357.883862 241.513665 
L 358.677121 241.552561 
L 359.460991 241.589394 
L 360.235693 241.625871 
L 361.001439 241.662301 
L 361.758433 241.696517 
L 362.506874 241.729618 
L 363.246952 241.760898 
L 363.978852 241.792783 
L 364.702753 241.822244 
L 365.418827 241.848106 
L 366.127244 241.874875 
L 366.828163 241.902977 
L 367.521743 241.930343 
L 368.208135 241.956003 
L 368.887488 241.982302 
L 369.559943 242.008075 
" style="fill:none;stroke:#9467bd;stroke-linecap:square;stroke-width:1.5;"/>
   </g>
   <g id="line2d_38">
    <path clip-path="url(#pf0fe72b1d6)" d="M -1 52.63881 
L 65.196307 52.641849 
L 111.107796 59.59402 
L 137.964296 66.492354 
L 157.019286 73.333397 
L 171.799484 80.113497 
L 183.875785 86.828908 
L 194.086153 93.475433 
L 202.930775 100.038766 
L 210.732285 106.475212 
L 217.710973 112.743148 
L 224.023965 118.81064 
L 229.787275 124.650412 
L 235.089006 130.242158 
L 239.997642 135.571848 
L 244.567473 140.630063 
L 248.842265 145.411139 
L 252.857814 149.91289 
L 256.643774 154.137039 
L 260.224986 158.088984 
L 263.622463 161.777382 
L 266.854142 165.213294 
L 269.935454 168.409074 
L 272.879774 171.377192 
L 275.698764 174.131417 
L 278.402661 176.686249 
L 281.000495 179.05654 
L 283.500274 181.256893 
L 285.909131 183.301329 
L 288.23345 185.203304 
L 290.478963 186.975457 
L 292.650838 188.629556 
L 294.753754 190.176455 
L 296.791954 191.626029 
L 298.769303 192.987303 
L 300.68933 194.268496 
L 302.555264 195.476952 
L 304.37007 196.619246 
L 306.136475 197.701245 
L 307.856995 198.728238 
L 309.533952 199.704908 
L 311.169499 200.635484 
L 312.765631 201.523813 
L 314.324204 202.373399 
L 315.846944 203.187407 
L 317.335462 203.968673 
L 318.791263 204.719688 
L 320.215754 205.442623 
L 321.610254 206.139402 
L 322.975998 206.811711 
L 324.314151 207.461083 
L 325.625803 208.08893 
L 326.911985 208.696559 
L 328.173666 209.285126 
L 329.411764 209.85569 
L 330.627142 210.409235 
L 331.820621 210.946597 
L 332.992975 211.46858 
L 334.144939 211.975939 
L 335.277211 212.469361 
L 336.390452 212.949452 
L 337.485291 213.416797 
L 338.562328 213.87194 
L 339.622131 214.315409 
L 340.665243 214.747695 
L 341.692183 215.169226 
L 342.703444 215.580444 
L 343.699497 215.981717 
L 344.680793 216.373478 
L 345.647763 216.75603 
L 346.600819 217.129692 
L 347.540357 217.49477 
L 348.466753 217.851566 
L 349.380372 218.200336 
L 350.281559 218.541338 
L 351.17065 218.874809 
L 352.047965 219.200813 
L 352.913811 219.519654 
L 353.768484 219.831772 
L 354.61227 220.137132 
L 355.445442 220.436161 
L 356.268263 220.728851 
L 357.080988 221.01558 
L 357.883862 221.296314 
L 358.677121 221.571413 
L 359.460991 221.840842 
L 360.235693 222.104958 
L 361.001439 222.363686 
L 361.758433 222.617425 
L 362.506874 222.86606 
L 363.246952 223.109959 
L 363.978852 223.349037 
L 364.702753 223.583671 
L 365.418827 223.813717 
L 366.127244 224.039535 
L 366.828163 224.261014 
L 367.521743 224.478319 
L 368.208135 224.69157 
L 368.887488 224.900944 
L 369.559943 225.106478 
" style="fill:none;stroke:#8c564b;stroke-linecap:square;stroke-width:1.5;"/>
   </g>
   <g id="line2d_39">
    <path clip-path="url(#pf0fe72b1d6)" d="M -1 45.639167 
L 65.196307 45.639167 
L 111.107796 138.085457 
L 137.964296 184.553965 
L 157.019286 201.748001 
L 171.799484 213.528996 
L 183.875785 223.13534 
L 194.086153 230.289928 
L 202.930775 235.231623 
L 210.732285 237.905961 
L 217.710973 238.889152 
L 224.023965 240.016562 
L 229.787275 240.855628 
L 235.089006 241.342111 
L 239.997642 241.676151 
L 244.567473 241.921457 
L 248.842265 242.101099 
L 252.857814 242.264206 
L 256.643774 242.370972 
L 260.224986 242.484433 
L 263.622463 242.558205 
L 266.854142 242.613862 
L 269.935454 242.667185 
L 272.879774 242.713242 
L 275.698764 242.750539 
L 278.402661 242.781198 
L 281.000495 242.810058 
L 283.500274 242.845068 
L 285.909131 242.875692 
L 288.23345 242.89567 
L 290.478963 242.928566 
L 292.650838 242.957621 
L 294.753754 242.972196 
L 296.791954 242.991312 
L 298.769303 243.008494 
L 300.68933 243.022362 
L 302.555264 243.035532 
L 304.37007 243.048477 
L 306.136475 243.063621 
L 307.856995 243.076936 
L 309.533952 243.085719 
L 311.169499 243.102413 
L 312.765631 243.108754 
L 314.324204 243.114352 
L 315.846944 243.12183 
L 317.335462 243.129431 
L 318.791263 243.13643 
L 320.215754 243.142268 
L 321.610254 243.14809 
L 322.975998 243.155784 
L 324.314151 243.162654 
L 325.625803 243.167569 
L 326.911985 243.172939 
L 328.173666 243.17619 
L 329.411764 243.179959 
L 330.627142 243.184161 
L 331.820621 243.189247 
L 332.992975 243.195687 
L 334.144939 243.200552 
L 335.277211 243.204565 
L 336.390452 243.207611 
L 337.485291 243.210488 
L 338.562328 243.214344 
L 339.622131 243.21693 
L 340.665243 243.219643 
L 341.692183 243.223261 
L 342.703444 243.226356 
L 343.699497 243.231112 
L 344.680793 243.23382 
L 345.647763 243.23664 
L 346.600819 243.234095 
L 347.540357 243.239391 
L 348.466753 243.241915 
L 349.380372 243.246577 
L 350.281559 243.251937 
L 351.17065 243.255309 
L 352.047965 243.260289 
L 352.913811 243.263014 
L 353.768484 243.264983 
L 354.61227 243.266878 
L 355.445442 243.268948 
L 356.268263 243.271108 
L 357.080988 243.273437 
L 357.883862 243.276317 
L 358.677121 243.277958 
L 359.460991 243.280043 
L 360.235693 243.280843 
L 361.001439 243.283278 
L 361.758433 243.285407 
L 362.506874 243.287705 
L 363.246952 243.284883 
L 363.978852 243.29014 
L 364.702753 243.296399 
L 365.418827 243.297681 
L 366.127244 243.30054 
L 366.828163 243.303596 
L 367.521743 243.305693 
L 368.208135 243.307971 
L 368.887488 243.310137 
L 369.559943 243.311864 
" style="fill:none;stroke:#e377c2;stroke-linecap:square;stroke-width:1.5;"/>
   </g>
   <g id="line2d_40">
    <path clip-path="url(#pf0fe72b1d6)" d="M -1 74.439891 
L 65.196307 74.452397 
L 111.107796 96.177545 
L 137.964296 114.840529 
L 157.019286 130.920244 
L 171.799484 144.574575 
L 183.875785 156.06114 
L 194.086153 165.630156 
L 202.930775 173.527591 
L 210.732285 180.022538 
L 217.710973 185.383789 
L 224.023965 189.840144 
L 229.787275 193.578358 
L 235.089006 196.751301 
L 239.997642 199.48297 
L 244.567473 201.869765 
L 248.842265 203.981212 
L 252.857814 205.876475 
L 256.643774 207.593873 
L 260.224986 209.159746 
L 263.622463 210.609258 
L 266.854142 211.940734 
L 269.935454 213.190369 
L 272.879774 214.349516 
L 275.698764 215.450832 
L 278.402661 216.476052 
L 281.000495 217.451094 
L 283.500274 218.367336 
L 285.909131 219.242837 
L 288.23345 220.069177 
L 290.478963 220.861295 
L 292.650838 221.610796 
L 294.753754 222.330909 
L 296.791954 223.012236 
L 298.769303 223.667747 
L 300.68933 224.287606 
L 302.555264 224.887731 
L 304.37007 225.455908 
L 306.136475 226.004663 
L 307.856995 226.525212 
L 309.533952 227.029796 
L 311.169499 227.507942 
L 312.765631 227.973089 
L 314.324204 228.414181 
L 315.846944 228.844437 
L 317.335462 229.25094 
L 318.791263 229.649579 
L 320.215754 230.026293 
L 321.610254 230.396258 
L 322.975998 230.746408 
L 324.314151 231.090619 
L 325.625803 231.416702 
L 326.911985 231.73745 
L 328.173666 232.04158 
L 329.411764 232.341001 
L 330.627142 232.625129 
L 331.820621 232.905048 
L 332.992975 233.170909 
L 334.144939 233.432901 
L 335.277211 233.682011 
L 336.390452 233.927651 
L 337.485291 234.16151 
L 338.562328 234.39209 
L 339.622131 234.611572 
L 340.665243 234.828109 
L 341.692183 235.034342 
L 342.703444 235.238338 
L 343.699497 235.43221 
L 344.680793 235.624093 
L 345.647763 235.806917 
L 346.600819 235.988022 
L 347.540357 236.16075 
L 348.466753 236.331871 
L 349.380372 236.495269 
L 350.281559 236.657089 
L 351.17065 236.811724 
L 352.047965 236.964956 
L 352.913811 237.111528 
L 353.768484 237.256759 
L 354.61227 237.395753 
L 355.445442 237.532852 
L 356.268263 237.66414 
L 357.080988 237.794161 
L 357.883862 237.918803 
L 358.677121 238.042166 
L 359.460991 238.160516 
L 360.235693 238.277554 
L 361.001439 238.389853 
L 361.758433 238.500839 
L 362.506874 238.607315 
L 363.246952 238.712458 
L 363.978852 238.813341 
L 364.702753 238.912929 
L 365.418827 239.00851 
L 366.127244 239.102806 
L 366.828163 239.193341 
L 367.521743 239.282398 
L 368.208135 239.368025 
L 368.887488 239.452377 
L 369.559943 239.533262 
" style="fill:none;stroke:#7f7f7f;stroke-linecap:square;stroke-width:1.5;"/>
   </g>
   <g id="line2d_41">
    <path clip-path="url(#pf0fe72b1d6)" d="M -1 48.261137 
L 65.196307 48.262275 
L 111.107796 50.936846 
L 137.964296 53.664853 
L 157.019286 56.448424 
L 171.799484 59.28979 
L 183.875785 62.191352 
L 194.086153 65.155624 
L 202.930775 68.185297 
L 210.732285 71.283202 
L 217.710973 74.452397 
L 224.023965 77.696103 
L 229.787275 81.017758 
L 235.089006 84.421055 
L 239.997642 87.909922 
L 244.567473 91.48856 
L 248.842265 95.161283 
L 252.857814 98.93029 
L 256.643774 102.7977 
L 260.224986 106.761208 
L 263.622463 110.816219 
L 266.854142 114.959865 
L 269.935454 119.188744 
L 272.879774 123.498286 
L 275.698764 127.882872 
L 278.402661 132.334887 
L 281.000495 136.844297 
L 283.500274 141.398397 
L 285.909131 145.981245 
L 288.23345 150.573096 
L 290.478963 155.149981 
L 292.650838 159.682696 
L 294.753754 164.133968 
L 296.791954 168.462383 
L 298.769303 172.625766 
L 300.68933 176.58288 
L 302.555264 180.305055 
L 304.37007 183.766783 
L 306.136475 186.967816 
L 307.856995 189.932094 
L 309.533952 192.701914 
L 311.169499 195.344241 
L 312.765631 197.90109 
L 314.324204 200.387638 
L 315.846944 202.810135 
L 317.335462 205.169442 
L 318.791263 207.458163 
L 320.215754 209.662945 
L 321.610254 211.777485 
L 322.975998 213.796859 
L 324.314151 215.717255 
L 325.625803 217.530651 
L 326.911985 219.23425 
L 328.173666 220.830624 
L 329.411764 222.328813 
L 330.627142 223.739803 
L 331.820621 225.069372 
L 332.992975 226.319703 
L 334.144939 227.496095 
L 335.277211 228.598278 
L 336.390452 229.632323 
L 337.485291 230.597029 
L 338.562328 231.502247 
L 339.622131 232.353822 
L 340.665243 233.15109 
L 341.692183 233.895702 
L 342.703444 234.598687 
L 343.699497 235.257079 
L 344.680793 235.87457 
L 345.647763 236.452073 
L 346.600819 236.995057 
L 347.540357 237.502886 
L 348.466753 237.980165 
L 349.380372 238.425226 
L 350.281559 238.843575 
L 351.17065 239.235779 
L 352.047965 239.602867 
L 352.913811 239.938105 
L 353.768484 240.251093 
L 354.61227 240.541651 
L 355.445442 240.804371 
L 356.268263 241.042155 
L 357.080988 241.262208 
L 357.883862 241.460803 
L 358.677121 241.638732 
L 359.460991 241.80579 
L 360.235693 241.954343 
L 361.001439 242.092393 
L 361.758433 242.218035 
L 362.506874 242.332734 
L 363.246952 242.436186 
L 363.978852 242.531925 
L 364.702753 242.61619 
L 365.418827 242.694515 
L 366.127244 242.765452 
L 366.828163 242.831347 
L 367.521743 242.890517 
L 368.208135 242.945694 
L 368.887488 242.996199 
L 369.559943 243.043455 
" style="fill:none;stroke:#bcbd22;stroke-linecap:square;stroke-width:1.5;"/>
   </g>
   <g id="line2d_42">
    <path clip-path="url(#pf0fe72b1d6)" d="M -1 102.5383 
L 65.196307 102.544053 
L 111.107796 116.861035 
L 137.964296 132.120389 
L 157.019286 148.023877 
L 171.799484 163.968027 
L 183.875785 178.980167 
L 194.086153 192.010526 
L 202.930775 202.829645 
L 210.732285 212.036257 
L 217.710973 219.879317 
L 224.023965 226.325816 
L 229.787275 231.366252 
L 235.089006 235.150501 
L 239.997642 235.958367 
L 244.567473 236.700485 
L 248.842265 236.87839 
L 252.857814 237.046832 
L 256.643774 237.215924 
L 260.224986 237.375791 
L 263.622463 237.536398 
L 266.854142 237.689325 
L 269.935454 237.843023 
L 272.879774 237.989407 
L 275.698764 238.136374 
L 278.402661 238.276002 
L 281.000495 238.416317 
L 283.500274 238.549777 
L 285.909131 238.683939 
L 288.23345 238.811515 
L 290.478963 238.939667 
L 292.650838 239.061003 
L 294.753754 239.183432 
L 296.791954 239.299318 
L 298.769303 239.416255 
L 300.68933 239.526892 
L 302.555264 239.638534 
L 304.37007 239.744183 
L 306.136475 239.84938 
L 307.856995 239.94729 
L 309.533952 240.04711 
L 311.169499 240.140179 
L 312.765631 240.234547 
L 314.324204 240.322449 
L 315.846944 240.411847 
L 317.335462 240.495433 
L 318.791263 240.58036 
L 320.215754 240.659745 
L 321.610254 240.74006 
L 322.975998 240.814952 
L 324.314151 240.890602 
L 325.625803 240.961475 
L 326.911985 241.03166 
L 328.173666 241.098641 
L 329.411764 241.16477 
L 330.627142 241.226807 
L 331.820621 241.287242 
L 332.992975 241.343875 
L 334.144939 241.400669 
L 335.277211 241.453916 
L 336.390452 241.507421 
L 337.485291 241.557575 
L 338.562328 241.607638 
L 339.622131 241.654731 
L 340.665243 241.70177 
L 341.692183 241.746105 
L 342.703444 241.7902 
L 343.699497 241.830889 
L 344.680793 241.872024 
L 345.647763 241.91017 
L 346.600819 241.948489 
L 347.540357 241.984181 
L 348.466753 242.019908 
L 349.380372 242.052614 
L 350.281559 242.085648 
L 351.17065 242.115831 
L 352.047965 242.146356 
L 352.913811 242.173662 
L 353.768484 242.201687 
L 354.61227 242.227066 
L 355.445442 242.253278 
L 356.268263 242.277034 
L 357.080988 242.301445 
L 357.883862 242.323673 
L 358.677121 242.346562 
L 359.460991 242.367296 
L 360.235693 242.388574 
L 361.001439 242.40789 
L 361.758433 242.427901 
L 362.506874 242.445905 
L 363.246952 242.464651 
L 363.978852 242.480745 
L 364.702753 242.498287 
L 365.418827 242.513473 
L 366.127244 242.529998 
L 366.828163 242.544349 
L 367.521743 242.559991 
L 368.208135 242.573551 
L 368.887488 242.588393 
L 369.559943 242.601205 
" style="fill:none;stroke:#17becf;stroke-dasharray:5.55,2.4;stroke-dashoffset:0;stroke-width:1.5;"/>
   </g>
   <g id="line2d_43">
    <path clip-path="url(#pf0fe72b1d6)" d="M -1 200.410262 
L 65.196307 200.425244 
L 111.107796 214.881804 
L 137.964296 222.260111 
L 157.019286 229.895827 
L 171.799484 233.397833 
L 183.875785 235.515457 
L 194.086153 236.92969 
L 202.930775 237.816771 
L 210.732285 238.443102 
L 217.710973 239.723917 
L 224.023965 240.20771 
L 229.787275 240.814289 
L 235.089006 241.09072 
L 239.997642 241.228548 
L 244.567473 241.383068 
L 248.842265 241.534508 
L 252.857814 241.645442 
L 256.643774 241.725904 
L 260.224986 241.815713 
L 263.622463 241.871899 
L 266.854142 241.902966 
L 269.935454 241.931615 
L 272.879774 241.977369 
L 275.698764 242.004631 
L 278.402661 242.046975 
L 281.000495 242.071843 
L 283.500274 242.110515 
L 285.909131 242.13819 
L 288.23345 242.156356 
L 290.478963 242.16847 
L 292.650838 242.174401 
L 294.753754 242.183384 
L 296.791954 242.189243 
L 298.769303 242.197905 
L 300.68933 242.203531 
L 302.555264 242.211939 
L 304.37007 242.218322 
L 306.136475 242.223606 
L 307.856995 242.226435 
L 309.533952 242.237129 
L 311.169499 242.239965 
L 312.765631 242.250385 
L 314.324204 242.253236 
L 315.846944 242.263429 
L 317.335462 242.266271 
L 318.791263 242.276168 
L 320.215754 242.279005 
L 321.610254 242.288696 
L 322.975998 242.293954 
L 324.314151 242.297251 
L 325.625803 242.298811 
L 326.911985 242.300251 
L 328.173666 242.300543 
L 329.411764 242.303334 
L 330.627142 242.304075 
L 331.820621 242.305134 
L 332.992975 242.307137 
L 334.144939 242.308186 
L 335.277211 242.310184 
L 336.390452 242.311238 
L 337.485291 242.313216 
L 338.562328 242.314265 
L 339.622131 242.316237 
L 340.665243 242.317276 
L 341.692183 242.319227 
L 342.703444 242.320281 
L 343.699497 242.322228 
L 344.680793 242.323266 
L 345.647763 242.325203 
L 346.600819 242.326246 
L 347.540357 242.328183 
L 348.466753 242.329206 
L 349.380372 242.331132 
L 350.281559 242.332165 
L 351.17065 242.33407 
L 352.047965 242.335098 
L 352.913811 242.337009 
L 353.768484 242.338021 
L 354.61227 242.339921 
L 355.445442 242.34095 
L 356.268263 242.342824 
L 357.080988 242.343826 
L 357.883862 242.3457 
L 358.677121 242.346697 
L 359.460991 242.348561 
L 360.235693 242.349558 
L 361.001439 242.351407 
L 361.758433 242.352409 
L 362.506874 242.354262 
L 363.246952 242.355239 
L 363.978852 242.357087 
L 364.702753 242.3588 
L 365.418827 242.359254 
L 366.127244 242.359489 
L 366.828163 242.359938 
L 367.521743 242.360147 
L 368.208135 242.360607 
L 368.887488 242.360821 
L 369.559943 242.36127 
" style="fill:none;stroke:#1f77b4;stroke-dasharray:5.55,2.4;stroke-dashoffset:0;stroke-width:1.5;"/>
   </g>
   <g id="line2d_44">
    <path clip-path="url(#pf0fe72b1d6)" d="M -1 199.006848 
L 65.196307 199.021223 
L 111.107796 229.938294 
L 137.964296 238.354868 
L 157.019286 240.713244 
L 171.799484 241.301009 
L 183.875785 241.783698 
L 194.086153 242.034783 
L 202.930775 242.149703 
L 210.732285 242.165753 
" style="fill:none;stroke:#ff7f0e;stroke-dasharray:5.55,2.4;stroke-dashoffset:0;stroke-width:1.5;"/>
   </g>
   <g id="line2d_45">
    <path clip-path="url(#pf0fe72b1d6)" d="M -1 45.639136 
L 65.196307 45.639136 
L 111.107796 45.639136 
L 137.964296 45.639136 
L 157.019286 45.639136 
L 171.799484 45.639136 
L 183.875785 45.639136 
L 194.086153 45.639136 
L 202.930775 45.639136 
L 210.732285 45.639136 
L 217.710973 45.639136 
L 224.023965 45.639136 
L 229.787275 45.639136 
L 235.089006 45.639136 
L 239.997642 45.639136 
L 244.567473 45.639136 
L 248.842265 45.639136 
L 252.857814 45.639136 
L 256.643774 45.639136 
L 260.224986 45.639136 
L 263.622463 45.639136 
L 266.854142 45.639136 
L 269.935454 45.639136 
L 272.879774 45.639136 
L 275.698764 45.639136 
L 278.402661 45.639136 
L 281.000495 45.639136 
L 283.500274 45.639136 
L 285.909131 45.639136 
L 288.23345 45.639136 
L 290.478963 45.639136 
L 292.650838 45.639136 
L 294.753754 45.639136 
L 296.791954 45.639136 
L 298.769303 45.639136 
L 300.68933 45.639136 
L 302.555264 45.639136 
L 304.37007 45.639136 
L 306.136475 45.639136 
L 307.856995 45.639136 
L 309.533952 45.639136 
L 311.169499 45.639136 
L 312.765631 45.639136 
L 314.324204 45.639136 
L 315.846944 45.639136 
L 317.335462 45.639136 
L 318.791263 45.639136 
L 320.215754 45.639136 
L 321.610254 45.639136 
L 322.975998 45.639136 
L 324.314151 45.639136 
L 325.625803 45.639136 
L 326.911985 45.639136 
L 328.173666 45.639136 
L 329.411764 45.639136 
L 330.627142 45.639136 
L 331.820621 45.639136 
L 332.992975 45.639136 
L 334.144939 45.639136 
L 335.277211 45.639136 
L 336.390452 45.639136 
L 337.485291 45.639136 
L 338.562328 45.639136 
L 339.622131 45.639136 
L 340.665243 45.639136 
L 341.692183 45.639136 
L 342.703444 45.639136 
L 343.699497 45.639136 
L 344.680793 45.639136 
L 345.647763 45.639136 
L 346.600819 45.639136 
L 347.540357 45.639136 
L 348.466753 45.639136 
L 349.380372 45.639136 
L 350.281559 45.639136 
L 351.17065 45.639136 
L 352.047965 45.639136 
L 352.913811 45.639136 
L 353.768484 45.639136 
L 354.61227 45.639136 
L 355.445442 45.639136 
L 356.268263 45.639136 
L 357.080988 45.639136 
L 357.883862 45.639136 
L 358.677121 45.639136 
L 359.460991 45.639136 
L 360.235693 45.639136 
L 361.001439 45.639136 
L 361.758433 45.639136 
L 362.506874 45.639136 
L 363.246952 45.639136 
L 363.978852 45.639136 
L 364.702753 45.639136 
L 365.418827 45.639136 
L 366.127244 45.639136 
L 366.828163 45.639136 
L 367.521743 45.639136 
L 368.208135 45.639136 
L 368.887488 45.639136 
L 369.559943 45.639136 
" style="fill:none;stroke:#2ca02c;stroke-dasharray:5.55,2.4;stroke-dashoffset:0;stroke-width:1.5;"/>
   </g>
   <g id="patch_3">
    <path d="M 49.978125 253.1955 
L 49.978125 35.7555 
" style="fill:none;stroke:#000000;stroke-linecap:square;stroke-linejoin:miter;stroke-width:0.8;"/>
   </g>
   <g id="patch_4">
    <path d="M 384.778125 253.1955 
L 384.778125 35.7555 
" style="fill:none;stroke:#000000;stroke-linecap:square;stroke-linejoin:miter;stroke-width:0.8;"/>
   </g>
   <g id="patch_5">
    <path d="M 49.978125 253.1955 
L 384.778125 253.1955 
" style="fill:none;stroke:#000000;stroke-linecap:square;stroke-linejoin:miter;stroke-width:0.8;"/>
   </g>
   <g id="patch_6">
    <path d="M 49.978125 35.7555 
L 384.778125 35.7555 
" style="fill:none;stroke:#000000;stroke-linecap:square;stroke-linejoin:miter;stroke-width:0.8;"/>
   </g>
   <g id="text_7">
    <!-- ICM - Prostate -->
    <g transform="translate(175.54875 16.318125)scale(0.12 -0.12)">
     <defs>
      <path d="M 9.8125 72.90625 
L 19.671875 72.90625 
L 19.671875 0 
L 9.8125 0 
z
" id="DejaVuSans-73"/>
      <path d="M 64.40625 67.28125 
L 64.40625 56.890625 
Q 59.421875 61.53125 53.78125 63.8125 
Q 48.140625 66.109375 41.796875 66.109375 
Q 29.296875 66.109375 22.65625 58.46875 
Q 16.015625 50.828125 16.015625 36.375 
Q 16.015625 21.96875 22.65625 14.328125 
Q 29.296875 6.6875 41.796875 6.6875 
Q 48.140625 6.6875 53.78125 8.984375 
Q 59.421875 11.28125 64.40625 15.921875 
L 64.40625 5.609375 
Q 59.234375 2.09375 53.4375 0.328125 
Q 47.65625 -1.421875 41.21875 -1.421875 
Q 24.65625 -1.421875 15.125 8.703125 
Q 5.609375 18.84375 5.609375 36.375 
Q 5.609375 53.953125 15.125 64.078125 
Q 24.65625 74.21875 41.21875 74.21875 
Q 47.75 74.21875 53.53125 72.484375 
Q 59.328125 70.75 64.40625 67.28125 
z
" id="DejaVuSans-67"/>
      <path d="M 9.8125 72.90625 
L 24.515625 72.90625 
L 43.109375 23.296875 
L 61.8125 72.90625 
L 76.515625 72.90625 
L 76.515625 0 
L 66.890625 0 
L 66.890625 64.015625 
L 48.09375 14.015625 
L 38.1875 14.015625 
L 19.390625 64.015625 
L 19.390625 0 
L 9.8125 0 
z
" id="DejaVuSans-77"/>
      <path id="DejaVuSans-32"/>
      <path d="M 4.890625 31.390625 
L 31.203125 31.390625 
L 31.203125 23.390625 
L 4.890625 23.390625 
z
" id="DejaVuSans-45"/>
      <path d="M 19.671875 64.796875 
L 19.671875 37.40625 
L 32.078125 37.40625 
Q 38.96875 37.40625 42.71875 40.96875 
Q 46.484375 44.53125 46.484375 51.125 
Q 46.484375 57.671875 42.71875 61.234375 
Q 38.96875 64.796875 32.078125 64.796875 
z
M 9.8125 72.90625 
L 32.078125 72.90625 
Q 44.34375 72.90625 50.609375 67.359375 
Q 56.890625 61.8125 56.890625 51.125 
Q 56.890625 40.328125 50.609375 34.8125 
Q 44.34375 29.296875 32.078125 29.296875 
L 19.671875 29.296875 
L 19.671875 0 
L 9.8125 0 
z
" id="DejaVuSans-80"/>
     </defs>
     <use xlink:href="#DejaVuSans-73"/>
     <use x="29.492188" xlink:href="#DejaVuSans-67"/>
     <use x="99.316406" xlink:href="#DejaVuSans-77"/>
     <use x="185.595703" xlink:href="#DejaVuSans-32"/>
     <use x="217.382812" xlink:href="#DejaVuSans-45"/>
     <use x="253.466797" xlink:href="#DejaVuSans-32"/>
     <use x="285.253906" xlink:href="#DejaVuSans-80"/>
     <use x="343.806641" xlink:href="#DejaVuSans-114"/>
     <use x="382.669922" xlink:href="#DejaVuSans-111"/>
     <use x="443.851562" xlink:href="#DejaVuSans-115"/>
     <use x="495.951172" xlink:href="#DejaVuSans-116"/>
     <use x="535.160156" xlink:href="#DejaVuSans-97"/>
     <use x="596.439453" xlink:href="#DejaVuSans-116"/>
     <use x="635.648438" xlink:href="#DejaVuSans-101"/>
    </g>
    <!-- cost evolution -->
    <g transform="translate(175.146562 29.7555)scale(0.12 -0.12)">
     <defs>
      <path d="M 2.984375 54.6875 
L 12.5 54.6875 
L 29.59375 8.796875 
L 46.6875 54.6875 
L 56.203125 54.6875 
L 35.6875 0 
L 23.484375 0 
z
" id="DejaVuSans-118"/>
      <path d="M 9.421875 75.984375 
L 18.40625 75.984375 
L 18.40625 0 
L 9.421875 0 
z
" id="DejaVuSans-108"/>
      <path d="M 8.5 21.578125 
L 8.5 54.6875 
L 17.484375 54.6875 
L 17.484375 21.921875 
Q 17.484375 14.15625 20.5 10.265625 
Q 23.53125 6.390625 29.59375 6.390625 
Q 36.859375 6.390625 41.078125 11.03125 
Q 45.3125 15.671875 45.3125 23.6875 
L 45.3125 54.6875 
L 54.296875 54.6875 
L 54.296875 0 
L 45.3125 0 
L 45.3125 8.40625 
Q 42.046875 3.421875 37.71875 1 
Q 33.40625 -1.421875 27.6875 -1.421875 
Q 18.265625 -1.421875 13.375 4.4375 
Q 8.5 10.296875 8.5 21.578125 
z
M 31.109375 56 
z
" id="DejaVuSans-117"/>
     </defs>
     <use xlink:href="#DejaVuSans-99"/>
     <use x="54.980469" xlink:href="#DejaVuSans-111"/>
     <use x="116.162109" xlink:href="#DejaVuSans-115"/>
     <use x="168.261719" xlink:href="#DejaVuSans-116"/>
     <use x="207.470703" xlink:href="#DejaVuSans-32"/>
     <use x="239.257812" xlink:href="#DejaVuSans-101"/>
     <use x="300.78125" xlink:href="#DejaVuSans-118"/>
     <use x="359.960938" xlink:href="#DejaVuSans-111"/>
     <use x="421.142578" xlink:href="#DejaVuSans-108"/>
     <use x="448.925781" xlink:href="#DejaVuSans-117"/>
     <use x="512.304688" xlink:href="#DejaVuSans-116"/>
     <use x="551.513672" xlink:href="#DejaVuSans-105"/>
     <use x="579.296875" xlink:href="#DejaVuSans-111"/>
     <use x="640.478516" xlink:href="#DejaVuSans-110"/>
    </g>
   </g>
   <g id="legend_1">
    <g id="patch_7">
     <path d="M 395.126125 234.571125 
L 483.65425 234.571125 
Q 485.65425 234.571125 485.65425 232.571125 
L 485.65425 42.7555 
Q 485.65425 40.7555 483.65425 40.7555 
L 395.126125 40.7555 
Q 393.126125 40.7555 393.126125 42.7555 
L 393.126125 232.571125 
Q 393.126125 234.571125 395.126125 234.571125 
z
" style="fill:#ffffff;opacity:0.8;stroke:#cccccc;stroke-linejoin:miter;"/>
    </g>
    <g id="line2d_46">
     <path d="M 397.126125 48.853937 
L 417.126125 48.853937 
" style="fill:none;stroke:#1f77b4;stroke-linecap:square;stroke-width:1.5;"/>
    </g>
    <g id="line2d_47"/>
    <g id="text_8">
     <!-- NAdam -->
     <g transform="translate(425.126125 52.353937)scale(0.1 -0.1)">
      <defs>
       <path d="M 9.8125 72.90625 
L 23.09375 72.90625 
L 55.421875 11.921875 
L 55.421875 72.90625 
L 64.984375 72.90625 
L 64.984375 0 
L 51.703125 0 
L 19.390625 60.984375 
L 19.390625 0 
L 9.8125 0 
z
" id="DejaVuSans-78"/>
       <path d="M 34.1875 63.1875 
L 20.796875 26.90625 
L 47.609375 26.90625 
z
M 28.609375 72.90625 
L 39.796875 72.90625 
L 67.578125 0 
L 57.328125 0 
L 50.6875 18.703125 
L 17.828125 18.703125 
L 11.1875 0 
L 0.78125 0 
z
" id="DejaVuSans-65"/>
       <path d="M 45.40625 46.390625 
L 45.40625 75.984375 
L 54.390625 75.984375 
L 54.390625 0 
L 45.40625 0 
L 45.40625 8.203125 
Q 42.578125 3.328125 38.25 0.953125 
Q 33.9375 -1.421875 27.875 -1.421875 
Q 17.96875 -1.421875 11.734375 6.484375 
Q 5.515625 14.40625 5.515625 27.296875 
Q 5.515625 40.1875 11.734375 48.09375 
Q 17.96875 56 27.875 56 
Q 33.9375 56 38.25 53.625 
Q 42.578125 51.265625 45.40625 46.390625 
z
M 14.796875 27.296875 
Q 14.796875 17.390625 18.875 11.75 
Q 22.953125 6.109375 30.078125 6.109375 
Q 37.203125 6.109375 41.296875 11.75 
Q 45.40625 17.390625 45.40625 27.296875 
Q 45.40625 37.203125 41.296875 42.84375 
Q 37.203125 48.484375 30.078125 48.484375 
Q 22.953125 48.484375 18.875 42.84375 
Q 14.796875 37.203125 14.796875 27.296875 
z
" id="DejaVuSans-100"/>
       <path d="M 52 44.1875 
Q 55.375 50.25 60.0625 53.125 
Q 64.75 56 71.09375 56 
Q 79.640625 56 84.28125 50.015625 
Q 88.921875 44.046875 88.921875 33.015625 
L 88.921875 0 
L 79.890625 0 
L 79.890625 32.71875 
Q 79.890625 40.578125 77.09375 44.375 
Q 74.3125 48.1875 68.609375 48.1875 
Q 61.625 48.1875 57.5625 43.546875 
Q 53.515625 38.921875 53.515625 30.90625 
L 53.515625 0 
L 44.484375 0 
L 44.484375 32.71875 
Q 44.484375 40.625 41.703125 44.40625 
Q 38.921875 48.1875 33.109375 48.1875 
Q 26.21875 48.1875 22.15625 43.53125 
Q 18.109375 38.875 18.109375 30.90625 
L 18.109375 0 
L 9.078125 0 
L 9.078125 54.6875 
L 18.109375 54.6875 
L 18.109375 46.1875 
Q 21.1875 51.21875 25.484375 53.609375 
Q 29.78125 56 35.6875 56 
Q 41.65625 56 45.828125 52.96875 
Q 50 49.953125 52 44.1875 
z
" id="DejaVuSans-109"/>
      </defs>
      <use xlink:href="#DejaVuSans-78"/>
      <use x="74.804688" xlink:href="#DejaVuSans-65"/>
      <use x="141.462891" xlink:href="#DejaVuSans-100"/>
      <use x="204.939453" xlink:href="#DejaVuSans-97"/>
      <use x="266.21875" xlink:href="#DejaVuSans-109"/>
     </g>
    </g>
    <g id="line2d_48">
     <path d="M 397.126125 63.532062 
L 417.126125 63.532062 
" style="fill:none;stroke:#ff7f0e;stroke-linecap:square;stroke-width:1.5;"/>
    </g>
    <g id="line2d_49"/>
    <g id="text_9">
     <!-- RAdam -->
     <g transform="translate(425.126125 67.032062)scale(0.1 -0.1)">
      <defs>
       <path d="M 44.390625 34.1875 
Q 47.5625 33.109375 50.5625 29.59375 
Q 53.5625 26.078125 56.59375 19.921875 
L 66.609375 0 
L 56 0 
L 46.6875 18.703125 
Q 43.0625 26.03125 39.671875 28.421875 
Q 36.28125 30.8125 30.421875 30.8125 
L 19.671875 30.8125 
L 19.671875 0 
L 9.8125 0 
L 9.8125 72.90625 
L 32.078125 72.90625 
Q 44.578125 72.90625 50.734375 67.671875 
Q 56.890625 62.453125 56.890625 51.90625 
Q 56.890625 45.015625 53.6875 40.46875 
Q 50.484375 35.9375 44.390625 34.1875 
z
M 19.671875 64.796875 
L 19.671875 38.921875 
L 32.078125 38.921875 
Q 39.203125 38.921875 42.84375 42.21875 
Q 46.484375 45.515625 46.484375 51.90625 
Q 46.484375 58.296875 42.84375 61.546875 
Q 39.203125 64.796875 32.078125 64.796875 
z
" id="DejaVuSans-82"/>
      </defs>
      <use xlink:href="#DejaVuSans-82"/>
      <use x="65.482422" xlink:href="#DejaVuSans-65"/>
      <use x="132.140625" xlink:href="#DejaVuSans-100"/>
      <use x="195.617188" xlink:href="#DejaVuSans-97"/>
      <use x="256.896484" xlink:href="#DejaVuSans-109"/>
     </g>
    </g>
    <g id="line2d_50">
     <path d="M 397.126125 78.210187 
L 417.126125 78.210187 
" style="fill:none;stroke:#2ca02c;stroke-linecap:square;stroke-width:1.5;"/>
    </g>
    <g id="line2d_51"/>
    <g id="text_10">
     <!-- Adam -->
     <g transform="translate(425.126125 81.710187)scale(0.1 -0.1)">
      <use xlink:href="#DejaVuSans-65"/>
      <use x="66.658203" xlink:href="#DejaVuSans-100"/>
      <use x="130.134766" xlink:href="#DejaVuSans-97"/>
      <use x="191.414062" xlink:href="#DejaVuSans-109"/>
     </g>
    </g>
    <g id="line2d_52">
     <path d="M 397.126125 92.888312 
L 417.126125 92.888312 
" style="fill:none;stroke:#d62728;stroke-linecap:square;stroke-width:1.5;"/>
    </g>
    <g id="line2d_53"/>
    <g id="text_11">
     <!-- Adadelta -->
     <g transform="translate(425.126125 96.388312)scale(0.1 -0.1)">
      <use xlink:href="#DejaVuSans-65"/>
      <use x="66.658203" xlink:href="#DejaVuSans-100"/>
      <use x="130.134766" xlink:href="#DejaVuSans-97"/>
      <use x="191.414062" xlink:href="#DejaVuSans-100"/>
      <use x="254.890625" xlink:href="#DejaVuSans-101"/>
      <use x="316.414062" xlink:href="#DejaVuSans-108"/>
      <use x="344.197266" xlink:href="#DejaVuSans-116"/>
      <use x="383.40625" xlink:href="#DejaVuSans-97"/>
     </g>
    </g>
    <g id="line2d_54">
     <path d="M 397.126125 107.566437 
L 417.126125 107.566437 
" style="fill:none;stroke:#9467bd;stroke-linecap:square;stroke-width:1.5;"/>
    </g>
    <g id="line2d_55"/>
    <g id="text_12">
     <!-- Adamax -->
     <g transform="translate(425.126125 111.066437)scale(0.1 -0.1)">
      <defs>
       <path d="M 54.890625 54.6875 
L 35.109375 28.078125 
L 55.90625 0 
L 45.3125 0 
L 29.390625 21.484375 
L 13.484375 0 
L 2.875 0 
L 24.125 28.609375 
L 4.6875 54.6875 
L 15.28125 54.6875 
L 29.78125 35.203125 
L 44.28125 54.6875 
z
" id="DejaVuSans-120"/>
      </defs>
      <use xlink:href="#DejaVuSans-65"/>
      <use x="66.658203" xlink:href="#DejaVuSans-100"/>
      <use x="130.134766" xlink:href="#DejaVuSans-97"/>
      <use x="191.414062" xlink:href="#DejaVuSans-109"/>
      <use x="288.826172" xlink:href="#DejaVuSans-97"/>
      <use x="350.105469" xlink:href="#DejaVuSans-120"/>
     </g>
    </g>
    <g id="line2d_56">
     <path d="M 397.126125 122.244562 
L 417.126125 122.244562 
" style="fill:none;stroke:#8c564b;stroke-linecap:square;stroke-width:1.5;"/>
    </g>
    <g id="line2d_57"/>
    <g id="text_13">
     <!-- SGD -->
     <g transform="translate(425.126125 125.744562)scale(0.1 -0.1)">
      <defs>
       <path d="M 53.515625 70.515625 
L 53.515625 60.890625 
Q 47.90625 63.578125 42.921875 64.890625 
Q 37.9375 66.21875 33.296875 66.21875 
Q 25.25 66.21875 20.875 63.09375 
Q 16.5 59.96875 16.5 54.203125 
Q 16.5 49.359375 19.40625 46.890625 
Q 22.3125 44.4375 30.421875 42.921875 
L 36.375 41.703125 
Q 47.40625 39.59375 52.65625 34.296875 
Q 57.90625 29 57.90625 20.125 
Q 57.90625 9.515625 50.796875 4.046875 
Q 43.703125 -1.421875 29.984375 -1.421875 
Q 24.8125 -1.421875 18.96875 -0.25 
Q 13.140625 0.921875 6.890625 3.21875 
L 6.890625 13.375 
Q 12.890625 10.015625 18.65625 8.296875 
Q 24.421875 6.59375 29.984375 6.59375 
Q 38.421875 6.59375 43.015625 9.90625 
Q 47.609375 13.234375 47.609375 19.390625 
Q 47.609375 24.75 44.3125 27.78125 
Q 41.015625 30.8125 33.5 32.328125 
L 27.484375 33.5 
Q 16.453125 35.6875 11.515625 40.375 
Q 6.59375 45.0625 6.59375 53.421875 
Q 6.59375 63.09375 13.40625 68.65625 
Q 20.21875 74.21875 32.171875 74.21875 
Q 37.3125 74.21875 42.625 73.28125 
Q 47.953125 72.359375 53.515625 70.515625 
z
" id="DejaVuSans-83"/>
       <path d="M 59.515625 10.40625 
L 59.515625 29.984375 
L 43.40625 29.984375 
L 43.40625 38.09375 
L 69.28125 38.09375 
L 69.28125 6.78125 
Q 63.578125 2.734375 56.6875 0.65625 
Q 49.8125 -1.421875 42 -1.421875 
Q 24.90625 -1.421875 15.25 8.5625 
Q 5.609375 18.5625 5.609375 36.375 
Q 5.609375 54.25 15.25 64.234375 
Q 24.90625 74.21875 42 74.21875 
Q 49.125 74.21875 55.546875 72.453125 
Q 61.96875 70.703125 67.390625 67.28125 
L 67.390625 56.78125 
Q 61.921875 61.421875 55.765625 63.765625 
Q 49.609375 66.109375 42.828125 66.109375 
Q 29.4375 66.109375 22.71875 58.640625 
Q 16.015625 51.171875 16.015625 36.375 
Q 16.015625 21.625 22.71875 14.15625 
Q 29.4375 6.6875 42.828125 6.6875 
Q 48.046875 6.6875 52.140625 7.59375 
Q 56.25 8.5 59.515625 10.40625 
z
" id="DejaVuSans-71"/>
       <path d="M 19.671875 64.796875 
L 19.671875 8.109375 
L 31.59375 8.109375 
Q 46.6875 8.109375 53.6875 14.9375 
Q 60.6875 21.78125 60.6875 36.53125 
Q 60.6875 51.171875 53.6875 57.984375 
Q 46.6875 64.796875 31.59375 64.796875 
z
M 9.8125 72.90625 
L 30.078125 72.90625 
Q 51.265625 72.90625 61.171875 64.09375 
Q 71.09375 55.28125 71.09375 36.53125 
Q 71.09375 17.671875 61.125 8.828125 
Q 51.171875 0 30.078125 0 
L 9.8125 0 
z
" id="DejaVuSans-68"/>
      </defs>
      <use xlink:href="#DejaVuSans-83"/>
      <use x="63.476562" xlink:href="#DejaVuSans-71"/>
      <use x="140.966797" xlink:href="#DejaVuSans-68"/>
     </g>
    </g>
    <g id="line2d_58">
     <path d="M 397.126125 136.922687 
L 417.126125 136.922687 
" style="fill:none;stroke:#e377c2;stroke-linecap:square;stroke-width:1.5;"/>
    </g>
    <g id="line2d_59"/>
    <g id="text_14">
     <!-- LBFGS -->
     <g transform="translate(425.126125 140.422687)scale(0.1 -0.1)">
      <defs>
       <path d="M 9.8125 72.90625 
L 19.671875 72.90625 
L 19.671875 8.296875 
L 55.171875 8.296875 
L 55.171875 0 
L 9.8125 0 
z
" id="DejaVuSans-76"/>
       <path d="M 19.671875 34.8125 
L 19.671875 8.109375 
L 35.5 8.109375 
Q 43.453125 8.109375 47.28125 11.40625 
Q 51.125 14.703125 51.125 21.484375 
Q 51.125 28.328125 47.28125 31.5625 
Q 43.453125 34.8125 35.5 34.8125 
z
M 19.671875 64.796875 
L 19.671875 42.828125 
L 34.28125 42.828125 
Q 41.5 42.828125 45.03125 45.53125 
Q 48.578125 48.25 48.578125 53.8125 
Q 48.578125 59.328125 45.03125 62.0625 
Q 41.5 64.796875 34.28125 64.796875 
z
M 9.8125 72.90625 
L 35.015625 72.90625 
Q 46.296875 72.90625 52.390625 68.21875 
Q 58.5 63.53125 58.5 54.890625 
Q 58.5 48.1875 55.375 44.234375 
Q 52.25 40.28125 46.1875 39.3125 
Q 53.46875 37.75 57.5 32.78125 
Q 61.53125 27.828125 61.53125 20.40625 
Q 61.53125 10.640625 54.890625 5.3125 
Q 48.25 0 35.984375 0 
L 9.8125 0 
z
" id="DejaVuSans-66"/>
       <path d="M 9.8125 72.90625 
L 51.703125 72.90625 
L 51.703125 64.59375 
L 19.671875 64.59375 
L 19.671875 43.109375 
L 48.578125 43.109375 
L 48.578125 34.8125 
L 19.671875 34.8125 
L 19.671875 0 
L 9.8125 0 
z
" id="DejaVuSans-70"/>
      </defs>
      <use xlink:href="#DejaVuSans-76"/>
      <use x="55.712891" xlink:href="#DejaVuSans-66"/>
      <use x="124.316406" xlink:href="#DejaVuSans-70"/>
      <use x="181.835938" xlink:href="#DejaVuSans-71"/>
      <use x="259.326172" xlink:href="#DejaVuSans-83"/>
     </g>
    </g>
    <g id="line2d_60">
     <path d="M 397.126125 151.600812 
L 417.126125 151.600812 
" style="fill:none;stroke:#7f7f7f;stroke-linecap:square;stroke-width:1.5;"/>
    </g>
    <g id="line2d_61"/>
    <g id="text_15">
     <!-- RMSprop -->
     <g transform="translate(425.126125 155.100812)scale(0.1 -0.1)">
      <defs>
       <path d="M 18.109375 8.203125 
L 18.109375 -20.796875 
L 9.078125 -20.796875 
L 9.078125 54.6875 
L 18.109375 54.6875 
L 18.109375 46.390625 
Q 20.953125 51.265625 25.265625 53.625 
Q 29.59375 56 35.59375 56 
Q 45.5625 56 51.78125 48.09375 
Q 58.015625 40.1875 58.015625 27.296875 
Q 58.015625 14.40625 51.78125 6.484375 
Q 45.5625 -1.421875 35.59375 -1.421875 
Q 29.59375 -1.421875 25.265625 0.953125 
Q 20.953125 3.328125 18.109375 8.203125 
z
M 48.6875 27.296875 
Q 48.6875 37.203125 44.609375 42.84375 
Q 40.53125 48.484375 33.40625 48.484375 
Q 26.265625 48.484375 22.1875 42.84375 
Q 18.109375 37.203125 18.109375 27.296875 
Q 18.109375 17.390625 22.1875 11.75 
Q 26.265625 6.109375 33.40625 6.109375 
Q 40.53125 6.109375 44.609375 11.75 
Q 48.6875 17.390625 48.6875 27.296875 
z
" id="DejaVuSans-112"/>
      </defs>
      <use xlink:href="#DejaVuSans-82"/>
      <use x="69.482422" xlink:href="#DejaVuSans-77"/>
      <use x="155.761719" xlink:href="#DejaVuSans-83"/>
      <use x="219.238281" xlink:href="#DejaVuSans-112"/>
      <use x="282.714844" xlink:href="#DejaVuSans-114"/>
      <use x="321.578125" xlink:href="#DejaVuSans-111"/>
      <use x="382.759766" xlink:href="#DejaVuSans-112"/>
     </g>
    </g>
    <g id="line2d_62">
     <path d="M 397.126125 166.278937 
L 417.126125 166.278937 
" style="fill:none;stroke:#bcbd22;stroke-linecap:square;stroke-width:1.5;"/>
    </g>
    <g id="line2d_63"/>
    <g id="text_16">
     <!-- Rprop -->
     <g transform="translate(425.126125 169.778937)scale(0.1 -0.1)">
      <use xlink:href="#DejaVuSans-82"/>
      <use x="69.482422" xlink:href="#DejaVuSans-112"/>
      <use x="132.958984" xlink:href="#DejaVuSans-114"/>
      <use x="171.822266" xlink:href="#DejaVuSans-111"/>
      <use x="233.003906" xlink:href="#DejaVuSans-112"/>
     </g>
    </g>
    <g id="line2d_64">
     <path d="M 397.126125 180.957062 
L 417.126125 180.957062 
" style="fill:none;stroke:#17becf;stroke-dasharray:5.55,2.4;stroke-dashoffset:0;stroke-width:1.5;"/>
    </g>
    <g id="line2d_65"/>
    <g id="text_17">
     <!-- BFGS -->
     <g transform="translate(425.126125 184.457062)scale(0.1 -0.1)">
      <use xlink:href="#DejaVuSans-66"/>
      <use x="68.603516" xlink:href="#DejaVuSans-70"/>
      <use x="126.123047" xlink:href="#DejaVuSans-71"/>
      <use x="203.613281" xlink:href="#DejaVuSans-83"/>
     </g>
    </g>
    <g id="line2d_66">
     <path d="M 397.126125 195.635187 
L 417.126125 195.635187 
" style="fill:none;stroke:#1f77b4;stroke-dasharray:5.55,2.4;stroke-dashoffset:0;stroke-width:1.5;"/>
    </g>
    <g id="line2d_67"/>
    <g id="text_18">
     <!-- CG -->
     <g transform="translate(425.126125 199.135187)scale(0.1 -0.1)">
      <use xlink:href="#DejaVuSans-67"/>
      <use x="69.824219" xlink:href="#DejaVuSans-71"/>
     </g>
    </g>
    <g id="line2d_68">
     <path d="M 397.126125 210.313312 
L 417.126125 210.313312 
" style="fill:none;stroke:#ff7f0e;stroke-dasharray:5.55,2.4;stroke-dashoffset:0;stroke-width:1.5;"/>
    </g>
    <g id="line2d_69"/>
    <g id="text_19">
     <!-- Newton-CG -->
     <g transform="translate(425.126125 213.813312)scale(0.1 -0.1)">
      <defs>
       <path d="M 4.203125 54.6875 
L 13.1875 54.6875 
L 24.421875 12.015625 
L 35.59375 54.6875 
L 46.1875 54.6875 
L 57.421875 12.015625 
L 68.609375 54.6875 
L 77.59375 54.6875 
L 63.28125 0 
L 52.6875 0 
L 40.921875 44.828125 
L 29.109375 0 
L 18.5 0 
z
" id="DejaVuSans-119"/>
      </defs>
      <use xlink:href="#DejaVuSans-78"/>
      <use x="74.804688" xlink:href="#DejaVuSans-101"/>
      <use x="136.328125" xlink:href="#DejaVuSans-119"/>
      <use x="218.115234" xlink:href="#DejaVuSans-116"/>
      <use x="257.324219" xlink:href="#DejaVuSans-111"/>
      <use x="318.505859" xlink:href="#DejaVuSans-110"/>
      <use x="381.884766" xlink:href="#DejaVuSans-45"/>
      <use x="417.96875" xlink:href="#DejaVuSans-67"/>
      <use x="487.792969" xlink:href="#DejaVuSans-71"/>
     </g>
    </g>
    <g id="line2d_70">
     <path d="M 397.126125 224.991437 
L 417.126125 224.991437 
" style="fill:none;stroke:#2ca02c;stroke-dasharray:5.55,2.4;stroke-dashoffset:0;stroke-width:1.5;"/>
    </g>
    <g id="line2d_71"/>
    <g id="text_20">
     <!-- SLSQP -->
     <g transform="translate(425.126125 228.491437)scale(0.1 -0.1)">
      <defs>
       <path d="M 39.40625 66.21875 
Q 28.65625 66.21875 22.328125 58.203125 
Q 16.015625 50.203125 16.015625 36.375 
Q 16.015625 22.609375 22.328125 14.59375 
Q 28.65625 6.59375 39.40625 6.59375 
Q 50.140625 6.59375 56.421875 14.59375 
Q 62.703125 22.609375 62.703125 36.375 
Q 62.703125 50.203125 56.421875 58.203125 
Q 50.140625 66.21875 39.40625 66.21875 
z
M 53.21875 1.3125 
L 66.21875 -12.890625 
L 54.296875 -12.890625 
L 43.5 -1.21875 
Q 41.890625 -1.3125 41.03125 -1.359375 
Q 40.1875 -1.421875 39.40625 -1.421875 
Q 24.03125 -1.421875 14.8125 8.859375 
Q 5.609375 19.140625 5.609375 36.375 
Q 5.609375 53.65625 14.8125 63.9375 
Q 24.03125 74.21875 39.40625 74.21875 
Q 54.734375 74.21875 63.90625 63.9375 
Q 73.09375 53.65625 73.09375 36.375 
Q 73.09375 23.6875 67.984375 14.640625 
Q 62.890625 5.609375 53.21875 1.3125 
z
" id="DejaVuSans-81"/>
      </defs>
      <use xlink:href="#DejaVuSans-83"/>
      <use x="63.476562" xlink:href="#DejaVuSans-76"/>
      <use x="119.189453" xlink:href="#DejaVuSans-83"/>
      <use x="182.666016" xlink:href="#DejaVuSans-81"/>
      <use x="261.376953" xlink:href="#DejaVuSans-80"/>
     </g>
    </g>
   </g>
  </g>
 </g>
 <defs>
  <clipPath id="pf0fe72b1d6">
   <rect height="217.44" width="334.8" x="49.978125" y="35.7555"/>
  </clipPath>
 </defs>
</svg>
