<?xml version="1.0" encoding="utf-8" standalone="no"?>
<!DOCTYPE svg PUBLIC "-//W3C//DTD SVG 1.1//EN"
  "http://www.w3.org/Graphics/SVG/1.1/DTD/svg11.dtd">
<!-- Created with matplotlib (https://matplotlib.org/) -->
<svg height="277.314375pt" version="1.1" viewBox="0 0 488.35425 277.314375" width="488.35425pt" xmlns="http://www.w3.org/2000/svg" xmlns:xlink="http://www.w3.org/1999/xlink">
 <metadata>
  <rdf:RDF xmlns:cc="http://creativecommons.org/ns#" xmlns:dc="http://purl.org/dc/elements/1.1/" xmlns:rdf="http://www.w3.org/1999/02/22-rdf-syntax-ns#">
   <cc:Work>
    <dc:type rdf:resource="http://purl.org/dc/dcmitype/StillImage"/>
    <dc:date>2023-05-25T09:18:38.187230</dc:date>
    <dc:format>image/svg+xml</dc:format>
    <dc:creator>
     <cc:Agent>
      <dc:title>Matplotlib v3.3.2, https://matplotlib.org/</dc:title>
     </cc:Agent>
    </dc:creator>
   </cc:Work>
  </rdf:RDF>
 </metadata>
 <defs>
  <style type="text/css">*{stroke-linecap:butt;stroke-linejoin:round;}</style>
 </defs>
 <g id="figure_1">
  <g id="patch_1">
   <path d="M 0 277.314375 
L 488.35425 277.314375 
L 488.35425 0 
L 0 0 
z
" style="fill:none;"/>
  </g>
  <g id="axes_1">
   <g id="patch_2">
    <path d="M 45.478125 239.758125 
L 380.278125 239.758125 
L 380.278125 22.318125 
L 45.478125 22.318125 
z
" style="fill:#ffffff;"/>
   </g>
   <g id="matplotlib.axis_1">
    <g id="xtick_1">
     <g id="line2d_1">
      <defs>
       <path d="M 0 0 
L 0 3.5 
" id="m8764133d53" style="stroke:#000000;stroke-width:0.8;"/>
      </defs>
      <g>
       <use style="stroke:#000000;stroke-width:0.8;" x="48.890356" xlink:href="#m8764133d53" y="239.758125"/>
      </g>
     </g>
     <g id="text_1">
      <!-- $\mathdefault{10^{-3}}$ -->
      <g transform="translate(37.140356 254.356562)scale(0.1 -0.1)">
       <defs>
        <path d="M 12.40625 8.296875 
L 28.515625 8.296875 
L 28.515625 63.921875 
L 10.984375 60.40625 
L 10.984375 69.390625 
L 28.421875 72.90625 
L 38.28125 72.90625 
L 38.28125 8.296875 
L 54.390625 8.296875 
L 54.390625 0 
L 12.40625 0 
z
" id="DejaVuSans-49"/>
        <path d="M 31.78125 66.40625 
Q 24.171875 66.40625 20.328125 58.90625 
Q 16.5 51.421875 16.5 36.375 
Q 16.5 21.390625 20.328125 13.890625 
Q 24.171875 6.390625 31.78125 6.390625 
Q 39.453125 6.390625 43.28125 13.890625 
Q 47.125 21.390625 47.125 36.375 
Q 47.125 51.421875 43.28125 58.90625 
Q 39.453125 66.40625 31.78125 66.40625 
z
M 31.78125 74.21875 
Q 44.046875 74.21875 50.515625 64.515625 
Q 56.984375 54.828125 56.984375 36.375 
Q 56.984375 17.96875 50.515625 8.265625 
Q 44.046875 -1.421875 31.78125 -1.421875 
Q 19.53125 -1.421875 13.0625 8.265625 
Q 6.59375 17.96875 6.59375 36.375 
Q 6.59375 54.828125 13.0625 64.515625 
Q 19.53125 74.21875 31.78125 74.21875 
z
" id="DejaVuSans-48"/>
        <path d="M 10.59375 35.5 
L 73.1875 35.5 
L 73.1875 27.203125 
L 10.59375 27.203125 
z
" id="DejaVuSans-8722"/>
        <path d="M 40.578125 39.3125 
Q 47.65625 37.796875 51.625 33 
Q 55.609375 28.21875 55.609375 21.1875 
Q 55.609375 10.40625 48.1875 4.484375 
Q 40.765625 -1.421875 27.09375 -1.421875 
Q 22.515625 -1.421875 17.65625 -0.515625 
Q 12.796875 0.390625 7.625 2.203125 
L 7.625 11.71875 
Q 11.71875 9.328125 16.59375 8.109375 
Q 21.484375 6.890625 26.8125 6.890625 
Q 36.078125 6.890625 40.9375 10.546875 
Q 45.796875 14.203125 45.796875 21.1875 
Q 45.796875 27.640625 41.28125 31.265625 
Q 36.765625 34.90625 28.71875 34.90625 
L 20.21875 34.90625 
L 20.21875 43.015625 
L 29.109375 43.015625 
Q 36.375 43.015625 40.234375 45.921875 
Q 44.09375 48.828125 44.09375 54.296875 
Q 44.09375 59.90625 40.109375 62.90625 
Q 36.140625 65.921875 28.71875 65.921875 
Q 24.65625 65.921875 20.015625 65.03125 
Q 15.375 64.15625 9.8125 62.3125 
L 9.8125 71.09375 
Q 15.4375 72.65625 20.34375 73.4375 
Q 25.25 74.21875 29.59375 74.21875 
Q 40.828125 74.21875 47.359375 69.109375 
Q 53.90625 64.015625 53.90625 55.328125 
Q 53.90625 49.265625 50.4375 45.09375 
Q 46.96875 40.921875 40.578125 39.3125 
z
" id="DejaVuSans-51"/>
       </defs>
       <use transform="translate(0 0.765625)" xlink:href="#DejaVuSans-49"/>
       <use transform="translate(63.623047 0.765625)" xlink:href="#DejaVuSans-48"/>
       <use transform="translate(128.203125 39.046875)scale(0.7)" xlink:href="#DejaVuSans-8722"/>
       <use transform="translate(186.855469 39.046875)scale(0.7)" xlink:href="#DejaVuSans-51"/>
      </g>
     </g>
    </g>
    <g id="xtick_2">
     <g id="line2d_2">
      <g>
       <use style="stroke:#000000;stroke-width:0.8;" x="124.535574" xlink:href="#m8764133d53" y="239.758125"/>
      </g>
     </g>
     <g id="text_2">
      <!-- $\mathdefault{10^{-2}}$ -->
      <g transform="translate(112.785574 254.356562)scale(0.1 -0.1)">
       <defs>
        <path d="M 19.1875 8.296875 
L 53.609375 8.296875 
L 53.609375 0 
L 7.328125 0 
L 7.328125 8.296875 
Q 12.9375 14.109375 22.625 23.890625 
Q 32.328125 33.6875 34.8125 36.53125 
Q 39.546875 41.84375 41.421875 45.53125 
Q 43.3125 49.21875 43.3125 52.78125 
Q 43.3125 58.59375 39.234375 62.25 
Q 35.15625 65.921875 28.609375 65.921875 
Q 23.96875 65.921875 18.8125 64.3125 
Q 13.671875 62.703125 7.8125 59.421875 
L 7.8125 69.390625 
Q 13.765625 71.78125 18.9375 73 
Q 24.125 74.21875 28.421875 74.21875 
Q 39.75 74.21875 46.484375 68.546875 
Q 53.21875 62.890625 53.21875 53.421875 
Q 53.21875 48.921875 51.53125 44.890625 
Q 49.859375 40.875 45.40625 35.40625 
Q 44.1875 33.984375 37.640625 27.21875 
Q 31.109375 20.453125 19.1875 8.296875 
z
" id="DejaVuSans-50"/>
       </defs>
       <use transform="translate(0 0.765625)" xlink:href="#DejaVuSans-49"/>
       <use transform="translate(63.623047 0.765625)" xlink:href="#DejaVuSans-48"/>
       <use transform="translate(128.203125 39.046875)scale(0.7)" xlink:href="#DejaVuSans-8722"/>
       <use transform="translate(186.855469 39.046875)scale(0.7)" xlink:href="#DejaVuSans-50"/>
      </g>
     </g>
    </g>
    <g id="xtick_3">
     <g id="line2d_3">
      <g>
       <use style="stroke:#000000;stroke-width:0.8;" x="200.180791" xlink:href="#m8764133d53" y="239.758125"/>
      </g>
     </g>
     <g id="text_3">
      <!-- $\mathdefault{10^{-1}}$ -->
      <g transform="translate(188.430791 254.356562)scale(0.1 -0.1)">
       <use transform="translate(0 0.684375)" xlink:href="#DejaVuSans-49"/>
       <use transform="translate(63.623047 0.684375)" xlink:href="#DejaVuSans-48"/>
       <use transform="translate(128.203125 38.965625)scale(0.7)" xlink:href="#DejaVuSans-8722"/>
       <use transform="translate(186.855469 38.965625)scale(0.7)" xlink:href="#DejaVuSans-49"/>
      </g>
     </g>
    </g>
    <g id="xtick_4">
     <g id="line2d_4">
      <g>
       <use style="stroke:#000000;stroke-width:0.8;" x="275.826009" xlink:href="#m8764133d53" y="239.758125"/>
      </g>
     </g>
     <g id="text_4">
      <!-- $\mathdefault{10^{0}}$ -->
      <g transform="translate(267.026009 254.356562)scale(0.1 -0.1)">
       <use transform="translate(0 0.765625)" xlink:href="#DejaVuSans-49"/>
       <use transform="translate(63.623047 0.765625)" xlink:href="#DejaVuSans-48"/>
       <use transform="translate(128.203125 39.046875)scale(0.7)" xlink:href="#DejaVuSans-48"/>
      </g>
     </g>
    </g>
    <g id="xtick_5">
     <g id="line2d_5">
      <g>
       <use style="stroke:#000000;stroke-width:0.8;" x="351.471227" xlink:href="#m8764133d53" y="239.758125"/>
      </g>
     </g>
     <g id="text_5">
      <!-- $\mathdefault{10^{1}}$ -->
      <g transform="translate(342.671227 254.356562)scale(0.1 -0.1)">
       <use transform="translate(0 0.684375)" xlink:href="#DejaVuSans-49"/>
       <use transform="translate(63.623047 0.684375)" xlink:href="#DejaVuSans-48"/>
       <use transform="translate(128.203125 38.965625)scale(0.7)" xlink:href="#DejaVuSans-49"/>
      </g>
     </g>
    </g>
    <g id="xtick_6">
     <g id="line2d_6">
      <defs>
       <path d="M 0 0 
L 0 2 
" id="m737ebcc96f" style="stroke:#000000;stroke-width:0.6;"/>
      </defs>
      <g>
       <use style="stroke:#000000;stroke-width:0.6;" x="71.661836" xlink:href="#m737ebcc96f" y="239.758125"/>
      </g>
     </g>
    </g>
    <g id="xtick_7">
     <g id="line2d_7">
      <g>
       <use style="stroke:#000000;stroke-width:0.6;" x="84.982297" xlink:href="#m737ebcc96f" y="239.758125"/>
      </g>
     </g>
    </g>
    <g id="xtick_8">
     <g id="line2d_8">
      <g>
       <use style="stroke:#000000;stroke-width:0.6;" x="94.433315" xlink:href="#m737ebcc96f" y="239.758125"/>
      </g>
     </g>
    </g>
    <g id="xtick_9">
     <g id="line2d_9">
      <g>
       <use style="stroke:#000000;stroke-width:0.6;" x="101.764094" xlink:href="#m737ebcc96f" y="239.758125"/>
      </g>
     </g>
    </g>
    <g id="xtick_10">
     <g id="line2d_10">
      <g>
       <use style="stroke:#000000;stroke-width:0.6;" x="107.753777" xlink:href="#m737ebcc96f" y="239.758125"/>
      </g>
     </g>
    </g>
    <g id="xtick_11">
     <g id="line2d_11">
      <g>
       <use style="stroke:#000000;stroke-width:0.6;" x="112.817981" xlink:href="#m737ebcc96f" y="239.758125"/>
      </g>
     </g>
    </g>
    <g id="xtick_12">
     <g id="line2d_12">
      <g>
       <use style="stroke:#000000;stroke-width:0.6;" x="117.204795" xlink:href="#m737ebcc96f" y="239.758125"/>
      </g>
     </g>
    </g>
    <g id="xtick_13">
     <g id="line2d_13">
      <g>
       <use style="stroke:#000000;stroke-width:0.6;" x="121.074239" xlink:href="#m737ebcc96f" y="239.758125"/>
      </g>
     </g>
    </g>
    <g id="xtick_14">
     <g id="line2d_14">
      <g>
       <use style="stroke:#000000;stroke-width:0.6;" x="147.307053" xlink:href="#m737ebcc96f" y="239.758125"/>
      </g>
     </g>
    </g>
    <g id="xtick_15">
     <g id="line2d_15">
      <g>
       <use style="stroke:#000000;stroke-width:0.6;" x="160.627515" xlink:href="#m737ebcc96f" y="239.758125"/>
      </g>
     </g>
    </g>
    <g id="xtick_16">
     <g id="line2d_16">
      <g>
       <use style="stroke:#000000;stroke-width:0.6;" x="170.078533" xlink:href="#m737ebcc96f" y="239.758125"/>
      </g>
     </g>
    </g>
    <g id="xtick_17">
     <g id="line2d_17">
      <g>
       <use style="stroke:#000000;stroke-width:0.6;" x="177.409312" xlink:href="#m737ebcc96f" y="239.758125"/>
      </g>
     </g>
    </g>
    <g id="xtick_18">
     <g id="line2d_18">
      <g>
       <use style="stroke:#000000;stroke-width:0.6;" x="183.398994" xlink:href="#m737ebcc96f" y="239.758125"/>
      </g>
     </g>
    </g>
    <g id="xtick_19">
     <g id="line2d_19">
      <g>
       <use style="stroke:#000000;stroke-width:0.6;" x="188.463199" xlink:href="#m737ebcc96f" y="239.758125"/>
      </g>
     </g>
    </g>
    <g id="xtick_20">
     <g id="line2d_20">
      <g>
       <use style="stroke:#000000;stroke-width:0.6;" x="192.850012" xlink:href="#m737ebcc96f" y="239.758125"/>
      </g>
     </g>
    </g>
    <g id="xtick_21">
     <g id="line2d_21">
      <g>
       <use style="stroke:#000000;stroke-width:0.6;" x="196.719456" xlink:href="#m737ebcc96f" y="239.758125"/>
      </g>
     </g>
    </g>
    <g id="xtick_22">
     <g id="line2d_22">
      <g>
       <use style="stroke:#000000;stroke-width:0.6;" x="222.952271" xlink:href="#m737ebcc96f" y="239.758125"/>
      </g>
     </g>
    </g>
    <g id="xtick_23">
     <g id="line2d_23">
      <g>
       <use style="stroke:#000000;stroke-width:0.6;" x="236.272733" xlink:href="#m737ebcc96f" y="239.758125"/>
      </g>
     </g>
    </g>
    <g id="xtick_24">
     <g id="line2d_24">
      <g>
       <use style="stroke:#000000;stroke-width:0.6;" x="245.72375" xlink:href="#m737ebcc96f" y="239.758125"/>
      </g>
     </g>
    </g>
    <g id="xtick_25">
     <g id="line2d_25">
      <g>
       <use style="stroke:#000000;stroke-width:0.6;" x="253.05453" xlink:href="#m737ebcc96f" y="239.758125"/>
      </g>
     </g>
    </g>
    <g id="xtick_26">
     <g id="line2d_26">
      <g>
       <use style="stroke:#000000;stroke-width:0.6;" x="259.044212" xlink:href="#m737ebcc96f" y="239.758125"/>
      </g>
     </g>
    </g>
    <g id="xtick_27">
     <g id="line2d_27">
      <g>
       <use style="stroke:#000000;stroke-width:0.6;" x="264.108417" xlink:href="#m737ebcc96f" y="239.758125"/>
      </g>
     </g>
    </g>
    <g id="xtick_28">
     <g id="line2d_28">
      <g>
       <use style="stroke:#000000;stroke-width:0.6;" x="268.49523" xlink:href="#m737ebcc96f" y="239.758125"/>
      </g>
     </g>
    </g>
    <g id="xtick_29">
     <g id="line2d_29">
      <g>
       <use style="stroke:#000000;stroke-width:0.6;" x="272.364674" xlink:href="#m737ebcc96f" y="239.758125"/>
      </g>
     </g>
    </g>
    <g id="xtick_30">
     <g id="line2d_30">
      <g>
       <use style="stroke:#000000;stroke-width:0.6;" x="298.597489" xlink:href="#m737ebcc96f" y="239.758125"/>
      </g>
     </g>
    </g>
    <g id="xtick_31">
     <g id="line2d_31">
      <g>
       <use style="stroke:#000000;stroke-width:0.6;" x="311.91795" xlink:href="#m737ebcc96f" y="239.758125"/>
      </g>
     </g>
    </g>
    <g id="xtick_32">
     <g id="line2d_32">
      <g>
       <use style="stroke:#000000;stroke-width:0.6;" x="321.368968" xlink:href="#m737ebcc96f" y="239.758125"/>
      </g>
     </g>
    </g>
    <g id="xtick_33">
     <g id="line2d_33">
      <g>
       <use style="stroke:#000000;stroke-width:0.6;" x="328.699747" xlink:href="#m737ebcc96f" y="239.758125"/>
      </g>
     </g>
    </g>
    <g id="xtick_34">
     <g id="line2d_34">
      <g>
       <use style="stroke:#000000;stroke-width:0.6;" x="334.68943" xlink:href="#m737ebcc96f" y="239.758125"/>
      </g>
     </g>
    </g>
    <g id="xtick_35">
     <g id="line2d_35">
      <g>
       <use style="stroke:#000000;stroke-width:0.6;" x="339.753634" xlink:href="#m737ebcc96f" y="239.758125"/>
      </g>
     </g>
    </g>
    <g id="xtick_36">
     <g id="line2d_36">
      <g>
       <use style="stroke:#000000;stroke-width:0.6;" x="344.140448" xlink:href="#m737ebcc96f" y="239.758125"/>
      </g>
     </g>
    </g>
    <g id="xtick_37">
     <g id="line2d_37">
      <g>
       <use style="stroke:#000000;stroke-width:0.6;" x="348.009891" xlink:href="#m737ebcc96f" y="239.758125"/>
      </g>
     </g>
    </g>
    <g id="xtick_38">
     <g id="line2d_38">
      <g>
       <use style="stroke:#000000;stroke-width:0.6;" x="374.242706" xlink:href="#m737ebcc96f" y="239.758125"/>
      </g>
     </g>
    </g>
    <g id="text_6">
     <!-- time (s) -->
     <g transform="translate(193.486719 268.034687)scale(0.1 -0.1)">
      <defs>
       <path d="M 18.3125 70.21875 
L 18.3125 54.6875 
L 36.8125 54.6875 
L 36.8125 47.703125 
L 18.3125 47.703125 
L 18.3125 18.015625 
Q 18.3125 11.328125 20.140625 9.421875 
Q 21.96875 7.515625 27.59375 7.515625 
L 36.8125 7.515625 
L 36.8125 0 
L 27.59375 0 
Q 17.1875 0 13.234375 3.875 
Q 9.28125 7.765625 9.28125 18.015625 
L 9.28125 47.703125 
L 2.6875 47.703125 
L 2.6875 54.6875 
L 9.28125 54.6875 
L 9.28125 70.21875 
z
" id="DejaVuSans-116"/>
       <path d="M 9.421875 54.6875 
L 18.40625 54.6875 
L 18.40625 0 
L 9.421875 0 
z
M 9.421875 75.984375 
L 18.40625 75.984375 
L 18.40625 64.59375 
L 9.421875 64.59375 
z
" id="DejaVuSans-105"/>
       <path d="M 52 44.1875 
Q 55.375 50.25 60.0625 53.125 
Q 64.75 56 71.09375 56 
Q 79.640625 56 84.28125 50.015625 
Q 88.921875 44.046875 88.921875 33.015625 
L 88.921875 0 
L 79.890625 0 
L 79.890625 32.71875 
Q 79.890625 40.578125 77.09375 44.375 
Q 74.3125 48.1875 68.609375 48.1875 
Q 61.625 48.1875 57.5625 43.546875 
Q 53.515625 38.921875 53.515625 30.90625 
L 53.515625 0 
L 44.484375 0 
L 44.484375 32.71875 
Q 44.484375 40.625 41.703125 44.40625 
Q 38.921875 48.1875 33.109375 48.1875 
Q 26.21875 48.1875 22.15625 43.53125 
Q 18.109375 38.875 18.109375 30.90625 
L 18.109375 0 
L 9.078125 0 
L 9.078125 54.6875 
L 18.109375 54.6875 
L 18.109375 46.1875 
Q 21.1875 51.21875 25.484375 53.609375 
Q 29.78125 56 35.6875 56 
Q 41.65625 56 45.828125 52.96875 
Q 50 49.953125 52 44.1875 
z
" id="DejaVuSans-109"/>
       <path d="M 56.203125 29.59375 
L 56.203125 25.203125 
L 14.890625 25.203125 
Q 15.484375 15.921875 20.484375 11.0625 
Q 25.484375 6.203125 34.421875 6.203125 
Q 39.59375 6.203125 44.453125 7.46875 
Q 49.3125 8.734375 54.109375 11.28125 
L 54.109375 2.78125 
Q 49.265625 0.734375 44.1875 -0.34375 
Q 39.109375 -1.421875 33.890625 -1.421875 
Q 20.796875 -1.421875 13.15625 6.1875 
Q 5.515625 13.8125 5.515625 26.8125 
Q 5.515625 40.234375 12.765625 48.109375 
Q 20.015625 56 32.328125 56 
Q 43.359375 56 49.78125 48.890625 
Q 56.203125 41.796875 56.203125 29.59375 
z
M 47.21875 32.234375 
Q 47.125 39.59375 43.09375 43.984375 
Q 39.0625 48.390625 32.421875 48.390625 
Q 24.90625 48.390625 20.390625 44.140625 
Q 15.875 39.890625 15.1875 32.171875 
z
" id="DejaVuSans-101"/>
       <path id="DejaVuSans-32"/>
       <path d="M 31 75.875 
Q 24.46875 64.65625 21.28125 53.65625 
Q 18.109375 42.671875 18.109375 31.390625 
Q 18.109375 20.125 21.3125 9.0625 
Q 24.515625 -2 31 -13.1875 
L 23.1875 -13.1875 
Q 15.875 -1.703125 12.234375 9.375 
Q 8.59375 20.453125 8.59375 31.390625 
Q 8.59375 42.28125 12.203125 53.3125 
Q 15.828125 64.359375 23.1875 75.875 
z
" id="DejaVuSans-40"/>
       <path d="M 44.28125 53.078125 
L 44.28125 44.578125 
Q 40.484375 46.53125 36.375 47.5 
Q 32.28125 48.484375 27.875 48.484375 
Q 21.1875 48.484375 17.84375 46.4375 
Q 14.5 44.390625 14.5 40.28125 
Q 14.5 37.15625 16.890625 35.375 
Q 19.28125 33.59375 26.515625 31.984375 
L 29.59375 31.296875 
Q 39.15625 29.25 43.1875 25.515625 
Q 47.21875 21.78125 47.21875 15.09375 
Q 47.21875 7.46875 41.1875 3.015625 
Q 35.15625 -1.421875 24.609375 -1.421875 
Q 20.21875 -1.421875 15.453125 -0.5625 
Q 10.6875 0.296875 5.421875 2 
L 5.421875 11.28125 
Q 10.40625 8.6875 15.234375 7.390625 
Q 20.0625 6.109375 24.8125 6.109375 
Q 31.15625 6.109375 34.5625 8.28125 
Q 37.984375 10.453125 37.984375 14.40625 
Q 37.984375 18.0625 35.515625 20.015625 
Q 33.0625 21.96875 24.703125 23.78125 
L 21.578125 24.515625 
Q 13.234375 26.265625 9.515625 29.90625 
Q 5.8125 33.546875 5.8125 39.890625 
Q 5.8125 47.609375 11.28125 51.796875 
Q 16.75 56 26.8125 56 
Q 31.78125 56 36.171875 55.265625 
Q 40.578125 54.546875 44.28125 53.078125 
z
" id="DejaVuSans-115"/>
       <path d="M 8.015625 75.875 
L 15.828125 75.875 
Q 23.140625 64.359375 26.78125 53.3125 
Q 30.421875 42.28125 30.421875 31.390625 
Q 30.421875 20.453125 26.78125 9.375 
Q 23.140625 -1.703125 15.828125 -13.1875 
L 8.015625 -13.1875 
Q 14.5 -2 17.703125 9.0625 
Q 20.90625 20.125 20.90625 31.390625 
Q 20.90625 42.671875 17.703125 53.65625 
Q 14.5 64.65625 8.015625 75.875 
z
" id="DejaVuSans-41"/>
      </defs>
      <use xlink:href="#DejaVuSans-116"/>
      <use x="39.208984" xlink:href="#DejaVuSans-105"/>
      <use x="66.992188" xlink:href="#DejaVuSans-109"/>
      <use x="164.404297" xlink:href="#DejaVuSans-101"/>
      <use x="225.927734" xlink:href="#DejaVuSans-32"/>
      <use x="257.714844" xlink:href="#DejaVuSans-40"/>
      <use x="296.728516" xlink:href="#DejaVuSans-115"/>
      <use x="348.828125" xlink:href="#DejaVuSans-41"/>
     </g>
    </g>
   </g>
   <g id="matplotlib.axis_2">
    <g id="ytick_1">
     <g id="line2d_39">
      <defs>
       <path d="M 0 0 
L -3.5 0 
" id="m48f0175aac" style="stroke:#000000;stroke-width:0.8;"/>
      </defs>
      <g>
       <use style="stroke:#000000;stroke-width:0.8;" x="45.478125" xlink:href="#m48f0175aac" y="163.30803"/>
      </g>
     </g>
     <g id="text_7">
      <!-- $\mathdefault{10^{6}}$ -->
      <g transform="translate(20.878125 167.107249)scale(0.1 -0.1)">
       <defs>
        <path d="M 33.015625 40.375 
Q 26.375 40.375 22.484375 35.828125 
Q 18.609375 31.296875 18.609375 23.390625 
Q 18.609375 15.53125 22.484375 10.953125 
Q 26.375 6.390625 33.015625 6.390625 
Q 39.65625 6.390625 43.53125 10.953125 
Q 47.40625 15.53125 47.40625 23.390625 
Q 47.40625 31.296875 43.53125 35.828125 
Q 39.65625 40.375 33.015625 40.375 
z
M 52.59375 71.296875 
L 52.59375 62.3125 
Q 48.875 64.0625 45.09375 64.984375 
Q 41.3125 65.921875 37.59375 65.921875 
Q 27.828125 65.921875 22.671875 59.328125 
Q 17.53125 52.734375 16.796875 39.40625 
Q 19.671875 43.65625 24.015625 45.921875 
Q 28.375 48.1875 33.59375 48.1875 
Q 44.578125 48.1875 50.953125 41.515625 
Q 57.328125 34.859375 57.328125 23.390625 
Q 57.328125 12.15625 50.6875 5.359375 
Q 44.046875 -1.421875 33.015625 -1.421875 
Q 20.359375 -1.421875 13.671875 8.265625 
Q 6.984375 17.96875 6.984375 36.375 
Q 6.984375 53.65625 15.1875 63.9375 
Q 23.390625 74.21875 37.203125 74.21875 
Q 40.921875 74.21875 44.703125 73.484375 
Q 48.484375 72.75 52.59375 71.296875 
z
" id="DejaVuSans-54"/>
       </defs>
       <use transform="translate(0 0.765625)" xlink:href="#DejaVuSans-49"/>
       <use transform="translate(63.623047 0.765625)" xlink:href="#DejaVuSans-48"/>
       <use transform="translate(128.203125 39.046875)scale(0.7)" xlink:href="#DejaVuSans-54"/>
      </g>
     </g>
    </g>
    <g id="ytick_2">
     <g id="line2d_40">
      <defs>
       <path d="M 0 0 
L -2 0 
" id="m254e496a1f" style="stroke:#000000;stroke-width:0.6;"/>
      </defs>
      <g>
       <use style="stroke:#000000;stroke-width:0.6;" x="45.478125" xlink:href="#m254e496a1f" y="237.400591"/>
      </g>
     </g>
    </g>
    <g id="ytick_3">
     <g id="line2d_41">
      <g>
       <use style="stroke:#000000;stroke-width:0.6;" x="45.478125" xlink:href="#m254e496a1f" y="219.696619"/>
      </g>
     </g>
    </g>
    <g id="ytick_4">
     <g id="line2d_42">
      <g>
       <use style="stroke:#000000;stroke-width:0.6;" x="45.478125" xlink:href="#m254e496a1f" y="205.964351"/>
      </g>
     </g>
    </g>
    <g id="ytick_5">
     <g id="line2d_43">
      <g>
       <use style="stroke:#000000;stroke-width:0.6;" x="45.478125" xlink:href="#m254e496a1f" y="194.744271"/>
      </g>
     </g>
    </g>
    <g id="ytick_6">
     <g id="line2d_44">
      <g>
       <use style="stroke:#000000;stroke-width:0.6;" x="45.478125" xlink:href="#m254e496a1f" y="185.257828"/>
      </g>
     </g>
    </g>
    <g id="ytick_7">
     <g id="line2d_45">
      <g>
       <use style="stroke:#000000;stroke-width:0.6;" x="45.478125" xlink:href="#m254e496a1f" y="177.040298"/>
      </g>
     </g>
    </g>
    <g id="ytick_8">
     <g id="line2d_46">
      <g>
       <use style="stroke:#000000;stroke-width:0.6;" x="45.478125" xlink:href="#m254e496a1f" y="169.791923"/>
      </g>
     </g>
    </g>
    <g id="ytick_9">
     <g id="line2d_47">
      <g>
       <use style="stroke:#000000;stroke-width:0.6;" x="45.478125" xlink:href="#m254e496a1f" y="120.651709"/>
      </g>
     </g>
    </g>
    <g id="ytick_10">
     <g id="line2d_48">
      <g>
       <use style="stroke:#000000;stroke-width:0.6;" x="45.478125" xlink:href="#m254e496a1f" y="95.699361"/>
      </g>
     </g>
    </g>
    <g id="ytick_11">
     <g id="line2d_49">
      <g>
       <use style="stroke:#000000;stroke-width:0.6;" x="45.478125" xlink:href="#m254e496a1f" y="77.995389"/>
      </g>
     </g>
    </g>
    <g id="ytick_12">
     <g id="line2d_50">
      <g>
       <use style="stroke:#000000;stroke-width:0.6;" x="45.478125" xlink:href="#m254e496a1f" y="64.263121"/>
      </g>
     </g>
    </g>
    <g id="ytick_13">
     <g id="line2d_51">
      <g>
       <use style="stroke:#000000;stroke-width:0.6;" x="45.478125" xlink:href="#m254e496a1f" y="53.043041"/>
      </g>
     </g>
    </g>
    <g id="ytick_14">
     <g id="line2d_52">
      <g>
       <use style="stroke:#000000;stroke-width:0.6;" x="45.478125" xlink:href="#m254e496a1f" y="43.556598"/>
      </g>
     </g>
    </g>
    <g id="ytick_15">
     <g id="line2d_53">
      <g>
       <use style="stroke:#000000;stroke-width:0.6;" x="45.478125" xlink:href="#m254e496a1f" y="35.339068"/>
      </g>
     </g>
    </g>
    <g id="ytick_16">
     <g id="line2d_54">
      <g>
       <use style="stroke:#000000;stroke-width:0.6;" x="45.478125" xlink:href="#m254e496a1f" y="28.090693"/>
      </g>
     </g>
    </g>
    <g id="text_8">
     <!-- cost -->
     <g transform="translate(14.798438 141.411562)rotate(-90)scale(0.1 -0.1)">
      <defs>
       <path d="M 48.78125 52.59375 
L 48.78125 44.1875 
Q 44.96875 46.296875 41.140625 47.34375 
Q 37.3125 48.390625 33.40625 48.390625 
Q 24.65625 48.390625 19.8125 42.84375 
Q 14.984375 37.3125 14.984375 27.296875 
Q 14.984375 17.28125 19.8125 11.734375 
Q 24.65625 6.203125 33.40625 6.203125 
Q 37.3125 6.203125 41.140625 7.25 
Q 44.96875 8.296875 48.78125 10.40625 
L 48.78125 2.09375 
Q 45.015625 0.34375 40.984375 -0.53125 
Q 36.96875 -1.421875 32.421875 -1.421875 
Q 20.0625 -1.421875 12.78125 6.34375 
Q 5.515625 14.109375 5.515625 27.296875 
Q 5.515625 40.671875 12.859375 48.328125 
Q 20.21875 56 33.015625 56 
Q 37.15625 56 41.109375 55.140625 
Q 45.0625 54.296875 48.78125 52.59375 
z
" id="DejaVuSans-99"/>
       <path d="M 30.609375 48.390625 
Q 23.390625 48.390625 19.1875 42.75 
Q 14.984375 37.109375 14.984375 27.296875 
Q 14.984375 17.484375 19.15625 11.84375 
Q 23.34375 6.203125 30.609375 6.203125 
Q 37.796875 6.203125 41.984375 11.859375 
Q 46.1875 17.53125 46.1875 27.296875 
Q 46.1875 37.015625 41.984375 42.703125 
Q 37.796875 48.390625 30.609375 48.390625 
z
M 30.609375 56 
Q 42.328125 56 49.015625 48.375 
Q 55.71875 40.765625 55.71875 27.296875 
Q 55.71875 13.875 49.015625 6.21875 
Q 42.328125 -1.421875 30.609375 -1.421875 
Q 18.84375 -1.421875 12.171875 6.21875 
Q 5.515625 13.875 5.515625 27.296875 
Q 5.515625 40.765625 12.171875 48.375 
Q 18.84375 56 30.609375 56 
z
" id="DejaVuSans-111"/>
      </defs>
      <use xlink:href="#DejaVuSans-99"/>
      <use x="54.980469" xlink:href="#DejaVuSans-111"/>
      <use x="116.162109" xlink:href="#DejaVuSans-115"/>
      <use x="168.261719" xlink:href="#DejaVuSans-116"/>
     </g>
    </g>
   </g>
   <g id="line2d_55">
    <path clip-path="url(#p8121431e4d)" d="M 268.391243 32.201761 
L 269.742612 34.532354 
L 269.899847 36.269787 
L 270.055016 37.907076 
L 270.213963 39.555268 
L 270.35951 41.2499 
L 270.512833 43.00241 
L 270.664663 44.813458 
L 270.905335 46.651367 
L 271.091691 48.52032 
L 271.281099 50.501768 
L 271.473247 52.53515 
L 271.677905 54.601695 
L 271.890171 56.700192 
L 272.084243 58.823965 
L 272.285403 60.993598 
L 272.502806 63.196694 
L 272.766855 65.424634 
L 272.980875 67.676605 
L 273.198278 69.952823 
L 273.40648 72.251481 
L 273.617333 74.569547 
L 273.832085 76.904607 
L 274.059083 79.253494 
L 274.283604 81.615765 
L 274.543956 83.986418 
L 274.75116 86.366406 
L 274.96017 88.750649 
L 275.171526 91.142866 
L 275.336238 93.534514 
L 275.494654 95.926483 
L 275.650049 98.312516 
L 275.803937 100.693507 
L 276.05438 103.064497 
L 276.214952 105.425625 
L 276.379888 107.772318 
L 276.531859 110.104504 
L 276.680261 112.417846 
L 276.82852 114.712448 
L 276.97854 116.984459 
L 277.128293 119.234392 
L 277.349665 121.458277 
L 277.560774 123.655714 
L 277.762413 125.823171 
L 277.975935 127.95991 
L 278.187328 130.06424 
L 278.390321 132.134688 
L 278.606291 134.170357 
L 278.766243 136.169306 
L 278.945357 138.129993 
L 279.168512 140.051941 
L 279.451277 141.933068 
L 279.689109 143.77466 
L 279.918207 145.57476 
L 280.135188 147.3347 
L 280.277269 149.054565 
L 280.426829 150.733375 
L 280.589305 152.371906 
L 280.77284 153.966747 
L 280.946944 155.518865 
L 281.146408 157.025107 
L 281.329335 158.487205 
L 281.491309 159.903285 
L 281.638178 161.276648 
L 281.763983 162.606377 
L 281.89304 163.896834 
L 282.022798 165.147378 
L 282.16284 166.361872 
L 282.286785 167.540914 
L 282.415782 168.686669 
L 282.544428 169.800291 
L 282.668324 170.882341 
L 282.795391 171.93296 
L 282.915493 172.952892 
L 283.033019 173.941155 
L 283.154137 174.901366 
L 283.276584 175.834003 
L 283.394221 176.747766 
L 283.507725 177.646287 
L 283.619689 178.537291 
L 283.729807 179.418874 
L 283.842418 180.287709 
L 283.953053 181.136537 
L 284.062732 181.963348 
L 284.174871 182.766995 
L 284.28595 183.548892 
L 284.397247 184.30977 
L 284.509725 185.051121 
L 284.622137 185.773601 
L 284.732947 186.478266 
L 284.853211 187.165482 
L 284.979694 187.835666 
L 285.11737 188.488886 
L 285.217404 189.12522 
L 285.30477 189.744823 
L 285.381237 190.347577 
L 285.473343 190.933815 
L 285.561016 191.503531 
L 285.647782 192.057839 
L 285.743171 192.597358 
" style="fill:none;stroke:#1f77b4;stroke-linecap:square;stroke-width:1.5;"/>
   </g>
   <g id="line2d_56">
    <path clip-path="url(#p8121431e4d)" d="M 66.678698 32.201761 
L 104.407926 32.205314 
L 121.09013 32.208853 
L 131.909686 32.212399 
L 139.845374 32.215945 
L 146.165798 32.219491 
L 152.535301 32.219498 
L 157.279352 32.219498 
L 161.632287 32.219513 
L 165.288078 32.219528 
L 168.72616 32.219528 
L 171.666896 32.219542 
L 174.3499 32.219557 
L 176.832307 32.219572 
L 179.065108 32.219586 
L 181.239381 32.219601 
L 183.274581 32.219615 
L 185.234629 32.21963 
L 187.007417 32.219652 
L 188.904743 32.219667 
L 190.585567 32.219689 
L 191.856625 32.219703 
L 193.072553 32.219725 
L 194.242357 32.219747 
L 195.362231 32.219769 
L 196.419551 32.219791 
L 197.451306 32.219806 
L 198.457585 32.219835 
L 199.426664 32.219849 
L 200.36992 32.219879 
L 201.277532 32.219901 
L 202.163027 32.21993 
L 203.023413 32.219952 
L 203.870521 32.219981 
L 204.700839 32.22001 
L 205.627622 32.22004 
L 206.553306 32.220061 
L 207.4801 32.220091 
L 208.372614 32.22012 
L 209.493201 32.220142 
L 210.41994 32.220178 
L 211.308024 32.220208 
L 212.222336 32.22023 
L 213.097936 32.220266 
L 213.94931 32.220295 
L 214.777871 32.220325 
L 215.572225 32.220354 
L 216.358597 32.220391 
L 217.150237 32.22042 
L 217.879497 32.220449 
L 218.587104 32.220478 
L 219.281981 32.220515 
L 219.967826 32.220551 
L 220.660395 32.220581 
L 221.327804 32.220617 
L 221.977325 32.220654 
L 222.653916 32.220683 
L 223.406393 32.22072 
L 223.963525 32.220756 
L 224.473249 32.220793 
L 225.005037 32.220829 
L 225.59697 32.220866 
L 226.179456 32.220902 
L 226.739792 32.220932 
L 227.287709 32.220975 
L 227.840479 32.221012 
L 228.383437 32.221049 
L 228.916358 32.221092 
L 229.516674 32.221129 
L 230.109838 32.221166 
L 230.634229 32.221209 
L 231.212174 32.221246 
L 231.745834 32.221283 
L 232.19269 32.221326 
L 232.606238 32.22137 
L 233.018479 32.221407 
L 233.432358 32.221451 
L 233.844518 32.221487 
L 234.224238 32.221531 
L 234.625928 32.221575 
L 235.008877 32.221619 
L 235.379178 32.221656 
L 235.780142 32.221692 
L 236.158277 32.221736 
L 236.598535 32.221787 
L 237.00122 32.221831 
L 237.408463 32.221875 
L 237.795344 32.221919 
L 238.257451 32.221963 
L 238.754959 32.222007 
L 239.170739 32.222058 
L 239.550618 32.222102 
L 239.928702 32.222146 
L 240.30417 32.222189 
L 240.671558 32.222233 
L 241.029847 32.222277 
L 241.394928 32.222321 
L 241.751068 32.22238 
L 242.103936 32.222423 
L 242.449095 32.222467 
" style="fill:none;stroke:#ff7f0e;stroke-linecap:square;stroke-width:1.5;"/>
   </g>
   <g id="line2d_57">
    <path clip-path="url(#p8121431e4d)" d="M 66.94199 32.201761 
L 116.796508 56.093417 
L 129.898153 83.946105 
L 138.877769 115.486851 
L 146.0028 146.983962 
L 151.899239 157.900275 
L 156.844281 160.799559 
L 161.137583 148.663687 
L 164.911202 141.151833 
L 168.43575 137.27914 
L 171.518609 137.407603 
L 174.325131 142.3016 
L 176.897925 151.484207 
L 179.282305 162.194067 
L 181.513713 171.498335 
L 183.662385 180.337393 
L 185.686418 187.759846 
L 187.628553 190.976261 
L 189.49632 191.864863 
L 191.257831 191.919809 
L 192.911312 190.619579 
L 194.463273 188.847421 
L 195.753438 187.975734 
L 197.004682 188.391139 
L 198.199199 189.992955 
L 199.683642 193.02536 
L 200.86029 197.286655 
L 202.182341 201.780557 
L 203.428489 206.223776 
L 204.585417 210.371941 
L 205.619259 213.434619 
L 206.572913 215.591346 
L 207.510881 217.121961 
L 208.39391 217.74801 
L 209.32553 217.621169 
L 210.196657 217.224734 
L 211.057995 216.576577 
L 211.93322 216.153551 
L 212.755566 216.258119 
L 213.647002 216.893293 
L 214.508152 218.032804 
L 215.279359 219.414413 
L 216.038242 220.884551 
L 216.84481 222.270814 
L 217.543381 223.356149 
L 218.159459 224.068153 
L 218.907535 224.458004 
L 219.624136 224.693227 
L 220.344397 224.767009 
L 221.038165 224.699709 
L 221.700501 224.720348 
L 222.380447 224.80451 
L 223.089376 224.918057 
L 223.648261 225.1341 
L 224.198513 225.431252 
L 224.801136 225.772179 
L 225.38425 226.120993 
L 225.980452 226.475053 
L 226.493535 226.771329 
L 227.039697 227.020253 
L 227.575941 227.246905 
L 228.095168 227.377689 
L 228.567322 227.459431 
L 229.031321 227.549655 
L 229.450736 227.598331 
L 229.836865 227.63074 
L 230.267318 227.700159 
L 230.723287 227.778438 
L 231.145894 227.860907 
L 231.562772 227.989009 
L 231.990551 228.144481 
L 232.431619 228.282379 
L 232.840421 228.379415 
L 233.264176 228.459734 
L 233.672843 228.545342 
L 234.131712 228.608042 
L 234.570129 228.647264 
L 235.017124 228.688888 
L 235.45373 228.744399 
L 235.892667 228.795229 
L 236.308164 228.845587 
L 236.727768 228.906919 
L 237.131324 228.973908 
L 237.524529 229.030976 
L 237.925251 229.082463 
L 238.285384 229.134682 
L 238.67291 229.178403 
L 239.020228 229.211644 
L 239.322371 229.248052 
L 239.626546 229.279358 
L 239.989892 229.311569 
L 240.345135 229.345505 
L 240.703993 229.380575 
L 241.060441 229.416504 
L 241.411723 229.45269 
L 241.761585 229.485464 
L 242.104767 229.51604 
L 242.441133 229.547709 
L 242.784349 229.577068 
L 243.120053 229.59697 
" style="fill:none;stroke:#2ca02c;stroke-linecap:square;stroke-width:1.5;"/>
   </g>
   <g id="line2d_58">
    <path clip-path="url(#p8121431e4d)" d="M 68.253775 32.201761 
L 107.53396 32.899954 
L 123.599657 33.617682 
L 134.163492 34.34859 
L 142.057577 35.08953 
L 148.456476 35.83863 
L 153.633343 36.594653 
L 157.233353 37.356721 
L 160.996667 38.124187 
L 164.859828 38.896512 
L 168.25927 39.672887 
L 171.304445 40.450577 
L 174.150705 41.231544 
L 176.75697 42.013272 
L 179.169061 42.796084 
L 181.428715 43.581378 
L 183.50115 44.371962 
L 185.483789 45.165985 
L 187.362351 45.963658 
L 189.128643 46.764462 
L 190.839997 47.568335 
L 192.465014 48.37449 
L 193.97002 49.182699 
L 195.411535 49.993114 
L 196.832021 50.803438 
L 198.224564 51.615099 
L 199.568693 52.42597 
L 200.852079 53.240681 
L 202.125989 54.057709 
L 203.206794 54.878877 
L 204.194095 55.703499 
L 205.286161 56.531151 
L 206.45872 57.361846 
L 207.55678 58.194822 
L 208.581073 59.030388 
L 209.507003 59.867942 
L 210.38264 60.707771 
L 211.309308 61.549378 
L 212.145044 62.392738 
L 212.984721 63.237951 
L 213.830364 64.085048 
L 214.645205 64.934305 
L 215.447213 65.785472 
L 216.259217 66.638681 
L 217.006844 67.493716 
L 217.753024 68.350656 
L 218.508512 69.209279 
L 219.412616 70.069609 
L 220.252136 70.931376 
L 220.991347 71.794788 
L 221.779049 72.659905 
L 222.618961 73.526869 
L 223.408672 74.395548 
L 224.129024 75.265938 
L 224.805615 76.137951 
L 225.72478 77.011614 
L 226.350929 77.886809 
L 226.981757 78.763611 
L 227.737485 79.641865 
L 228.356604 80.521689 
L 228.937386 81.402887 
L 229.500667 82.285598 
L 230.064705 83.169607 
L 230.624029 84.055078 
L 231.173837 84.941766 
L 231.626141 85.829853 
L 232.071532 86.719065 
L 232.969436 87.609613 
L 233.434835 88.501187 
L 233.784867 89.394026 
L 234.168447 90.287802 
L 234.603219 91.18275 
L 235.054401 92.078583 
L 235.478722 92.975461 
L 235.898715 93.873191 
L 236.303886 94.771844 
L 236.695205 95.67129 
L 237.09376 96.571535 
L 237.483562 97.472497 
L 237.862451 98.374129 
L 238.248479 99.276383 
L 238.631165 100.179181 
L 239.01103 101.082496 
L 239.380544 101.98622 
L 239.737726 102.890345 
L 240.088253 103.794753 
L 240.35067 104.699419 
L 240.643891 105.60425 
L 240.965812 106.509189 
L 241.315997 107.414145 
L 241.661979 108.31907 
L 242.003565 109.22386 
L 242.33037 110.128469 
L 242.650107 111.032782 
L 242.974598 111.936753 
L 243.300195 112.840262 
L 243.61577 113.743275 
L 243.930348 114.645647 
L 244.243745 115.547364 
L 244.563149 116.448248 
" style="fill:none;stroke:#d62728;stroke-linecap:square;stroke-width:1.5;"/>
   </g>
   <g id="line2d_59">
    <path clip-path="url(#p8121431e4d)" d="M 65.038662 32.201761 
L 112.345622 56.093417 
L 126.857682 81.179194 
L 136.840238 106.873642 
L 144.684549 129.403247 
L 150.235834 150.156185 
L 155.175241 165.336753 
L 159.773696 175.175562 
L 163.716628 179.417964 
L 167.234714 179.76347 
L 170.530453 178.111719 
L 173.451543 176.184011 
L 176.085738 174.676665 
L 178.495672 174.495908 
L 180.828481 176.01803 
L 182.968098 178.545844 
L 185.020861 181.610685 
L 186.951109 185.110682 
L 188.776761 188.96539 
L 190.466928 192.886135 
L 192.081496 196.413847 
L 193.682904 199.565575 
L 195.243108 202.38522 
L 196.689125 204.642759 
L 198.03598 206.341537 
L 199.354293 207.7508 
L 200.497312 208.950713 
L 201.579085 209.854413 
L 202.643742 210.478481 
L 203.638759 210.9608 
L 204.665599 211.396805 
L 205.641819 211.7941 
L 206.61602 212.200003 
L 207.515393 212.64664 
L 208.416655 213.089452 
L 209.305778 213.514719 
L 210.150141 213.996073 
L 210.955068 214.55988 
L 211.759084 215.163089 
L 212.590738 215.758283 
L 213.425262 216.31875 
L 214.239213 216.882255 
L 215.056352 217.466132 
L 215.855894 218.031835 
L 216.620487 218.552926 
L 217.356082 219.032829 
L 218.000658 219.485974 
L 218.690086 219.903852 
L 219.309777 220.274492 
L 219.90326 220.607606 
L 220.482622 220.914884 
L 221.152747 221.187509 
L 221.780673 221.415756 
L 222.35896 221.613374 
L 223.034848 221.794628 
L 223.652823 221.958848 
L 224.214194 222.101221 
L 224.774582 222.22492 
L 225.319669 222.343432 
L 225.825335 222.46411 
L 226.308383 222.581023 
L 226.80544 222.691431 
L 227.324036 222.801865 
L 227.879098 222.915841 
L 228.410181 223.031211 
L 228.931085 223.146355 
L 229.447587 223.262765 
L 229.900448 223.380207 
L 230.346683 223.494876 
L 230.780921 223.605518 
L 231.237625 223.713685 
L 231.66786 223.81941 
L 232.087669 223.920384 
L 232.519776 224.016154 
L 232.958145 224.107828 
L 233.443629 224.195501 
L 233.884384 224.279124 
L 234.299625 224.358333 
L 234.670341 224.433402 
L 235.063044 224.505516 
L 235.494659 224.575159 
L 235.925903 224.642141 
L 236.369057 224.706979 
L 236.808702 224.77047 
L 237.20145 224.832652 
L 237.593671 224.893469 
L 237.954138 224.953184 
L 238.334413 225.012066 
L 238.73406 225.07018 
L 239.092143 225.127598 
L 239.498167 225.184297 
L 239.868825 225.240291 
L 240.177095 225.295594 
L 240.514088 225.350171 
L 240.822459 225.403874 
L 241.126228 225.456684 
L 241.458712 225.508704 
L 241.821774 225.559843 
L 242.141867 225.609966 
L 242.497541 225.65916 
" style="fill:none;stroke:#9467bd;stroke-linecap:square;stroke-width:1.5;"/>
   </g>
   <g id="line2d_60">
    <path clip-path="url(#p8121431e4d)" d="M 63.125065 32.201761 
L 104.503184 32.205314 
L 123.242321 32.208853 
L 135.275074 32.212399 
L 143.48586 32.215945 
L 150.992932 32.219491 
L 156.390305 32.223038 
L 161.067845 32.226577 
L 164.991085 32.230117 
L 168.220752 32.233671 
L 171.017972 32.237211 
L 173.658697 32.240752 
L 176.602728 32.244299 
L 178.782976 32.247847 
L 181.059324 32.251388 
L 183.21543 32.254937 
L 184.912955 32.258485 
L 186.599853 32.262027 
L 188.370613 32.265568 
L 189.700509 32.26911 
L 190.879837 32.272652 
L 192.093821 32.276195 
L 193.294882 32.279745 
L 194.447982 32.28328 
L 195.522018 32.28683 
L 196.508487 32.290373 
L 197.537071 32.293917 
L 198.527508 32.297467 
L 199.477436 32.301004 
L 200.374203 32.304548 
L 201.269501 32.308099 
L 202.375227 32.311629 
L 203.445797 32.315173 
L 204.24895 32.318711 
L 205.093289 32.322256 
L 206.100658 32.325801 
L 207.054237 32.329346 
L 207.88063 32.332892 
L 208.791292 32.33643 
L 209.742442 32.339976 
L 210.725349 32.343515 
L 211.609196 32.347062 
L 212.469348 32.350608 
L 213.208127 32.35414 
L 213.916894 32.357695 
L 215.024811 32.361235 
L 216.028476 32.364775 
L 216.98722 32.368315 
L 217.810872 32.371855 
L 218.691201 32.375403 
L 219.637092 32.378944 
L 220.523803 32.382493 
L 221.297217 32.386034 
L 222.017724 32.389576 
L 222.616192 32.39311 
L 223.359584 32.396652 
L 224.072865 32.400194 
L 224.748563 32.403736 
L 225.40759 32.407279 
L 226.019857 32.410822 
L 226.566974 32.414364 
L 227.237253 32.417908 
L 227.848645 32.421447 
L 228.465261 32.424987 
L 229.091673 32.428531 
L 229.602541 32.432075 
L 230.134774 32.435612 
L 230.656074 32.439156 
L 231.215067 32.442697 
L 231.766204 32.446242 
L 232.279986 32.449783 
L 232.763901 32.453324 
L 233.240104 32.456862 
L 233.753423 32.460401 
L 234.260593 32.463943 
L 234.72682 32.467489 
L 235.209075 32.471024 
L 235.678372 32.474567 
L 236.132932 32.47811 
L 236.61275 32.481653 
L 237.056587 32.485189 
L 237.47571 32.488729 
L 237.866779 32.492272 
L 238.389685 32.495816 
L 238.992192 32.49935 
L 239.536367 32.502898 
L 240.100129 32.506427 
L 240.644234 32.509976 
L 241.111698 32.513517 
L 241.574247 32.517051 
L 242.139356 32.5206 
L 242.648623 32.524131 
L 243.203334 32.527673 
L 243.615519 32.531212 
L 244.028721 32.534754 
L 244.543243 32.538294 
L 245.06222 32.54184 
L 245.530036 32.545376 
L 245.974189 32.548912 
L 246.387651 32.552452 
" style="fill:none;stroke:#8c564b;stroke-linecap:square;stroke-width:1.5;"/>
   </g>
   <g id="line2d_61">
    <path clip-path="url(#p8121431e4d)" d="M 64.990716 32.201761 
L 125.766202 32.201827 
L 140.968668 63.070318 
L 150.479952 122.274601 
L 157.939623 147.902716 
L 163.863172 158.495023 
L 167.368107 162.939705 
L 170.602608 166.129987 
L 173.6392 169.826626 
L 176.464367 175.147797 
L 180.102106 182.070601 
L 183.779633 188.895989 
L 187.069467 193.634412 
L 190.194724 197.398781 
L 193.087234 199.379295 
L 195.794819 200.569701 
L 198.368151 201.618655 
L 200.717814 202.93426 
L 202.938323 204.603548 
L 205.069404 206.329472 
L 207.02296 208.117606 
L 208.940175 209.658406 
L 210.812567 210.902818 
L 212.616873 212.013188 
L 214.312756 213.053076 
L 216.243657 214.171464 
L 217.796534 215.271803 
L 219.846359 216.167591 
L 222.059883 216.928642 
L 223.985392 217.517895 
L 226.541143 218.025874 
L 228.087063 218.534986 
L 229.634735 219.07861 
L 231.131303 219.701518 
L 232.455264 220.296296 
L 233.561229 220.853003 
L 234.556184 221.352668 
L 235.94748 221.762317 
L 237.085789 222.150715 
L 238.000418 222.537516 
L 238.913915 222.914838 
L 239.784917 223.267508 
L 240.692037 223.580348 
L 241.557935 223.864322 
L 242.376238 224.118614 
L 243.282377 224.392193 
L 244.118145 224.64818 
L 244.982283 224.907748 
L 245.80371 225.126884 
L 246.667281 225.349201 
L 247.441285 225.60725 
L 248.227751 225.829443 
L 249.034235 226.010933 
L 249.823554 226.242077 
L 250.766819 226.443494 
L 251.69659 226.622464 
L 252.479007 226.796549 
L 253.203309 226.948725 
L 253.994129 227.127572 
L 254.799976 227.308192 
L 255.552662 227.476074 
L 256.314585 227.635663 
L 257.111309 227.76658 
L 257.756336 227.880009 
L 258.481472 227.982029 
L 259.138754 228.096611 
L 259.949647 228.173575 
L 260.64516 228.313994 
L 261.278516 228.37348 
L 261.898217 228.450693 
L 262.510121 228.534867 
L 263.119924 228.591573 
L 263.740743 228.654855 
L 264.346649 228.692121 
L 264.977943 228.732416 
L 265.57013 228.757851 
L 266.190145 228.821359 
L 266.795025 228.870098 
L 267.396735 228.897483 
L 268.019325 228.937533 
L 268.696233 228.970353 
L 269.329 228.994925 
L 269.941641 229.018886 
L 270.550139 229.036381 
L 271.174338 229.062995 
L 271.797649 229.11034 
L 272.368071 229.172279 
L 273.021975 229.209955 
L 273.581299 229.27505 
L 274.203534 229.355849 
L 274.782538 229.414741 
L 275.345165 229.462178 
L 275.905844 229.521821 
L 276.447077 229.576814 
L 276.984378 229.631336 
L 277.500493 229.666026 
L 278.020833 229.696301 
L 278.533016 229.731283 
L 279.045568 229.798841 
L 279.555484 229.874489 
" style="fill:none;stroke:#e377c2;stroke-linecap:square;stroke-width:1.5;"/>
   </g>
   <g id="line2d_62">
    <path clip-path="url(#p8121431e4d)" d="M 60.696307 32.201761 
L 117.380137 56.093423 
L 137.365432 73.223128 
L 149.521338 87.304282 
L 155.777497 85.32515 
L 161.090249 93.704605 
L 165.650597 108.80092 
L 170.061069 118.880745 
L 173.985259 126.951629 
L 177.775985 133.836035 
L 180.813372 139.590622 
L 183.547707 144.463774 
L 186.067389 149.080767 
L 188.608978 153.232036 
L 190.932813 156.835526 
L 193.253805 159.957635 
L 195.336826 162.821419 
L 197.382378 165.529791 
L 198.784479 168.110815 
L 200.134045 170.539092 
L 201.371031 172.792999 
L 202.584973 174.871626 
L 203.748275 176.791612 
L 204.928982 178.578434 
L 206.073502 180.255239 
L 207.192018 181.838456 
L 208.168658 183.336689 
L 209.096269 184.755819 
L 210.299452 186.096628 
L 211.216851 187.361179 
L 212.051639 188.549917 
L 213.014572 189.666095 
L 213.823591 190.716394 
L 214.625481 191.706962 
L 215.393871 192.646792 
L 216.379365 193.538463 
L 217.08906 194.387566 
L 217.887493 195.193262 
L 218.733798 195.959602 
L 219.424783 196.685966 
L 220.102857 197.376758 
L 220.91414 198.032681 
L 221.524888 198.658551 
L 222.271354 199.255551 
L 222.952592 199.827159 
L 223.61715 200.373947 
L 224.2128 200.898158 
L 224.821676 201.400124 
L 225.376466 201.881213 
L 225.960446 202.341587 
L 226.491706 202.781372 
L 227.014997 203.199239 
L 227.659969 203.593266 
L 228.18456 203.960911 
L 228.680056 204.300136 
L 229.463523 204.609151 
L 230.209153 204.888047 
L 230.733394 205.13793 
L 231.214275 205.362956 
L 231.716214 205.568176 
L 232.417588 205.762155 
L 233.070356 205.952451 
L 233.553147 206.14921 
L 233.946881 206.358536 
L 234.42103 206.587562 
L 234.806551 206.836372 
L 235.192 207.104884 
L 235.578178 207.385321 
L 235.946557 207.671007 
L 236.293947 207.951086 
L 236.640697 208.219234 
L 236.976415 208.468855 
L 237.311773 208.699359 
L 237.637331 208.910387 
L 238.029784 209.106531 
L 238.365098 209.290537 
L 238.692222 209.467627 
L 239.044041 209.637964 
L 239.416437 209.802957 
L 239.76295 209.960557 
L 240.066813 210.113168 
L 240.493958 210.264434 
L 240.820436 210.421373 
L 241.124674 210.589055 
L 241.49951 210.767756 
L 241.851419 210.952783 
L 242.153264 211.136444 
L 242.45446 211.313559 
L 242.800727 211.481349 
L 243.092125 211.641929 
L 243.3879 211.796489 
L 243.724017 211.947966 
L 244.070488 212.094186 
L 244.409043 212.234179 
L 244.689932 212.36289 
L 244.978377 212.478833 
L 245.317308 212.579553 
L 245.648852 212.665667 
L 245.932129 212.737639 
L 246.253934 212.795641 
" style="fill:none;stroke:#7f7f7f;stroke-linecap:square;stroke-width:1.5;"/>
   </g>
   <g id="line2d_63">
    <path clip-path="url(#p8121431e4d)" d="M 67.524572 32.201761 
L 114.773671 34.421503 
L 127.554504 36.676453 
L 138.900539 38.967514 
L 146.686735 41.295585 
L 153.941678 43.661596 
L 159.731063 46.066469 
L 164.373783 48.511148 
L 168.520659 50.996578 
L 172.049558 53.523695 
L 174.405733 56.093423 
L 176.479519 58.706682 
L 178.412514 61.364362 
L 180.292924 64.067323 
L 182.892089 66.816362 
L 185.101652 69.612212 
L 187.309198 72.455534 
L 189.850489 75.346879 
L 191.89626 78.286658 
L 193.718872 81.275128 
L 195.572524 84.312341 
L 197.33552 87.398091 
L 198.910505 90.531895 
L 200.423611 93.712917 
L 201.728419 96.939859 
L 202.983377 100.210965 
L 204.343139 103.523842 
L 205.513951 106.875388 
L 206.764879 110.261685 
L 208.06186 113.677812 
L 209.281028 117.11774 
L 210.511346 120.57411 
L 211.595863 124.038068 
L 212.852214 127.499067 
L 213.986942 130.944646 
L 215.127891 134.360246 
L 216.158139 137.729001 
L 217.224498 141.031596 
L 218.206281 144.246201 
L 218.959318 147.347098 
L 219.725997 150.300605 
L 220.412969 153.075583 
L 221.092543 155.677375 
L 221.76009 158.149771 
L 222.434838 160.48119 
L 223.163315 162.684049 
L 223.773859 164.714186 
L 224.418388 166.629714 
L 225.033795 168.417792 
L 225.647699 170.081422 
L 226.261073 171.672649 
L 226.810907 173.190278 
L 227.374017 174.620939 
L 227.938271 175.993848 
L 228.482012 177.304486 
L 229.034998 178.603599 
L 229.583504 179.847319 
L 230.167363 181.022322 
L 230.653596 182.152975 
L 231.127303 183.255982 
L 231.628999 184.304414 
L 232.029076 185.323821 
L 232.455704 186.28975 
L 232.857227 187.222048 
L 233.269354 188.123172 
L 233.670723 189.013596 
L 234.128451 189.902212 
L 234.631116 190.761209 
L 235.033721 191.599488 
L 235.427086 192.414209 
L 235.798212 193.198399 
L 236.171741 193.955095 
L 236.546585 194.700836 
L 236.897738 195.439846 
L 237.251843 196.166277 
L 237.630217 196.891574 
L 237.943941 197.601551 
L 238.271261 198.289948 
L 238.610479 198.953664 
L 238.915408 199.603183 
L 239.230206 200.234129 
L 239.540054 200.855828 
L 239.860282 201.456012 
L 240.171878 202.035068 
L 240.548787 202.609024 
L 240.867279 203.16641 
L 241.1779 203.699087 
L 241.664549 204.223032 
L 242.061802 204.726117 
L 242.454936 205.22043 
L 242.898268 205.705604 
L 243.344203 206.192197 
L 243.773612 206.662778 
L 244.197666 207.129072 
L 244.624172 207.584376 
L 245.082273 208.04155 
L 245.483676 208.477116 
L 245.887326 208.912191 
L 246.303723 209.325929 
L 246.652417 209.717668 
" style="fill:none;stroke:#bcbd22;stroke-linecap:square;stroke-width:1.5;"/>
   </g>
   <g id="line2d_64">
    <path clip-path="url(#p8121431e4d)" d="M 205.375888 45.241276 
L 225.559912 59.376413 
L 239.420494 74.615862 
L 248.297515 90.096482 
L 254.501997 94.539555 
L 260.128829 112.327002 
L 264.504035 116.882448 
L 270.109162 134.588032 
L 272.64562 135.985594 
L 275.057717 137.221446 
L 277.1843 141.645215 
L 279.158273 145.865808 
L 280.841183 147.062107 
L 283.201604 151.422816 
L 284.939609 152.569922 
L 287.108351 156.972056 
L 289.699769 161.053433 
L 291.511298 162.188247 
L 294.181055 166.372119 
L 295.904389 167.432009 
L 297.277164 171.560375 
L 298.592832 175.463923 
L 299.937779 176.433124 
L 301.054585 180.18511 
L 302.146508 181.085166 
L 303.388194 184.388329 
L 304.119136 184.661236 
L 304.806048 184.901719 
L 306.051665 185.714148 
L 307.44374 186.528241 
L 308.627689 187.334684 
L 310.131738 188.131099 
L 311.359404 188.914429 
L 312.356075 189.682501 
L 312.957213 190.433463 
L 313.977617 191.162541 
L 314.969395 191.866301 
L 315.563245 192.536497 
L 316.164397 192.730744 
L 316.986831 193.427533 
L 317.809002 194.086404 
L 318.761552 194.271508 
L 319.687134 194.944929 
L 320.85605 195.574794 
L 321.866248 195.753619 
L 323.066842 196.39706 
L 324.120718 196.983341 
L 325.065137 197.159211 
L 325.96298 197.764203 
L 326.892319 197.929366 
L 327.798167 198.540099 
L 328.332504 199.096943 
L 329.110979 199.260476 
L 329.665449 199.82947 
L 330.307757 199.982986 
L 331.018985 202.021538 
L 331.431695 202.238605 
L 331.723354 202.391978 
L 332.059624 202.8959 
L 332.682527 203.035055 
L 333.036845 204.850667 
L 333.330833 205.05687 
L 333.57249 205.194466 
L 333.809784 205.651853 
L 334.216602 205.773415 
L 334.943794 207.494006 
L 335.683647 207.636001 
L 336.499793 207.754197 
L 337.245209 208.175286 
L 337.900102 208.580856 
L 338.666042 208.689335 
L 339.489683 210.163043 
L 340.148426 210.302289 
L 340.752767 210.41083 
L 341.491725 210.782112 
L 342.039248 210.880392 
L 342.689141 212.227633 
L 343.180897 212.356071 
L 343.837763 212.454645 
L 344.499835 212.783819 
L 344.997321 212.873433 
L 345.516143 214.03569 
L 345.901099 214.174136 
L 346.210357 214.272411 
L 346.618978 214.35596 
L 346.864347 214.666132 
L 347.074961 214.947425 
L 347.251903 214.97084 
L 347.445145 215.046953 
L 347.638863 215.121307 
L 347.823408 215.195591 
L 348.010701 215.269798 
L 348.278975 215.528282 
L 348.546497 215.556684 
L 348.876232 215.580211 
L 349.123401 215.600711 
L 349.454087 215.6715 
L 349.697733 215.742181 
L 349.883568 215.812063 
L 350.067078 215.881804 
" style="fill:none;stroke:#17becf;stroke-dasharray:5.55,2.4;stroke-dashoffset:0;stroke-width:1.5;"/>
   </g>
   <g id="line2d_65">
    <path clip-path="url(#p8121431e4d)" d="M 189.187582 131.7332 
L 209.887552 142.713238 
L 221.678646 146.692998 
L 230.427042 149.946752 
L 237.627085 152.578561 
L 244.216224 154.968536 
L 249.222319 157.174159 
L 252.934582 159.244512 
L 256.314514 161.191035 
L 259.639976 163.040827 
L 262.408232 164.794862 
L 265.42206 166.47085 
L 267.848041 168.068011 
L 269.452352 169.594942 
L 270.833827 171.055663 
L 272.245851 172.453062 
L 274.048899 173.792457 
L 275.970562 175.075161 
L 277.874742 176.306165 
L 279.738834 177.485895 
L 281.736449 178.616733 
L 283.625484 179.698075 
L 285.080691 180.605293 
L 286.969169 189.719402 
L 288.33417 193.202044 
L 289.340495 195.142838 
L 289.978975 195.999773 
L 290.715785 196.932173 
L 291.390289 197.741618 
L 292.189746 198.338405 
L 293.042527 198.939916 
L 293.71296 199.393721 
L 294.474094 199.728914 
L 295.029185 200.056243 
L 295.517828 200.374847 
L 296.082007 200.686911 
L 296.728322 200.990341 
L 297.55232 201.287823 
L 298.339546 201.577273 
L 299.109466 201.862031 
L 299.882721 202.139669 
L 300.658292 202.412734 
L 301.528511 202.680525 
L 302.360536 202.941152 
L 303.186258 203.198342 
L 303.841531 203.447121 
L 304.646539 203.699984 
L 305.193318 203.944033 
L 305.717576 204.184272 
L 306.320458 204.415714 
L 306.955155 204.646218 
L 307.661484 204.868211 
L 308.318145 205.089248 
L 308.973908 205.302048 
L 309.610054 205.514521 
L 310.221175 205.719275 
L 310.891508 205.924124 
L 311.547207 206.121636 
L 312.18637 206.319258 
L 312.814367 206.509751 
L 313.474199 206.700299 
L 313.998038 206.88416 
L 314.293959 207.068032 
L 314.604083 207.24552 
L 314.947176 207.422914 
L 315.293135 207.594162 
L 315.639463 207.766992 
L 315.981248 207.933717 
L 316.362158 208.103786 
L 316.703706 208.267669 
L 317.024752 208.429896 
L 317.385776 208.586455 
L 317.772864 208.743796 
L 318.104806 208.89573 
L 318.399373 209.050221 
L 318.708094 209.199367 
L 319.053183 209.347288 
L 319.426935 209.490228 
L 319.765359 209.635772 
L 320.057731 209.774429 
L 320.342963 209.915119 
L 320.7044 210.048156 
L 321.074531 210.18158 
L 321.303312 210.309681 
L 321.580595 210.436915 
L 321.884364 210.561408 
L 322.152575 210.684592 
L 322.438833 210.80598 
L 322.770131 210.925877 
L 323.110402 211.044171 
L 323.46042 211.160985 
L 323.838273 211.276293 
L 324.162848 211.373278 
L 324.674055 213.172888 
L 325.067085 214.697898 
L 325.518747 214.828705 
L 325.899439 214.910201 
L 326.36159 215.122387 
L 326.727156 215.235983 
L 327.224655 215.586502 
" style="fill:none;stroke:#1f77b4;stroke-dasharray:5.55,2.4;stroke-dashoffset:0;stroke-width:1.5;"/>
   </g>
   <g id="line2d_66">
    <path clip-path="url(#p8121431e4d)" d="M 286.19201 144.234385 
L 310.151068 195.17745 
L 324.185839 213.402431 
L 333.94206 216.714219 
L 341.638652 224.300006 
L 347.893573 227.390229 
L 353.163243 227.991436 
L 357.693816 228.774893 
L 361.632774 229.061047 
L 365.059943 229.353526 
" style="fill:none;stroke:#ff7f0e;stroke-dasharray:5.55,2.4;stroke-dashoffset:0;stroke-width:1.5;"/>
   </g>
   <g id="line2d_67">
    <path clip-path="url(#p8121431e4d)" d="M 138.562427 32.201761 
L 172.426539 32.201761 
L 179.074044 32.201761 
L 183.779891 32.201761 
L 187.993904 32.201761 
L 192.747213 32.201761 
L 196.129854 32.201761 
L 199.264049 32.201761 
L 202.67933 32.201761 
L 204.632237 32.201761 
L 206.509148 32.201761 
L 208.920371 32.201761 
L 211.176635 32.201761 
L 213.629946 32.201761 
L 215.745715 32.201761 
L 217.878263 32.201761 
L 220.141872 32.201761 
L 221.487277 32.201761 
L 223.072134 32.201761 
L 224.90913 32.201761 
L 226.441561 32.201761 
L 227.889378 32.201761 
L 229.660193 32.201761 
L 231.593915 32.201761 
L 232.975354 32.201761 
L 234.200526 32.201761 
L 235.163602 32.201761 
L 236.762306 32.201761 
L 237.54699 32.201761 
L 238.677278 32.201761 
L 239.558392 32.201761 
L 240.8042 32.201761 
L 241.962554 32.201761 
L 242.849726 32.201761 
L 243.978394 32.201761 
L 244.732522 32.201761 
L 245.671003 32.201761 
L 246.328724 32.201761 
L 247.207691 32.201761 
L 247.947863 32.201761 
L 248.68191 32.201761 
L 249.416385 32.201761 
L 250.108866 32.201761 
L 250.934073 32.201761 
L 251.687773 32.201761 
L 252.338208 32.201761 
L 253.109468 32.201761 
L 253.645878 32.201761 
L 254.354796 32.201761 
L 255.131193 32.201761 
L 255.83795 32.201761 
L 256.582021 32.201761 
L 257.078174 32.201761 
L 257.79952 32.201761 
L 258.699322 32.201761 
L 259.221398 32.201761 
L 260.176966 32.201761 
L 260.663581 32.201761 
L 261.146192 32.201761 
L 261.662029 32.201761 
L 262.113189 32.201761 
L 262.684668 32.201761 
L 263.266746 32.201761 
L 263.699473 32.201761 
L 264.207698 32.201761 
L 264.580174 32.201761 
L 264.886782 32.201761 
L 265.188941 32.201761 
L 265.495846 32.201761 
L 265.865079 32.201761 
L 266.465224 32.201761 
L 267.004551 32.201761 
L 267.398172 32.201761 
L 267.868416 32.201761 
L 268.462305 32.201761 
L 268.817685 32.201761 
L 269.157423 32.201761 
L 269.600217 32.201761 
L 269.996769 32.201761 
L 270.53772 32.201761 
L 271.148519 32.201761 
L 271.697202 32.201761 
L 272.049088 32.201761 
L 272.430987 32.201761 
L 272.759134 32.201761 
L 273.228428 32.201761 
L 273.671289 32.201761 
L 274.044277 32.201761 
L 274.630644 32.201761 
L 275.050075 32.201761 
L 275.438066 32.201761 
L 276.022769 32.201761 
L 276.298673 32.201761 
L 276.725645 32.201761 
L 277.091625 32.201761 
L 277.384664 32.201761 
L 277.689294 32.201761 
L 278.069547 32.201761 
L 278.370197 32.201761 
L 278.657379 32.201761 
" style="fill:none;stroke:#2ca02c;stroke-dasharray:5.55,2.4;stroke-dashoffset:0;stroke-width:1.5;"/>
   </g>
   <g id="patch_3">
    <path d="M 45.478125 239.758125 
L 45.478125 22.318125 
" style="fill:none;stroke:#000000;stroke-linecap:square;stroke-linejoin:miter;stroke-width:0.8;"/>
   </g>
   <g id="patch_4">
    <path d="M 380.278125 239.758125 
L 380.278125 22.318125 
" style="fill:none;stroke:#000000;stroke-linecap:square;stroke-linejoin:miter;stroke-width:0.8;"/>
   </g>
   <g id="patch_5">
    <path d="M 45.478125 239.758125 
L 380.278125 239.758125 
" style="fill:none;stroke:#000000;stroke-linecap:square;stroke-linejoin:miter;stroke-width:0.8;"/>
   </g>
   <g id="patch_6">
    <path d="M 45.478125 22.318125 
L 380.278125 22.318125 
" style="fill:none;stroke:#000000;stroke-linecap:square;stroke-linejoin:miter;stroke-width:0.8;"/>
   </g>
   <g id="text_9">
    <!-- TGG119 - Prostate -->
    <g transform="translate(157.77 16.318125)scale(0.12 -0.12)">
     <defs>
      <path d="M -0.296875 72.90625 
L 61.375 72.90625 
L 61.375 64.59375 
L 35.5 64.59375 
L 35.5 0 
L 25.59375 0 
L 25.59375 64.59375 
L -0.296875 64.59375 
z
" id="DejaVuSans-84"/>
      <path d="M 59.515625 10.40625 
L 59.515625 29.984375 
L 43.40625 29.984375 
L 43.40625 38.09375 
L 69.28125 38.09375 
L 69.28125 6.78125 
Q 63.578125 2.734375 56.6875 0.65625 
Q 49.8125 -1.421875 42 -1.421875 
Q 24.90625 -1.421875 15.25 8.5625 
Q 5.609375 18.5625 5.609375 36.375 
Q 5.609375 54.25 15.25 64.234375 
Q 24.90625 74.21875 42 74.21875 
Q 49.125 74.21875 55.546875 72.453125 
Q 61.96875 70.703125 67.390625 67.28125 
L 67.390625 56.78125 
Q 61.921875 61.421875 55.765625 63.765625 
Q 49.609375 66.109375 42.828125 66.109375 
Q 29.4375 66.109375 22.71875 58.640625 
Q 16.015625 51.171875 16.015625 36.375 
Q 16.015625 21.625 22.71875 14.15625 
Q 29.4375 6.6875 42.828125 6.6875 
Q 48.046875 6.6875 52.140625 7.59375 
Q 56.25 8.5 59.515625 10.40625 
z
" id="DejaVuSans-71"/>
      <path d="M 10.984375 1.515625 
L 10.984375 10.5 
Q 14.703125 8.734375 18.5 7.8125 
Q 22.3125 6.890625 25.984375 6.890625 
Q 35.75 6.890625 40.890625 13.453125 
Q 46.046875 20.015625 46.78125 33.40625 
Q 43.953125 29.203125 39.59375 26.953125 
Q 35.25 24.703125 29.984375 24.703125 
Q 19.046875 24.703125 12.671875 31.3125 
Q 6.296875 37.9375 6.296875 49.421875 
Q 6.296875 60.640625 12.9375 67.421875 
Q 19.578125 74.21875 30.609375 74.21875 
Q 43.265625 74.21875 49.921875 64.515625 
Q 56.59375 54.828125 56.59375 36.375 
Q 56.59375 19.140625 48.40625 8.859375 
Q 40.234375 -1.421875 26.421875 -1.421875 
Q 22.703125 -1.421875 18.890625 -0.6875 
Q 15.09375 0.046875 10.984375 1.515625 
z
M 30.609375 32.421875 
Q 37.25 32.421875 41.125 36.953125 
Q 45.015625 41.5 45.015625 49.421875 
Q 45.015625 57.28125 41.125 61.84375 
Q 37.25 66.40625 30.609375 66.40625 
Q 23.96875 66.40625 20.09375 61.84375 
Q 16.21875 57.28125 16.21875 49.421875 
Q 16.21875 41.5 20.09375 36.953125 
Q 23.96875 32.421875 30.609375 32.421875 
z
" id="DejaVuSans-57"/>
      <path d="M 4.890625 31.390625 
L 31.203125 31.390625 
L 31.203125 23.390625 
L 4.890625 23.390625 
z
" id="DejaVuSans-45"/>
      <path d="M 19.671875 64.796875 
L 19.671875 37.40625 
L 32.078125 37.40625 
Q 38.96875 37.40625 42.71875 40.96875 
Q 46.484375 44.53125 46.484375 51.125 
Q 46.484375 57.671875 42.71875 61.234375 
Q 38.96875 64.796875 32.078125 64.796875 
z
M 9.8125 72.90625 
L 32.078125 72.90625 
Q 44.34375 72.90625 50.609375 67.359375 
Q 56.890625 61.8125 56.890625 51.125 
Q 56.890625 40.328125 50.609375 34.8125 
Q 44.34375 29.296875 32.078125 29.296875 
L 19.671875 29.296875 
L 19.671875 0 
L 9.8125 0 
z
" id="DejaVuSans-80"/>
      <path d="M 41.109375 46.296875 
Q 39.59375 47.171875 37.8125 47.578125 
Q 36.03125 48 33.890625 48 
Q 26.265625 48 22.1875 43.046875 
Q 18.109375 38.09375 18.109375 28.8125 
L 18.109375 0 
L 9.078125 0 
L 9.078125 54.6875 
L 18.109375 54.6875 
L 18.109375 46.1875 
Q 20.953125 51.171875 25.484375 53.578125 
Q 30.03125 56 36.53125 56 
Q 37.453125 56 38.578125 55.875 
Q 39.703125 55.765625 41.0625 55.515625 
z
" id="DejaVuSans-114"/>
      <path d="M 34.28125 27.484375 
Q 23.390625 27.484375 19.1875 25 
Q 14.984375 22.515625 14.984375 16.5 
Q 14.984375 11.71875 18.140625 8.90625 
Q 21.296875 6.109375 26.703125 6.109375 
Q 34.1875 6.109375 38.703125 11.40625 
Q 43.21875 16.703125 43.21875 25.484375 
L 43.21875 27.484375 
z
M 52.203125 31.203125 
L 52.203125 0 
L 43.21875 0 
L 43.21875 8.296875 
Q 40.140625 3.328125 35.546875 0.953125 
Q 30.953125 -1.421875 24.3125 -1.421875 
Q 15.921875 -1.421875 10.953125 3.296875 
Q 6 8.015625 6 15.921875 
Q 6 25.140625 12.171875 29.828125 
Q 18.359375 34.515625 30.609375 34.515625 
L 43.21875 34.515625 
L 43.21875 35.40625 
Q 43.21875 41.609375 39.140625 45 
Q 35.0625 48.390625 27.6875 48.390625 
Q 23 48.390625 18.546875 47.265625 
Q 14.109375 46.140625 10.015625 43.890625 
L 10.015625 52.203125 
Q 14.9375 54.109375 19.578125 55.046875 
Q 24.21875 56 28.609375 56 
Q 40.484375 56 46.34375 49.84375 
Q 52.203125 43.703125 52.203125 31.203125 
z
" id="DejaVuSans-97"/>
     </defs>
     <use xlink:href="#DejaVuSans-84"/>
     <use x="61.083984" xlink:href="#DejaVuSans-71"/>
     <use x="138.574219" xlink:href="#DejaVuSans-71"/>
     <use x="216.064453" xlink:href="#DejaVuSans-49"/>
     <use x="279.6875" xlink:href="#DejaVuSans-49"/>
     <use x="343.310547" xlink:href="#DejaVuSans-57"/>
     <use x="406.933594" xlink:href="#DejaVuSans-32"/>
     <use x="438.720703" xlink:href="#DejaVuSans-45"/>
     <use x="474.804688" xlink:href="#DejaVuSans-32"/>
     <use x="506.591797" xlink:href="#DejaVuSans-80"/>
     <use x="565.144531" xlink:href="#DejaVuSans-114"/>
     <use x="604.007812" xlink:href="#DejaVuSans-111"/>
     <use x="665.189453" xlink:href="#DejaVuSans-115"/>
     <use x="717.289062" xlink:href="#DejaVuSans-116"/>
     <use x="756.498047" xlink:href="#DejaVuSans-97"/>
     <use x="817.777344" xlink:href="#DejaVuSans-116"/>
     <use x="856.986328" xlink:href="#DejaVuSans-101"/>
    </g>
   </g>
   <g id="legend_1">
    <g id="patch_7">
     <path d="M 390.626125 221.13375 
L 479.15425 221.13375 
Q 481.15425 221.13375 481.15425 219.13375 
L 481.15425 29.318125 
Q 481.15425 27.318125 479.15425 27.318125 
L 390.626125 27.318125 
Q 388.626125 27.318125 388.626125 29.318125 
L 388.626125 219.13375 
Q 388.626125 221.13375 390.626125 221.13375 
z
" style="fill:#ffffff;opacity:0.8;stroke:#cccccc;stroke-linejoin:miter;"/>
    </g>
    <g id="line2d_68">
     <path d="M 392.626125 35.416562 
L 412.626125 35.416562 
" style="fill:none;stroke:#1f77b4;stroke-linecap:square;stroke-width:1.5;"/>
    </g>
    <g id="line2d_69"/>
    <g id="text_10">
     <!-- NAdam -->
     <g transform="translate(420.626125 38.916562)scale(0.1 -0.1)">
      <defs>
       <path d="M 9.8125 72.90625 
L 23.09375 72.90625 
L 55.421875 11.921875 
L 55.421875 72.90625 
L 64.984375 72.90625 
L 64.984375 0 
L 51.703125 0 
L 19.390625 60.984375 
L 19.390625 0 
L 9.8125 0 
z
" id="DejaVuSans-78"/>
       <path d="M 34.1875 63.1875 
L 20.796875 26.90625 
L 47.609375 26.90625 
z
M 28.609375 72.90625 
L 39.796875 72.90625 
L 67.578125 0 
L 57.328125 0 
L 50.6875 18.703125 
L 17.828125 18.703125 
L 11.1875 0 
L 0.78125 0 
z
" id="DejaVuSans-65"/>
       <path d="M 45.40625 46.390625 
L 45.40625 75.984375 
L 54.390625 75.984375 
L 54.390625 0 
L 45.40625 0 
L 45.40625 8.203125 
Q 42.578125 3.328125 38.25 0.953125 
Q 33.9375 -1.421875 27.875 -1.421875 
Q 17.96875 -1.421875 11.734375 6.484375 
Q 5.515625 14.40625 5.515625 27.296875 
Q 5.515625 40.1875 11.734375 48.09375 
Q 17.96875 56 27.875 56 
Q 33.9375 56 38.25 53.625 
Q 42.578125 51.265625 45.40625 46.390625 
z
M 14.796875 27.296875 
Q 14.796875 17.390625 18.875 11.75 
Q 22.953125 6.109375 30.078125 6.109375 
Q 37.203125 6.109375 41.296875 11.75 
Q 45.40625 17.390625 45.40625 27.296875 
Q 45.40625 37.203125 41.296875 42.84375 
Q 37.203125 48.484375 30.078125 48.484375 
Q 22.953125 48.484375 18.875 42.84375 
Q 14.796875 37.203125 14.796875 27.296875 
z
" id="DejaVuSans-100"/>
      </defs>
      <use xlink:href="#DejaVuSans-78"/>
      <use x="74.804688" xlink:href="#DejaVuSans-65"/>
      <use x="141.462891" xlink:href="#DejaVuSans-100"/>
      <use x="204.939453" xlink:href="#DejaVuSans-97"/>
      <use x="266.21875" xlink:href="#DejaVuSans-109"/>
     </g>
    </g>
    <g id="line2d_70">
     <path d="M 392.626125 50.094687 
L 412.626125 50.094687 
" style="fill:none;stroke:#ff7f0e;stroke-linecap:square;stroke-width:1.5;"/>
    </g>
    <g id="line2d_71"/>
    <g id="text_11">
     <!-- RAdam -->
     <g transform="translate(420.626125 53.594687)scale(0.1 -0.1)">
      <defs>
       <path d="M 44.390625 34.1875 
Q 47.5625 33.109375 50.5625 29.59375 
Q 53.5625 26.078125 56.59375 19.921875 
L 66.609375 0 
L 56 0 
L 46.6875 18.703125 
Q 43.0625 26.03125 39.671875 28.421875 
Q 36.28125 30.8125 30.421875 30.8125 
L 19.671875 30.8125 
L 19.671875 0 
L 9.8125 0 
L 9.8125 72.90625 
L 32.078125 72.90625 
Q 44.578125 72.90625 50.734375 67.671875 
Q 56.890625 62.453125 56.890625 51.90625 
Q 56.890625 45.015625 53.6875 40.46875 
Q 50.484375 35.9375 44.390625 34.1875 
z
M 19.671875 64.796875 
L 19.671875 38.921875 
L 32.078125 38.921875 
Q 39.203125 38.921875 42.84375 42.21875 
Q 46.484375 45.515625 46.484375 51.90625 
Q 46.484375 58.296875 42.84375 61.546875 
Q 39.203125 64.796875 32.078125 64.796875 
z
" id="DejaVuSans-82"/>
      </defs>
      <use xlink:href="#DejaVuSans-82"/>
      <use x="65.482422" xlink:href="#DejaVuSans-65"/>
      <use x="132.140625" xlink:href="#DejaVuSans-100"/>
      <use x="195.617188" xlink:href="#DejaVuSans-97"/>
      <use x="256.896484" xlink:href="#DejaVuSans-109"/>
     </g>
    </g>
    <g id="line2d_72">
     <path d="M 392.626125 64.772812 
L 412.626125 64.772812 
" style="fill:none;stroke:#2ca02c;stroke-linecap:square;stroke-width:1.5;"/>
    </g>
    <g id="line2d_73"/>
    <g id="text_12">
     <!-- Adam -->
     <g transform="translate(420.626125 68.272812)scale(0.1 -0.1)">
      <use xlink:href="#DejaVuSans-65"/>
      <use x="66.658203" xlink:href="#DejaVuSans-100"/>
      <use x="130.134766" xlink:href="#DejaVuSans-97"/>
      <use x="191.414062" xlink:href="#DejaVuSans-109"/>
     </g>
    </g>
    <g id="line2d_74">
     <path d="M 392.626125 79.450937 
L 412.626125 79.450937 
" style="fill:none;stroke:#d62728;stroke-linecap:square;stroke-width:1.5;"/>
    </g>
    <g id="line2d_75"/>
    <g id="text_13">
     <!-- Adadelta -->
     <g transform="translate(420.626125 82.950937)scale(0.1 -0.1)">
      <defs>
       <path d="M 9.421875 75.984375 
L 18.40625 75.984375 
L 18.40625 0 
L 9.421875 0 
z
" id="DejaVuSans-108"/>
      </defs>
      <use xlink:href="#DejaVuSans-65"/>
      <use x="66.658203" xlink:href="#DejaVuSans-100"/>
      <use x="130.134766" xlink:href="#DejaVuSans-97"/>
      <use x="191.414062" xlink:href="#DejaVuSans-100"/>
      <use x="254.890625" xlink:href="#DejaVuSans-101"/>
      <use x="316.414062" xlink:href="#DejaVuSans-108"/>
      <use x="344.197266" xlink:href="#DejaVuSans-116"/>
      <use x="383.40625" xlink:href="#DejaVuSans-97"/>
     </g>
    </g>
    <g id="line2d_76">
     <path d="M 392.626125 94.129062 
L 412.626125 94.129062 
" style="fill:none;stroke:#9467bd;stroke-linecap:square;stroke-width:1.5;"/>
    </g>
    <g id="line2d_77"/>
    <g id="text_14">
     <!-- Adamax -->
     <g transform="translate(420.626125 97.629062)scale(0.1 -0.1)">
      <defs>
       <path d="M 54.890625 54.6875 
L 35.109375 28.078125 
L 55.90625 0 
L 45.3125 0 
L 29.390625 21.484375 
L 13.484375 0 
L 2.875 0 
L 24.125 28.609375 
L 4.6875 54.6875 
L 15.28125 54.6875 
L 29.78125 35.203125 
L 44.28125 54.6875 
z
" id="DejaVuSans-120"/>
      </defs>
      <use xlink:href="#DejaVuSans-65"/>
      <use x="66.658203" xlink:href="#DejaVuSans-100"/>
      <use x="130.134766" xlink:href="#DejaVuSans-97"/>
      <use x="191.414062" xlink:href="#DejaVuSans-109"/>
      <use x="288.826172" xlink:href="#DejaVuSans-97"/>
      <use x="350.105469" xlink:href="#DejaVuSans-120"/>
     </g>
    </g>
    <g id="line2d_78">
     <path d="M 392.626125 108.807187 
L 412.626125 108.807187 
" style="fill:none;stroke:#8c564b;stroke-linecap:square;stroke-width:1.5;"/>
    </g>
    <g id="line2d_79"/>
    <g id="text_15">
     <!-- SGD -->
     <g transform="translate(420.626125 112.307187)scale(0.1 -0.1)">
      <defs>
       <path d="M 53.515625 70.515625 
L 53.515625 60.890625 
Q 47.90625 63.578125 42.921875 64.890625 
Q 37.9375 66.21875 33.296875 66.21875 
Q 25.25 66.21875 20.875 63.09375 
Q 16.5 59.96875 16.5 54.203125 
Q 16.5 49.359375 19.40625 46.890625 
Q 22.3125 44.4375 30.421875 42.921875 
L 36.375 41.703125 
Q 47.40625 39.59375 52.65625 34.296875 
Q 57.90625 29 57.90625 20.125 
Q 57.90625 9.515625 50.796875 4.046875 
Q 43.703125 -1.421875 29.984375 -1.421875 
Q 24.8125 -1.421875 18.96875 -0.25 
Q 13.140625 0.921875 6.890625 3.21875 
L 6.890625 13.375 
Q 12.890625 10.015625 18.65625 8.296875 
Q 24.421875 6.59375 29.984375 6.59375 
Q 38.421875 6.59375 43.015625 9.90625 
Q 47.609375 13.234375 47.609375 19.390625 
Q 47.609375 24.75 44.3125 27.78125 
Q 41.015625 30.8125 33.5 32.328125 
L 27.484375 33.5 
Q 16.453125 35.6875 11.515625 40.375 
Q 6.59375 45.0625 6.59375 53.421875 
Q 6.59375 63.09375 13.40625 68.65625 
Q 20.21875 74.21875 32.171875 74.21875 
Q 37.3125 74.21875 42.625 73.28125 
Q 47.953125 72.359375 53.515625 70.515625 
z
" id="DejaVuSans-83"/>
       <path d="M 19.671875 64.796875 
L 19.671875 8.109375 
L 31.59375 8.109375 
Q 46.6875 8.109375 53.6875 14.9375 
Q 60.6875 21.78125 60.6875 36.53125 
Q 60.6875 51.171875 53.6875 57.984375 
Q 46.6875 64.796875 31.59375 64.796875 
z
M 9.8125 72.90625 
L 30.078125 72.90625 
Q 51.265625 72.90625 61.171875 64.09375 
Q 71.09375 55.28125 71.09375 36.53125 
Q 71.09375 17.671875 61.125 8.828125 
Q 51.171875 0 30.078125 0 
L 9.8125 0 
z
" id="DejaVuSans-68"/>
      </defs>
      <use xlink:href="#DejaVuSans-83"/>
      <use x="63.476562" xlink:href="#DejaVuSans-71"/>
      <use x="140.966797" xlink:href="#DejaVuSans-68"/>
     </g>
    </g>
    <g id="line2d_80">
     <path d="M 392.626125 123.485312 
L 412.626125 123.485312 
" style="fill:none;stroke:#e377c2;stroke-linecap:square;stroke-width:1.5;"/>
    </g>
    <g id="line2d_81"/>
    <g id="text_16">
     <!-- LBFGS -->
     <g transform="translate(420.626125 126.985312)scale(0.1 -0.1)">
      <defs>
       <path d="M 9.8125 72.90625 
L 19.671875 72.90625 
L 19.671875 8.296875 
L 55.171875 8.296875 
L 55.171875 0 
L 9.8125 0 
z
" id="DejaVuSans-76"/>
       <path d="M 19.671875 34.8125 
L 19.671875 8.109375 
L 35.5 8.109375 
Q 43.453125 8.109375 47.28125 11.40625 
Q 51.125 14.703125 51.125 21.484375 
Q 51.125 28.328125 47.28125 31.5625 
Q 43.453125 34.8125 35.5 34.8125 
z
M 19.671875 64.796875 
L 19.671875 42.828125 
L 34.28125 42.828125 
Q 41.5 42.828125 45.03125 45.53125 
Q 48.578125 48.25 48.578125 53.8125 
Q 48.578125 59.328125 45.03125 62.0625 
Q 41.5 64.796875 34.28125 64.796875 
z
M 9.8125 72.90625 
L 35.015625 72.90625 
Q 46.296875 72.90625 52.390625 68.21875 
Q 58.5 63.53125 58.5 54.890625 
Q 58.5 48.1875 55.375 44.234375 
Q 52.25 40.28125 46.1875 39.3125 
Q 53.46875 37.75 57.5 32.78125 
Q 61.53125 27.828125 61.53125 20.40625 
Q 61.53125 10.640625 54.890625 5.3125 
Q 48.25 0 35.984375 0 
L 9.8125 0 
z
" id="DejaVuSans-66"/>
       <path d="M 9.8125 72.90625 
L 51.703125 72.90625 
L 51.703125 64.59375 
L 19.671875 64.59375 
L 19.671875 43.109375 
L 48.578125 43.109375 
L 48.578125 34.8125 
L 19.671875 34.8125 
L 19.671875 0 
L 9.8125 0 
z
" id="DejaVuSans-70"/>
      </defs>
      <use xlink:href="#DejaVuSans-76"/>
      <use x="55.712891" xlink:href="#DejaVuSans-66"/>
      <use x="124.316406" xlink:href="#DejaVuSans-70"/>
      <use x="181.835938" xlink:href="#DejaVuSans-71"/>
      <use x="259.326172" xlink:href="#DejaVuSans-83"/>
     </g>
    </g>
    <g id="line2d_82">
     <path d="M 392.626125 138.163437 
L 412.626125 138.163437 
" style="fill:none;stroke:#7f7f7f;stroke-linecap:square;stroke-width:1.5;"/>
    </g>
    <g id="line2d_83"/>
    <g id="text_17">
     <!-- RMSprop -->
     <g transform="translate(420.626125 141.663437)scale(0.1 -0.1)">
      <defs>
       <path d="M 9.8125 72.90625 
L 24.515625 72.90625 
L 43.109375 23.296875 
L 61.8125 72.90625 
L 76.515625 72.90625 
L 76.515625 0 
L 66.890625 0 
L 66.890625 64.015625 
L 48.09375 14.015625 
L 38.1875 14.015625 
L 19.390625 64.015625 
L 19.390625 0 
L 9.8125 0 
z
" id="DejaVuSans-77"/>
       <path d="M 18.109375 8.203125 
L 18.109375 -20.796875 
L 9.078125 -20.796875 
L 9.078125 54.6875 
L 18.109375 54.6875 
L 18.109375 46.390625 
Q 20.953125 51.265625 25.265625 53.625 
Q 29.59375 56 35.59375 56 
Q 45.5625 56 51.78125 48.09375 
Q 58.015625 40.1875 58.015625 27.296875 
Q 58.015625 14.40625 51.78125 6.484375 
Q 45.5625 -1.421875 35.59375 -1.421875 
Q 29.59375 -1.421875 25.265625 0.953125 
Q 20.953125 3.328125 18.109375 8.203125 
z
M 48.6875 27.296875 
Q 48.6875 37.203125 44.609375 42.84375 
Q 40.53125 48.484375 33.40625 48.484375 
Q 26.265625 48.484375 22.1875 42.84375 
Q 18.109375 37.203125 18.109375 27.296875 
Q 18.109375 17.390625 22.1875 11.75 
Q 26.265625 6.109375 33.40625 6.109375 
Q 40.53125 6.109375 44.609375 11.75 
Q 48.6875 17.390625 48.6875 27.296875 
z
" id="DejaVuSans-112"/>
      </defs>
      <use xlink:href="#DejaVuSans-82"/>
      <use x="69.482422" xlink:href="#DejaVuSans-77"/>
      <use x="155.761719" xlink:href="#DejaVuSans-83"/>
      <use x="219.238281" xlink:href="#DejaVuSans-112"/>
      <use x="282.714844" xlink:href="#DejaVuSans-114"/>
      <use x="321.578125" xlink:href="#DejaVuSans-111"/>
      <use x="382.759766" xlink:href="#DejaVuSans-112"/>
     </g>
    </g>
    <g id="line2d_84">
     <path d="M 392.626125 152.841562 
L 412.626125 152.841562 
" style="fill:none;stroke:#bcbd22;stroke-linecap:square;stroke-width:1.5;"/>
    </g>
    <g id="line2d_85"/>
    <g id="text_18">
     <!-- Rprop -->
     <g transform="translate(420.626125 156.341562)scale(0.1 -0.1)">
      <use xlink:href="#DejaVuSans-82"/>
      <use x="69.482422" xlink:href="#DejaVuSans-112"/>
      <use x="132.958984" xlink:href="#DejaVuSans-114"/>
      <use x="171.822266" xlink:href="#DejaVuSans-111"/>
      <use x="233.003906" xlink:href="#DejaVuSans-112"/>
     </g>
    </g>
    <g id="line2d_86">
     <path d="M 392.626125 167.519687 
L 412.626125 167.519687 
" style="fill:none;stroke:#17becf;stroke-dasharray:5.55,2.4;stroke-dashoffset:0;stroke-width:1.5;"/>
    </g>
    <g id="line2d_87"/>
    <g id="text_19">
     <!-- BFGS -->
     <g transform="translate(420.626125 171.019687)scale(0.1 -0.1)">
      <use xlink:href="#DejaVuSans-66"/>
      <use x="68.603516" xlink:href="#DejaVuSans-70"/>
      <use x="126.123047" xlink:href="#DejaVuSans-71"/>
      <use x="203.613281" xlink:href="#DejaVuSans-83"/>
     </g>
    </g>
    <g id="line2d_88">
     <path d="M 392.626125 182.197812 
L 412.626125 182.197812 
" style="fill:none;stroke:#1f77b4;stroke-dasharray:5.55,2.4;stroke-dashoffset:0;stroke-width:1.5;"/>
    </g>
    <g id="line2d_89"/>
    <g id="text_20">
     <!-- CG -->
     <g transform="translate(420.626125 185.697812)scale(0.1 -0.1)">
      <defs>
       <path d="M 64.40625 67.28125 
L 64.40625 56.890625 
Q 59.421875 61.53125 53.78125 63.8125 
Q 48.140625 66.109375 41.796875 66.109375 
Q 29.296875 66.109375 22.65625 58.46875 
Q 16.015625 50.828125 16.015625 36.375 
Q 16.015625 21.96875 22.65625 14.328125 
Q 29.296875 6.6875 41.796875 6.6875 
Q 48.140625 6.6875 53.78125 8.984375 
Q 59.421875 11.28125 64.40625 15.921875 
L 64.40625 5.609375 
Q 59.234375 2.09375 53.4375 0.328125 
Q 47.65625 -1.421875 41.21875 -1.421875 
Q 24.65625 -1.421875 15.125 8.703125 
Q 5.609375 18.84375 5.609375 36.375 
Q 5.609375 53.953125 15.125 64.078125 
Q 24.65625 74.21875 41.21875 74.21875 
Q 47.75 74.21875 53.53125 72.484375 
Q 59.328125 70.75 64.40625 67.28125 
z
" id="DejaVuSans-67"/>
      </defs>
      <use xlink:href="#DejaVuSans-67"/>
      <use x="69.824219" xlink:href="#DejaVuSans-71"/>
     </g>
    </g>
    <g id="line2d_90">
     <path d="M 392.626125 196.875937 
L 412.626125 196.875937 
" style="fill:none;stroke:#ff7f0e;stroke-dasharray:5.55,2.4;stroke-dashoffset:0;stroke-width:1.5;"/>
    </g>
    <g id="line2d_91"/>
    <g id="text_21">
     <!-- Newton-CG -->
     <g transform="translate(420.626125 200.375937)scale(0.1 -0.1)">
      <defs>
       <path d="M 4.203125 54.6875 
L 13.1875 54.6875 
L 24.421875 12.015625 
L 35.59375 54.6875 
L 46.1875 54.6875 
L 57.421875 12.015625 
L 68.609375 54.6875 
L 77.59375 54.6875 
L 63.28125 0 
L 52.6875 0 
L 40.921875 44.828125 
L 29.109375 0 
L 18.5 0 
z
" id="DejaVuSans-119"/>
       <path d="M 54.890625 33.015625 
L 54.890625 0 
L 45.90625 0 
L 45.90625 32.71875 
Q 45.90625 40.484375 42.875 44.328125 
Q 39.84375 48.1875 33.796875 48.1875 
Q 26.515625 48.1875 22.3125 43.546875 
Q 18.109375 38.921875 18.109375 30.90625 
L 18.109375 0 
L 9.078125 0 
L 9.078125 54.6875 
L 18.109375 54.6875 
L 18.109375 46.1875 
Q 21.34375 51.125 25.703125 53.5625 
Q 30.078125 56 35.796875 56 
Q 45.21875 56 50.046875 50.171875 
Q 54.890625 44.34375 54.890625 33.015625 
z
" id="DejaVuSans-110"/>
      </defs>
      <use xlink:href="#DejaVuSans-78"/>
      <use x="74.804688" xlink:href="#DejaVuSans-101"/>
      <use x="136.328125" xlink:href="#DejaVuSans-119"/>
      <use x="218.115234" xlink:href="#DejaVuSans-116"/>
      <use x="257.324219" xlink:href="#DejaVuSans-111"/>
      <use x="318.505859" xlink:href="#DejaVuSans-110"/>
      <use x="381.884766" xlink:href="#DejaVuSans-45"/>
      <use x="417.96875" xlink:href="#DejaVuSans-67"/>
      <use x="487.792969" xlink:href="#DejaVuSans-71"/>
     </g>
    </g>
    <g id="line2d_92">
     <path d="M 392.626125 211.554062 
L 412.626125 211.554062 
" style="fill:none;stroke:#2ca02c;stroke-dasharray:5.55,2.4;stroke-dashoffset:0;stroke-width:1.5;"/>
    </g>
    <g id="line2d_93"/>
    <g id="text_22">
     <!-- SLSQP -->
     <g transform="translate(420.626125 215.054062)scale(0.1 -0.1)">
      <defs>
       <path d="M 39.40625 66.21875 
Q 28.65625 66.21875 22.328125 58.203125 
Q 16.015625 50.203125 16.015625 36.375 
Q 16.015625 22.609375 22.328125 14.59375 
Q 28.65625 6.59375 39.40625 6.59375 
Q 50.140625 6.59375 56.421875 14.59375 
Q 62.703125 22.609375 62.703125 36.375 
Q 62.703125 50.203125 56.421875 58.203125 
Q 50.140625 66.21875 39.40625 66.21875 
z
M 53.21875 1.3125 
L 66.21875 -12.890625 
L 54.296875 -12.890625 
L 43.5 -1.21875 
Q 41.890625 -1.3125 41.03125 -1.359375 
Q 40.1875 -1.421875 39.40625 -1.421875 
Q 24.03125 -1.421875 14.8125 8.859375 
Q 5.609375 19.140625 5.609375 36.375 
Q 5.609375 53.65625 14.8125 63.9375 
Q 24.03125 74.21875 39.40625 74.21875 
Q 54.734375 74.21875 63.90625 63.9375 
Q 73.09375 53.65625 73.09375 36.375 
Q 73.09375 23.6875 67.984375 14.640625 
Q 62.890625 5.609375 53.21875 1.3125 
z
" id="DejaVuSans-81"/>
      </defs>
      <use xlink:href="#DejaVuSans-83"/>
      <use x="63.476562" xlink:href="#DejaVuSans-76"/>
      <use x="119.189453" xlink:href="#DejaVuSans-83"/>
      <use x="182.666016" xlink:href="#DejaVuSans-81"/>
      <use x="261.376953" xlink:href="#DejaVuSans-80"/>
     </g>
    </g>
   </g>
  </g>
 </g>
 <defs>
  <clipPath id="p8121431e4d">
   <rect height="217.44" width="334.8" x="45.478125" y="22.318125"/>
  </clipPath>
 </defs>
</svg>
