<?xml version="1.0" encoding="utf-8" standalone="no"?>
<!DOCTYPE svg PUBLIC "-//W3C//DTD SVG 1.1//EN"
  "http://www.w3.org/Graphics/SVG/1.1/DTD/svg11.dtd">
<!-- Created with matplotlib (https://matplotlib.org/) -->
<svg height="277.314375pt" version="1.1" viewBox="0 0 488.35425 277.314375" width="488.35425pt" xmlns="http://www.w3.org/2000/svg" xmlns:xlink="http://www.w3.org/1999/xlink">
 <metadata>
  <rdf:RDF xmlns:cc="http://creativecommons.org/ns#" xmlns:dc="http://purl.org/dc/elements/1.1/" xmlns:rdf="http://www.w3.org/1999/02/22-rdf-syntax-ns#">
   <cc:Work>
    <dc:type rdf:resource="http://purl.org/dc/dcmitype/StillImage"/>
    <dc:date>2023-05-25T09:18:43.735978</dc:date>
    <dc:format>image/svg+xml</dc:format>
    <dc:creator>
     <cc:Agent>
      <dc:title>Matplotlib v3.3.2, https://matplotlib.org/</dc:title>
     </cc:Agent>
    </dc:creator>
   </cc:Work>
  </rdf:RDF>
 </metadata>
 <defs>
  <style type="text/css">*{stroke-linecap:butt;stroke-linejoin:round;}</style>
 </defs>
 <g id="figure_1">
  <g id="patch_1">
   <path d="M 0 277.314375 
L 488.35425 277.314375 
L 488.35425 0 
L 0 0 
z
" style="fill:none;"/>
  </g>
  <g id="axes_1">
   <g id="patch_2">
    <path d="M 45.478125 239.758125 
L 380.278125 239.758125 
L 380.278125 22.318125 
L 45.478125 22.318125 
z
" style="fill:#ffffff;"/>
   </g>
   <g id="matplotlib.axis_1">
    <g id="xtick_1">
     <g id="line2d_1">
      <defs>
       <path d="M 0 0 
L 0 3.5 
" id="m4b63d39239" style="stroke:#000000;stroke-width:0.8;"/>
      </defs>
      <g>
       <use style="stroke:#000000;stroke-width:0.8;" x="60.696307" xlink:href="#m4b63d39239" y="239.758125"/>
      </g>
     </g>
     <g id="text_1">
      <!-- $\mathdefault{10^{0}}$ -->
      <g transform="translate(51.896307 254.356562)scale(0.1 -0.1)">
       <defs>
        <path d="M 12.40625 8.296875 
L 28.515625 8.296875 
L 28.515625 63.921875 
L 10.984375 60.40625 
L 10.984375 69.390625 
L 28.421875 72.90625 
L 38.28125 72.90625 
L 38.28125 8.296875 
L 54.390625 8.296875 
L 54.390625 0 
L 12.40625 0 
z
" id="DejaVuSans-49"/>
        <path d="M 31.78125 66.40625 
Q 24.171875 66.40625 20.328125 58.90625 
Q 16.5 51.421875 16.5 36.375 
Q 16.5 21.390625 20.328125 13.890625 
Q 24.171875 6.390625 31.78125 6.390625 
Q 39.453125 6.390625 43.28125 13.890625 
Q 47.125 21.390625 47.125 36.375 
Q 47.125 51.421875 43.28125 58.90625 
Q 39.453125 66.40625 31.78125 66.40625 
z
M 31.78125 74.21875 
Q 44.046875 74.21875 50.515625 64.515625 
Q 56.984375 54.828125 56.984375 36.375 
Q 56.984375 17.96875 50.515625 8.265625 
Q 44.046875 -1.421875 31.78125 -1.421875 
Q 19.53125 -1.421875 13.0625 8.265625 
Q 6.59375 17.96875 6.59375 36.375 
Q 6.59375 54.828125 13.0625 64.515625 
Q 19.53125 74.21875 31.78125 74.21875 
z
" id="DejaVuSans-48"/>
       </defs>
       <use transform="translate(0 0.765625)" xlink:href="#DejaVuSans-49"/>
       <use transform="translate(63.623047 0.765625)" xlink:href="#DejaVuSans-48"/>
       <use transform="translate(128.203125 39.046875)scale(0.7)" xlink:href="#DejaVuSans-48"/>
      </g>
     </g>
    </g>
    <g id="xtick_2">
     <g id="line2d_2">
      <g>
       <use style="stroke:#000000;stroke-width:0.8;" x="213.210973" xlink:href="#m4b63d39239" y="239.758125"/>
      </g>
     </g>
     <g id="text_2">
      <!-- $\mathdefault{10^{1}}$ -->
      <g transform="translate(204.410973 254.356562)scale(0.1 -0.1)">
       <use transform="translate(0 0.684375)" xlink:href="#DejaVuSans-49"/>
       <use transform="translate(63.623047 0.684375)" xlink:href="#DejaVuSans-48"/>
       <use transform="translate(128.203125 38.965625)scale(0.7)" xlink:href="#DejaVuSans-49"/>
      </g>
     </g>
    </g>
    <g id="xtick_3">
     <g id="line2d_3">
      <g>
       <use style="stroke:#000000;stroke-width:0.8;" x="365.72564" xlink:href="#m4b63d39239" y="239.758125"/>
      </g>
     </g>
     <g id="text_3">
      <!-- $\mathdefault{10^{2}}$ -->
      <g transform="translate(356.92564 254.356562)scale(0.1 -0.1)">
       <defs>
        <path d="M 19.1875 8.296875 
L 53.609375 8.296875 
L 53.609375 0 
L 7.328125 0 
L 7.328125 8.296875 
Q 12.9375 14.109375 22.625 23.890625 
Q 32.328125 33.6875 34.8125 36.53125 
Q 39.546875 41.84375 41.421875 45.53125 
Q 43.3125 49.21875 43.3125 52.78125 
Q 43.3125 58.59375 39.234375 62.25 
Q 35.15625 65.921875 28.609375 65.921875 
Q 23.96875 65.921875 18.8125 64.3125 
Q 13.671875 62.703125 7.8125 59.421875 
L 7.8125 69.390625 
Q 13.765625 71.78125 18.9375 73 
Q 24.125 74.21875 28.421875 74.21875 
Q 39.75 74.21875 46.484375 68.546875 
Q 53.21875 62.890625 53.21875 53.421875 
Q 53.21875 48.921875 51.53125 44.890625 
Q 49.859375 40.875 45.40625 35.40625 
Q 44.1875 33.984375 37.640625 27.21875 
Q 31.109375 20.453125 19.1875 8.296875 
z
" id="DejaVuSans-50"/>
       </defs>
       <use transform="translate(0 0.765625)" xlink:href="#DejaVuSans-49"/>
       <use transform="translate(63.623047 0.765625)" xlink:href="#DejaVuSans-48"/>
       <use transform="translate(128.203125 39.046875)scale(0.7)" xlink:href="#DejaVuSans-50"/>
      </g>
     </g>
    </g>
    <g id="xtick_4">
     <g id="line2d_4">
      <defs>
       <path d="M 0 0 
L 0 2 
" id="mb309b86449" style="stroke:#000000;stroke-width:0.6;"/>
      </defs>
      <g>
       <use style="stroke:#000000;stroke-width:0.6;" x="45.916108" xlink:href="#mb309b86449" y="239.758125"/>
      </g>
     </g>
    </g>
    <g id="xtick_5">
     <g id="line2d_5">
      <g>
       <use style="stroke:#000000;stroke-width:0.6;" x="53.717618" xlink:href="#mb309b86449" y="239.758125"/>
      </g>
     </g>
    </g>
    <g id="xtick_6">
     <g id="line2d_6">
      <g>
       <use style="stroke:#000000;stroke-width:0.6;" x="106.607796" xlink:href="#mb309b86449" y="239.758125"/>
      </g>
     </g>
    </g>
    <g id="xtick_7">
     <g id="line2d_7">
      <g>
       <use style="stroke:#000000;stroke-width:0.6;" x="133.464296" xlink:href="#mb309b86449" y="239.758125"/>
      </g>
     </g>
    </g>
    <g id="xtick_8">
     <g id="line2d_8">
      <g>
       <use style="stroke:#000000;stroke-width:0.6;" x="152.519286" xlink:href="#mb309b86449" y="239.758125"/>
      </g>
     </g>
    </g>
    <g id="xtick_9">
     <g id="line2d_9">
      <g>
       <use style="stroke:#000000;stroke-width:0.6;" x="167.299484" xlink:href="#mb309b86449" y="239.758125"/>
      </g>
     </g>
    </g>
    <g id="xtick_10">
     <g id="line2d_10">
      <g>
       <use style="stroke:#000000;stroke-width:0.6;" x="179.375785" xlink:href="#mb309b86449" y="239.758125"/>
      </g>
     </g>
    </g>
    <g id="xtick_11">
     <g id="line2d_11">
      <g>
       <use style="stroke:#000000;stroke-width:0.6;" x="189.586153" xlink:href="#mb309b86449" y="239.758125"/>
      </g>
     </g>
    </g>
    <g id="xtick_12">
     <g id="line2d_12">
      <g>
       <use style="stroke:#000000;stroke-width:0.6;" x="198.430775" xlink:href="#mb309b86449" y="239.758125"/>
      </g>
     </g>
    </g>
    <g id="xtick_13">
     <g id="line2d_13">
      <g>
       <use style="stroke:#000000;stroke-width:0.6;" x="206.232285" xlink:href="#mb309b86449" y="239.758125"/>
      </g>
     </g>
    </g>
    <g id="xtick_14">
     <g id="line2d_14">
      <g>
       <use style="stroke:#000000;stroke-width:0.6;" x="259.122463" xlink:href="#mb309b86449" y="239.758125"/>
      </g>
     </g>
    </g>
    <g id="xtick_15">
     <g id="line2d_15">
      <g>
       <use style="stroke:#000000;stroke-width:0.6;" x="285.978963" xlink:href="#mb309b86449" y="239.758125"/>
      </g>
     </g>
    </g>
    <g id="xtick_16">
     <g id="line2d_16">
      <g>
       <use style="stroke:#000000;stroke-width:0.6;" x="305.033952" xlink:href="#mb309b86449" y="239.758125"/>
      </g>
     </g>
    </g>
    <g id="xtick_17">
     <g id="line2d_17">
      <g>
       <use style="stroke:#000000;stroke-width:0.6;" x="319.814151" xlink:href="#mb309b86449" y="239.758125"/>
      </g>
     </g>
    </g>
    <g id="xtick_18">
     <g id="line2d_18">
      <g>
       <use style="stroke:#000000;stroke-width:0.6;" x="331.890452" xlink:href="#mb309b86449" y="239.758125"/>
      </g>
     </g>
    </g>
    <g id="xtick_19">
     <g id="line2d_19">
      <g>
       <use style="stroke:#000000;stroke-width:0.6;" x="342.100819" xlink:href="#mb309b86449" y="239.758125"/>
      </g>
     </g>
    </g>
    <g id="xtick_20">
     <g id="line2d_20">
      <g>
       <use style="stroke:#000000;stroke-width:0.6;" x="350.945442" xlink:href="#mb309b86449" y="239.758125"/>
      </g>
     </g>
    </g>
    <g id="xtick_21">
     <g id="line2d_21">
      <g>
       <use style="stroke:#000000;stroke-width:0.6;" x="358.746952" xlink:href="#mb309b86449" y="239.758125"/>
      </g>
     </g>
    </g>
    <g id="text_4">
     <!-- iteration -->
     <g transform="translate(191.755469 268.034687)scale(0.1 -0.1)">
      <defs>
       <path d="M 9.421875 54.6875 
L 18.40625 54.6875 
L 18.40625 0 
L 9.421875 0 
z
M 9.421875 75.984375 
L 18.40625 75.984375 
L 18.40625 64.59375 
L 9.421875 64.59375 
z
" id="DejaVuSans-105"/>
       <path d="M 18.3125 70.21875 
L 18.3125 54.6875 
L 36.8125 54.6875 
L 36.8125 47.703125 
L 18.3125 47.703125 
L 18.3125 18.015625 
Q 18.3125 11.328125 20.140625 9.421875 
Q 21.96875 7.515625 27.59375 7.515625 
L 36.8125 7.515625 
L 36.8125 0 
L 27.59375 0 
Q 17.1875 0 13.234375 3.875 
Q 9.28125 7.765625 9.28125 18.015625 
L 9.28125 47.703125 
L 2.6875 47.703125 
L 2.6875 54.6875 
L 9.28125 54.6875 
L 9.28125 70.21875 
z
" id="DejaVuSans-116"/>
       <path d="M 56.203125 29.59375 
L 56.203125 25.203125 
L 14.890625 25.203125 
Q 15.484375 15.921875 20.484375 11.0625 
Q 25.484375 6.203125 34.421875 6.203125 
Q 39.59375 6.203125 44.453125 7.46875 
Q 49.3125 8.734375 54.109375 11.28125 
L 54.109375 2.78125 
Q 49.265625 0.734375 44.1875 -0.34375 
Q 39.109375 -1.421875 33.890625 -1.421875 
Q 20.796875 -1.421875 13.15625 6.1875 
Q 5.515625 13.8125 5.515625 26.8125 
Q 5.515625 40.234375 12.765625 48.109375 
Q 20.015625 56 32.328125 56 
Q 43.359375 56 49.78125 48.890625 
Q 56.203125 41.796875 56.203125 29.59375 
z
M 47.21875 32.234375 
Q 47.125 39.59375 43.09375 43.984375 
Q 39.0625 48.390625 32.421875 48.390625 
Q 24.90625 48.390625 20.390625 44.140625 
Q 15.875 39.890625 15.1875 32.171875 
z
" id="DejaVuSans-101"/>
       <path d="M 41.109375 46.296875 
Q 39.59375 47.171875 37.8125 47.578125 
Q 36.03125 48 33.890625 48 
Q 26.265625 48 22.1875 43.046875 
Q 18.109375 38.09375 18.109375 28.8125 
L 18.109375 0 
L 9.078125 0 
L 9.078125 54.6875 
L 18.109375 54.6875 
L 18.109375 46.1875 
Q 20.953125 51.171875 25.484375 53.578125 
Q 30.03125 56 36.53125 56 
Q 37.453125 56 38.578125 55.875 
Q 39.703125 55.765625 41.0625 55.515625 
z
" id="DejaVuSans-114"/>
       <path d="M 34.28125 27.484375 
Q 23.390625 27.484375 19.1875 25 
Q 14.984375 22.515625 14.984375 16.5 
Q 14.984375 11.71875 18.140625 8.90625 
Q 21.296875 6.109375 26.703125 6.109375 
Q 34.1875 6.109375 38.703125 11.40625 
Q 43.21875 16.703125 43.21875 25.484375 
L 43.21875 27.484375 
z
M 52.203125 31.203125 
L 52.203125 0 
L 43.21875 0 
L 43.21875 8.296875 
Q 40.140625 3.328125 35.546875 0.953125 
Q 30.953125 -1.421875 24.3125 -1.421875 
Q 15.921875 -1.421875 10.953125 3.296875 
Q 6 8.015625 6 15.921875 
Q 6 25.140625 12.171875 29.828125 
Q 18.359375 34.515625 30.609375 34.515625 
L 43.21875 34.515625 
L 43.21875 35.40625 
Q 43.21875 41.609375 39.140625 45 
Q 35.0625 48.390625 27.6875 48.390625 
Q 23 48.390625 18.546875 47.265625 
Q 14.109375 46.140625 10.015625 43.890625 
L 10.015625 52.203125 
Q 14.9375 54.109375 19.578125 55.046875 
Q 24.21875 56 28.609375 56 
Q 40.484375 56 46.34375 49.84375 
Q 52.203125 43.703125 52.203125 31.203125 
z
" id="DejaVuSans-97"/>
       <path d="M 30.609375 48.390625 
Q 23.390625 48.390625 19.1875 42.75 
Q 14.984375 37.109375 14.984375 27.296875 
Q 14.984375 17.484375 19.15625 11.84375 
Q 23.34375 6.203125 30.609375 6.203125 
Q 37.796875 6.203125 41.984375 11.859375 
Q 46.1875 17.53125 46.1875 27.296875 
Q 46.1875 37.015625 41.984375 42.703125 
Q 37.796875 48.390625 30.609375 48.390625 
z
M 30.609375 56 
Q 42.328125 56 49.015625 48.375 
Q 55.71875 40.765625 55.71875 27.296875 
Q 55.71875 13.875 49.015625 6.21875 
Q 42.328125 -1.421875 30.609375 -1.421875 
Q 18.84375 -1.421875 12.171875 6.21875 
Q 5.515625 13.875 5.515625 27.296875 
Q 5.515625 40.765625 12.171875 48.375 
Q 18.84375 56 30.609375 56 
z
" id="DejaVuSans-111"/>
       <path d="M 54.890625 33.015625 
L 54.890625 0 
L 45.90625 0 
L 45.90625 32.71875 
Q 45.90625 40.484375 42.875 44.328125 
Q 39.84375 48.1875 33.796875 48.1875 
Q 26.515625 48.1875 22.3125 43.546875 
Q 18.109375 38.921875 18.109375 30.90625 
L 18.109375 0 
L 9.078125 0 
L 9.078125 54.6875 
L 18.109375 54.6875 
L 18.109375 46.1875 
Q 21.34375 51.125 25.703125 53.5625 
Q 30.078125 56 35.796875 56 
Q 45.21875 56 50.046875 50.171875 
Q 54.890625 44.34375 54.890625 33.015625 
z
" id="DejaVuSans-110"/>
      </defs>
      <use xlink:href="#DejaVuSans-105"/>
      <use x="27.783203" xlink:href="#DejaVuSans-116"/>
      <use x="66.992188" xlink:href="#DejaVuSans-101"/>
      <use x="128.515625" xlink:href="#DejaVuSans-114"/>
      <use x="169.628906" xlink:href="#DejaVuSans-97"/>
      <use x="230.908203" xlink:href="#DejaVuSans-116"/>
      <use x="270.117188" xlink:href="#DejaVuSans-105"/>
      <use x="297.900391" xlink:href="#DejaVuSans-111"/>
      <use x="359.082031" xlink:href="#DejaVuSans-110"/>
     </g>
    </g>
   </g>
   <g id="matplotlib.axis_2">
    <g id="ytick_1">
     <g id="line2d_22">
      <defs>
       <path d="M 0 0 
L -3.5 0 
" id="mda3a4202b7" style="stroke:#000000;stroke-width:0.8;"/>
      </defs>
      <g>
       <use style="stroke:#000000;stroke-width:0.8;" x="45.478125" xlink:href="#mda3a4202b7" y="163.30803"/>
      </g>
     </g>
     <g id="text_5">
      <!-- $\mathdefault{10^{6}}$ -->
      <g transform="translate(20.878125 167.107249)scale(0.1 -0.1)">
       <defs>
        <path d="M 33.015625 40.375 
Q 26.375 40.375 22.484375 35.828125 
Q 18.609375 31.296875 18.609375 23.390625 
Q 18.609375 15.53125 22.484375 10.953125 
Q 26.375 6.390625 33.015625 6.390625 
Q 39.65625 6.390625 43.53125 10.953125 
Q 47.40625 15.53125 47.40625 23.390625 
Q 47.40625 31.296875 43.53125 35.828125 
Q 39.65625 40.375 33.015625 40.375 
z
M 52.59375 71.296875 
L 52.59375 62.3125 
Q 48.875 64.0625 45.09375 64.984375 
Q 41.3125 65.921875 37.59375 65.921875 
Q 27.828125 65.921875 22.671875 59.328125 
Q 17.53125 52.734375 16.796875 39.40625 
Q 19.671875 43.65625 24.015625 45.921875 
Q 28.375 48.1875 33.59375 48.1875 
Q 44.578125 48.1875 50.953125 41.515625 
Q 57.328125 34.859375 57.328125 23.390625 
Q 57.328125 12.15625 50.6875 5.359375 
Q 44.046875 -1.421875 33.015625 -1.421875 
Q 20.359375 -1.421875 13.671875 8.265625 
Q 6.984375 17.96875 6.984375 36.375 
Q 6.984375 53.65625 15.1875 63.9375 
Q 23.390625 74.21875 37.203125 74.21875 
Q 40.921875 74.21875 44.703125 73.484375 
Q 48.484375 72.75 52.59375 71.296875 
z
" id="DejaVuSans-54"/>
       </defs>
       <use transform="translate(0 0.765625)" xlink:href="#DejaVuSans-49"/>
       <use transform="translate(63.623047 0.765625)" xlink:href="#DejaVuSans-48"/>
       <use transform="translate(128.203125 39.046875)scale(0.7)" xlink:href="#DejaVuSans-54"/>
      </g>
     </g>
    </g>
    <g id="ytick_2">
     <g id="line2d_23">
      <defs>
       <path d="M 0 0 
L -2 0 
" id="m1645a14d2e" style="stroke:#000000;stroke-width:0.6;"/>
      </defs>
      <g>
       <use style="stroke:#000000;stroke-width:0.6;" x="45.478125" xlink:href="#m1645a14d2e" y="237.400591"/>
      </g>
     </g>
    </g>
    <g id="ytick_3">
     <g id="line2d_24">
      <g>
       <use style="stroke:#000000;stroke-width:0.6;" x="45.478125" xlink:href="#m1645a14d2e" y="219.696619"/>
      </g>
     </g>
    </g>
    <g id="ytick_4">
     <g id="line2d_25">
      <g>
       <use style="stroke:#000000;stroke-width:0.6;" x="45.478125" xlink:href="#m1645a14d2e" y="205.964351"/>
      </g>
     </g>
    </g>
    <g id="ytick_5">
     <g id="line2d_26">
      <g>
       <use style="stroke:#000000;stroke-width:0.6;" x="45.478125" xlink:href="#m1645a14d2e" y="194.744271"/>
      </g>
     </g>
    </g>
    <g id="ytick_6">
     <g id="line2d_27">
      <g>
       <use style="stroke:#000000;stroke-width:0.6;" x="45.478125" xlink:href="#m1645a14d2e" y="185.257828"/>
      </g>
     </g>
    </g>
    <g id="ytick_7">
     <g id="line2d_28">
      <g>
       <use style="stroke:#000000;stroke-width:0.6;" x="45.478125" xlink:href="#m1645a14d2e" y="177.040298"/>
      </g>
     </g>
    </g>
    <g id="ytick_8">
     <g id="line2d_29">
      <g>
       <use style="stroke:#000000;stroke-width:0.6;" x="45.478125" xlink:href="#m1645a14d2e" y="169.791923"/>
      </g>
     </g>
    </g>
    <g id="ytick_9">
     <g id="line2d_30">
      <g>
       <use style="stroke:#000000;stroke-width:0.6;" x="45.478125" xlink:href="#m1645a14d2e" y="120.651709"/>
      </g>
     </g>
    </g>
    <g id="ytick_10">
     <g id="line2d_31">
      <g>
       <use style="stroke:#000000;stroke-width:0.6;" x="45.478125" xlink:href="#m1645a14d2e" y="95.699361"/>
      </g>
     </g>
    </g>
    <g id="ytick_11">
     <g id="line2d_32">
      <g>
       <use style="stroke:#000000;stroke-width:0.6;" x="45.478125" xlink:href="#m1645a14d2e" y="77.995389"/>
      </g>
     </g>
    </g>
    <g id="ytick_12">
     <g id="line2d_33">
      <g>
       <use style="stroke:#000000;stroke-width:0.6;" x="45.478125" xlink:href="#m1645a14d2e" y="64.263121"/>
      </g>
     </g>
    </g>
    <g id="ytick_13">
     <g id="line2d_34">
      <g>
       <use style="stroke:#000000;stroke-width:0.6;" x="45.478125" xlink:href="#m1645a14d2e" y="53.043041"/>
      </g>
     </g>
    </g>
    <g id="ytick_14">
     <g id="line2d_35">
      <g>
       <use style="stroke:#000000;stroke-width:0.6;" x="45.478125" xlink:href="#m1645a14d2e" y="43.556598"/>
      </g>
     </g>
    </g>
    <g id="ytick_15">
     <g id="line2d_36">
      <g>
       <use style="stroke:#000000;stroke-width:0.6;" x="45.478125" xlink:href="#m1645a14d2e" y="35.339068"/>
      </g>
     </g>
    </g>
    <g id="ytick_16">
     <g id="line2d_37">
      <g>
       <use style="stroke:#000000;stroke-width:0.6;" x="45.478125" xlink:href="#m1645a14d2e" y="28.090693"/>
      </g>
     </g>
    </g>
    <g id="text_6">
     <!-- cost -->
     <g transform="translate(14.798438 141.411562)rotate(-90)scale(0.1 -0.1)">
      <defs>
       <path d="M 48.78125 52.59375 
L 48.78125 44.1875 
Q 44.96875 46.296875 41.140625 47.34375 
Q 37.3125 48.390625 33.40625 48.390625 
Q 24.65625 48.390625 19.8125 42.84375 
Q 14.984375 37.3125 14.984375 27.296875 
Q 14.984375 17.28125 19.8125 11.734375 
Q 24.65625 6.203125 33.40625 6.203125 
Q 37.3125 6.203125 41.140625 7.25 
Q 44.96875 8.296875 48.78125 10.40625 
L 48.78125 2.09375 
Q 45.015625 0.34375 40.984375 -0.53125 
Q 36.96875 -1.421875 32.421875 -1.421875 
Q 20.0625 -1.421875 12.78125 6.34375 
Q 5.515625 14.109375 5.515625 27.296875 
Q 5.515625 40.671875 12.859375 48.328125 
Q 20.21875 56 33.015625 56 
Q 37.15625 56 41.109375 55.140625 
Q 45.0625 54.296875 48.78125 52.59375 
z
" id="DejaVuSans-99"/>
       <path d="M 44.28125 53.078125 
L 44.28125 44.578125 
Q 40.484375 46.53125 36.375 47.5 
Q 32.28125 48.484375 27.875 48.484375 
Q 21.1875 48.484375 17.84375 46.4375 
Q 14.5 44.390625 14.5 40.28125 
Q 14.5 37.15625 16.890625 35.375 
Q 19.28125 33.59375 26.515625 31.984375 
L 29.59375 31.296875 
Q 39.15625 29.25 43.1875 25.515625 
Q 47.21875 21.78125 47.21875 15.09375 
Q 47.21875 7.46875 41.1875 3.015625 
Q 35.15625 -1.421875 24.609375 -1.421875 
Q 20.21875 -1.421875 15.453125 -0.5625 
Q 10.6875 0.296875 5.421875 2 
L 5.421875 11.28125 
Q 10.40625 8.6875 15.234375 7.390625 
Q 20.0625 6.109375 24.8125 6.109375 
Q 31.15625 6.109375 34.5625 8.28125 
Q 37.984375 10.453125 37.984375 14.40625 
Q 37.984375 18.0625 35.515625 20.015625 
Q 33.0625 21.96875 24.703125 23.78125 
L 21.578125 24.515625 
Q 13.234375 26.265625 9.515625 29.90625 
Q 5.8125 33.546875 5.8125 39.890625 
Q 5.8125 47.609375 11.28125 51.796875 
Q 16.75 56 26.8125 56 
Q 31.78125 56 36.171875 55.265625 
Q 40.578125 54.546875 44.28125 53.078125 
z
" id="DejaVuSans-115"/>
      </defs>
      <use xlink:href="#DejaVuSans-99"/>
      <use x="54.980469" xlink:href="#DejaVuSans-111"/>
      <use x="116.162109" xlink:href="#DejaVuSans-115"/>
      <use x="168.261719" xlink:href="#DejaVuSans-116"/>
     </g>
    </g>
   </g>
   <g id="line2d_38">
    <path clip-path="url(#p8950399d9e)" d="M -1 34.531411 
L 60.696307 34.532354 
L 106.607796 36.269787 
L 133.464296 37.907076 
L 152.519286 39.555268 
L 167.299484 41.2499 
L 179.375785 43.00241 
L 189.586153 44.813458 
L 198.430775 46.651367 
L 206.232285 48.52032 
L 213.210973 50.501768 
L 219.523965 52.53515 
L 225.287275 54.601695 
L 230.589006 56.700192 
L 235.497642 58.823965 
L 240.067473 60.993598 
L 244.342265 63.196694 
L 248.357814 65.424634 
L 252.143774 67.676605 
L 255.724986 69.952823 
L 259.122463 72.251481 
L 262.354142 74.569547 
L 265.435454 76.904607 
L 268.379774 79.253494 
L 271.198764 81.615765 
L 273.902661 83.986418 
L 276.500495 86.366406 
L 279.000274 88.750649 
L 281.409131 91.142866 
L 283.73345 93.534514 
L 285.978963 95.926483 
L 288.150838 98.312516 
L 290.253754 100.693507 
L 292.291954 103.064497 
L 294.269303 105.425625 
L 296.18933 107.772318 
L 298.055264 110.104504 
L 299.87007 112.417846 
L 301.636475 114.712448 
L 303.356995 116.984459 
L 305.033952 119.234392 
L 306.669499 121.458277 
L 308.265631 123.655714 
L 309.824204 125.823171 
L 311.346944 127.95991 
L 312.835462 130.06424 
L 314.291263 132.134688 
L 315.715754 134.170357 
L 317.110254 136.169306 
L 318.475998 138.129993 
L 319.814151 140.051941 
L 321.125803 141.933068 
L 322.411985 143.77466 
L 323.673666 145.57476 
L 324.911764 147.3347 
L 326.127142 149.054565 
L 327.320621 150.733375 
L 328.492975 152.371906 
L 329.644939 153.966747 
L 330.777211 155.518865 
L 331.890452 157.025107 
L 332.985291 158.487205 
L 334.062328 159.903285 
L 335.122131 161.276648 
L 336.165243 162.606377 
L 337.192183 163.896834 
L 338.203444 165.147378 
L 339.199497 166.361872 
L 340.180793 167.540914 
L 341.147763 168.686669 
L 342.100819 169.800291 
L 343.040357 170.882341 
L 343.966753 171.93296 
L 344.880372 172.952892 
L 345.781559 173.941155 
L 346.67065 174.901366 
L 347.547965 175.834003 
L 348.413811 176.747766 
L 349.268484 177.646287 
L 350.11227 178.537291 
L 350.945442 179.418874 
L 351.768263 180.287709 
L 352.580988 181.136537 
L 353.383862 181.963348 
L 354.177121 182.766995 
L 354.960991 183.548892 
L 355.735693 184.30977 
L 356.501439 185.051121 
L 357.258433 185.773601 
L 358.006874 186.478266 
L 358.746952 187.165482 
L 359.478852 187.835666 
L 360.202753 188.488886 
L 360.918827 189.12522 
L 361.627244 189.744823 
L 362.328163 190.347577 
L 363.021743 190.933815 
L 363.708135 191.503531 
L 364.387488 192.057839 
L 365.059943 192.597358 
" style="fill:none;stroke:#1f77b4;stroke-linecap:square;stroke-width:1.5;"/>
   </g>
   <g id="line2d_39">
    <path clip-path="url(#p8950399d9e)" d="M -1 32.205313 
L 60.696307 32.205314 
L 106.607796 32.208853 
L 133.464296 32.212399 
L 152.519286 32.215945 
L 167.299484 32.219491 
L 179.375785 32.219498 
L 189.586153 32.219498 
L 198.430775 32.219513 
L 206.232285 32.219528 
L 213.210973 32.219528 
L 219.523965 32.219542 
L 225.287275 32.219557 
L 230.589006 32.219572 
L 235.497642 32.219586 
L 240.067473 32.219601 
L 244.342265 32.219615 
L 248.357814 32.21963 
L 252.143774 32.219652 
L 255.724986 32.219667 
L 259.122463 32.219689 
L 262.354142 32.219703 
L 265.435454 32.219725 
L 268.379774 32.219747 
L 271.198764 32.219769 
L 273.902661 32.219791 
L 276.500495 32.219806 
L 279.000274 32.219835 
L 281.409131 32.219849 
L 283.73345 32.219879 
L 285.978963 32.219901 
L 288.150838 32.21993 
L 290.253754 32.219952 
L 292.291954 32.219981 
L 294.269303 32.22001 
L 296.18933 32.22004 
L 298.055264 32.220061 
L 299.87007 32.220091 
L 301.636475 32.22012 
L 303.356995 32.220142 
L 305.033952 32.220178 
L 306.669499 32.220208 
L 308.265631 32.22023 
L 309.824204 32.220266 
L 311.346944 32.220295 
L 312.835462 32.220325 
L 314.291263 32.220354 
L 315.715754 32.220391 
L 317.110254 32.22042 
L 318.475998 32.220449 
L 319.814151 32.220478 
L 321.125803 32.220515 
L 322.411985 32.220551 
L 323.673666 32.220581 
L 324.911764 32.220617 
L 326.127142 32.220654 
L 327.320621 32.220683 
L 328.492975 32.22072 
L 329.644939 32.220756 
L 330.777211 32.220793 
L 331.890452 32.220829 
L 332.985291 32.220866 
L 334.062328 32.220902 
L 335.122131 32.220932 
L 336.165243 32.220975 
L 337.192183 32.221012 
L 338.203444 32.221049 
L 339.199497 32.221092 
L 340.180793 32.221129 
L 341.147763 32.221166 
L 342.100819 32.221209 
L 343.040357 32.221246 
L 343.966753 32.221283 
L 344.880372 32.221326 
L 345.781559 32.22137 
L 346.67065 32.221407 
L 347.547965 32.221451 
L 348.413811 32.221487 
L 349.268484 32.221531 
L 350.11227 32.221575 
L 350.945442 32.221619 
L 351.768263 32.221656 
L 352.580988 32.221692 
L 353.383862 32.221736 
L 354.177121 32.221787 
L 354.960991 32.221831 
L 355.735693 32.221875 
L 356.501439 32.221919 
L 357.258433 32.221963 
L 358.006874 32.222007 
L 358.746952 32.222058 
L 359.478852 32.222102 
L 360.202753 32.222146 
L 360.918827 32.222189 
L 361.627244 32.222233 
L 362.328163 32.222277 
L 363.021743 32.222321 
L 363.708135 32.22238 
L 364.387488 32.222423 
L 365.059943 32.222467 
" style="fill:none;stroke:#ff7f0e;stroke-linecap:square;stroke-width:1.5;"/>
   </g>
   <g id="line2d_40">
    <path clip-path="url(#p8950399d9e)" d="M -1 56.083752 
L 60.696307 56.093417 
L 106.607796 83.946105 
L 133.464296 115.486851 
L 152.519286 146.983962 
L 167.299484 157.900275 
L 179.375785 160.799559 
L 189.586153 148.663687 
L 198.430775 141.151833 
L 206.232285 137.27914 
L 213.210973 137.407603 
L 219.523965 142.3016 
L 225.287275 151.484207 
L 230.589006 162.194067 
L 235.497642 171.498335 
L 240.067473 180.337393 
L 244.342265 187.759846 
L 248.357814 190.976261 
L 252.143774 191.864863 
L 255.724986 191.919809 
L 259.122463 190.619579 
L 262.354142 188.847421 
L 265.435454 187.975734 
L 268.379774 188.391139 
L 271.198764 189.992955 
L 273.902661 193.02536 
L 276.500495 197.286655 
L 279.000274 201.780557 
L 281.409131 206.223776 
L 283.73345 210.371941 
L 285.978963 213.434619 
L 288.150838 215.591346 
L 290.253754 217.121961 
L 292.291954 217.74801 
L 294.269303 217.621169 
L 296.18933 217.224734 
L 298.055264 216.576577 
L 299.87007 216.153551 
L 301.636475 216.258119 
L 303.356995 216.893293 
L 305.033952 218.032804 
L 306.669499 219.414413 
L 308.265631 220.884551 
L 309.824204 222.270814 
L 311.346944 223.356149 
L 312.835462 224.068153 
L 314.291263 224.458004 
L 315.715754 224.693227 
L 317.110254 224.767009 
L 318.475998 224.699709 
L 319.814151 224.720348 
L 321.125803 224.80451 
L 322.411985 224.918057 
L 323.673666 225.1341 
L 324.911764 225.431252 
L 326.127142 225.772179 
L 327.320621 226.120993 
L 328.492975 226.475053 
L 329.644939 226.771329 
L 330.777211 227.020253 
L 331.890452 227.246905 
L 332.985291 227.377689 
L 334.062328 227.459431 
L 335.122131 227.549655 
L 336.165243 227.598331 
L 337.192183 227.63074 
L 338.203444 227.700159 
L 339.199497 227.778438 
L 340.180793 227.860907 
L 341.147763 227.989009 
L 342.100819 228.144481 
L 343.040357 228.282379 
L 343.966753 228.379415 
L 344.880372 228.459734 
L 345.781559 228.545342 
L 346.67065 228.608042 
L 347.547965 228.647264 
L 348.413811 228.688888 
L 349.268484 228.744399 
L 350.11227 228.795229 
L 350.945442 228.845587 
L 351.768263 228.906919 
L 352.580988 228.973908 
L 353.383862 229.030976 
L 354.177121 229.082463 
L 354.960991 229.134682 
L 355.735693 229.178403 
L 356.501439 229.211644 
L 357.258433 229.248052 
L 358.006874 229.279358 
L 358.746952 229.311569 
L 359.478852 229.345505 
L 360.202753 229.380575 
L 360.918827 229.416504 
L 361.627244 229.45269 
L 362.328163 229.485464 
L 363.021743 229.51604 
L 363.708135 229.547709 
L 364.387488 229.577068 
L 365.059943 229.59697 
" style="fill:none;stroke:#2ca02c;stroke-linecap:square;stroke-width:1.5;"/>
   </g>
   <g id="line2d_41">
    <path clip-path="url(#p8950399d9e)" d="M -1 32.899672 
L 60.696307 32.899954 
L 106.607796 33.617682 
L 133.464296 34.34859 
L 152.519286 35.08953 
L 167.299484 35.83863 
L 179.375785 36.594653 
L 189.586153 37.356721 
L 198.430775 38.124187 
L 206.232285 38.896512 
L 213.210973 39.672887 
L 219.523965 40.450577 
L 225.287275 41.231544 
L 230.589006 42.013272 
L 235.497642 42.796084 
L 240.067473 43.581378 
L 244.342265 44.371962 
L 248.357814 45.165985 
L 252.143774 45.963658 
L 255.724986 46.764462 
L 259.122463 47.568335 
L 262.354142 48.37449 
L 265.435454 49.182699 
L 268.379774 49.993114 
L 271.198764 50.803438 
L 273.902661 51.615099 
L 276.500495 52.42597 
L 279.000274 53.240681 
L 281.409131 54.057709 
L 283.73345 54.878877 
L 285.978963 55.703499 
L 288.150838 56.531151 
L 290.253754 57.361846 
L 292.291954 58.194822 
L 294.269303 59.030388 
L 296.18933 59.867942 
L 298.055264 60.707771 
L 299.87007 61.549378 
L 301.636475 62.392738 
L 303.356995 63.237951 
L 305.033952 64.085048 
L 306.669499 64.934305 
L 308.265631 65.785472 
L 309.824204 66.638681 
L 311.346944 67.493716 
L 312.835462 68.350656 
L 314.291263 69.209279 
L 315.715754 70.069609 
L 317.110254 70.931376 
L 318.475998 71.794788 
L 319.814151 72.659905 
L 321.125803 73.526869 
L 322.411985 74.395548 
L 323.673666 75.265938 
L 324.911764 76.137951 
L 326.127142 77.011614 
L 327.320621 77.886809 
L 328.492975 78.763611 
L 329.644939 79.641865 
L 330.777211 80.521689 
L 331.890452 81.402887 
L 332.985291 82.285598 
L 334.062328 83.169607 
L 335.122131 84.055078 
L 336.165243 84.941766 
L 337.192183 85.829853 
L 338.203444 86.719065 
L 339.199497 87.609613 
L 340.180793 88.501187 
L 341.147763 89.394026 
L 342.100819 90.287802 
L 343.040357 91.18275 
L 343.966753 92.078583 
L 344.880372 92.975461 
L 345.781559 93.873191 
L 346.67065 94.771844 
L 347.547965 95.67129 
L 348.413811 96.571535 
L 349.268484 97.472497 
L 350.11227 98.374129 
L 350.945442 99.276383 
L 351.768263 100.179181 
L 352.580988 101.082496 
L 353.383862 101.98622 
L 354.177121 102.890345 
L 354.960991 103.794753 
L 355.735693 104.699419 
L 356.501439 105.60425 
L 357.258433 106.509189 
L 358.006874 107.414145 
L 358.746952 108.31907 
L 359.478852 109.22386 
L 360.202753 110.128469 
L 360.918827 111.032782 
L 361.627244 111.936753 
L 362.328163 112.840262 
L 363.021743 113.743275 
L 363.708135 114.645647 
L 364.387488 115.547364 
L 365.059943 116.448248 
" style="fill:none;stroke:#d62728;stroke-linecap:square;stroke-width:1.5;"/>
   </g>
   <g id="line2d_42">
    <path clip-path="url(#p8950399d9e)" d="M -1 56.083752 
L 60.696307 56.093417 
L 106.607796 81.179194 
L 133.464296 106.873642 
L 152.519286 129.403247 
L 167.299484 150.156185 
L 179.375785 165.336753 
L 189.586153 175.175562 
L 198.430775 179.417964 
L 206.232285 179.76347 
L 213.210973 178.111719 
L 219.523965 176.184011 
L 225.287275 174.676665 
L 230.589006 174.495908 
L 235.497642 176.01803 
L 240.067473 178.545844 
L 244.342265 181.610685 
L 248.357814 185.110682 
L 252.143774 188.96539 
L 255.724986 192.886135 
L 259.122463 196.413847 
L 262.354142 199.565575 
L 265.435454 202.38522 
L 268.379774 204.642759 
L 271.198764 206.341537 
L 273.902661 207.7508 
L 276.500495 208.950713 
L 279.000274 209.854413 
L 281.409131 210.478481 
L 283.73345 210.9608 
L 285.978963 211.396805 
L 288.150838 211.7941 
L 290.253754 212.200003 
L 292.291954 212.64664 
L 294.269303 213.089452 
L 296.18933 213.514719 
L 298.055264 213.996073 
L 299.87007 214.55988 
L 301.636475 215.163089 
L 303.356995 215.758283 
L 305.033952 216.31875 
L 306.669499 216.882255 
L 308.265631 217.466132 
L 309.824204 218.031835 
L 311.346944 218.552926 
L 312.835462 219.032829 
L 314.291263 219.485974 
L 315.715754 219.903852 
L 317.110254 220.274492 
L 318.475998 220.607606 
L 319.814151 220.914884 
L 321.125803 221.187509 
L 322.411985 221.415756 
L 323.673666 221.613374 
L 324.911764 221.794628 
L 326.127142 221.958848 
L 327.320621 222.101221 
L 328.492975 222.22492 
L 329.644939 222.343432 
L 330.777211 222.46411 
L 331.890452 222.581023 
L 332.985291 222.691431 
L 334.062328 222.801865 
L 335.122131 222.915841 
L 336.165243 223.031211 
L 337.192183 223.146355 
L 338.203444 223.262765 
L 339.199497 223.380207 
L 340.180793 223.494876 
L 341.147763 223.605518 
L 342.100819 223.713685 
L 343.040357 223.81941 
L 343.966753 223.920384 
L 344.880372 224.016154 
L 345.781559 224.107828 
L 346.67065 224.195501 
L 347.547965 224.279124 
L 348.413811 224.358333 
L 349.268484 224.433402 
L 350.11227 224.505516 
L 350.945442 224.575159 
L 351.768263 224.642141 
L 352.580988 224.706979 
L 353.383862 224.77047 
L 354.177121 224.832652 
L 354.960991 224.893469 
L 355.735693 224.953184 
L 356.501439 225.012066 
L 357.258433 225.07018 
L 358.006874 225.127598 
L 358.746952 225.184297 
L 359.478852 225.240291 
L 360.202753 225.295594 
L 360.918827 225.350171 
L 361.627244 225.403874 
L 362.328163 225.456684 
L 363.021743 225.508704 
L 363.708135 225.559843 
L 364.387488 225.609966 
L 365.059943 225.65916 
" style="fill:none;stroke:#9467bd;stroke-linecap:square;stroke-width:1.5;"/>
   </g>
   <g id="line2d_43">
    <path clip-path="url(#p8950399d9e)" d="M -1 32.205313 
L 60.696307 32.205314 
L 106.607796 32.208853 
L 133.464296 32.212399 
L 152.519286 32.215945 
L 167.299484 32.219491 
L 179.375785 32.223038 
L 189.586153 32.226577 
L 198.430775 32.230117 
L 206.232285 32.233671 
L 213.210973 32.237211 
L 219.523965 32.240752 
L 225.287275 32.244299 
L 230.589006 32.247847 
L 235.497642 32.251388 
L 240.067473 32.254937 
L 244.342265 32.258485 
L 248.357814 32.262027 
L 252.143774 32.265568 
L 255.724986 32.26911 
L 259.122463 32.272652 
L 262.354142 32.276195 
L 265.435454 32.279745 
L 268.379774 32.28328 
L 271.198764 32.28683 
L 273.902661 32.290373 
L 276.500495 32.293917 
L 279.000274 32.297467 
L 281.409131 32.301004 
L 283.73345 32.304548 
L 285.978963 32.308099 
L 288.150838 32.311629 
L 290.253754 32.315173 
L 292.291954 32.318711 
L 294.269303 32.322256 
L 296.18933 32.325801 
L 298.055264 32.329346 
L 299.87007 32.332892 
L 301.636475 32.33643 
L 303.356995 32.339976 
L 305.033952 32.343515 
L 306.669499 32.347062 
L 308.265631 32.350608 
L 309.824204 32.35414 
L 311.346944 32.357695 
L 312.835462 32.361235 
L 314.291263 32.364775 
L 315.715754 32.368315 
L 317.110254 32.371855 
L 318.475998 32.375403 
L 319.814151 32.378944 
L 321.125803 32.382493 
L 322.411985 32.386034 
L 323.673666 32.389576 
L 324.911764 32.39311 
L 326.127142 32.396652 
L 327.320621 32.400194 
L 328.492975 32.403736 
L 329.644939 32.407279 
L 330.777211 32.410822 
L 331.890452 32.414364 
L 332.985291 32.417908 
L 334.062328 32.421447 
L 335.122131 32.424987 
L 336.165243 32.428531 
L 337.192183 32.432075 
L 338.203444 32.435612 
L 339.199497 32.439156 
L 340.180793 32.442697 
L 341.147763 32.446242 
L 342.100819 32.449783 
L 343.040357 32.453324 
L 343.966753 32.456862 
L 344.880372 32.460401 
L 345.781559 32.463943 
L 346.67065 32.467489 
L 347.547965 32.471024 
L 348.413811 32.474567 
L 349.268484 32.47811 
L 350.11227 32.481653 
L 350.945442 32.485189 
L 351.768263 32.488729 
L 352.580988 32.492272 
L 353.383862 32.495816 
L 354.177121 32.49935 
L 354.960991 32.502898 
L 355.735693 32.506427 
L 356.501439 32.509976 
L 357.258433 32.513517 
L 358.006874 32.517051 
L 358.746952 32.5206 
L 359.478852 32.524131 
L 360.202753 32.527673 
L 360.918827 32.531212 
L 361.627244 32.534754 
L 362.328163 32.538294 
L 363.021743 32.54184 
L 363.708135 32.545376 
L 364.387488 32.548912 
L 365.059943 32.552452 
" style="fill:none;stroke:#8c564b;stroke-linecap:square;stroke-width:1.5;"/>
   </g>
   <g id="line2d_44">
    <path clip-path="url(#p8950399d9e)" d="M -1 32.201827 
L 60.696307 32.201827 
L 106.607796 63.070318 
L 133.464296 122.274601 
L 152.519286 147.902716 
L 167.299484 158.495023 
L 179.375785 162.939705 
L 189.586153 166.129987 
L 198.430775 169.826626 
L 206.232285 175.147797 
L 213.210973 182.070601 
L 219.523965 188.895989 
L 225.287275 193.634412 
L 230.589006 197.398781 
L 235.497642 199.379295 
L 240.067473 200.569701 
L 244.342265 201.618655 
L 248.357814 202.93426 
L 252.143774 204.603548 
L 255.724986 206.329472 
L 259.122463 208.117606 
L 262.354142 209.658406 
L 265.435454 210.902818 
L 268.379774 212.013188 
L 271.198764 213.053076 
L 273.902661 214.171464 
L 276.500495 215.271803 
L 279.000274 216.167591 
L 281.409131 216.928642 
L 283.73345 217.517895 
L 285.978963 218.025874 
L 288.150838 218.534986 
L 290.253754 219.07861 
L 292.291954 219.701518 
L 294.269303 220.296296 
L 296.18933 220.853003 
L 298.055264 221.352668 
L 299.87007 221.762317 
L 301.636475 222.150715 
L 303.356995 222.537516 
L 305.033952 222.914838 
L 306.669499 223.267508 
L 308.265631 223.580348 
L 309.824204 223.864322 
L 311.346944 224.118614 
L 312.835462 224.392193 
L 314.291263 224.64818 
L 315.715754 224.907748 
L 317.110254 225.126884 
L 318.475998 225.349201 
L 319.814151 225.60725 
L 321.125803 225.829443 
L 322.411985 226.010933 
L 323.673666 226.242077 
L 324.911764 226.443494 
L 326.127142 226.622464 
L 327.320621 226.796549 
L 328.492975 226.948725 
L 329.644939 227.127572 
L 330.777211 227.308192 
L 331.890452 227.476074 
L 332.985291 227.635663 
L 334.062328 227.76658 
L 335.122131 227.880009 
L 336.165243 227.982029 
L 337.192183 228.096611 
L 338.203444 228.173575 
L 339.199497 228.313994 
L 340.180793 228.37348 
L 341.147763 228.450693 
L 342.100819 228.534867 
L 343.040357 228.591573 
L 343.966753 228.654855 
L 344.880372 228.692121 
L 345.781559 228.732416 
L 346.67065 228.757851 
L 347.547965 228.821359 
L 348.413811 228.870098 
L 349.268484 228.897483 
L 350.11227 228.937533 
L 350.945442 228.970353 
L 351.768263 228.994925 
L 352.580988 229.018886 
L 353.383862 229.036381 
L 354.177121 229.062995 
L 354.960991 229.11034 
L 355.735693 229.172279 
L 356.501439 229.209955 
L 357.258433 229.27505 
L 358.006874 229.355849 
L 358.746952 229.414741 
L 359.478852 229.462178 
L 360.202753 229.521821 
L 360.918827 229.576814 
L 361.627244 229.631336 
L 362.328163 229.666026 
L 363.021743 229.696301 
L 363.708135 229.731283 
L 364.387488 229.798841 
L 365.059943 229.874489 
" style="fill:none;stroke:#e377c2;stroke-linecap:square;stroke-width:1.5;"/>
   </g>
   <g id="line2d_45">
    <path clip-path="url(#p8950399d9e)" d="M -1 56.083758 
L 60.696307 56.093423 
L 106.607796 73.223128 
L 133.464296 87.304282 
L 152.519286 85.32515 
L 167.299484 93.704605 
L 179.375785 108.80092 
L 189.586153 118.880745 
L 198.430775 126.951629 
L 206.232285 133.836035 
L 213.210973 139.590622 
L 219.523965 144.463774 
L 225.287275 149.080767 
L 230.589006 153.232036 
L 235.497642 156.835526 
L 240.067473 159.957635 
L 244.342265 162.821419 
L 248.357814 165.529791 
L 252.143774 168.110815 
L 255.724986 170.539092 
L 259.122463 172.792999 
L 262.354142 174.871626 
L 265.435454 176.791612 
L 268.379774 178.578434 
L 271.198764 180.255239 
L 273.902661 181.838456 
L 276.500495 183.336689 
L 279.000274 184.755819 
L 281.409131 186.096628 
L 283.73345 187.361179 
L 285.978963 188.549917 
L 288.150838 189.666095 
L 290.253754 190.716394 
L 292.291954 191.706962 
L 294.269303 192.646792 
L 296.18933 193.538463 
L 298.055264 194.387566 
L 299.87007 195.193262 
L 301.636475 195.959602 
L 303.356995 196.685966 
L 305.033952 197.376758 
L 306.669499 198.032681 
L 308.265631 198.658551 
L 309.824204 199.255551 
L 311.346944 199.827159 
L 312.835462 200.373947 
L 314.291263 200.898158 
L 315.715754 201.400124 
L 317.110254 201.881213 
L 318.475998 202.341587 
L 319.814151 202.781372 
L 321.125803 203.199239 
L 322.411985 203.593266 
L 323.673666 203.960911 
L 324.911764 204.300136 
L 326.127142 204.609151 
L 327.320621 204.888047 
L 328.492975 205.13793 
L 329.644939 205.362956 
L 330.777211 205.568176 
L 331.890452 205.762155 
L 332.985291 205.952451 
L 334.062328 206.14921 
L 335.122131 206.358536 
L 336.165243 206.587562 
L 337.192183 206.836372 
L 338.203444 207.104884 
L 339.199497 207.385321 
L 340.180793 207.671007 
L 341.147763 207.951086 
L 342.100819 208.219234 
L 343.040357 208.468855 
L 343.966753 208.699359 
L 344.880372 208.910387 
L 345.781559 209.106531 
L 346.67065 209.290537 
L 347.547965 209.467627 
L 348.413811 209.637964 
L 349.268484 209.802957 
L 350.11227 209.960557 
L 350.945442 210.113168 
L 351.768263 210.264434 
L 352.580988 210.421373 
L 353.383862 210.589055 
L 354.177121 210.767756 
L 354.960991 210.952783 
L 355.735693 211.136444 
L 356.501439 211.313559 
L 357.258433 211.481349 
L 358.006874 211.641929 
L 358.746952 211.796489 
L 359.478852 211.947966 
L 360.202753 212.094186 
L 360.918827 212.234179 
L 361.627244 212.36289 
L 362.328163 212.478833 
L 363.021743 212.579553 
L 363.708135 212.665667 
L 364.387488 212.737639 
L 365.059943 212.795641 
" style="fill:none;stroke:#7f7f7f;stroke-linecap:square;stroke-width:1.5;"/>
   </g>
   <g id="line2d_46">
    <path clip-path="url(#p8950399d9e)" d="M -1 34.420605 
L 60.696307 34.421503 
L 106.607796 36.676453 
L 133.464296 38.967514 
L 152.519286 41.295585 
L 167.299484 43.661596 
L 179.375785 46.066469 
L 189.586153 48.511148 
L 198.430775 50.996578 
L 206.232285 53.523695 
L 213.210973 56.093423 
L 219.523965 58.706682 
L 225.287275 61.364362 
L 230.589006 64.067323 
L 235.497642 66.816362 
L 240.067473 69.612212 
L 244.342265 72.455534 
L 248.357814 75.346879 
L 252.143774 78.286658 
L 255.724986 81.275128 
L 259.122463 84.312341 
L 262.354142 87.398091 
L 265.435454 90.531895 
L 268.379774 93.712917 
L 271.198764 96.939859 
L 273.902661 100.210965 
L 276.500495 103.523842 
L 279.000274 106.875388 
L 281.409131 110.261685 
L 283.73345 113.677812 
L 285.978963 117.11774 
L 288.150838 120.57411 
L 290.253754 124.038068 
L 292.291954 127.499067 
L 294.269303 130.944646 
L 296.18933 134.360246 
L 298.055264 137.729001 
L 299.87007 141.031596 
L 301.636475 144.246201 
L 303.356995 147.347098 
L 305.033952 150.300605 
L 306.669499 153.075583 
L 308.265631 155.677375 
L 309.824204 158.149771 
L 311.346944 160.48119 
L 312.835462 162.684049 
L 314.291263 164.714186 
L 315.715754 166.629714 
L 317.110254 168.417792 
L 318.475998 170.081422 
L 319.814151 171.672649 
L 321.125803 173.190278 
L 322.411985 174.620939 
L 323.673666 175.993848 
L 324.911764 177.304486 
L 326.127142 178.603599 
L 327.320621 179.847319 
L 328.492975 181.022322 
L 329.644939 182.152975 
L 330.777211 183.255982 
L 331.890452 184.304414 
L 332.985291 185.323821 
L 334.062328 186.28975 
L 335.122131 187.222048 
L 336.165243 188.123172 
L 337.192183 189.013596 
L 338.203444 189.902212 
L 339.199497 190.761209 
L 340.180793 191.599488 
L 341.147763 192.414209 
L 342.100819 193.198399 
L 343.040357 193.955095 
L 343.966753 194.700836 
L 344.880372 195.439846 
L 345.781559 196.166277 
L 346.67065 196.891574 
L 347.547965 197.601551 
L 348.413811 198.289948 
L 349.268484 198.953664 
L 350.11227 199.603183 
L 350.945442 200.234129 
L 351.768263 200.855828 
L 352.580988 201.456012 
L 353.383862 202.035068 
L 354.177121 202.609024 
L 354.960991 203.16641 
L 355.735693 203.699087 
L 356.501439 204.223032 
L 357.258433 204.726117 
L 358.006874 205.22043 
L 358.746952 205.705604 
L 359.478852 206.192197 
L 360.202753 206.662778 
L 360.918827 207.129072 
L 361.627244 207.584376 
L 362.328163 208.04155 
L 363.021743 208.477116 
L 363.708135 208.912191 
L 364.387488 209.325929 
L 365.059943 209.717668 
" style="fill:none;stroke:#bcbd22;stroke-linecap:square;stroke-width:1.5;"/>
   </g>
   <g id="line2d_47">
    <path clip-path="url(#p8950399d9e)" d="M -1 59.370695 
L 60.696307 59.376413 
L 106.607796 74.615862 
L 133.464296 90.096482 
L 152.519286 94.539555 
L 167.299484 112.327002 
L 179.375785 116.882448 
L 189.586153 134.588032 
L 198.430775 135.985594 
L 206.232285 137.221446 
L 213.210973 141.645215 
L 219.523965 145.865808 
L 225.287275 147.062107 
L 230.589006 151.422816 
L 235.497642 152.569922 
L 240.067473 156.972056 
L 244.342265 161.053433 
L 248.357814 162.188247 
L 252.143774 166.372119 
L 255.724986 167.432009 
L 259.122463 171.560375 
L 262.354142 175.463923 
L 265.435454 176.433124 
L 268.379774 180.18511 
L 271.198764 181.085166 
L 273.902661 184.388329 
L 276.500495 184.661236 
L 279.000274 184.901719 
L 281.409131 185.714148 
L 283.73345 186.528241 
L 285.978963 187.334684 
L 288.150838 188.131099 
L 290.253754 188.914429 
L 292.291954 189.682501 
L 294.269303 190.433463 
L 296.18933 191.162541 
L 298.055264 191.866301 
L 299.87007 192.536497 
L 301.636475 192.730744 
L 303.356995 193.427533 
L 305.033952 194.086404 
L 306.669499 194.271508 
L 308.265631 194.944929 
L 309.824204 195.574794 
L 311.346944 195.753619 
L 312.835462 196.39706 
L 314.291263 196.983341 
L 315.715754 197.159211 
L 317.110254 197.764203 
L 318.475998 197.929366 
L 319.814151 198.540099 
L 321.125803 199.096943 
L 322.411985 199.260476 
L 323.673666 199.82947 
L 324.911764 199.982986 
L 326.127142 202.021538 
L 327.320621 202.238605 
L 328.492975 202.391978 
L 329.644939 202.8959 
L 330.777211 203.035055 
L 331.890452 204.850667 
L 332.985291 205.05687 
L 334.062328 205.194466 
L 335.122131 205.651853 
L 336.165243 205.773415 
L 337.192183 207.494006 
L 338.203444 207.636001 
L 339.199497 207.754197 
L 340.180793 208.175286 
L 341.147763 208.580856 
L 342.100819 208.689335 
L 343.040357 210.163043 
L 343.966753 210.302289 
L 344.880372 210.41083 
L 345.781559 210.782112 
L 346.67065 210.880392 
L 347.547965 212.227633 
L 348.413811 212.356071 
L 349.268484 212.454645 
L 350.11227 212.783819 
L 350.945442 212.873433 
L 351.768263 214.03569 
L 352.580988 214.174136 
L 353.383862 214.272411 
L 354.177121 214.35596 
L 354.960991 214.666132 
L 355.735693 214.947425 
L 356.501439 214.97084 
L 357.258433 215.046953 
L 358.006874 215.121307 
L 358.746952 215.195591 
L 359.478852 215.269798 
L 360.202753 215.528282 
L 360.918827 215.556684 
L 361.627244 215.580211 
L 362.328163 215.600711 
L 363.021743 215.6715 
L 363.708135 215.742181 
L 364.387488 215.812063 
L 365.059943 215.881804 
" style="fill:none;stroke:#17becf;stroke-dasharray:5.55,2.4;stroke-dashoffset:0;stroke-width:1.5;"/>
   </g>
   <g id="line2d_48">
    <path clip-path="url(#p8950399d9e)" d="M -1 142.708796 
L 60.696307 142.713238 
L 106.607796 146.692998 
L 133.464296 149.946752 
L 152.519286 152.578561 
L 167.299484 154.968536 
L 179.375785 157.174159 
L 189.586153 159.244512 
L 198.430775 161.191035 
L 206.232285 163.040827 
L 213.210973 164.794862 
L 219.523965 166.47085 
L 225.287275 168.068011 
L 230.589006 169.594942 
L 235.497642 171.055663 
L 240.067473 172.453062 
L 244.342265 173.792457 
L 248.357814 175.075161 
L 252.143774 176.306165 
L 255.724986 177.485895 
L 259.122463 178.616733 
L 262.354142 179.698075 
L 265.435454 180.605293 
L 268.379774 189.719402 
L 271.198764 193.202044 
L 273.902661 195.142838 
L 276.500495 195.999773 
L 279.000274 196.932173 
L 281.409131 197.741618 
L 283.73345 198.338405 
L 285.978963 198.939916 
L 288.150838 199.393721 
L 290.253754 199.728914 
L 292.291954 200.056243 
L 294.269303 200.374847 
L 296.18933 200.686911 
L 298.055264 200.990341 
L 299.87007 201.287823 
L 301.636475 201.577273 
L 303.356995 201.862031 
L 305.033952 202.139669 
L 306.669499 202.412734 
L 308.265631 202.680525 
L 309.824204 202.941152 
L 311.346944 203.198342 
L 312.835462 203.447121 
L 314.291263 203.699984 
L 315.715754 203.944033 
L 317.110254 204.184272 
L 318.475998 204.415714 
L 319.814151 204.646218 
L 321.125803 204.868211 
L 322.411985 205.089248 
L 323.673666 205.302048 
L 324.911764 205.514521 
L 326.127142 205.719275 
L 327.320621 205.924124 
L 328.492975 206.121636 
L 329.644939 206.319258 
L 330.777211 206.509751 
L 331.890452 206.700299 
L 332.985291 206.88416 
L 334.062328 207.068032 
L 335.122131 207.24552 
L 336.165243 207.422914 
L 337.192183 207.594162 
L 338.203444 207.766992 
L 339.199497 207.933717 
L 340.180793 208.103786 
L 341.147763 208.267669 
L 342.100819 208.429896 
L 343.040357 208.586455 
L 343.966753 208.743796 
L 344.880372 208.89573 
L 345.781559 209.050221 
L 346.67065 209.199367 
L 347.547965 209.347288 
L 348.413811 209.490228 
L 349.268484 209.635772 
L 350.11227 209.774429 
L 350.945442 209.915119 
L 351.768263 210.048156 
L 352.580988 210.18158 
L 353.383862 210.309681 
L 354.177121 210.436915 
L 354.960991 210.561408 
L 355.735693 210.684592 
L 356.501439 210.80598 
L 357.258433 210.925877 
L 358.006874 211.044171 
L 358.746952 211.160985 
L 359.478852 211.276293 
L 360.202753 211.373278 
L 360.918827 213.172888 
L 361.627244 214.697898 
L 362.328163 214.828705 
L 363.021743 214.910201 
L 363.708135 215.122387 
L 364.387488 215.235983 
L 365.059943 215.586502 
" style="fill:none;stroke:#1f77b4;stroke-dasharray:5.55,2.4;stroke-dashoffset:0;stroke-width:1.5;"/>
   </g>
   <g id="line2d_49">
    <path clip-path="url(#p8950399d9e)" d="M -1 195.156842 
L 60.696307 195.17745 
L 106.607796 213.402431 
L 133.464296 216.714219 
L 152.519286 224.300006 
L 167.299484 227.390229 
L 179.375785 227.991436 
L 189.586153 228.774893 
L 198.430775 229.061047 
L 206.232285 229.353526 
" style="fill:none;stroke:#ff7f0e;stroke-dasharray:5.55,2.4;stroke-dashoffset:0;stroke-width:1.5;"/>
   </g>
   <g id="line2d_50">
    <path clip-path="url(#p8950399d9e)" d="M -1 32.201761 
L 60.696307 32.201761 
L 106.607796 32.201761 
L 133.464296 32.201761 
L 152.519286 32.201761 
L 167.299484 32.201761 
L 179.375785 32.201761 
L 189.586153 32.201761 
L 198.430775 32.201761 
L 206.232285 32.201761 
L 213.210973 32.201761 
L 219.523965 32.201761 
L 225.287275 32.201761 
L 230.589006 32.201761 
L 235.497642 32.201761 
L 240.067473 32.201761 
L 244.342265 32.201761 
L 248.357814 32.201761 
L 252.143774 32.201761 
L 255.724986 32.201761 
L 259.122463 32.201761 
L 262.354142 32.201761 
L 265.435454 32.201761 
L 268.379774 32.201761 
L 271.198764 32.201761 
L 273.902661 32.201761 
L 276.500495 32.201761 
L 279.000274 32.201761 
L 281.409131 32.201761 
L 283.73345 32.201761 
L 285.978963 32.201761 
L 288.150838 32.201761 
L 290.253754 32.201761 
L 292.291954 32.201761 
L 294.269303 32.201761 
L 296.18933 32.201761 
L 298.055264 32.201761 
L 299.87007 32.201761 
L 301.636475 32.201761 
L 303.356995 32.201761 
L 305.033952 32.201761 
L 306.669499 32.201761 
L 308.265631 32.201761 
L 309.824204 32.201761 
L 311.346944 32.201761 
L 312.835462 32.201761 
L 314.291263 32.201761 
L 315.715754 32.201761 
L 317.110254 32.201761 
L 318.475998 32.201761 
L 319.814151 32.201761 
L 321.125803 32.201761 
L 322.411985 32.201761 
L 323.673666 32.201761 
L 324.911764 32.201761 
L 326.127142 32.201761 
L 327.320621 32.201761 
L 328.492975 32.201761 
L 329.644939 32.201761 
L 330.777211 32.201761 
L 331.890452 32.201761 
L 332.985291 32.201761 
L 334.062328 32.201761 
L 335.122131 32.201761 
L 336.165243 32.201761 
L 337.192183 32.201761 
L 338.203444 32.201761 
L 339.199497 32.201761 
L 340.180793 32.201761 
L 341.147763 32.201761 
L 342.100819 32.201761 
L 343.040357 32.201761 
L 343.966753 32.201761 
L 344.880372 32.201761 
L 345.781559 32.201761 
L 346.67065 32.201761 
L 347.547965 32.201761 
L 348.413811 32.201761 
L 349.268484 32.201761 
L 350.11227 32.201761 
L 350.945442 32.201761 
L 351.768263 32.201761 
L 352.580988 32.201761 
L 353.383862 32.201761 
L 354.177121 32.201761 
L 354.960991 32.201761 
L 355.735693 32.201761 
L 356.501439 32.201761 
L 357.258433 32.201761 
L 358.006874 32.201761 
L 358.746952 32.201761 
L 359.478852 32.201761 
L 360.202753 32.201761 
L 360.918827 32.201761 
L 361.627244 32.201761 
L 362.328163 32.201761 
L 363.021743 32.201761 
L 363.708135 32.201761 
L 364.387488 32.201761 
L 365.059943 32.201761 
" style="fill:none;stroke:#2ca02c;stroke-dasharray:5.55,2.4;stroke-dashoffset:0;stroke-width:1.5;"/>
   </g>
   <g id="patch_3">
    <path d="M 45.478125 239.758125 
L 45.478125 22.318125 
" style="fill:none;stroke:#000000;stroke-linecap:square;stroke-linejoin:miter;stroke-width:0.8;"/>
   </g>
   <g id="patch_4">
    <path d="M 380.278125 239.758125 
L 380.278125 22.318125 
" style="fill:none;stroke:#000000;stroke-linecap:square;stroke-linejoin:miter;stroke-width:0.8;"/>
   </g>
   <g id="patch_5">
    <path d="M 45.478125 239.758125 
L 380.278125 239.758125 
" style="fill:none;stroke:#000000;stroke-linecap:square;stroke-linejoin:miter;stroke-width:0.8;"/>
   </g>
   <g id="patch_6">
    <path d="M 45.478125 22.318125 
L 380.278125 22.318125 
" style="fill:none;stroke:#000000;stroke-linecap:square;stroke-linejoin:miter;stroke-width:0.8;"/>
   </g>
   <g id="text_7">
    <!-- TGG119 - Prostate -->
    <g transform="translate(157.77 16.318125)scale(0.12 -0.12)">
     <defs>
      <path d="M -0.296875 72.90625 
L 61.375 72.90625 
L 61.375 64.59375 
L 35.5 64.59375 
L 35.5 0 
L 25.59375 0 
L 25.59375 64.59375 
L -0.296875 64.59375 
z
" id="DejaVuSans-84"/>
      <path d="M 59.515625 10.40625 
L 59.515625 29.984375 
L 43.40625 29.984375 
L 43.40625 38.09375 
L 69.28125 38.09375 
L 69.28125 6.78125 
Q 63.578125 2.734375 56.6875 0.65625 
Q 49.8125 -1.421875 42 -1.421875 
Q 24.90625 -1.421875 15.25 8.5625 
Q 5.609375 18.5625 5.609375 36.375 
Q 5.609375 54.25 15.25 64.234375 
Q 24.90625 74.21875 42 74.21875 
Q 49.125 74.21875 55.546875 72.453125 
Q 61.96875 70.703125 67.390625 67.28125 
L 67.390625 56.78125 
Q 61.921875 61.421875 55.765625 63.765625 
Q 49.609375 66.109375 42.828125 66.109375 
Q 29.4375 66.109375 22.71875 58.640625 
Q 16.015625 51.171875 16.015625 36.375 
Q 16.015625 21.625 22.71875 14.15625 
Q 29.4375 6.6875 42.828125 6.6875 
Q 48.046875 6.6875 52.140625 7.59375 
Q 56.25 8.5 59.515625 10.40625 
z
" id="DejaVuSans-71"/>
      <path d="M 10.984375 1.515625 
L 10.984375 10.5 
Q 14.703125 8.734375 18.5 7.8125 
Q 22.3125 6.890625 25.984375 6.890625 
Q 35.75 6.890625 40.890625 13.453125 
Q 46.046875 20.015625 46.78125 33.40625 
Q 43.953125 29.203125 39.59375 26.953125 
Q 35.25 24.703125 29.984375 24.703125 
Q 19.046875 24.703125 12.671875 31.3125 
Q 6.296875 37.9375 6.296875 49.421875 
Q 6.296875 60.640625 12.9375 67.421875 
Q 19.578125 74.21875 30.609375 74.21875 
Q 43.265625 74.21875 49.921875 64.515625 
Q 56.59375 54.828125 56.59375 36.375 
Q 56.59375 19.140625 48.40625 8.859375 
Q 40.234375 -1.421875 26.421875 -1.421875 
Q 22.703125 -1.421875 18.890625 -0.6875 
Q 15.09375 0.046875 10.984375 1.515625 
z
M 30.609375 32.421875 
Q 37.25 32.421875 41.125 36.953125 
Q 45.015625 41.5 45.015625 49.421875 
Q 45.015625 57.28125 41.125 61.84375 
Q 37.25 66.40625 30.609375 66.40625 
Q 23.96875 66.40625 20.09375 61.84375 
Q 16.21875 57.28125 16.21875 49.421875 
Q 16.21875 41.5 20.09375 36.953125 
Q 23.96875 32.421875 30.609375 32.421875 
z
" id="DejaVuSans-57"/>
      <path id="DejaVuSans-32"/>
      <path d="M 4.890625 31.390625 
L 31.203125 31.390625 
L 31.203125 23.390625 
L 4.890625 23.390625 
z
" id="DejaVuSans-45"/>
      <path d="M 19.671875 64.796875 
L 19.671875 37.40625 
L 32.078125 37.40625 
Q 38.96875 37.40625 42.71875 40.96875 
Q 46.484375 44.53125 46.484375 51.125 
Q 46.484375 57.671875 42.71875 61.234375 
Q 38.96875 64.796875 32.078125 64.796875 
z
M 9.8125 72.90625 
L 32.078125 72.90625 
Q 44.34375 72.90625 50.609375 67.359375 
Q 56.890625 61.8125 56.890625 51.125 
Q 56.890625 40.328125 50.609375 34.8125 
Q 44.34375 29.296875 32.078125 29.296875 
L 19.671875 29.296875 
L 19.671875 0 
L 9.8125 0 
z
" id="DejaVuSans-80"/>
     </defs>
     <use xlink:href="#DejaVuSans-84"/>
     <use x="61.083984" xlink:href="#DejaVuSans-71"/>
     <use x="138.574219" xlink:href="#DejaVuSans-71"/>
     <use x="216.064453" xlink:href="#DejaVuSans-49"/>
     <use x="279.6875" xlink:href="#DejaVuSans-49"/>
     <use x="343.310547" xlink:href="#DejaVuSans-57"/>
     <use x="406.933594" xlink:href="#DejaVuSans-32"/>
     <use x="438.720703" xlink:href="#DejaVuSans-45"/>
     <use x="474.804688" xlink:href="#DejaVuSans-32"/>
     <use x="506.591797" xlink:href="#DejaVuSans-80"/>
     <use x="565.144531" xlink:href="#DejaVuSans-114"/>
     <use x="604.007812" xlink:href="#DejaVuSans-111"/>
     <use x="665.189453" xlink:href="#DejaVuSans-115"/>
     <use x="717.289062" xlink:href="#DejaVuSans-116"/>
     <use x="756.498047" xlink:href="#DejaVuSans-97"/>
     <use x="817.777344" xlink:href="#DejaVuSans-116"/>
     <use x="856.986328" xlink:href="#DejaVuSans-101"/>
    </g>
   </g>
   <g id="legend_1">
    <g id="patch_7">
     <path d="M 390.626125 221.13375 
L 479.15425 221.13375 
Q 481.15425 221.13375 481.15425 219.13375 
L 481.15425 29.318125 
Q 481.15425 27.318125 479.15425 27.318125 
L 390.626125 27.318125 
Q 388.626125 27.318125 388.626125 29.318125 
L 388.626125 219.13375 
Q 388.626125 221.13375 390.626125 221.13375 
z
" style="fill:#ffffff;opacity:0.8;stroke:#cccccc;stroke-linejoin:miter;"/>
    </g>
    <g id="line2d_51">
     <path d="M 392.626125 35.416562 
L 412.626125 35.416562 
" style="fill:none;stroke:#1f77b4;stroke-linecap:square;stroke-width:1.5;"/>
    </g>
    <g id="line2d_52"/>
    <g id="text_8">
     <!-- NAdam -->
     <g transform="translate(420.626125 38.916562)scale(0.1 -0.1)">
      <defs>
       <path d="M 9.8125 72.90625 
L 23.09375 72.90625 
L 55.421875 11.921875 
L 55.421875 72.90625 
L 64.984375 72.90625 
L 64.984375 0 
L 51.703125 0 
L 19.390625 60.984375 
L 19.390625 0 
L 9.8125 0 
z
" id="DejaVuSans-78"/>
       <path d="M 34.1875 63.1875 
L 20.796875 26.90625 
L 47.609375 26.90625 
z
M 28.609375 72.90625 
L 39.796875 72.90625 
L 67.578125 0 
L 57.328125 0 
L 50.6875 18.703125 
L 17.828125 18.703125 
L 11.1875 0 
L 0.78125 0 
z
" id="DejaVuSans-65"/>
       <path d="M 45.40625 46.390625 
L 45.40625 75.984375 
L 54.390625 75.984375 
L 54.390625 0 
L 45.40625 0 
L 45.40625 8.203125 
Q 42.578125 3.328125 38.25 0.953125 
Q 33.9375 -1.421875 27.875 -1.421875 
Q 17.96875 -1.421875 11.734375 6.484375 
Q 5.515625 14.40625 5.515625 27.296875 
Q 5.515625 40.1875 11.734375 48.09375 
Q 17.96875 56 27.875 56 
Q 33.9375 56 38.25 53.625 
Q 42.578125 51.265625 45.40625 46.390625 
z
M 14.796875 27.296875 
Q 14.796875 17.390625 18.875 11.75 
Q 22.953125 6.109375 30.078125 6.109375 
Q 37.203125 6.109375 41.296875 11.75 
Q 45.40625 17.390625 45.40625 27.296875 
Q 45.40625 37.203125 41.296875 42.84375 
Q 37.203125 48.484375 30.078125 48.484375 
Q 22.953125 48.484375 18.875 42.84375 
Q 14.796875 37.203125 14.796875 27.296875 
z
" id="DejaVuSans-100"/>
       <path d="M 52 44.1875 
Q 55.375 50.25 60.0625 53.125 
Q 64.75 56 71.09375 56 
Q 79.640625 56 84.28125 50.015625 
Q 88.921875 44.046875 88.921875 33.015625 
L 88.921875 0 
L 79.890625 0 
L 79.890625 32.71875 
Q 79.890625 40.578125 77.09375 44.375 
Q 74.3125 48.1875 68.609375 48.1875 
Q 61.625 48.1875 57.5625 43.546875 
Q 53.515625 38.921875 53.515625 30.90625 
L 53.515625 0 
L 44.484375 0 
L 44.484375 32.71875 
Q 44.484375 40.625 41.703125 44.40625 
Q 38.921875 48.1875 33.109375 48.1875 
Q 26.21875 48.1875 22.15625 43.53125 
Q 18.109375 38.875 18.109375 30.90625 
L 18.109375 0 
L 9.078125 0 
L 9.078125 54.6875 
L 18.109375 54.6875 
L 18.109375 46.1875 
Q 21.1875 51.21875 25.484375 53.609375 
Q 29.78125 56 35.6875 56 
Q 41.65625 56 45.828125 52.96875 
Q 50 49.953125 52 44.1875 
z
" id="DejaVuSans-109"/>
      </defs>
      <use xlink:href="#DejaVuSans-78"/>
      <use x="74.804688" xlink:href="#DejaVuSans-65"/>
      <use x="141.462891" xlink:href="#DejaVuSans-100"/>
      <use x="204.939453" xlink:href="#DejaVuSans-97"/>
      <use x="266.21875" xlink:href="#DejaVuSans-109"/>
     </g>
    </g>
    <g id="line2d_53">
     <path d="M 392.626125 50.094687 
L 412.626125 50.094687 
" style="fill:none;stroke:#ff7f0e;stroke-linecap:square;stroke-width:1.5;"/>
    </g>
    <g id="line2d_54"/>
    <g id="text_9">
     <!-- RAdam -->
     <g transform="translate(420.626125 53.594687)scale(0.1 -0.1)">
      <defs>
       <path d="M 44.390625 34.1875 
Q 47.5625 33.109375 50.5625 29.59375 
Q 53.5625 26.078125 56.59375 19.921875 
L 66.609375 0 
L 56 0 
L 46.6875 18.703125 
Q 43.0625 26.03125 39.671875 28.421875 
Q 36.28125 30.8125 30.421875 30.8125 
L 19.671875 30.8125 
L 19.671875 0 
L 9.8125 0 
L 9.8125 72.90625 
L 32.078125 72.90625 
Q 44.578125 72.90625 50.734375 67.671875 
Q 56.890625 62.453125 56.890625 51.90625 
Q 56.890625 45.015625 53.6875 40.46875 
Q 50.484375 35.9375 44.390625 34.1875 
z
M 19.671875 64.796875 
L 19.671875 38.921875 
L 32.078125 38.921875 
Q 39.203125 38.921875 42.84375 42.21875 
Q 46.484375 45.515625 46.484375 51.90625 
Q 46.484375 58.296875 42.84375 61.546875 
Q 39.203125 64.796875 32.078125 64.796875 
z
" id="DejaVuSans-82"/>
      </defs>
      <use xlink:href="#DejaVuSans-82"/>
      <use x="65.482422" xlink:href="#DejaVuSans-65"/>
      <use x="132.140625" xlink:href="#DejaVuSans-100"/>
      <use x="195.617188" xlink:href="#DejaVuSans-97"/>
      <use x="256.896484" xlink:href="#DejaVuSans-109"/>
     </g>
    </g>
    <g id="line2d_55">
     <path d="M 392.626125 64.772812 
L 412.626125 64.772812 
" style="fill:none;stroke:#2ca02c;stroke-linecap:square;stroke-width:1.5;"/>
    </g>
    <g id="line2d_56"/>
    <g id="text_10">
     <!-- Adam -->
     <g transform="translate(420.626125 68.272812)scale(0.1 -0.1)">
      <use xlink:href="#DejaVuSans-65"/>
      <use x="66.658203" xlink:href="#DejaVuSans-100"/>
      <use x="130.134766" xlink:href="#DejaVuSans-97"/>
      <use x="191.414062" xlink:href="#DejaVuSans-109"/>
     </g>
    </g>
    <g id="line2d_57">
     <path d="M 392.626125 79.450937 
L 412.626125 79.450937 
" style="fill:none;stroke:#d62728;stroke-linecap:square;stroke-width:1.5;"/>
    </g>
    <g id="line2d_58"/>
    <g id="text_11">
     <!-- Adadelta -->
     <g transform="translate(420.626125 82.950937)scale(0.1 -0.1)">
      <defs>
       <path d="M 9.421875 75.984375 
L 18.40625 75.984375 
L 18.40625 0 
L 9.421875 0 
z
" id="DejaVuSans-108"/>
      </defs>
      <use xlink:href="#DejaVuSans-65"/>
      <use x="66.658203" xlink:href="#DejaVuSans-100"/>
      <use x="130.134766" xlink:href="#DejaVuSans-97"/>
      <use x="191.414062" xlink:href="#DejaVuSans-100"/>
      <use x="254.890625" xlink:href="#DejaVuSans-101"/>
      <use x="316.414062" xlink:href="#DejaVuSans-108"/>
      <use x="344.197266" xlink:href="#DejaVuSans-116"/>
      <use x="383.40625" xlink:href="#DejaVuSans-97"/>
     </g>
    </g>
    <g id="line2d_59">
     <path d="M 392.626125 94.129062 
L 412.626125 94.129062 
" style="fill:none;stroke:#9467bd;stroke-linecap:square;stroke-width:1.5;"/>
    </g>
    <g id="line2d_60"/>
    <g id="text_12">
     <!-- Adamax -->
     <g transform="translate(420.626125 97.629062)scale(0.1 -0.1)">
      <defs>
       <path d="M 54.890625 54.6875 
L 35.109375 28.078125 
L 55.90625 0 
L 45.3125 0 
L 29.390625 21.484375 
L 13.484375 0 
L 2.875 0 
L 24.125 28.609375 
L 4.6875 54.6875 
L 15.28125 54.6875 
L 29.78125 35.203125 
L 44.28125 54.6875 
z
" id="DejaVuSans-120"/>
      </defs>
      <use xlink:href="#DejaVuSans-65"/>
      <use x="66.658203" xlink:href="#DejaVuSans-100"/>
      <use x="130.134766" xlink:href="#DejaVuSans-97"/>
      <use x="191.414062" xlink:href="#DejaVuSans-109"/>
      <use x="288.826172" xlink:href="#DejaVuSans-97"/>
      <use x="350.105469" xlink:href="#DejaVuSans-120"/>
     </g>
    </g>
    <g id="line2d_61">
     <path d="M 392.626125 108.807187 
L 412.626125 108.807187 
" style="fill:none;stroke:#8c564b;stroke-linecap:square;stroke-width:1.5;"/>
    </g>
    <g id="line2d_62"/>
    <g id="text_13">
     <!-- SGD -->
     <g transform="translate(420.626125 112.307187)scale(0.1 -0.1)">
      <defs>
       <path d="M 53.515625 70.515625 
L 53.515625 60.890625 
Q 47.90625 63.578125 42.921875 64.890625 
Q 37.9375 66.21875 33.296875 66.21875 
Q 25.25 66.21875 20.875 63.09375 
Q 16.5 59.96875 16.5 54.203125 
Q 16.5 49.359375 19.40625 46.890625 
Q 22.3125 44.4375 30.421875 42.921875 
L 36.375 41.703125 
Q 47.40625 39.59375 52.65625 34.296875 
Q 57.90625 29 57.90625 20.125 
Q 57.90625 9.515625 50.796875 4.046875 
Q 43.703125 -1.421875 29.984375 -1.421875 
Q 24.8125 -1.421875 18.96875 -0.25 
Q 13.140625 0.921875 6.890625 3.21875 
L 6.890625 13.375 
Q 12.890625 10.015625 18.65625 8.296875 
Q 24.421875 6.59375 29.984375 6.59375 
Q 38.421875 6.59375 43.015625 9.90625 
Q 47.609375 13.234375 47.609375 19.390625 
Q 47.609375 24.75 44.3125 27.78125 
Q 41.015625 30.8125 33.5 32.328125 
L 27.484375 33.5 
Q 16.453125 35.6875 11.515625 40.375 
Q 6.59375 45.0625 6.59375 53.421875 
Q 6.59375 63.09375 13.40625 68.65625 
Q 20.21875 74.21875 32.171875 74.21875 
Q 37.3125 74.21875 42.625 73.28125 
Q 47.953125 72.359375 53.515625 70.515625 
z
" id="DejaVuSans-83"/>
       <path d="M 19.671875 64.796875 
L 19.671875 8.109375 
L 31.59375 8.109375 
Q 46.6875 8.109375 53.6875 14.9375 
Q 60.6875 21.78125 60.6875 36.53125 
Q 60.6875 51.171875 53.6875 57.984375 
Q 46.6875 64.796875 31.59375 64.796875 
z
M 9.8125 72.90625 
L 30.078125 72.90625 
Q 51.265625 72.90625 61.171875 64.09375 
Q 71.09375 55.28125 71.09375 36.53125 
Q 71.09375 17.671875 61.125 8.828125 
Q 51.171875 0 30.078125 0 
L 9.8125 0 
z
" id="DejaVuSans-68"/>
      </defs>
      <use xlink:href="#DejaVuSans-83"/>
      <use x="63.476562" xlink:href="#DejaVuSans-71"/>
      <use x="140.966797" xlink:href="#DejaVuSans-68"/>
     </g>
    </g>
    <g id="line2d_63">
     <path d="M 392.626125 123.485312 
L 412.626125 123.485312 
" style="fill:none;stroke:#e377c2;stroke-linecap:square;stroke-width:1.5;"/>
    </g>
    <g id="line2d_64"/>
    <g id="text_14">
     <!-- LBFGS -->
     <g transform="translate(420.626125 126.985312)scale(0.1 -0.1)">
      <defs>
       <path d="M 9.8125 72.90625 
L 19.671875 72.90625 
L 19.671875 8.296875 
L 55.171875 8.296875 
L 55.171875 0 
L 9.8125 0 
z
" id="DejaVuSans-76"/>
       <path d="M 19.671875 34.8125 
L 19.671875 8.109375 
L 35.5 8.109375 
Q 43.453125 8.109375 47.28125 11.40625 
Q 51.125 14.703125 51.125 21.484375 
Q 51.125 28.328125 47.28125 31.5625 
Q 43.453125 34.8125 35.5 34.8125 
z
M 19.671875 64.796875 
L 19.671875 42.828125 
L 34.28125 42.828125 
Q 41.5 42.828125 45.03125 45.53125 
Q 48.578125 48.25 48.578125 53.8125 
Q 48.578125 59.328125 45.03125 62.0625 
Q 41.5 64.796875 34.28125 64.796875 
z
M 9.8125 72.90625 
L 35.015625 72.90625 
Q 46.296875 72.90625 52.390625 68.21875 
Q 58.5 63.53125 58.5 54.890625 
Q 58.5 48.1875 55.375 44.234375 
Q 52.25 40.28125 46.1875 39.3125 
Q 53.46875 37.75 57.5 32.78125 
Q 61.53125 27.828125 61.53125 20.40625 
Q 61.53125 10.640625 54.890625 5.3125 
Q 48.25 0 35.984375 0 
L 9.8125 0 
z
" id="DejaVuSans-66"/>
       <path d="M 9.8125 72.90625 
L 51.703125 72.90625 
L 51.703125 64.59375 
L 19.671875 64.59375 
L 19.671875 43.109375 
L 48.578125 43.109375 
L 48.578125 34.8125 
L 19.671875 34.8125 
L 19.671875 0 
L 9.8125 0 
z
" id="DejaVuSans-70"/>
      </defs>
      <use xlink:href="#DejaVuSans-76"/>
      <use x="55.712891" xlink:href="#DejaVuSans-66"/>
      <use x="124.316406" xlink:href="#DejaVuSans-70"/>
      <use x="181.835938" xlink:href="#DejaVuSans-71"/>
      <use x="259.326172" xlink:href="#DejaVuSans-83"/>
     </g>
    </g>
    <g id="line2d_65">
     <path d="M 392.626125 138.163437 
L 412.626125 138.163437 
" style="fill:none;stroke:#7f7f7f;stroke-linecap:square;stroke-width:1.5;"/>
    </g>
    <g id="line2d_66"/>
    <g id="text_15">
     <!-- RMSprop -->
     <g transform="translate(420.626125 141.663437)scale(0.1 -0.1)">
      <defs>
       <path d="M 9.8125 72.90625 
L 24.515625 72.90625 
L 43.109375 23.296875 
L 61.8125 72.90625 
L 76.515625 72.90625 
L 76.515625 0 
L 66.890625 0 
L 66.890625 64.015625 
L 48.09375 14.015625 
L 38.1875 14.015625 
L 19.390625 64.015625 
L 19.390625 0 
L 9.8125 0 
z
" id="DejaVuSans-77"/>
       <path d="M 18.109375 8.203125 
L 18.109375 -20.796875 
L 9.078125 -20.796875 
L 9.078125 54.6875 
L 18.109375 54.6875 
L 18.109375 46.390625 
Q 20.953125 51.265625 25.265625 53.625 
Q 29.59375 56 35.59375 56 
Q 45.5625 56 51.78125 48.09375 
Q 58.015625 40.1875 58.015625 27.296875 
Q 58.015625 14.40625 51.78125 6.484375 
Q 45.5625 -1.421875 35.59375 -1.421875 
Q 29.59375 -1.421875 25.265625 0.953125 
Q 20.953125 3.328125 18.109375 8.203125 
z
M 48.6875 27.296875 
Q 48.6875 37.203125 44.609375 42.84375 
Q 40.53125 48.484375 33.40625 48.484375 
Q 26.265625 48.484375 22.1875 42.84375 
Q 18.109375 37.203125 18.109375 27.296875 
Q 18.109375 17.390625 22.1875 11.75 
Q 26.265625 6.109375 33.40625 6.109375 
Q 40.53125 6.109375 44.609375 11.75 
Q 48.6875 17.390625 48.6875 27.296875 
z
" id="DejaVuSans-112"/>
      </defs>
      <use xlink:href="#DejaVuSans-82"/>
      <use x="69.482422" xlink:href="#DejaVuSans-77"/>
      <use x="155.761719" xlink:href="#DejaVuSans-83"/>
      <use x="219.238281" xlink:href="#DejaVuSans-112"/>
      <use x="282.714844" xlink:href="#DejaVuSans-114"/>
      <use x="321.578125" xlink:href="#DejaVuSans-111"/>
      <use x="382.759766" xlink:href="#DejaVuSans-112"/>
     </g>
    </g>
    <g id="line2d_67">
     <path d="M 392.626125 152.841562 
L 412.626125 152.841562 
" style="fill:none;stroke:#bcbd22;stroke-linecap:square;stroke-width:1.5;"/>
    </g>
    <g id="line2d_68"/>
    <g id="text_16">
     <!-- Rprop -->
     <g transform="translate(420.626125 156.341562)scale(0.1 -0.1)">
      <use xlink:href="#DejaVuSans-82"/>
      <use x="69.482422" xlink:href="#DejaVuSans-112"/>
      <use x="132.958984" xlink:href="#DejaVuSans-114"/>
      <use x="171.822266" xlink:href="#DejaVuSans-111"/>
      <use x="233.003906" xlink:href="#DejaVuSans-112"/>
     </g>
    </g>
    <g id="line2d_69">
     <path d="M 392.626125 167.519687 
L 412.626125 167.519687 
" style="fill:none;stroke:#17becf;stroke-dasharray:5.55,2.4;stroke-dashoffset:0;stroke-width:1.5;"/>
    </g>
    <g id="line2d_70"/>
    <g id="text_17">
     <!-- BFGS -->
     <g transform="translate(420.626125 171.019687)scale(0.1 -0.1)">
      <use xlink:href="#DejaVuSans-66"/>
      <use x="68.603516" xlink:href="#DejaVuSans-70"/>
      <use x="126.123047" xlink:href="#DejaVuSans-71"/>
      <use x="203.613281" xlink:href="#DejaVuSans-83"/>
     </g>
    </g>
    <g id="line2d_71">
     <path d="M 392.626125 182.197812 
L 412.626125 182.197812 
" style="fill:none;stroke:#1f77b4;stroke-dasharray:5.55,2.4;stroke-dashoffset:0;stroke-width:1.5;"/>
    </g>
    <g id="line2d_72"/>
    <g id="text_18">
     <!-- CG -->
     <g transform="translate(420.626125 185.697812)scale(0.1 -0.1)">
      <defs>
       <path d="M 64.40625 67.28125 
L 64.40625 56.890625 
Q 59.421875 61.53125 53.78125 63.8125 
Q 48.140625 66.109375 41.796875 66.109375 
Q 29.296875 66.109375 22.65625 58.46875 
Q 16.015625 50.828125 16.015625 36.375 
Q 16.015625 21.96875 22.65625 14.328125 
Q 29.296875 6.6875 41.796875 6.6875 
Q 48.140625 6.6875 53.78125 8.984375 
Q 59.421875 11.28125 64.40625 15.921875 
L 64.40625 5.609375 
Q 59.234375 2.09375 53.4375 0.328125 
Q 47.65625 -1.421875 41.21875 -1.421875 
Q 24.65625 -1.421875 15.125 8.703125 
Q 5.609375 18.84375 5.609375 36.375 
Q 5.609375 53.953125 15.125 64.078125 
Q 24.65625 74.21875 41.21875 74.21875 
Q 47.75 74.21875 53.53125 72.484375 
Q 59.328125 70.75 64.40625 67.28125 
z
" id="DejaVuSans-67"/>
      </defs>
      <use xlink:href="#DejaVuSans-67"/>
      <use x="69.824219" xlink:href="#DejaVuSans-71"/>
     </g>
    </g>
    <g id="line2d_73">
     <path d="M 392.626125 196.875937 
L 412.626125 196.875937 
" style="fill:none;stroke:#ff7f0e;stroke-dasharray:5.55,2.4;stroke-dashoffset:0;stroke-width:1.5;"/>
    </g>
    <g id="line2d_74"/>
    <g id="text_19">
     <!-- Newton-CG -->
     <g transform="translate(420.626125 200.375937)scale(0.1 -0.1)">
      <defs>
       <path d="M 4.203125 54.6875 
L 13.1875 54.6875 
L 24.421875 12.015625 
L 35.59375 54.6875 
L 46.1875 54.6875 
L 57.421875 12.015625 
L 68.609375 54.6875 
L 77.59375 54.6875 
L 63.28125 0 
L 52.6875 0 
L 40.921875 44.828125 
L 29.109375 0 
L 18.5 0 
z
" id="DejaVuSans-119"/>
      </defs>
      <use xlink:href="#DejaVuSans-78"/>
      <use x="74.804688" xlink:href="#DejaVuSans-101"/>
      <use x="136.328125" xlink:href="#DejaVuSans-119"/>
      <use x="218.115234" xlink:href="#DejaVuSans-116"/>
      <use x="257.324219" xlink:href="#DejaVuSans-111"/>
      <use x="318.505859" xlink:href="#DejaVuSans-110"/>
      <use x="381.884766" xlink:href="#DejaVuSans-45"/>
      <use x="417.96875" xlink:href="#DejaVuSans-67"/>
      <use x="487.792969" xlink:href="#DejaVuSans-71"/>
     </g>
    </g>
    <g id="line2d_75">
     <path d="M 392.626125 211.554062 
L 412.626125 211.554062 
" style="fill:none;stroke:#2ca02c;stroke-dasharray:5.55,2.4;stroke-dashoffset:0;stroke-width:1.5;"/>
    </g>
    <g id="line2d_76"/>
    <g id="text_20">
     <!-- SLSQP -->
     <g transform="translate(420.626125 215.054062)scale(0.1 -0.1)">
      <defs>
       <path d="M 39.40625 66.21875 
Q 28.65625 66.21875 22.328125 58.203125 
Q 16.015625 50.203125 16.015625 36.375 
Q 16.015625 22.609375 22.328125 14.59375 
Q 28.65625 6.59375 39.40625 6.59375 
Q 50.140625 6.59375 56.421875 14.59375 
Q 62.703125 22.609375 62.703125 36.375 
Q 62.703125 50.203125 56.421875 58.203125 
Q 50.140625 66.21875 39.40625 66.21875 
z
M 53.21875 1.3125 
L 66.21875 -12.890625 
L 54.296875 -12.890625 
L 43.5 -1.21875 
Q 41.890625 -1.3125 41.03125 -1.359375 
Q 40.1875 -1.421875 39.40625 -1.421875 
Q 24.03125 -1.421875 14.8125 8.859375 
Q 5.609375 19.140625 5.609375 36.375 
Q 5.609375 53.65625 14.8125 63.9375 
Q 24.03125 74.21875 39.40625 74.21875 
Q 54.734375 74.21875 63.90625 63.9375 
Q 73.09375 53.65625 73.09375 36.375 
Q 73.09375 23.6875 67.984375 14.640625 
Q 62.890625 5.609375 53.21875 1.3125 
z
" id="DejaVuSans-81"/>
      </defs>
      <use xlink:href="#DejaVuSans-83"/>
      <use x="63.476562" xlink:href="#DejaVuSans-76"/>
      <use x="119.189453" xlink:href="#DejaVuSans-83"/>
      <use x="182.666016" xlink:href="#DejaVuSans-81"/>
      <use x="261.376953" xlink:href="#DejaVuSans-80"/>
     </g>
    </g>
   </g>
  </g>
 </g>
 <defs>
  <clipPath id="p8950399d9e">
   <rect height="217.44" width="334.8" x="45.478125" y="22.318125"/>
  </clipPath>
 </defs>
</svg>
