<?xml version="1.0" encoding="utf-8" standalone="no"?>
<!DOCTYPE svg PUBLIC "-//W3C//DTD SVG 1.1//EN"
  "http://www.w3.org/Graphics/SVG/1.1/DTD/svg11.dtd">
<!-- Created with matplotlib (https://matplotlib.org/) -->
<svg height="277.314375pt" version="1.1" viewBox="0 0 488.35425 277.314375" width="488.35425pt" xmlns="http://www.w3.org/2000/svg" xmlns:xlink="http://www.w3.org/1999/xlink">
 <metadata>
  <rdf:RDF xmlns:cc="http://creativecommons.org/ns#" xmlns:dc="http://purl.org/dc/elements/1.1/" xmlns:rdf="http://www.w3.org/1999/02/22-rdf-syntax-ns#">
   <cc:Work>
    <dc:type rdf:resource="http://purl.org/dc/dcmitype/StillImage"/>
    <dc:date>2023-05-25T09:37:54.887794</dc:date>
    <dc:format>image/svg+xml</dc:format>
    <dc:creator>
     <cc:Agent>
      <dc:title>Matplotlib v3.3.2, https://matplotlib.org/</dc:title>
     </cc:Agent>
    </dc:creator>
   </cc:Work>
  </rdf:RDF>
 </metadata>
 <defs>
  <style type="text/css">*{stroke-linecap:butt;stroke-linejoin:round;}</style>
 </defs>
 <g id="figure_1">
  <g id="patch_1">
   <path d="M 0 277.314375 
L 488.35425 277.314375 
L 488.35425 0 
L 0 0 
z
" style="fill:none;"/>
  </g>
  <g id="axes_1">
   <g id="patch_2">
    <path d="M 45.478125 239.758125 
L 380.278125 239.758125 
L 380.278125 22.318125 
L 45.478125 22.318125 
z
" style="fill:#ffffff;"/>
   </g>
   <g id="matplotlib.axis_1">
    <g id="xtick_1">
     <g id="line2d_1">
      <defs>
       <path d="M 0 0 
L 0 3.5 
" id="me0d9d66acd" style="stroke:#000000;stroke-width:0.8;"/>
      </defs>
      <g>
       <use style="stroke:#000000;stroke-width:0.8;" x="112.975884" xlink:href="#me0d9d66acd" y="239.758125"/>
      </g>
     </g>
     <g id="text_1">
      <!-- $\mathdefault{10^{-2}}$ -->
      <g transform="translate(101.225884 254.356562)scale(0.1 -0.1)">
       <defs>
        <path d="M 12.40625 8.296875 
L 28.515625 8.296875 
L 28.515625 63.921875 
L 10.984375 60.40625 
L 10.984375 69.390625 
L 28.421875 72.90625 
L 38.28125 72.90625 
L 38.28125 8.296875 
L 54.390625 8.296875 
L 54.390625 0 
L 12.40625 0 
z
" id="DejaVuSans-49"/>
        <path d="M 31.78125 66.40625 
Q 24.171875 66.40625 20.328125 58.90625 
Q 16.5 51.421875 16.5 36.375 
Q 16.5 21.390625 20.328125 13.890625 
Q 24.171875 6.390625 31.78125 6.390625 
Q 39.453125 6.390625 43.28125 13.890625 
Q 47.125 21.390625 47.125 36.375 
Q 47.125 51.421875 43.28125 58.90625 
Q 39.453125 66.40625 31.78125 66.40625 
z
M 31.78125 74.21875 
Q 44.046875 74.21875 50.515625 64.515625 
Q 56.984375 54.828125 56.984375 36.375 
Q 56.984375 17.96875 50.515625 8.265625 
Q 44.046875 -1.421875 31.78125 -1.421875 
Q 19.53125 -1.421875 13.0625 8.265625 
Q 6.59375 17.96875 6.59375 36.375 
Q 6.59375 54.828125 13.0625 64.515625 
Q 19.53125 74.21875 31.78125 74.21875 
z
" id="DejaVuSans-48"/>
        <path d="M 10.59375 35.5 
L 73.1875 35.5 
L 73.1875 27.203125 
L 10.59375 27.203125 
z
" id="DejaVuSans-8722"/>
        <path d="M 19.1875 8.296875 
L 53.609375 8.296875 
L 53.609375 0 
L 7.328125 0 
L 7.328125 8.296875 
Q 12.9375 14.109375 22.625 23.890625 
Q 32.328125 33.6875 34.8125 36.53125 
Q 39.546875 41.84375 41.421875 45.53125 
Q 43.3125 49.21875 43.3125 52.78125 
Q 43.3125 58.59375 39.234375 62.25 
Q 35.15625 65.921875 28.609375 65.921875 
Q 23.96875 65.921875 18.8125 64.3125 
Q 13.671875 62.703125 7.8125 59.421875 
L 7.8125 69.390625 
Q 13.765625 71.78125 18.9375 73 
Q 24.125 74.21875 28.421875 74.21875 
Q 39.75 74.21875 46.484375 68.546875 
Q 53.21875 62.890625 53.21875 53.421875 
Q 53.21875 48.921875 51.53125 44.890625 
Q 49.859375 40.875 45.40625 35.40625 
Q 44.1875 33.984375 37.640625 27.21875 
Q 31.109375 20.453125 19.1875 8.296875 
z
" id="DejaVuSans-50"/>
       </defs>
       <use transform="translate(0 0.765625)" xlink:href="#DejaVuSans-49"/>
       <use transform="translate(63.623047 0.765625)" xlink:href="#DejaVuSans-48"/>
       <use transform="translate(128.203125 39.046875)scale(0.7)" xlink:href="#DejaVuSans-8722"/>
       <use transform="translate(186.855469 39.046875)scale(0.7)" xlink:href="#DejaVuSans-50"/>
      </g>
     </g>
    </g>
    <g id="xtick_2">
     <g id="line2d_2">
      <g>
       <use style="stroke:#000000;stroke-width:0.8;" x="182.532427" xlink:href="#me0d9d66acd" y="239.758125"/>
      </g>
     </g>
     <g id="text_2">
      <!-- $\mathdefault{10^{-1}}$ -->
      <g transform="translate(170.782427 254.356562)scale(0.1 -0.1)">
       <use transform="translate(0 0.684375)" xlink:href="#DejaVuSans-49"/>
       <use transform="translate(63.623047 0.684375)" xlink:href="#DejaVuSans-48"/>
       <use transform="translate(128.203125 38.965625)scale(0.7)" xlink:href="#DejaVuSans-8722"/>
       <use transform="translate(186.855469 38.965625)scale(0.7)" xlink:href="#DejaVuSans-49"/>
      </g>
     </g>
    </g>
    <g id="xtick_3">
     <g id="line2d_3">
      <g>
       <use style="stroke:#000000;stroke-width:0.8;" x="252.08897" xlink:href="#me0d9d66acd" y="239.758125"/>
      </g>
     </g>
     <g id="text_3">
      <!-- $\mathdefault{10^{0}}$ -->
      <g transform="translate(243.28897 254.356562)scale(0.1 -0.1)">
       <use transform="translate(0 0.765625)" xlink:href="#DejaVuSans-49"/>
       <use transform="translate(63.623047 0.765625)" xlink:href="#DejaVuSans-48"/>
       <use transform="translate(128.203125 39.046875)scale(0.7)" xlink:href="#DejaVuSans-48"/>
      </g>
     </g>
    </g>
    <g id="xtick_4">
     <g id="line2d_4">
      <g>
       <use style="stroke:#000000;stroke-width:0.8;" x="321.645513" xlink:href="#me0d9d66acd" y="239.758125"/>
      </g>
     </g>
     <g id="text_4">
      <!-- $\mathdefault{10^{1}}$ -->
      <g transform="translate(312.845513 254.356562)scale(0.1 -0.1)">
       <use transform="translate(0 0.684375)" xlink:href="#DejaVuSans-49"/>
       <use transform="translate(63.623047 0.684375)" xlink:href="#DejaVuSans-48"/>
       <use transform="translate(128.203125 38.965625)scale(0.7)" xlink:href="#DejaVuSans-49"/>
      </g>
     </g>
    </g>
    <g id="xtick_5">
     <g id="line2d_5">
      <defs>
       <path d="M 0 0 
L 0 2 
" id="m4f78aac1d3" style="stroke:#000000;stroke-width:0.6;"/>
      </defs>
      <g>
       <use style="stroke:#000000;stroke-width:0.6;" x="64.357947" xlink:href="#m4f78aac1d3" y="239.758125"/>
      </g>
     </g>
    </g>
    <g id="xtick_6">
     <g id="line2d_6">
      <g>
       <use style="stroke:#000000;stroke-width:0.6;" x="76.606246" xlink:href="#m4f78aac1d3" y="239.758125"/>
      </g>
     </g>
    </g>
    <g id="xtick_7">
     <g id="line2d_7">
      <g>
       <use style="stroke:#000000;stroke-width:0.6;" x="85.296553" xlink:href="#m4f78aac1d3" y="239.758125"/>
      </g>
     </g>
    </g>
    <g id="xtick_8">
     <g id="line2d_8">
      <g>
       <use style="stroke:#000000;stroke-width:0.6;" x="92.037278" xlink:href="#m4f78aac1d3" y="239.758125"/>
      </g>
     </g>
    </g>
    <g id="xtick_9">
     <g id="line2d_9">
      <g>
       <use style="stroke:#000000;stroke-width:0.6;" x="97.544852" xlink:href="#m4f78aac1d3" y="239.758125"/>
      </g>
     </g>
    </g>
    <g id="xtick_10">
     <g id="line2d_10">
      <g>
       <use style="stroke:#000000;stroke-width:0.6;" x="102.201439" xlink:href="#m4f78aac1d3" y="239.758125"/>
      </g>
     </g>
    </g>
    <g id="xtick_11">
     <g id="line2d_11">
      <g>
       <use style="stroke:#000000;stroke-width:0.6;" x="106.235158" xlink:href="#m4f78aac1d3" y="239.758125"/>
      </g>
     </g>
    </g>
    <g id="xtick_12">
     <g id="line2d_12">
      <g>
       <use style="stroke:#000000;stroke-width:0.6;" x="109.793151" xlink:href="#m4f78aac1d3" y="239.758125"/>
      </g>
     </g>
    </g>
    <g id="xtick_13">
     <g id="line2d_13">
      <g>
       <use style="stroke:#000000;stroke-width:0.6;" x="133.91449" xlink:href="#m4f78aac1d3" y="239.758125"/>
      </g>
     </g>
    </g>
    <g id="xtick_14">
     <g id="line2d_14">
      <g>
       <use style="stroke:#000000;stroke-width:0.6;" x="146.162789" xlink:href="#m4f78aac1d3" y="239.758125"/>
      </g>
     </g>
    </g>
    <g id="xtick_15">
     <g id="line2d_15">
      <g>
       <use style="stroke:#000000;stroke-width:0.6;" x="154.853096" xlink:href="#m4f78aac1d3" y="239.758125"/>
      </g>
     </g>
    </g>
    <g id="xtick_16">
     <g id="line2d_16">
      <g>
       <use style="stroke:#000000;stroke-width:0.6;" x="161.593821" xlink:href="#m4f78aac1d3" y="239.758125"/>
      </g>
     </g>
    </g>
    <g id="xtick_17">
     <g id="line2d_17">
      <g>
       <use style="stroke:#000000;stroke-width:0.6;" x="167.101395" xlink:href="#m4f78aac1d3" y="239.758125"/>
      </g>
     </g>
    </g>
    <g id="xtick_18">
     <g id="line2d_18">
      <g>
       <use style="stroke:#000000;stroke-width:0.6;" x="171.757982" xlink:href="#m4f78aac1d3" y="239.758125"/>
      </g>
     </g>
    </g>
    <g id="xtick_19">
     <g id="line2d_19">
      <g>
       <use style="stroke:#000000;stroke-width:0.6;" x="175.791702" xlink:href="#m4f78aac1d3" y="239.758125"/>
      </g>
     </g>
    </g>
    <g id="xtick_20">
     <g id="line2d_20">
      <g>
       <use style="stroke:#000000;stroke-width:0.6;" x="179.349694" xlink:href="#m4f78aac1d3" y="239.758125"/>
      </g>
     </g>
    </g>
    <g id="xtick_21">
     <g id="line2d_21">
      <g>
       <use style="stroke:#000000;stroke-width:0.6;" x="203.471033" xlink:href="#m4f78aac1d3" y="239.758125"/>
      </g>
     </g>
    </g>
    <g id="xtick_22">
     <g id="line2d_22">
      <g>
       <use style="stroke:#000000;stroke-width:0.6;" x="215.719332" xlink:href="#m4f78aac1d3" y="239.758125"/>
      </g>
     </g>
    </g>
    <g id="xtick_23">
     <g id="line2d_23">
      <g>
       <use style="stroke:#000000;stroke-width:0.6;" x="224.409639" xlink:href="#m4f78aac1d3" y="239.758125"/>
      </g>
     </g>
    </g>
    <g id="xtick_24">
     <g id="line2d_24">
      <g>
       <use style="stroke:#000000;stroke-width:0.6;" x="231.150364" xlink:href="#m4f78aac1d3" y="239.758125"/>
      </g>
     </g>
    </g>
    <g id="xtick_25">
     <g id="line2d_25">
      <g>
       <use style="stroke:#000000;stroke-width:0.6;" x="236.657938" xlink:href="#m4f78aac1d3" y="239.758125"/>
      </g>
     </g>
    </g>
    <g id="xtick_26">
     <g id="line2d_26">
      <g>
       <use style="stroke:#000000;stroke-width:0.6;" x="241.314525" xlink:href="#m4f78aac1d3" y="239.758125"/>
      </g>
     </g>
    </g>
    <g id="xtick_27">
     <g id="line2d_27">
      <g>
       <use style="stroke:#000000;stroke-width:0.6;" x="245.348245" xlink:href="#m4f78aac1d3" y="239.758125"/>
      </g>
     </g>
    </g>
    <g id="xtick_28">
     <g id="line2d_28">
      <g>
       <use style="stroke:#000000;stroke-width:0.6;" x="248.906237" xlink:href="#m4f78aac1d3" y="239.758125"/>
      </g>
     </g>
    </g>
    <g id="xtick_29">
     <g id="line2d_29">
      <g>
       <use style="stroke:#000000;stroke-width:0.6;" x="273.027576" xlink:href="#m4f78aac1d3" y="239.758125"/>
      </g>
     </g>
    </g>
    <g id="xtick_30">
     <g id="line2d_30">
      <g>
       <use style="stroke:#000000;stroke-width:0.6;" x="285.275875" xlink:href="#m4f78aac1d3" y="239.758125"/>
      </g>
     </g>
    </g>
    <g id="xtick_31">
     <g id="line2d_31">
      <g>
       <use style="stroke:#000000;stroke-width:0.6;" x="293.966182" xlink:href="#m4f78aac1d3" y="239.758125"/>
      </g>
     </g>
    </g>
    <g id="xtick_32">
     <g id="line2d_32">
      <g>
       <use style="stroke:#000000;stroke-width:0.6;" x="300.706907" xlink:href="#m4f78aac1d3" y="239.758125"/>
      </g>
     </g>
    </g>
    <g id="xtick_33">
     <g id="line2d_33">
      <g>
       <use style="stroke:#000000;stroke-width:0.6;" x="306.214481" xlink:href="#m4f78aac1d3" y="239.758125"/>
      </g>
     </g>
    </g>
    <g id="xtick_34">
     <g id="line2d_34">
      <g>
       <use style="stroke:#000000;stroke-width:0.6;" x="310.871068" xlink:href="#m4f78aac1d3" y="239.758125"/>
      </g>
     </g>
    </g>
    <g id="xtick_35">
     <g id="line2d_35">
      <g>
       <use style="stroke:#000000;stroke-width:0.6;" x="314.904788" xlink:href="#m4f78aac1d3" y="239.758125"/>
      </g>
     </g>
    </g>
    <g id="xtick_36">
     <g id="line2d_36">
      <g>
       <use style="stroke:#000000;stroke-width:0.6;" x="318.46278" xlink:href="#m4f78aac1d3" y="239.758125"/>
      </g>
     </g>
    </g>
    <g id="xtick_37">
     <g id="line2d_37">
      <g>
       <use style="stroke:#000000;stroke-width:0.6;" x="342.584119" xlink:href="#m4f78aac1d3" y="239.758125"/>
      </g>
     </g>
    </g>
    <g id="xtick_38">
     <g id="line2d_38">
      <g>
       <use style="stroke:#000000;stroke-width:0.6;" x="354.832418" xlink:href="#m4f78aac1d3" y="239.758125"/>
      </g>
     </g>
    </g>
    <g id="xtick_39">
     <g id="line2d_39">
      <g>
       <use style="stroke:#000000;stroke-width:0.6;" x="363.522725" xlink:href="#m4f78aac1d3" y="239.758125"/>
      </g>
     </g>
    </g>
    <g id="xtick_40">
     <g id="line2d_40">
      <g>
       <use style="stroke:#000000;stroke-width:0.6;" x="370.26345" xlink:href="#m4f78aac1d3" y="239.758125"/>
      </g>
     </g>
    </g>
    <g id="xtick_41">
     <g id="line2d_41">
      <g>
       <use style="stroke:#000000;stroke-width:0.6;" x="375.771024" xlink:href="#m4f78aac1d3" y="239.758125"/>
      </g>
     </g>
    </g>
    <g id="text_5">
     <!-- time (s) -->
     <g transform="translate(193.486719 268.034687)scale(0.1 -0.1)">
      <defs>
       <path d="M 18.3125 70.21875 
L 18.3125 54.6875 
L 36.8125 54.6875 
L 36.8125 47.703125 
L 18.3125 47.703125 
L 18.3125 18.015625 
Q 18.3125 11.328125 20.140625 9.421875 
Q 21.96875 7.515625 27.59375 7.515625 
L 36.8125 7.515625 
L 36.8125 0 
L 27.59375 0 
Q 17.1875 0 13.234375 3.875 
Q 9.28125 7.765625 9.28125 18.015625 
L 9.28125 47.703125 
L 2.6875 47.703125 
L 2.6875 54.6875 
L 9.28125 54.6875 
L 9.28125 70.21875 
z
" id="DejaVuSans-116"/>
       <path d="M 9.421875 54.6875 
L 18.40625 54.6875 
L 18.40625 0 
L 9.421875 0 
z
M 9.421875 75.984375 
L 18.40625 75.984375 
L 18.40625 64.59375 
L 9.421875 64.59375 
z
" id="DejaVuSans-105"/>
       <path d="M 52 44.1875 
Q 55.375 50.25 60.0625 53.125 
Q 64.75 56 71.09375 56 
Q 79.640625 56 84.28125 50.015625 
Q 88.921875 44.046875 88.921875 33.015625 
L 88.921875 0 
L 79.890625 0 
L 79.890625 32.71875 
Q 79.890625 40.578125 77.09375 44.375 
Q 74.3125 48.1875 68.609375 48.1875 
Q 61.625 48.1875 57.5625 43.546875 
Q 53.515625 38.921875 53.515625 30.90625 
L 53.515625 0 
L 44.484375 0 
L 44.484375 32.71875 
Q 44.484375 40.625 41.703125 44.40625 
Q 38.921875 48.1875 33.109375 48.1875 
Q 26.21875 48.1875 22.15625 43.53125 
Q 18.109375 38.875 18.109375 30.90625 
L 18.109375 0 
L 9.078125 0 
L 9.078125 54.6875 
L 18.109375 54.6875 
L 18.109375 46.1875 
Q 21.1875 51.21875 25.484375 53.609375 
Q 29.78125 56 35.6875 56 
Q 41.65625 56 45.828125 52.96875 
Q 50 49.953125 52 44.1875 
z
" id="DejaVuSans-109"/>
       <path d="M 56.203125 29.59375 
L 56.203125 25.203125 
L 14.890625 25.203125 
Q 15.484375 15.921875 20.484375 11.0625 
Q 25.484375 6.203125 34.421875 6.203125 
Q 39.59375 6.203125 44.453125 7.46875 
Q 49.3125 8.734375 54.109375 11.28125 
L 54.109375 2.78125 
Q 49.265625 0.734375 44.1875 -0.34375 
Q 39.109375 -1.421875 33.890625 -1.421875 
Q 20.796875 -1.421875 13.15625 6.1875 
Q 5.515625 13.8125 5.515625 26.8125 
Q 5.515625 40.234375 12.765625 48.109375 
Q 20.015625 56 32.328125 56 
Q 43.359375 56 49.78125 48.890625 
Q 56.203125 41.796875 56.203125 29.59375 
z
M 47.21875 32.234375 
Q 47.125 39.59375 43.09375 43.984375 
Q 39.0625 48.390625 32.421875 48.390625 
Q 24.90625 48.390625 20.390625 44.140625 
Q 15.875 39.890625 15.1875 32.171875 
z
" id="DejaVuSans-101"/>
       <path id="DejaVuSans-32"/>
       <path d="M 31 75.875 
Q 24.46875 64.65625 21.28125 53.65625 
Q 18.109375 42.671875 18.109375 31.390625 
Q 18.109375 20.125 21.3125 9.0625 
Q 24.515625 -2 31 -13.1875 
L 23.1875 -13.1875 
Q 15.875 -1.703125 12.234375 9.375 
Q 8.59375 20.453125 8.59375 31.390625 
Q 8.59375 42.28125 12.203125 53.3125 
Q 15.828125 64.359375 23.1875 75.875 
z
" id="DejaVuSans-40"/>
       <path d="M 44.28125 53.078125 
L 44.28125 44.578125 
Q 40.484375 46.53125 36.375 47.5 
Q 32.28125 48.484375 27.875 48.484375 
Q 21.1875 48.484375 17.84375 46.4375 
Q 14.5 44.390625 14.5 40.28125 
Q 14.5 37.15625 16.890625 35.375 
Q 19.28125 33.59375 26.515625 31.984375 
L 29.59375 31.296875 
Q 39.15625 29.25 43.1875 25.515625 
Q 47.21875 21.78125 47.21875 15.09375 
Q 47.21875 7.46875 41.1875 3.015625 
Q 35.15625 -1.421875 24.609375 -1.421875 
Q 20.21875 -1.421875 15.453125 -0.5625 
Q 10.6875 0.296875 5.421875 2 
L 5.421875 11.28125 
Q 10.40625 8.6875 15.234375 7.390625 
Q 20.0625 6.109375 24.8125 6.109375 
Q 31.15625 6.109375 34.5625 8.28125 
Q 37.984375 10.453125 37.984375 14.40625 
Q 37.984375 18.0625 35.515625 20.015625 
Q 33.0625 21.96875 24.703125 23.78125 
L 21.578125 24.515625 
Q 13.234375 26.265625 9.515625 29.90625 
Q 5.8125 33.546875 5.8125 39.890625 
Q 5.8125 47.609375 11.28125 51.796875 
Q 16.75 56 26.8125 56 
Q 31.78125 56 36.171875 55.265625 
Q 40.578125 54.546875 44.28125 53.078125 
z
" id="DejaVuSans-115"/>
       <path d="M 8.015625 75.875 
L 15.828125 75.875 
Q 23.140625 64.359375 26.78125 53.3125 
Q 30.421875 42.28125 30.421875 31.390625 
Q 30.421875 20.453125 26.78125 9.375 
Q 23.140625 -1.703125 15.828125 -13.1875 
L 8.015625 -13.1875 
Q 14.5 -2 17.703125 9.0625 
Q 20.90625 20.125 20.90625 31.390625 
Q 20.90625 42.671875 17.703125 53.65625 
Q 14.5 64.65625 8.015625 75.875 
z
" id="DejaVuSans-41"/>
      </defs>
      <use xlink:href="#DejaVuSans-116"/>
      <use x="39.208984" xlink:href="#DejaVuSans-105"/>
      <use x="66.992188" xlink:href="#DejaVuSans-109"/>
      <use x="164.404297" xlink:href="#DejaVuSans-101"/>
      <use x="225.927734" xlink:href="#DejaVuSans-32"/>
      <use x="257.714844" xlink:href="#DejaVuSans-40"/>
      <use x="296.728516" xlink:href="#DejaVuSans-115"/>
      <use x="348.828125" xlink:href="#DejaVuSans-41"/>
     </g>
    </g>
   </g>
   <g id="matplotlib.axis_2">
    <g id="ytick_1">
     <g id="line2d_42">
      <defs>
       <path d="M 0 0 
L -3.5 0 
" id="m38a7e98dd0" style="stroke:#000000;stroke-width:0.8;"/>
      </defs>
      <g>
       <use style="stroke:#000000;stroke-width:0.8;" x="45.478125" xlink:href="#m38a7e98dd0" y="237.261345"/>
      </g>
     </g>
     <g id="text_6">
      <!-- $\mathdefault{10^{5}}$ -->
      <g transform="translate(20.878125 241.060564)scale(0.1 -0.1)">
       <defs>
        <path d="M 10.796875 72.90625 
L 49.515625 72.90625 
L 49.515625 64.59375 
L 19.828125 64.59375 
L 19.828125 46.734375 
Q 21.96875 47.46875 24.109375 47.828125 
Q 26.265625 48.1875 28.421875 48.1875 
Q 40.625 48.1875 47.75 41.5 
Q 54.890625 34.8125 54.890625 23.390625 
Q 54.890625 11.625 47.5625 5.09375 
Q 40.234375 -1.421875 26.90625 -1.421875 
Q 22.3125 -1.421875 17.546875 -0.640625 
Q 12.796875 0.140625 7.71875 1.703125 
L 7.71875 11.625 
Q 12.109375 9.234375 16.796875 8.0625 
Q 21.484375 6.890625 26.703125 6.890625 
Q 35.15625 6.890625 40.078125 11.328125 
Q 45.015625 15.765625 45.015625 23.390625 
Q 45.015625 31 40.078125 35.4375 
Q 35.15625 39.890625 26.703125 39.890625 
Q 22.75 39.890625 18.8125 39.015625 
Q 14.890625 38.140625 10.796875 36.28125 
z
" id="DejaVuSans-53"/>
       </defs>
       <use transform="translate(0 0.684375)" xlink:href="#DejaVuSans-49"/>
       <use transform="translate(63.623047 0.684375)" xlink:href="#DejaVuSans-48"/>
       <use transform="translate(128.203125 38.965625)scale(0.7)" xlink:href="#DejaVuSans-53"/>
      </g>
     </g>
    </g>
    <g id="ytick_2">
     <g id="line2d_43">
      <g>
       <use style="stroke:#000000;stroke-width:0.8;" x="45.478125" xlink:href="#m38a7e98dd0" y="158.369624"/>
      </g>
     </g>
     <g id="text_7">
      <!-- $\mathdefault{10^{6}}$ -->
      <g transform="translate(20.878125 162.168843)scale(0.1 -0.1)">
       <defs>
        <path d="M 33.015625 40.375 
Q 26.375 40.375 22.484375 35.828125 
Q 18.609375 31.296875 18.609375 23.390625 
Q 18.609375 15.53125 22.484375 10.953125 
Q 26.375 6.390625 33.015625 6.390625 
Q 39.65625 6.390625 43.53125 10.953125 
Q 47.40625 15.53125 47.40625 23.390625 
Q 47.40625 31.296875 43.53125 35.828125 
Q 39.65625 40.375 33.015625 40.375 
z
M 52.59375 71.296875 
L 52.59375 62.3125 
Q 48.875 64.0625 45.09375 64.984375 
Q 41.3125 65.921875 37.59375 65.921875 
Q 27.828125 65.921875 22.671875 59.328125 
Q 17.53125 52.734375 16.796875 39.40625 
Q 19.671875 43.65625 24.015625 45.921875 
Q 28.375 48.1875 33.59375 48.1875 
Q 44.578125 48.1875 50.953125 41.515625 
Q 57.328125 34.859375 57.328125 23.390625 
Q 57.328125 12.15625 50.6875 5.359375 
Q 44.046875 -1.421875 33.015625 -1.421875 
Q 20.359375 -1.421875 13.671875 8.265625 
Q 6.984375 17.96875 6.984375 36.375 
Q 6.984375 53.65625 15.1875 63.9375 
Q 23.390625 74.21875 37.203125 74.21875 
Q 40.921875 74.21875 44.703125 73.484375 
Q 48.484375 72.75 52.59375 71.296875 
z
" id="DejaVuSans-54"/>
       </defs>
       <use transform="translate(0 0.765625)" xlink:href="#DejaVuSans-49"/>
       <use transform="translate(63.623047 0.765625)" xlink:href="#DejaVuSans-48"/>
       <use transform="translate(128.203125 39.046875)scale(0.7)" xlink:href="#DejaVuSans-54"/>
      </g>
     </g>
    </g>
    <g id="ytick_3">
     <g id="line2d_44">
      <g>
       <use style="stroke:#000000;stroke-width:0.8;" x="45.478125" xlink:href="#m38a7e98dd0" y="79.477903"/>
      </g>
     </g>
     <g id="text_8">
      <!-- $\mathdefault{10^{7}}$ -->
      <g transform="translate(20.878125 83.277122)scale(0.1 -0.1)">
       <defs>
        <path d="M 8.203125 72.90625 
L 55.078125 72.90625 
L 55.078125 68.703125 
L 28.609375 0 
L 18.3125 0 
L 43.21875 64.59375 
L 8.203125 64.59375 
z
" id="DejaVuSans-55"/>
       </defs>
       <use transform="translate(0 0.684375)" xlink:href="#DejaVuSans-49"/>
       <use transform="translate(63.623047 0.684375)" xlink:href="#DejaVuSans-48"/>
       <use transform="translate(128.203125 38.965625)scale(0.7)" xlink:href="#DejaVuSans-55"/>
      </g>
     </g>
    </g>
    <g id="ytick_4">
     <g id="line2d_45">
      <defs>
       <path d="M 0 0 
L -2 0 
" id="mc981d0f3f1" style="stroke:#000000;stroke-width:0.6;"/>
      </defs>
      <g>
       <use style="stroke:#000000;stroke-width:0.6;" x="45.478125" xlink:href="#mc981d0f3f1" y="213.51257"/>
      </g>
     </g>
    </g>
    <g id="ytick_5">
     <g id="line2d_46">
      <g>
       <use style="stroke:#000000;stroke-width:0.6;" x="45.478125" xlink:href="#mc981d0f3f1" y="199.620428"/>
      </g>
     </g>
    </g>
    <g id="ytick_6">
     <g id="line2d_47">
      <g>
       <use style="stroke:#000000;stroke-width:0.6;" x="45.478125" xlink:href="#mc981d0f3f1" y="189.763796"/>
      </g>
     </g>
    </g>
    <g id="ytick_7">
     <g id="line2d_48">
      <g>
       <use style="stroke:#000000;stroke-width:0.6;" x="45.478125" xlink:href="#mc981d0f3f1" y="182.118398"/>
      </g>
     </g>
    </g>
    <g id="ytick_8">
     <g id="line2d_49">
      <g>
       <use style="stroke:#000000;stroke-width:0.6;" x="45.478125" xlink:href="#mc981d0f3f1" y="175.871654"/>
      </g>
     </g>
    </g>
    <g id="ytick_9">
     <g id="line2d_50">
      <g>
       <use style="stroke:#000000;stroke-width:0.6;" x="45.478125" xlink:href="#mc981d0f3f1" y="170.590106"/>
      </g>
     </g>
    </g>
    <g id="ytick_10">
     <g id="line2d_51">
      <g>
       <use style="stroke:#000000;stroke-width:0.6;" x="45.478125" xlink:href="#mc981d0f3f1" y="166.015022"/>
      </g>
     </g>
    </g>
    <g id="ytick_11">
     <g id="line2d_52">
      <g>
       <use style="stroke:#000000;stroke-width:0.6;" x="45.478125" xlink:href="#mc981d0f3f1" y="161.979511"/>
      </g>
     </g>
    </g>
    <g id="ytick_12">
     <g id="line2d_53">
      <g>
       <use style="stroke:#000000;stroke-width:0.6;" x="45.478125" xlink:href="#mc981d0f3f1" y="134.620849"/>
      </g>
     </g>
    </g>
    <g id="ytick_13">
     <g id="line2d_54">
      <g>
       <use style="stroke:#000000;stroke-width:0.6;" x="45.478125" xlink:href="#mc981d0f3f1" y="120.728707"/>
      </g>
     </g>
    </g>
    <g id="ytick_14">
     <g id="line2d_55">
      <g>
       <use style="stroke:#000000;stroke-width:0.6;" x="45.478125" xlink:href="#mc981d0f3f1" y="110.872075"/>
      </g>
     </g>
    </g>
    <g id="ytick_15">
     <g id="line2d_56">
      <g>
       <use style="stroke:#000000;stroke-width:0.6;" x="45.478125" xlink:href="#mc981d0f3f1" y="103.226677"/>
      </g>
     </g>
    </g>
    <g id="ytick_16">
     <g id="line2d_57">
      <g>
       <use style="stroke:#000000;stroke-width:0.6;" x="45.478125" xlink:href="#mc981d0f3f1" y="96.979933"/>
      </g>
     </g>
    </g>
    <g id="ytick_17">
     <g id="line2d_58">
      <g>
       <use style="stroke:#000000;stroke-width:0.6;" x="45.478125" xlink:href="#mc981d0f3f1" y="91.698385"/>
      </g>
     </g>
    </g>
    <g id="ytick_18">
     <g id="line2d_59">
      <g>
       <use style="stroke:#000000;stroke-width:0.6;" x="45.478125" xlink:href="#mc981d0f3f1" y="87.123301"/>
      </g>
     </g>
    </g>
    <g id="ytick_19">
     <g id="line2d_60">
      <g>
       <use style="stroke:#000000;stroke-width:0.6;" x="45.478125" xlink:href="#mc981d0f3f1" y="83.08779"/>
      </g>
     </g>
    </g>
    <g id="ytick_20">
     <g id="line2d_61">
      <g>
       <use style="stroke:#000000;stroke-width:0.6;" x="45.478125" xlink:href="#mc981d0f3f1" y="55.729129"/>
      </g>
     </g>
    </g>
    <g id="ytick_21">
     <g id="line2d_62">
      <g>
       <use style="stroke:#000000;stroke-width:0.6;" x="45.478125" xlink:href="#mc981d0f3f1" y="41.836986"/>
      </g>
     </g>
    </g>
    <g id="ytick_22">
     <g id="line2d_63">
      <g>
       <use style="stroke:#000000;stroke-width:0.6;" x="45.478125" xlink:href="#mc981d0f3f1" y="31.980354"/>
      </g>
     </g>
    </g>
    <g id="ytick_23">
     <g id="line2d_64">
      <g>
       <use style="stroke:#000000;stroke-width:0.6;" x="45.478125" xlink:href="#mc981d0f3f1" y="24.334956"/>
      </g>
     </g>
    </g>
    <g id="text_9">
     <!-- cost -->
     <g transform="translate(14.798438 141.411562)rotate(-90)scale(0.1 -0.1)">
      <defs>
       <path d="M 48.78125 52.59375 
L 48.78125 44.1875 
Q 44.96875 46.296875 41.140625 47.34375 
Q 37.3125 48.390625 33.40625 48.390625 
Q 24.65625 48.390625 19.8125 42.84375 
Q 14.984375 37.3125 14.984375 27.296875 
Q 14.984375 17.28125 19.8125 11.734375 
Q 24.65625 6.203125 33.40625 6.203125 
Q 37.3125 6.203125 41.140625 7.25 
Q 44.96875 8.296875 48.78125 10.40625 
L 48.78125 2.09375 
Q 45.015625 0.34375 40.984375 -0.53125 
Q 36.96875 -1.421875 32.421875 -1.421875 
Q 20.0625 -1.421875 12.78125 6.34375 
Q 5.515625 14.109375 5.515625 27.296875 
Q 5.515625 40.671875 12.859375 48.328125 
Q 20.21875 56 33.015625 56 
Q 37.15625 56 41.109375 55.140625 
Q 45.0625 54.296875 48.78125 52.59375 
z
" id="DejaVuSans-99"/>
       <path d="M 30.609375 48.390625 
Q 23.390625 48.390625 19.1875 42.75 
Q 14.984375 37.109375 14.984375 27.296875 
Q 14.984375 17.484375 19.15625 11.84375 
Q 23.34375 6.203125 30.609375 6.203125 
Q 37.796875 6.203125 41.984375 11.859375 
Q 46.1875 17.53125 46.1875 27.296875 
Q 46.1875 37.015625 41.984375 42.703125 
Q 37.796875 48.390625 30.609375 48.390625 
z
M 30.609375 56 
Q 42.328125 56 49.015625 48.375 
Q 55.71875 40.765625 55.71875 27.296875 
Q 55.71875 13.875 49.015625 6.21875 
Q 42.328125 -1.421875 30.609375 -1.421875 
Q 18.84375 -1.421875 12.171875 6.21875 
Q 5.515625 13.875 5.515625 27.296875 
Q 5.515625 40.765625 12.171875 48.375 
Q 18.84375 56 30.609375 56 
z
" id="DejaVuSans-111"/>
      </defs>
      <use xlink:href="#DejaVuSans-99"/>
      <use x="54.980469" xlink:href="#DejaVuSans-111"/>
      <use x="116.162109" xlink:href="#DejaVuSans-115"/>
      <use x="168.261719" xlink:href="#DejaVuSans-116"/>
     </g>
    </g>
   </g>
   <g id="line2d_65">
    <path clip-path="url(#p1fa10ff9d6)" d="M 240.766293 32.201761 
L 241.269717 34.935026 
L 241.435825 36.994899 
L 241.565455 38.958297 
L 241.723301 40.957894 
L 241.867954 43.038616 
L 242.013455 45.217353 
L 242.159901 47.500213 
L 242.313106 49.88888 
L 242.465251 52.383238 
L 242.616377 54.982465 
L 242.760808 57.685485 
L 242.905216 60.491144 
L 243.072019 63.398238 
L 243.220438 66.405489 
L 243.370975 69.511379 
L 243.523856 72.714018 
L 243.678706 76.011104 
L 243.816396 79.399751 
L 243.973961 82.876228 
L 244.120414 86.436052 
L 244.279595 90.073738 
L 244.431084 93.782328 
L 244.580552 97.553227 
L 244.727759 101.37873 
L 244.878632 105.24857 
L 245.028901 109.147769 
L 245.203403 113.060834 
L 245.357775 116.969794 
L 245.507467 120.853486 
L 245.660092 124.689495 
L 245.808448 128.44901 
L 245.959652 132.105672 
L 246.113447 135.628913 
L 246.266446 138.990921 
L 246.419717 142.162731 
L 246.571185 145.120804 
L 246.722981 147.850782 
L 246.875251 150.355741 
L 247.046201 152.64729 
L 247.249253 154.753724 
L 247.418543 156.698482 
L 247.586171 158.488617 
L 247.754993 160.130992 
L 247.927424 161.654345 
L 248.09235 163.062867 
L 248.262798 164.362405 
L 248.431037 165.557797 
L 248.631368 166.665837 
L 248.844254 167.700446 
L 249.044549 168.674039 
L 249.233986 169.596081 
L 249.446731 170.47455 
L 249.658948 171.315085 
L 249.85949 172.117231 
L 250.064948 172.876339 
L 250.267863 173.58605 
L 250.509291 174.258425 
L 250.724621 174.908721 
L 250.935965 175.53486 
L 251.16623 176.137414 
L 251.411566 176.726589 
L 251.642393 177.290313 
L 251.867885 177.823079 
L 252.08781 178.330269 
L 252.298179 178.835688 
L 252.527125 179.350453 
L 252.753813 179.850443 
L 252.974001 180.320958 
L 253.188956 180.757894 
L 253.396849 181.158335 
L 253.616853 181.522347 
L 253.82128 181.872162 
L 254.03439 182.245674 
L 254.338065 182.642348 
L 254.542134 183.023082 
L 254.740013 183.371921 
L 254.932605 183.712869 
L 255.125983 184.053976 
L 255.31872 184.386095 
L 255.514737 184.699463 
L 255.702263 184.988749 
L 255.894944 185.255564 
L 256.085118 185.505214 
L 256.279919 185.747123 
L 256.496008 185.985056 
L 256.691322 186.222159 
L 256.877896 186.45694 
L 257.06666 186.69071 
L 257.245223 186.924202 
L 257.427337 187.158928 
L 257.611186 187.393777 
L 257.795496 187.625484 
L 257.975044 187.850936 
L 258.152741 188.067834 
L 258.333704 188.27579 
L 258.508314 188.474805 
L 258.681527 188.666072 
L 258.871353 188.850189 
L 259.049533 189.0281 
" style="fill:none;stroke:#1f77b4;stroke-linecap:square;stroke-width:1.5;"/>
   </g>
   <g id="line2d_66">
    <path clip-path="url(#p1fa10ff9d6)" d="M 85.705704 32.201761 
L 116.928261 32.212877 
L 132.146356 32.223997 
L 142.054767 32.235114 
L 149.615659 32.246234 
L 155.785608 32.25735 
L 164.966152 32.257361 
L 168.742362 32.257371 
L 171.93778 32.257378 
L 175.140287 32.257392 
L 178.024469 32.257399 
L 180.539717 32.257413 
L 182.92708 32.257426 
L 185.046409 32.257447 
L 187.086644 32.257461 
L 188.98444 32.257482 
L 190.743528 32.257499 
L 192.386619 32.25752 
L 193.911988 32.257537 
L 195.389819 32.257558 
L 196.784965 32.257578 
L 198.130891 32.257603 
L 199.414044 32.257627 
L 200.786451 32.257651 
L 202.046556 32.257675 
L 203.285049 32.257699 
L 204.488098 32.257723 
L 205.666269 32.257751 
L 206.698893 32.257779 
L 207.828938 32.257806 
L 208.755026 32.257834 
L 209.663248 32.257862 
L 210.54416 32.257893 
L 211.473171 32.257924 
L 212.311641 32.257951 
L 213.112186 32.257986 
L 213.92423 32.258014 
L 214.693292 32.258045 
L 215.44137 32.258079 
L 216.174703 32.25811 
L 216.863761 32.258145 
L 217.615383 32.258179 
L 218.332667 32.258214 
L 218.98487 32.258248 
L 219.640962 32.258283 
L 220.378154 32.258318 
L 221.032012 32.258356 
L 221.671089 32.258394 
L 222.257682 32.258428 
L 222.883236 32.258463 
L 223.442398 32.258504 
L 224.096299 32.258546 
L 224.535995 32.25858 
L 224.938524 32.258622 
L 225.343111 32.258656 
L 225.757542 32.258697 
L 226.150288 32.258739 
L 226.531752 32.25878 
L 227.037969 32.258822 
L 227.528439 32.258863 
L 228.098844 32.258905 
L 228.593503 32.258946 
L 229.059514 32.258991 
L 229.520847 32.259033 
L 229.969908 32.259077 
L 230.554937 32.259119 
L 231.175115 32.259164 
L 231.632186 32.259209 
L 232.057125 32.25925 
L 232.559926 32.259299 
L 233.202091 32.259347 
L 233.526961 32.259388 
L 233.880856 32.259437 
L 234.311 32.259485 
L 234.778849 32.25953 
L 235.108655 32.259575 
L 235.409164 32.259623 
L 235.740413 32.259672 
L 236.059793 32.25972 
L 236.406289 32.259768 
L 236.751979 32.259817 
L 237.095497 32.259865 
L 237.442451 32.259917 
L 237.766437 32.259969 
L 238.136747 32.260017 
L 238.473379 32.260069 
L 238.81303 32.260117 
L 239.144063 32.260169 
L 239.491502 32.260224 
L 239.823211 32.260273 
L 240.141286 32.260324 
L 240.47739 32.26038 
L 240.792506 32.260432 
L 241.116096 32.260483 
L 241.429645 32.260539 
L 241.729045 32.26059 
L 242.026904 32.260646 
L 242.319257 32.260698 
L 242.644106 32.260756 
L 242.953845 32.260808 
" style="fill:none;stroke:#ff7f0e;stroke-linecap:square;stroke-width:1.5;"/>
   </g>
   <g id="line2d_67">
    <path clip-path="url(#p1fa10ff9d6)" d="M 77.292412 32.201761 
L 119.581599 63.879738 
L 133.035744 116.540178 
L 142.256797 173.359192 
L 150.647758 140.600933 
L 156.221173 107.272161 
L 161.022038 90.526774 
L 165.133294 83.212419 
L 168.656974 82.178444 
L 171.772971 86.006808 
L 174.813992 94.248854 
L 177.598059 107.05187 
L 179.99586 125.459562 
L 182.20655 150.527357 
L 184.269694 178.878974 
L 186.233534 185.314665 
L 188.048793 171.706762 
L 189.743489 151.132034 
L 191.340285 135.084938 
L 192.867793 127.17236 
L 194.415704 126.864167 
L 195.960547 133.435158 
L 197.286534 146.390725 
L 198.540565 164.349908 
L 199.819513 181.574706 
L 201.002068 192.06618 
L 202.129641 195.988252 
L 203.268559 191.365034 
L 204.482979 181.013032 
L 205.484998 171.590291 
L 206.456345 165.630167 
L 207.422967 163.346504 
L 208.40311 164.630076 
L 209.281733 169.339261 
L 210.209684 177.175647 
L 211.108355 187.385336 
L 211.93394 198.139818 
L 212.727384 205.731342 
L 213.507675 207.727288 
L 214.256805 205.686246 
L 214.993707 202.601878 
L 215.735072 199.583666 
L 216.446352 196.90511 
L 217.159952 195.199088 
L 217.849433 194.654385 
L 218.51867 195.468415 
L 219.213374 197.576933 
L 219.856015 200.651904 
L 220.513406 204.205376 
L 221.133786 207.65603 
L 221.736764 210.549033 
L 222.33095 212.747073 
L 222.916436 214.098146 
L 223.35631 214.641475 
L 223.889703 214.645835 
L 224.447128 214.37447 
L 224.993482 213.936403 
L 225.551184 213.727381 
L 226.070858 213.974389 
L 226.577973 214.740189 
L 227.098663 215.822937 
L 227.590328 217.107976 
L 228.111941 218.46291 
L 228.694901 219.527739 
L 229.167224 220.237168 
L 229.629169 220.58055 
L 230.128606 220.729321 
L 230.632407 220.78006 
L 231.084046 220.75396 
L 231.514776 220.816481 
L 232.066266 221.141192 
L 232.501181 221.482691 
L 232.916978 221.791279 
L 233.326513 222.173657 
L 233.730438 222.610344 
L 234.126488 223.114516 
L 234.523043 223.457513 
L 234.905938 223.660186 
L 235.295972 223.98037 
L 235.671598 224.184569 
L 236.062756 224.261375 
L 236.430221 224.466612 
L 236.79744 224.613292 
L 237.162752 224.799634 
L 237.520759 225.000007 
L 237.869764 225.111613 
L 238.213745 225.33052 
L 238.554158 225.489743 
L 238.891369 225.598616 
L 239.224272 225.781065 
L 239.553896 225.907853 
L 239.880944 226.087482 
L 240.154792 226.210545 
L 240.467148 226.257872 
L 240.772558 226.352731 
L 241.064942 226.463132 
L 241.368875 226.625819 
L 241.668225 226.784558 
L 241.945135 226.895084 
L 242.224233 226.996451 
" style="fill:none;stroke:#2ca02c;stroke-linecap:square;stroke-width:1.5;"/>
   </g>
   <g id="line2d_68">
    <path clip-path="url(#p1fa10ff9d6)" d="M 63.011812 32.201761 
L 108.12104 33.014165 
L 123.125505 33.852665 
L 133.071314 34.709289 
L 140.583223 35.580094 
L 146.556778 36.462735 
L 151.782599 37.355676 
L 156.109631 38.257831 
L 159.857819 39.168402 
L 163.213157 40.08678 
L 166.213503 41.012491 
L 168.942924 41.94516 
L 171.49164 42.884482 
L 173.868344 43.83021 
L 176.022339 44.782138 
L 178.033498 45.7401 
L 179.920491 46.703956 
L 181.712349 47.673596 
L 183.375211 48.648922 
L 184.96658 49.629851 
L 186.473933 50.616327 
L 187.917588 51.6083 
L 189.283637 52.605732 
L 190.575292 53.608584 
L 191.821761 54.616843 
L 193.021271 55.630489 
L 194.169723 56.649515 
L 195.277004 57.673915 
L 196.344536 58.703702 
L 197.378755 59.738877 
L 198.395949 60.779451 
L 199.366023 61.825432 
L 200.306111 62.876844 
L 201.215535 63.93371 
L 202.097324 64.996045 
L 202.962562 66.063878 
L 203.917463 67.137225 
L 204.744939 68.216086 
L 205.526877 69.300483 
L 206.381449 70.390429 
L 207.151999 71.485943 
L 207.883442 72.587036 
L 208.625052 73.693723 
L 209.337772 74.806003 
L 210.022876 75.923884 
L 210.682946 77.047369 
L 211.33559 78.176437 
L 211.980899 79.311079 
L 212.709434 80.451282 
L 213.331929 81.597029 
L 213.928256 82.748291 
L 214.513312 83.905052 
L 215.079285 85.067281 
L 215.643393 86.234957 
L 216.19345 87.408035 
L 216.730791 88.586481 
L 217.260908 89.770245 
L 217.784303 90.959273 
L 218.29151 92.153502 
L 218.802569 93.35286 
L 219.297215 94.557256 
L 219.788152 95.76659 
L 220.265372 96.980761 
L 220.832881 98.199626 
L 221.197314 99.423048 
L 221.55667 100.650877 
L 221.910784 101.882951 
L 222.261704 103.119061 
L 222.614824 104.359008 
L 222.963334 105.602568 
L 223.321667 106.84948 
L 223.663104 108.099469 
L 223.99921 109.352249 
L 224.329036 110.60749 
L 224.663461 111.864841 
L 225.004818 113.123927 
L 225.347824 114.384345 
L 225.681611 115.645652 
L 226.014636 116.907384 
L 226.343438 118.169026 
L 226.663119 119.429974 
L 227.008047 120.68961 
L 227.293292 121.947253 
L 227.569642 123.202213 
L 227.837572 124.453744 
L 228.136445 125.701074 
L 228.428953 126.94337 
L 228.69037 128.17979 
L 228.952735 129.409409 
L 229.2104 130.631254 
L 229.463235 131.844294 
L 229.714484 133.047606 
L 229.962179 134.240258 
L 230.20603 135.421151 
L 230.448298 136.589362 
L 230.687322 137.743675 
L 230.925905 138.883089 
L 231.162937 140.0064 
L 231.395808 141.112455 
L 231.628499 142.200228 
" style="fill:none;stroke:#d62728;stroke-linecap:square;stroke-width:1.5;"/>
   </g>
   <g id="line2d_69">
    <path clip-path="url(#p1fa10ff9d6)" d="M 60.696307 32.201761 
L 123.269787 63.879742 
L 132.515219 105.151195 
L 139.355883 153.12903 
L 144.353264 175.67647 
L 148.596477 162.878121 
L 152.537861 143.770786 
L 155.899916 130.51955 
L 159.160396 122.343664 
L 162.097608 117.736902 
L 164.595179 115.770652 
L 166.921136 115.834933 
L 169.102983 117.589646 
L 171.414731 120.808133 
L 173.659808 125.326422 
L 175.480381 131.051111 
L 177.183947 137.883501 
L 178.786358 145.732881 
L 180.344293 154.450253 
L 181.889216 163.723838 
L 183.301299 172.988646 
L 184.699085 181.363713 
L 186.021508 187.717024 
L 187.241967 191.290888 
L 188.514095 192.093038 
L 189.721073 191.098031 
L 190.87692 189.412077 
L 191.992588 187.63511 
L 193.081927 185.958545 
L 194.117547 184.466009 
L 195.156843 183.224461 
L 196.121178 182.284467 
L 197.080872 181.675587 
L 198.037795 181.418998 
L 198.918728 181.516615 
L 199.815774 181.954565 
L 200.688765 182.697973 
L 201.516804 183.69851 
L 202.328284 184.90489 
L 203.118607 186.251688 
L 204.000025 187.689893 
L 204.752912 189.159429 
L 205.529804 190.612909 
L 206.289052 192.013454 
L 207.017775 193.33918 
L 207.724828 194.571224 
L 208.416534 195.697444 
L 209.08576 196.71415 
L 209.749725 197.624506 
L 210.397033 198.431177 
L 211.033874 199.140761 
L 211.670469 199.761174 
L 212.25833 200.301101 
L 212.838402 200.774255 
L 213.409359 201.188636 
L 213.97827 201.55529 
L 214.53986 201.882126 
L 215.093822 202.176978 
L 215.643393 202.447814 
L 216.178865 202.700399 
L 216.724429 202.940679 
L 217.211432 203.173576 
L 217.715348 203.403423 
L 218.21168 203.633711 
L 218.703426 203.86679 
L 219.172073 204.103719 
L 219.635712 204.344919 
L 220.117839 204.589466 
L 220.585281 204.836397 
L 221.050611 205.086135 
L 221.515283 205.337719 
L 221.966708 205.58871 
L 222.414275 205.836911 
L 222.874049 206.079911 
L 223.297131 206.31552 
L 223.724261 206.544669 
L 224.144581 206.767479 
L 224.566157 206.982968 
L 224.978731 207.190834 
L 225.380551 207.39134 
L 225.798393 207.584622 
L 226.209313 207.771114 
L 226.610265 207.951313 
L 226.997984 208.125836 
L 227.430162 208.294466 
L 227.812374 208.458932 
L 228.267622 208.62054 
L 228.684713 208.780161 
L 229.116267 208.938005 
L 229.518384 209.093917 
L 229.874451 209.247177 
L 230.163317 209.397027 
L 230.428964 209.545922 
L 230.684835 209.694033 
L 230.928822 209.841219 
L 231.165931 209.985994 
L 231.384132 210.12769 
L 231.652352 210.268689 
L 231.897786 210.409345 
L 232.129237 210.549612 
" style="fill:none;stroke:#9467bd;stroke-linecap:square;stroke-width:1.5;"/>
   </g>
   <g id="line2d_70">
    <path clip-path="url(#p1fa10ff9d6)" d="M 64.975979 32.201761 
L 98.201669 32.212877 
L 112.569817 32.223994 
L 122.261987 32.23511 
L 128.965617 32.24623 
L 135.761779 32.257343 
L 141.200622 32.26846 
L 145.852924 32.279577 
L 149.918219 32.290691 
L 153.410418 32.301808 
L 156.628824 32.312923 
L 159.745936 32.324037 
L 162.45978 32.335154 
L 164.82825 32.346269 
L 167.108567 32.35738 
L 169.357816 32.368498 
L 171.414315 32.37961 
L 173.359798 32.390725 
L 175.251114 32.401836 
L 177.109834 32.412952 
L 178.863957 32.424067 
L 180.528252 32.435179 
L 182.281879 32.446292 
L 183.845423 32.4574 
L 185.178396 32.468513 
L 186.485815 32.479626 
L 187.881711 32.490738 
L 189.082415 32.501851 
L 190.316633 32.512964 
L 191.69642 32.524077 
L 192.85362 32.535187 
L 194.035471 32.546293 
L 195.192009 32.557407 
L 196.437901 32.568521 
L 197.546587 32.579631 
L 198.735462 32.590734 
L 199.727288 32.601848 
L 200.746556 32.612955 
L 201.749025 32.624066 
L 202.771156 32.635177 
L 203.958134 32.646284 
L 204.978244 32.657392 
L 205.903691 32.668499 
L 206.899738 32.679611 
L 207.959054 32.690715 
L 208.882667 32.701826 
L 209.83616 32.712934 
L 210.57691 32.724043 
L 211.169706 32.735147 
L 211.893748 32.746256 
L 212.64122 32.757364 
L 213.31592 32.768469 
L 214.057055 32.779574 
L 214.799555 32.79068 
L 215.506161 32.801788 
L 216.272424 32.81289 
L 216.98639 32.823999 
L 217.653576 32.835105 
L 218.281388 32.846207 
L 218.806839 32.857313 
L 219.373188 32.868419 
L 219.936694 32.879521 
L 220.492361 32.890624 
L 221.041393 32.901733 
L 221.539132 32.912832 
L 222.044442 32.923939 
L 222.54477 32.935045 
L 223.042731 32.946144 
L 223.521252 32.957247 
L 223.993041 32.96835 
L 224.414849 32.979453 
L 224.874213 32.990557 
L 225.326819 33.001656 
L 225.770884 33.01276 
L 226.196146 33.023863 
L 226.588311 33.034963 
L 227.000248 33.046066 
L 227.405861 33.057163 
L 227.964705 33.068267 
L 228.479743 33.079363 
L 228.892771 33.090467 
L 229.290532 33.101567 
L 229.645282 33.112664 
L 230.013464 33.123768 
L 230.406163 33.134868 
L 230.749845 33.145965 
L 231.100845 33.157062 
L 231.457339 33.168163 
L 231.781843 33.17926 
L 232.107335 33.190357 
L 232.431112 33.201458 
L 232.754951 33.212559 
L 233.070085 33.223652 
L 233.383891 33.234753 
L 233.6932 33.245847 
L 234.00033 33.256944 
L 234.308288 33.268042 
L 234.611302 33.279139 
L 234.901091 33.290237 
L 235.195612 33.301331 
" style="fill:none;stroke:#8c564b;stroke-linecap:square;stroke-width:1.5;"/>
   </g>
   <g id="line2d_71">
    <path clip-path="url(#p1fa10ff9d6)" d="M 62.441688 32.201761 
L 132.570237 32.201779 
L 142.774978 75.943351 
L 149.665726 110.643352 
L 155.586982 138.073279 
L 160.653544 152.414961 
L 164.111647 162.928328 
L 167.110487 169.105179 
L 170.590433 172.051545 
L 174.003134 173.565447 
L 177.135764 176.616807 
L 179.993824 180.631915 
L 182.708696 183.544084 
L 185.180177 186.408076 
L 187.633752 188.805153 
L 189.912628 190.169996 
L 192.007329 191.571122 
L 194.006077 193.395422 
L 195.595411 195.03162 
L 197.639373 196.628734 
L 199.58719 198.120276 
L 201.246523 199.459591 
L 202.846798 200.960525 
L 204.56165 202.194503 
L 205.880059 203.43433 
L 207.353379 204.75034 
L 208.771528 205.870122 
L 210.135839 206.860199 
L 211.459546 207.812552 
L 212.756766 208.65814 
L 214.01525 209.463783 
L 215.056766 210.364135 
L 216.052028 211.31099 
L 217.047242 212.172683 
L 218.002165 213.163109 
L 218.901366 214.102073 
L 219.789243 214.969777 
L 220.684047 215.841354 
L 221.556591 216.631418 
L 222.40277 217.346724 
L 223.234354 218.010017 
L 224.1649 218.59195 
L 224.986734 219.385213 
L 225.782569 220.067414 
L 226.573716 220.852851 
L 227.436939 221.533561 
L 228.318653 222.127824 
L 229.141402 222.632902 
L 229.915188 223.151814 
L 230.735624 223.633359 
L 231.475613 224.102504 
L 232.203417 224.507324 
L 232.914981 224.881825 
L 233.706068 225.204469 
L 234.38698 225.505196 
L 235.076734 225.799738 
L 235.831643 226.061652 
L 236.579797 226.357739 
L 237.230128 226.639629 
L 237.933167 226.837322 
L 238.549976 227.023755 
L 239.17213 227.210078 
L 239.819168 227.373559 
L 240.4267 227.566112 
L 241.020062 227.718494 
L 241.604204 227.884393 
L 242.172014 228.004809 
L 242.738674 228.110539 
L 243.436216 228.202604 
L 243.966404 228.286386 
L 244.488613 228.418992 
L 245.089826 228.521144 
L 245.611939 228.613011 
L 246.162421 228.695552 
L 246.682877 228.7647 
L 247.192501 228.854274 
L 247.714098 228.920737 
L 248.205684 229.007539 
L 248.687924 229.066261 
L 249.167982 229.11932 
L 249.659846 229.187107 
L 250.165543 229.251145 
L 250.627423 229.302237 
L 251.087878 229.351317 
L 251.569063 229.398616 
L 252.038001 229.432722 
L 252.524009 229.466196 
L 252.976106 229.507879 
L 253.417615 229.539568 
L 253.86679 229.572966 
L 254.321741 229.608742 
L 254.805115 229.640989 
L 255.270842 229.674714 
L 255.742348 229.706596 
L 256.26263 229.728536 
L 256.705709 229.7619 
L 257.195556 229.782833 
L 257.945667 229.812328 
L 258.664981 229.828689 
L 259.414212 229.874489 
" style="fill:none;stroke:#e377c2;stroke-linecap:square;stroke-width:1.5;"/>
   </g>
   <g id="line2d_72">
    <path clip-path="url(#p1fa10ff9d6)" d="M 71.306072 32.201761 
L 103.38767 63.879744 
L 118.835713 88.595592 
L 128.568503 109.658984 
L 135.075881 126.734332 
L 140.148978 132.254683 
L 144.669454 131.479142 
L 148.405171 140.593511 
L 151.832586 150.357707 
L 155.004293 157.624307 
L 157.891014 162.228009 
L 160.481425 165.494436 
L 162.927428 168.157358 
L 164.858389 170.436324 
L 166.406837 172.613953 
L 167.880586 174.623554 
L 169.314786 176.409708 
L 170.659652 178.037726 
L 171.93512 179.556452 
L 173.167159 180.934716 
L 174.381113 182.16195 
L 175.589064 183.242428 
L 176.746464 184.18997 
L 177.941076 185.022286 
L 179.184043 185.750782 
L 180.16131 186.385629 
L 181.34941 186.933519 
L 182.460218 187.410225 
L 183.319618 187.833704 
L 184.228188 188.227622 
L 185.030633 188.603312 
L 185.828654 188.968171 
L 186.621739 189.314879 
L 187.518807 189.645229 
L 188.511377 189.959208 
L 189.279778 190.251763 
L 190.033218 190.515989 
L 190.774848 190.762383 
L 191.501917 190.995743 
L 192.200602 191.20984 
L 192.892439 191.392892 
L 193.562237 191.54092 
L 194.206643 191.656014 
L 194.888107 191.749577 
L 195.563099 191.836244 
L 196.209281 191.936302 
L 196.841213 192.061451 
L 197.516516 192.220299 
L 198.299608 192.409905 
L 198.994121 192.623927 
L 199.621734 192.853411 
L 200.234728 193.090864 
L 200.869696 193.334872 
L 201.55489 193.58364 
L 202.153575 193.839467 
L 202.760392 194.096621 
L 203.342497 194.350079 
L 203.994362 194.582308 
L 204.558072 194.774681 
L 205.104564 194.889398 
L 205.671961 194.87627 
L 206.2649 194.648547 
L 206.784561 194.116243 
L 207.267151 193.260196 
L 207.843181 192.292656 
L 208.345032 191.606078 
L 208.85086 191.470444 
L 209.346845 191.824809 
L 209.804757 192.436681 
L 210.360104 193.093002 
L 210.815054 193.67781 
L 211.338199 194.149169 
L 211.825851 194.513278 
L 212.274398 194.793921 
L 212.712245 195.018961 
L 213.154004 195.20913 
L 213.659385 195.382919 
L 214.203994 195.554086 
L 214.715339 195.739688 
L 215.229691 195.946483 
L 215.727897 196.176408 
L 216.237116 196.418761 
L 216.769352 196.664703 
L 217.286014 196.905693 
L 217.851066 197.135884 
L 218.412507 197.353452 
L 218.953761 197.555959 
L 219.5032 197.746782 
L 220.049148 197.925153 
L 220.578046 198.095553 
L 221.125336 198.255108 
L 221.712657 198.405356 
L 222.258997 198.539176 
L 222.803418 198.654022 
L 223.343647 198.74148 
L 223.872277 198.802009 
L 224.471647 198.834778 
L 225.002205 198.848716 
L 225.461346 198.84927 
L 225.820517 198.845139 
" style="fill:none;stroke:#7f7f7f;stroke-linecap:square;stroke-width:1.5;"/>
   </g>
   <g id="line2d_73">
    <path clip-path="url(#p1fa10ff9d6)" d="M 77.908 32.201761 
L 121.864827 34.803612 
L 135.968047 37.505465 
L 144.805356 40.315066 
L 151.891032 43.24106 
L 158.1714 46.293141 
L 163.315649 49.482195 
L 167.996057 52.820497 
L 171.648798 56.321962 
L 174.714144 60.002379 
L 177.48038 63.879742 
L 179.998523 67.974607 
L 182.527644 72.310246 
L 185.083167 76.913084 
L 187.235065 81.812869 
L 189.342674 87.042855 
L 191.480662 92.64003 
L 192.997902 98.644067 
L 194.530808 105.094089 
L 196.166982 112.021888 
L 197.400423 119.437152 
L 198.584413 127.29426 
L 199.720928 135.427677 
L 200.872443 143.468681 
L 201.945823 150.925973 
L 202.993821 157.521082 
L 204.157011 163.220113 
L 205.23817 168.3814 
L 206.323116 173.023865 
L 207.367246 176.521632 
L 208.315599 178.718634 
L 209.243294 180.202311 
L 210.148313 181.347164 
L 211.01312 182.543447 
L 211.862669 183.714572 
L 212.69272 184.837953 
L 213.495326 185.863612 
L 214.29639 186.778971 
L 215.077495 187.606782 
L 215.829726 188.337852 
L 216.583961 189.009502 
L 217.304654 189.608006 
L 218.002721 190.13888 
L 218.684738 190.656516 
L 219.362848 191.121853 
L 220.016514 191.534724 
L 220.648789 191.92818 
L 221.173013 192.299209 
L 221.644562 192.671588 
L 222.003484 193.039418 
L 222.355686 193.37976 
L 222.691672 193.712551 
L 223.022001 194.043174 
L 223.349504 194.361976 
L 223.680983 194.660956 
L 224.002313 194.964315 
L 224.315692 195.256705 
L 224.632378 195.544417 
L 224.936437 195.828296 
L 225.237273 196.099044 
L 225.534674 196.36706 
L 225.919625 196.638603 
L 226.246899 196.897293 
L 226.55851 197.15285 
L 226.869595 197.404533 
L 227.180664 197.650698 
L 227.497764 197.890303 
L 227.825177 198.133369 
L 228.132418 198.371172 
L 228.405001 198.604108 
L 228.678429 198.830805 
L 228.965018 199.059904 
L 229.230913 199.288618 
L 229.495615 199.513732 
L 229.769509 199.732502 
L 230.02903 199.935518 
L 230.295188 200.147021 
L 230.549369 200.350696 
L 230.805771 200.535159 
L 231.067642 200.722123 
L 231.381073 200.907001 
L 231.631151 201.090837 
L 231.867361 201.266717 
L 232.102493 201.437953 
L 232.342566 201.610919 
L 232.576886 201.776244 
L 232.819422 201.94661 
L 233.070369 202.113203 
L 233.313979 202.274465 
L 233.566625 202.43255 
L 233.809091 202.588787 
L 234.043384 202.746768 
L 234.29117 202.906219 
L 234.541331 203.068294 
L 234.788045 203.230279 
L 235.037206 203.390528 
L 235.283362 203.545238 
L 235.544795 203.702679 
L 235.804182 203.852015 
L 236.056952 204.000975 
" style="fill:none;stroke:#bcbd22;stroke-linecap:square;stroke-width:1.5;"/>
   </g>
   <g id="line2d_74">
    <path clip-path="url(#p1fa10ff9d6)" d="M 231.056085 40.26593 
L 252.795577 49.319157 
L 264.220513 59.610659 
L 272.789484 71.475555 
L 278.410341 85.349008 
L 284.696565 101.697154 
L 289.07925 120.539591 
L 292.253357 125.512578 
L 295.594975 130.526128 
L 298.35643 135.550625 
L 301.279276 140.562389 
L 303.434383 145.547304 
L 305.649273 150.501364 
L 307.920663 155.411832 
L 309.725447 160.245262 
L 311.462621 164.917575 
L 313.032376 169.304168 
L 314.482114 173.25959 
L 316.034869 176.601462 
L 317.623391 176.845719 
L 319.237292 177.061637 
L 320.742355 177.840349 
L 322.228975 178.577846 
L 323.651197 178.778605 
L 325.102751 179.520306 
L 326.178817 180.21802 
L 327.21836 180.41006 
L 328.283509 181.114258 
L 329.255715 181.758952 
L 330.149322 181.947887 
L 331.148823 182.6088 
L 332.03939 182.786687 
L 332.729986 185.140264 
L 333.479054 185.409502 
L 334.318934 185.595378 
L 335.035798 186.150185 
L 335.779026 186.323919 
L 336.466186 186.904282 
L 337.14025 187.064503 
L 337.827373 189.268545 
L 338.470041 189.333692 
L 339.256034 189.391919 
L 339.887447 189.44401 
L 340.454315 189.490943 
L 341.122062 189.641196 
L 341.783557 191.818413 
L 342.446533 191.864507 
L 343.112574 191.905902 
L 343.769302 192.041472 
L 344.277739 193.999062 
L 344.78669 194.060678 
L 345.368867 194.11424 
L 346.072943 194.16085 
L 346.746453 194.201931 
L 347.514216 194.330466 
L 348.168651 194.811438 
L 348.777013 194.848978 
L 349.265675 194.971513 
L 349.865716 195.426005 
L 350.345664 195.467773 
L 350.835492 195.504546 
L 351.319226 195.624504 
L 351.835778 196.057629 
L 352.28579 196.102297 
L 352.757198 196.140835 
L 353.206734 196.175275 
L 353.76996 196.294123 
L 354.182609 196.718629 
L 354.62154 196.763652 
L 355.004227 196.802182 
L 355.351832 196.836343 
L 355.73938 196.95296 
L 356.253889 197.072325 
L 356.595957 197.515964 
L 356.940465 197.555213 
L 357.291282 197.589507 
L 357.757622 197.703173 
L 358.184714 197.81978 
L 358.604097 198.234146 
L 359.002663 198.278179 
L 359.389146 198.315363 
L 359.804163 198.34812 
L 360.212341 198.460774 
L 360.610048 198.575381 
L 360.950368 198.970149 
L 361.287525 199.016861 
L 361.591171 199.055712 
L 361.874261 199.089128 
L 362.149323 199.198125 
L 362.436751 199.309401 
L 362.692212 199.421717 
L 362.9793 199.534509 
L 363.246215 199.919205 
L 363.501616 199.966314 
L 363.760025 200.005063 
L 364.018261 200.038021 
L 364.274657 200.144071 
L 364.550212 200.251719 
L 364.809079 200.360122 
L 365.059943 200.468832 
" style="fill:none;stroke:#17becf;stroke-dasharray:5.55,2.4;stroke-dashoffset:0;stroke-width:1.5;"/>
   </g>
   <g id="line2d_75">
    <path clip-path="url(#p1fa10ff9d6)" d="M 171.349309 137.563262 
L 185.790789 147.506403 
L 196.546289 152.352605 
L 206.112218 155.788746 
L 213.382602 158.01431 
L 219.133868 159.992869 
L 224.491424 161.77187 
L 229.631335 163.387145 
L 233.648649 164.861991 
L 236.762818 166.215452 
L 239.41693 167.462208 
L 241.687682 168.616302 
L 243.443974 169.522291 
L 245.589682 176.435542 
L 247.340574 180.259011 
L 249.023153 181.910749 
L 250.414275 182.995227 
L 251.961461 184.100519 
L 253.220122 184.858576 
L 254.431909 185.301153 
L 255.59732 185.651982 
L 256.716926 185.991663 
L 257.803753 186.322304 
L 258.884578 186.644537 
L 259.906482 186.960587 
L 260.920445 187.268951 
L 261.84233 187.57006 
L 262.540017 187.863939 
L 263.195209 188.157855 
L 263.8731 188.445079 
L 264.553828 188.725797 
L 265.220822 189.000006 
L 265.886254 189.274112 
L 266.547068 189.541964 
L 267.199323 189.804038 
L 267.854399 190.060428 
L 268.506296 190.315165 
L 269.132257 190.564478 
L 269.748259 190.808688 
L 270.354272 191.047914 
L 270.967105 191.284793 
L 271.568625 191.516999 
L 272.169321 191.744784 
L 272.767426 191.968196 
L 273.355497 192.189482 
L 273.950083 192.406262 
L 274.544621 192.619729 
L 275.113518 192.829317 
L 275.688242 193.037371 
L 276.257284 193.241766 
L 276.830674 193.443373 
L 277.391101 193.63751 
L 277.953404 193.829785 
L 278.506271 194.012159 
L 279.055447 194.192929 
L 279.590172 194.36613 
L 280.12922 194.53738 
L 280.65964 194.704673 
L 281.204124 194.870267 
L 281.744566 195.033384 
L 282.239519 195.194894 
L 282.769625 195.354242 
L 283.267978 195.51201 
L 283.765166 195.667767 
L 284.2436 195.821983 
L 284.604437 195.952024 
L 285.009068 198.561862 
L 285.378858 200.665202 
L 285.808481 200.816321 
L 286.194865 200.956955 
L 286.83163 206.335308 
L 287.346422 207.488866 
L 287.854973 207.639217 
L 288.28864 207.721921 
L 288.749045 207.790434 
L 289.174359 207.85717 
L 289.614777 207.923452 
L 290.060965 207.989336 
L 290.495922 208.054854 
L 290.929904 208.120168 
L 291.336501 208.185165 
L 291.750793 208.249861 
L 292.170524 208.314118 
L 292.572711 208.378438 
L 292.985154 208.442491 
L 293.407101 208.506276 
L 293.785738 208.569767 
L 294.132201 208.633515 
L 294.493201 208.696891 
L 294.858337 208.760101 
L 295.225377 208.822865 
L 295.593713 208.886218 
L 295.971407 208.949073 
L 296.340212 209.011987 
L 296.710437 209.074309 
L 297.062627 209.136952 
L 297.403059 209.198947 
L 297.730447 209.261275 
L 298.059664 209.322894 
L 298.376876 209.384577 
" style="fill:none;stroke:#1f77b4;stroke-dasharray:5.55,2.4;stroke-dashoffset:0;stroke-width:1.5;"/>
   </g>
   <g id="line2d_76">
    <path clip-path="url(#p1fa10ff9d6)" d="M 294.328329 137.562972 
L 313.858526 165.667375 
L 326.942759 186.243866 
L 334.444988 204.578443 
L 340.639939 216.521516 
L 346.005417 222.984905 
L 350.496089 224.249776 
L 354.424276 225.599732 
L 357.906982 227.12198 
L 361.088871 228.137929 
" style="fill:none;stroke:#ff7f0e;stroke-dasharray:5.55,2.4;stroke-dashoffset:0;stroke-width:1.5;"/>
   </g>
   <g id="line2d_77">
    <path clip-path="url(#p1fa10ff9d6)" d="M 134.44985 32.201761 
L 167.480926 32.201761 
L 173.357164 32.201761 
L 177.506164 32.201761 
L 180.99373 32.201761 
L 184.060015 32.201761 
L 187.228345 32.201761 
L 190.315743 32.201761 
L 192.959933 32.201761 
L 195.343528 32.201761 
L 197.536333 32.201761 
L 199.544694 32.201761 
L 201.456697 32.201761 
L 203.314203 32.201761 
L 205.13457 32.201761 
L 206.784787 32.201761 
L 208.367517 32.201761 
L 209.841001 32.201761 
L 211.249311 32.201761 
L 212.600442 32.201761 
L 213.929657 32.201761 
L 215.276721 32.201761 
L 216.54327 32.201761 
L 217.694486 32.201761 
L 218.806904 32.201761 
L 219.935149 32.201761 
L 221.146967 32.201761 
L 222.333824 32.201761 
L 223.354408 32.201761 
L 224.35017 32.201761 
L 225.298159 32.201761 
L 226.213723 32.201761 
L 227.055261 32.201761 
L 227.863087 32.201761 
L 228.650715 32.201761 
L 229.451397 32.201761 
L 230.258194 32.201761 
L 231.018812 32.201761 
L 231.754083 32.201761 
L 232.473619 32.201761 
L 233.18533 32.201761 
L 233.974983 32.201761 
L 234.764756 32.201761 
L 235.455054 32.201761 
L 236.097957 32.201761 
L 236.711446 32.201761 
L 237.307648 32.201761 
L 237.927263 32.201761 
L 238.521031 32.201761 
L 239.096798 32.201761 
L 239.650926 32.201761 
L 240.177802 32.201761 
L 240.700771 32.201761 
L 241.212496 32.201761 
L 241.725818 32.201761 
L 242.222446 32.201761 
L 242.731606 32.201761 
L 243.218844 32.201761 
L 243.69306 32.201761 
L 244.160892 32.201761 
L 244.617827 32.201761 
L 245.129788 32.201761 
L 245.589557 32.201761 
L 246.038949 32.201761 
L 246.470218 32.201761 
L 246.928278 32.201761 
L 247.36317 32.201761 
L 247.824744 32.201761 
L 248.265642 32.201761 
L 248.713215 32.201761 
L 249.123943 32.201761 
L 249.521627 32.201761 
L 249.908609 32.201761 
L 250.285727 32.201761 
L 250.662047 32.201761 
L 251.024844 32.201761 
L 251.386882 32.201761 
L 251.748325 32.201761 
L 252.107697 32.201761 
L 252.500828 32.201761 
L 252.87962 32.201761 
L 253.253486 32.201761 
L 253.635683 32.201761 
L 254.021962 32.201761 
L 254.366725 32.201761 
L 254.703258 32.201761 
L 255.032392 32.201761 
L 255.352717 32.201761 
L 255.672348 32.201761 
L 255.988734 32.201761 
L 256.299347 32.201761 
L 256.624326 32.201761 
L 256.95687 32.201761 
L 257.290584 32.201761 
L 257.667637 32.201761 
L 257.98965 32.201761 
L 258.317616 32.201761 
L 258.62429 32.201761 
L 258.928262 32.201761 
L 259.230376 32.201761 
" style="fill:none;stroke:#2ca02c;stroke-dasharray:5.55,2.4;stroke-dashoffset:0;stroke-width:1.5;"/>
   </g>
   <g id="patch_3">
    <path d="M 45.478125 239.758125 
L 45.478125 22.318125 
" style="fill:none;stroke:#000000;stroke-linecap:square;stroke-linejoin:miter;stroke-width:0.8;"/>
   </g>
   <g id="patch_4">
    <path d="M 380.278125 239.758125 
L 380.278125 22.318125 
" style="fill:none;stroke:#000000;stroke-linecap:square;stroke-linejoin:miter;stroke-width:0.8;"/>
   </g>
   <g id="patch_5">
    <path d="M 45.478125 239.758125 
L 380.278125 239.758125 
" style="fill:none;stroke:#000000;stroke-linecap:square;stroke-linejoin:miter;stroke-width:0.8;"/>
   </g>
   <g id="patch_6">
    <path d="M 45.478125 22.318125 
L 380.278125 22.318125 
" style="fill:none;stroke:#000000;stroke-linecap:square;stroke-linejoin:miter;stroke-width:0.8;"/>
   </g>
   <g id="text_10">
    <!-- TGG119 - Head &amp; Neck -->
    <g transform="translate(143.3475 16.318125)scale(0.12 -0.12)">
     <defs>
      <path d="M -0.296875 72.90625 
L 61.375 72.90625 
L 61.375 64.59375 
L 35.5 64.59375 
L 35.5 0 
L 25.59375 0 
L 25.59375 64.59375 
L -0.296875 64.59375 
z
" id="DejaVuSans-84"/>
      <path d="M 59.515625 10.40625 
L 59.515625 29.984375 
L 43.40625 29.984375 
L 43.40625 38.09375 
L 69.28125 38.09375 
L 69.28125 6.78125 
Q 63.578125 2.734375 56.6875 0.65625 
Q 49.8125 -1.421875 42 -1.421875 
Q 24.90625 -1.421875 15.25 8.5625 
Q 5.609375 18.5625 5.609375 36.375 
Q 5.609375 54.25 15.25 64.234375 
Q 24.90625 74.21875 42 74.21875 
Q 49.125 74.21875 55.546875 72.453125 
Q 61.96875 70.703125 67.390625 67.28125 
L 67.390625 56.78125 
Q 61.921875 61.421875 55.765625 63.765625 
Q 49.609375 66.109375 42.828125 66.109375 
Q 29.4375 66.109375 22.71875 58.640625 
Q 16.015625 51.171875 16.015625 36.375 
Q 16.015625 21.625 22.71875 14.15625 
Q 29.4375 6.6875 42.828125 6.6875 
Q 48.046875 6.6875 52.140625 7.59375 
Q 56.25 8.5 59.515625 10.40625 
z
" id="DejaVuSans-71"/>
      <path d="M 10.984375 1.515625 
L 10.984375 10.5 
Q 14.703125 8.734375 18.5 7.8125 
Q 22.3125 6.890625 25.984375 6.890625 
Q 35.75 6.890625 40.890625 13.453125 
Q 46.046875 20.015625 46.78125 33.40625 
Q 43.953125 29.203125 39.59375 26.953125 
Q 35.25 24.703125 29.984375 24.703125 
Q 19.046875 24.703125 12.671875 31.3125 
Q 6.296875 37.9375 6.296875 49.421875 
Q 6.296875 60.640625 12.9375 67.421875 
Q 19.578125 74.21875 30.609375 74.21875 
Q 43.265625 74.21875 49.921875 64.515625 
Q 56.59375 54.828125 56.59375 36.375 
Q 56.59375 19.140625 48.40625 8.859375 
Q 40.234375 -1.421875 26.421875 -1.421875 
Q 22.703125 -1.421875 18.890625 -0.6875 
Q 15.09375 0.046875 10.984375 1.515625 
z
M 30.609375 32.421875 
Q 37.25 32.421875 41.125 36.953125 
Q 45.015625 41.5 45.015625 49.421875 
Q 45.015625 57.28125 41.125 61.84375 
Q 37.25 66.40625 30.609375 66.40625 
Q 23.96875 66.40625 20.09375 61.84375 
Q 16.21875 57.28125 16.21875 49.421875 
Q 16.21875 41.5 20.09375 36.953125 
Q 23.96875 32.421875 30.609375 32.421875 
z
" id="DejaVuSans-57"/>
      <path d="M 4.890625 31.390625 
L 31.203125 31.390625 
L 31.203125 23.390625 
L 4.890625 23.390625 
z
" id="DejaVuSans-45"/>
      <path d="M 9.8125 72.90625 
L 19.671875 72.90625 
L 19.671875 43.015625 
L 55.515625 43.015625 
L 55.515625 72.90625 
L 65.375 72.90625 
L 65.375 0 
L 55.515625 0 
L 55.515625 34.71875 
L 19.671875 34.71875 
L 19.671875 0 
L 9.8125 0 
z
" id="DejaVuSans-72"/>
      <path d="M 34.28125 27.484375 
Q 23.390625 27.484375 19.1875 25 
Q 14.984375 22.515625 14.984375 16.5 
Q 14.984375 11.71875 18.140625 8.90625 
Q 21.296875 6.109375 26.703125 6.109375 
Q 34.1875 6.109375 38.703125 11.40625 
Q 43.21875 16.703125 43.21875 25.484375 
L 43.21875 27.484375 
z
M 52.203125 31.203125 
L 52.203125 0 
L 43.21875 0 
L 43.21875 8.296875 
Q 40.140625 3.328125 35.546875 0.953125 
Q 30.953125 -1.421875 24.3125 -1.421875 
Q 15.921875 -1.421875 10.953125 3.296875 
Q 6 8.015625 6 15.921875 
Q 6 25.140625 12.171875 29.828125 
Q 18.359375 34.515625 30.609375 34.515625 
L 43.21875 34.515625 
L 43.21875 35.40625 
Q 43.21875 41.609375 39.140625 45 
Q 35.0625 48.390625 27.6875 48.390625 
Q 23 48.390625 18.546875 47.265625 
Q 14.109375 46.140625 10.015625 43.890625 
L 10.015625 52.203125 
Q 14.9375 54.109375 19.578125 55.046875 
Q 24.21875 56 28.609375 56 
Q 40.484375 56 46.34375 49.84375 
Q 52.203125 43.703125 52.203125 31.203125 
z
" id="DejaVuSans-97"/>
      <path d="M 45.40625 46.390625 
L 45.40625 75.984375 
L 54.390625 75.984375 
L 54.390625 0 
L 45.40625 0 
L 45.40625 8.203125 
Q 42.578125 3.328125 38.25 0.953125 
Q 33.9375 -1.421875 27.875 -1.421875 
Q 17.96875 -1.421875 11.734375 6.484375 
Q 5.515625 14.40625 5.515625 27.296875 
Q 5.515625 40.1875 11.734375 48.09375 
Q 17.96875 56 27.875 56 
Q 33.9375 56 38.25 53.625 
Q 42.578125 51.265625 45.40625 46.390625 
z
M 14.796875 27.296875 
Q 14.796875 17.390625 18.875 11.75 
Q 22.953125 6.109375 30.078125 6.109375 
Q 37.203125 6.109375 41.296875 11.75 
Q 45.40625 17.390625 45.40625 27.296875 
Q 45.40625 37.203125 41.296875 42.84375 
Q 37.203125 48.484375 30.078125 48.484375 
Q 22.953125 48.484375 18.875 42.84375 
Q 14.796875 37.203125 14.796875 27.296875 
z
" id="DejaVuSans-100"/>
      <path d="M 24.3125 39.203125 
Q 19.875 35.25 17.796875 31.3125 
Q 15.71875 27.390625 15.71875 23.09375 
Q 15.71875 15.96875 20.890625 11.234375 
Q 26.078125 6.5 33.890625 6.5 
Q 38.53125 6.5 42.578125 8.03125 
Q 46.625 9.578125 50.203125 12.703125 
z
M 31.203125 44.671875 
L 56 19.28125 
Q 58.890625 23.640625 60.5 28.59375 
Q 62.109375 33.546875 62.40625 39.109375 
L 71.484375 39.109375 
Q 70.90625 32.671875 68.359375 26.359375 
Q 65.828125 20.0625 61.28125 13.921875 
L 74.90625 0 
L 62.59375 0 
L 55.609375 7.171875 
Q 50.53125 2.828125 44.96875 0.703125 
Q 39.40625 -1.421875 33.015625 -1.421875 
Q 21.234375 -1.421875 13.765625 5.296875 
Q 6.296875 12.015625 6.296875 22.515625 
Q 6.296875 28.765625 9.5625 34.25 
Q 12.84375 39.75 19.390625 44.578125 
Q 17.046875 47.65625 15.8125 50.703125 
Q 14.59375 53.765625 14.59375 56.6875 
Q 14.59375 64.59375 20.015625 69.40625 
Q 25.4375 74.21875 34.421875 74.21875 
Q 38.484375 74.21875 42.5 73.34375 
Q 46.53125 72.46875 50.6875 70.703125 
L 50.6875 61.8125 
Q 46.4375 64.109375 42.578125 65.296875 
Q 38.71875 66.5 35.40625 66.5 
Q 30.28125 66.5 27.078125 63.78125 
Q 23.875 61.078125 23.875 56.78125 
Q 23.875 54.296875 25.3125 51.78125 
Q 26.765625 49.265625 31.203125 44.671875 
z
" id="DejaVuSans-38"/>
      <path d="M 9.8125 72.90625 
L 23.09375 72.90625 
L 55.421875 11.921875 
L 55.421875 72.90625 
L 64.984375 72.90625 
L 64.984375 0 
L 51.703125 0 
L 19.390625 60.984375 
L 19.390625 0 
L 9.8125 0 
z
" id="DejaVuSans-78"/>
      <path d="M 9.078125 75.984375 
L 18.109375 75.984375 
L 18.109375 31.109375 
L 44.921875 54.6875 
L 56.390625 54.6875 
L 27.390625 29.109375 
L 57.625 0 
L 45.90625 0 
L 18.109375 26.703125 
L 18.109375 0 
L 9.078125 0 
z
" id="DejaVuSans-107"/>
     </defs>
     <use xlink:href="#DejaVuSans-84"/>
     <use x="61.083984" xlink:href="#DejaVuSans-71"/>
     <use x="138.574219" xlink:href="#DejaVuSans-71"/>
     <use x="216.064453" xlink:href="#DejaVuSans-49"/>
     <use x="279.6875" xlink:href="#DejaVuSans-49"/>
     <use x="343.310547" xlink:href="#DejaVuSans-57"/>
     <use x="406.933594" xlink:href="#DejaVuSans-32"/>
     <use x="438.720703" xlink:href="#DejaVuSans-45"/>
     <use x="474.804688" xlink:href="#DejaVuSans-32"/>
     <use x="506.591797" xlink:href="#DejaVuSans-72"/>
     <use x="581.787109" xlink:href="#DejaVuSans-101"/>
     <use x="643.310547" xlink:href="#DejaVuSans-97"/>
     <use x="704.589844" xlink:href="#DejaVuSans-100"/>
     <use x="768.066406" xlink:href="#DejaVuSans-32"/>
     <use x="799.853516" xlink:href="#DejaVuSans-38"/>
     <use x="877.832031" xlink:href="#DejaVuSans-32"/>
     <use x="909.619141" xlink:href="#DejaVuSans-78"/>
     <use x="984.423828" xlink:href="#DejaVuSans-101"/>
     <use x="1045.947266" xlink:href="#DejaVuSans-99"/>
     <use x="1100.927734" xlink:href="#DejaVuSans-107"/>
    </g>
   </g>
   <g id="legend_1">
    <g id="patch_7">
     <path d="M 390.626125 221.13375 
L 479.15425 221.13375 
Q 481.15425 221.13375 481.15425 219.13375 
L 481.15425 29.318125 
Q 481.15425 27.318125 479.15425 27.318125 
L 390.626125 27.318125 
Q 388.626125 27.318125 388.626125 29.318125 
L 388.626125 219.13375 
Q 388.626125 221.13375 390.626125 221.13375 
z
" style="fill:#ffffff;opacity:0.8;stroke:#cccccc;stroke-linejoin:miter;"/>
    </g>
    <g id="line2d_78">
     <path d="M 392.626125 35.416562 
L 412.626125 35.416562 
" style="fill:none;stroke:#1f77b4;stroke-linecap:square;stroke-width:1.5;"/>
    </g>
    <g id="line2d_79"/>
    <g id="text_11">
     <!-- NAdam -->
     <g transform="translate(420.626125 38.916562)scale(0.1 -0.1)">
      <defs>
       <path d="M 34.1875 63.1875 
L 20.796875 26.90625 
L 47.609375 26.90625 
z
M 28.609375 72.90625 
L 39.796875 72.90625 
L 67.578125 0 
L 57.328125 0 
L 50.6875 18.703125 
L 17.828125 18.703125 
L 11.1875 0 
L 0.78125 0 
z
" id="DejaVuSans-65"/>
      </defs>
      <use xlink:href="#DejaVuSans-78"/>
      <use x="74.804688" xlink:href="#DejaVuSans-65"/>
      <use x="141.462891" xlink:href="#DejaVuSans-100"/>
      <use x="204.939453" xlink:href="#DejaVuSans-97"/>
      <use x="266.21875" xlink:href="#DejaVuSans-109"/>
     </g>
    </g>
    <g id="line2d_80">
     <path d="M 392.626125 50.094687 
L 412.626125 50.094687 
" style="fill:none;stroke:#ff7f0e;stroke-linecap:square;stroke-width:1.5;"/>
    </g>
    <g id="line2d_81"/>
    <g id="text_12">
     <!-- RAdam -->
     <g transform="translate(420.626125 53.594687)scale(0.1 -0.1)">
      <defs>
       <path d="M 44.390625 34.1875 
Q 47.5625 33.109375 50.5625 29.59375 
Q 53.5625 26.078125 56.59375 19.921875 
L 66.609375 0 
L 56 0 
L 46.6875 18.703125 
Q 43.0625 26.03125 39.671875 28.421875 
Q 36.28125 30.8125 30.421875 30.8125 
L 19.671875 30.8125 
L 19.671875 0 
L 9.8125 0 
L 9.8125 72.90625 
L 32.078125 72.90625 
Q 44.578125 72.90625 50.734375 67.671875 
Q 56.890625 62.453125 56.890625 51.90625 
Q 56.890625 45.015625 53.6875 40.46875 
Q 50.484375 35.9375 44.390625 34.1875 
z
M 19.671875 64.796875 
L 19.671875 38.921875 
L 32.078125 38.921875 
Q 39.203125 38.921875 42.84375 42.21875 
Q 46.484375 45.515625 46.484375 51.90625 
Q 46.484375 58.296875 42.84375 61.546875 
Q 39.203125 64.796875 32.078125 64.796875 
z
" id="DejaVuSans-82"/>
      </defs>
      <use xlink:href="#DejaVuSans-82"/>
      <use x="65.482422" xlink:href="#DejaVuSans-65"/>
      <use x="132.140625" xlink:href="#DejaVuSans-100"/>
      <use x="195.617188" xlink:href="#DejaVuSans-97"/>
      <use x="256.896484" xlink:href="#DejaVuSans-109"/>
     </g>
    </g>
    <g id="line2d_82">
     <path d="M 392.626125 64.772812 
L 412.626125 64.772812 
" style="fill:none;stroke:#2ca02c;stroke-linecap:square;stroke-width:1.5;"/>
    </g>
    <g id="line2d_83"/>
    <g id="text_13">
     <!-- Adam -->
     <g transform="translate(420.626125 68.272812)scale(0.1 -0.1)">
      <use xlink:href="#DejaVuSans-65"/>
      <use x="66.658203" xlink:href="#DejaVuSans-100"/>
      <use x="130.134766" xlink:href="#DejaVuSans-97"/>
      <use x="191.414062" xlink:href="#DejaVuSans-109"/>
     </g>
    </g>
    <g id="line2d_84">
     <path d="M 392.626125 79.450937 
L 412.626125 79.450937 
" style="fill:none;stroke:#d62728;stroke-linecap:square;stroke-width:1.5;"/>
    </g>
    <g id="line2d_85"/>
    <g id="text_14">
     <!-- Adadelta -->
     <g transform="translate(420.626125 82.950937)scale(0.1 -0.1)">
      <defs>
       <path d="M 9.421875 75.984375 
L 18.40625 75.984375 
L 18.40625 0 
L 9.421875 0 
z
" id="DejaVuSans-108"/>
      </defs>
      <use xlink:href="#DejaVuSans-65"/>
      <use x="66.658203" xlink:href="#DejaVuSans-100"/>
      <use x="130.134766" xlink:href="#DejaVuSans-97"/>
      <use x="191.414062" xlink:href="#DejaVuSans-100"/>
      <use x="254.890625" xlink:href="#DejaVuSans-101"/>
      <use x="316.414062" xlink:href="#DejaVuSans-108"/>
      <use x="344.197266" xlink:href="#DejaVuSans-116"/>
      <use x="383.40625" xlink:href="#DejaVuSans-97"/>
     </g>
    </g>
    <g id="line2d_86">
     <path d="M 392.626125 94.129062 
L 412.626125 94.129062 
" style="fill:none;stroke:#9467bd;stroke-linecap:square;stroke-width:1.5;"/>
    </g>
    <g id="line2d_87"/>
    <g id="text_15">
     <!-- Adamax -->
     <g transform="translate(420.626125 97.629062)scale(0.1 -0.1)">
      <defs>
       <path d="M 54.890625 54.6875 
L 35.109375 28.078125 
L 55.90625 0 
L 45.3125 0 
L 29.390625 21.484375 
L 13.484375 0 
L 2.875 0 
L 24.125 28.609375 
L 4.6875 54.6875 
L 15.28125 54.6875 
L 29.78125 35.203125 
L 44.28125 54.6875 
z
" id="DejaVuSans-120"/>
      </defs>
      <use xlink:href="#DejaVuSans-65"/>
      <use x="66.658203" xlink:href="#DejaVuSans-100"/>
      <use x="130.134766" xlink:href="#DejaVuSans-97"/>
      <use x="191.414062" xlink:href="#DejaVuSans-109"/>
      <use x="288.826172" xlink:href="#DejaVuSans-97"/>
      <use x="350.105469" xlink:href="#DejaVuSans-120"/>
     </g>
    </g>
    <g id="line2d_88">
     <path d="M 392.626125 108.807187 
L 412.626125 108.807187 
" style="fill:none;stroke:#8c564b;stroke-linecap:square;stroke-width:1.5;"/>
    </g>
    <g id="line2d_89"/>
    <g id="text_16">
     <!-- SGD -->
     <g transform="translate(420.626125 112.307187)scale(0.1 -0.1)">
      <defs>
       <path d="M 53.515625 70.515625 
L 53.515625 60.890625 
Q 47.90625 63.578125 42.921875 64.890625 
Q 37.9375 66.21875 33.296875 66.21875 
Q 25.25 66.21875 20.875 63.09375 
Q 16.5 59.96875 16.5 54.203125 
Q 16.5 49.359375 19.40625 46.890625 
Q 22.3125 44.4375 30.421875 42.921875 
L 36.375 41.703125 
Q 47.40625 39.59375 52.65625 34.296875 
Q 57.90625 29 57.90625 20.125 
Q 57.90625 9.515625 50.796875 4.046875 
Q 43.703125 -1.421875 29.984375 -1.421875 
Q 24.8125 -1.421875 18.96875 -0.25 
Q 13.140625 0.921875 6.890625 3.21875 
L 6.890625 13.375 
Q 12.890625 10.015625 18.65625 8.296875 
Q 24.421875 6.59375 29.984375 6.59375 
Q 38.421875 6.59375 43.015625 9.90625 
Q 47.609375 13.234375 47.609375 19.390625 
Q 47.609375 24.75 44.3125 27.78125 
Q 41.015625 30.8125 33.5 32.328125 
L 27.484375 33.5 
Q 16.453125 35.6875 11.515625 40.375 
Q 6.59375 45.0625 6.59375 53.421875 
Q 6.59375 63.09375 13.40625 68.65625 
Q 20.21875 74.21875 32.171875 74.21875 
Q 37.3125 74.21875 42.625 73.28125 
Q 47.953125 72.359375 53.515625 70.515625 
z
" id="DejaVuSans-83"/>
       <path d="M 19.671875 64.796875 
L 19.671875 8.109375 
L 31.59375 8.109375 
Q 46.6875 8.109375 53.6875 14.9375 
Q 60.6875 21.78125 60.6875 36.53125 
Q 60.6875 51.171875 53.6875 57.984375 
Q 46.6875 64.796875 31.59375 64.796875 
z
M 9.8125 72.90625 
L 30.078125 72.90625 
Q 51.265625 72.90625 61.171875 64.09375 
Q 71.09375 55.28125 71.09375 36.53125 
Q 71.09375 17.671875 61.125 8.828125 
Q 51.171875 0 30.078125 0 
L 9.8125 0 
z
" id="DejaVuSans-68"/>
      </defs>
      <use xlink:href="#DejaVuSans-83"/>
      <use x="63.476562" xlink:href="#DejaVuSans-71"/>
      <use x="140.966797" xlink:href="#DejaVuSans-68"/>
     </g>
    </g>
    <g id="line2d_90">
     <path d="M 392.626125 123.485312 
L 412.626125 123.485312 
" style="fill:none;stroke:#e377c2;stroke-linecap:square;stroke-width:1.5;"/>
    </g>
    <g id="line2d_91"/>
    <g id="text_17">
     <!-- LBFGS -->
     <g transform="translate(420.626125 126.985312)scale(0.1 -0.1)">
      <defs>
       <path d="M 9.8125 72.90625 
L 19.671875 72.90625 
L 19.671875 8.296875 
L 55.171875 8.296875 
L 55.171875 0 
L 9.8125 0 
z
" id="DejaVuSans-76"/>
       <path d="M 19.671875 34.8125 
L 19.671875 8.109375 
L 35.5 8.109375 
Q 43.453125 8.109375 47.28125 11.40625 
Q 51.125 14.703125 51.125 21.484375 
Q 51.125 28.328125 47.28125 31.5625 
Q 43.453125 34.8125 35.5 34.8125 
z
M 19.671875 64.796875 
L 19.671875 42.828125 
L 34.28125 42.828125 
Q 41.5 42.828125 45.03125 45.53125 
Q 48.578125 48.25 48.578125 53.8125 
Q 48.578125 59.328125 45.03125 62.0625 
Q 41.5 64.796875 34.28125 64.796875 
z
M 9.8125 72.90625 
L 35.015625 72.90625 
Q 46.296875 72.90625 52.390625 68.21875 
Q 58.5 63.53125 58.5 54.890625 
Q 58.5 48.1875 55.375 44.234375 
Q 52.25 40.28125 46.1875 39.3125 
Q 53.46875 37.75 57.5 32.78125 
Q 61.53125 27.828125 61.53125 20.40625 
Q 61.53125 10.640625 54.890625 5.3125 
Q 48.25 0 35.984375 0 
L 9.8125 0 
z
" id="DejaVuSans-66"/>
       <path d="M 9.8125 72.90625 
L 51.703125 72.90625 
L 51.703125 64.59375 
L 19.671875 64.59375 
L 19.671875 43.109375 
L 48.578125 43.109375 
L 48.578125 34.8125 
L 19.671875 34.8125 
L 19.671875 0 
L 9.8125 0 
z
" id="DejaVuSans-70"/>
      </defs>
      <use xlink:href="#DejaVuSans-76"/>
      <use x="55.712891" xlink:href="#DejaVuSans-66"/>
      <use x="124.316406" xlink:href="#DejaVuSans-70"/>
      <use x="181.835938" xlink:href="#DejaVuSans-71"/>
      <use x="259.326172" xlink:href="#DejaVuSans-83"/>
     </g>
    </g>
    <g id="line2d_92">
     <path d="M 392.626125 138.163437 
L 412.626125 138.163437 
" style="fill:none;stroke:#7f7f7f;stroke-linecap:square;stroke-width:1.5;"/>
    </g>
    <g id="line2d_93"/>
    <g id="text_18">
     <!-- RMSprop -->
     <g transform="translate(420.626125 141.663437)scale(0.1 -0.1)">
      <defs>
       <path d="M 9.8125 72.90625 
L 24.515625 72.90625 
L 43.109375 23.296875 
L 61.8125 72.90625 
L 76.515625 72.90625 
L 76.515625 0 
L 66.890625 0 
L 66.890625 64.015625 
L 48.09375 14.015625 
L 38.1875 14.015625 
L 19.390625 64.015625 
L 19.390625 0 
L 9.8125 0 
z
" id="DejaVuSans-77"/>
       <path d="M 18.109375 8.203125 
L 18.109375 -20.796875 
L 9.078125 -20.796875 
L 9.078125 54.6875 
L 18.109375 54.6875 
L 18.109375 46.390625 
Q 20.953125 51.265625 25.265625 53.625 
Q 29.59375 56 35.59375 56 
Q 45.5625 56 51.78125 48.09375 
Q 58.015625 40.1875 58.015625 27.296875 
Q 58.015625 14.40625 51.78125 6.484375 
Q 45.5625 -1.421875 35.59375 -1.421875 
Q 29.59375 -1.421875 25.265625 0.953125 
Q 20.953125 3.328125 18.109375 8.203125 
z
M 48.6875 27.296875 
Q 48.6875 37.203125 44.609375 42.84375 
Q 40.53125 48.484375 33.40625 48.484375 
Q 26.265625 48.484375 22.1875 42.84375 
Q 18.109375 37.203125 18.109375 27.296875 
Q 18.109375 17.390625 22.1875 11.75 
Q 26.265625 6.109375 33.40625 6.109375 
Q 40.53125 6.109375 44.609375 11.75 
Q 48.6875 17.390625 48.6875 27.296875 
z
" id="DejaVuSans-112"/>
       <path d="M 41.109375 46.296875 
Q 39.59375 47.171875 37.8125 47.578125 
Q 36.03125 48 33.890625 48 
Q 26.265625 48 22.1875 43.046875 
Q 18.109375 38.09375 18.109375 28.8125 
L 18.109375 0 
L 9.078125 0 
L 9.078125 54.6875 
L 18.109375 54.6875 
L 18.109375 46.1875 
Q 20.953125 51.171875 25.484375 53.578125 
Q 30.03125 56 36.53125 56 
Q 37.453125 56 38.578125 55.875 
Q 39.703125 55.765625 41.0625 55.515625 
z
" id="DejaVuSans-114"/>
      </defs>
      <use xlink:href="#DejaVuSans-82"/>
      <use x="69.482422" xlink:href="#DejaVuSans-77"/>
      <use x="155.761719" xlink:href="#DejaVuSans-83"/>
      <use x="219.238281" xlink:href="#DejaVuSans-112"/>
      <use x="282.714844" xlink:href="#DejaVuSans-114"/>
      <use x="321.578125" xlink:href="#DejaVuSans-111"/>
      <use x="382.759766" xlink:href="#DejaVuSans-112"/>
     </g>
    </g>
    <g id="line2d_94">
     <path d="M 392.626125 152.841562 
L 412.626125 152.841562 
" style="fill:none;stroke:#bcbd22;stroke-linecap:square;stroke-width:1.5;"/>
    </g>
    <g id="line2d_95"/>
    <g id="text_19">
     <!-- Rprop -->
     <g transform="translate(420.626125 156.341562)scale(0.1 -0.1)">
      <use xlink:href="#DejaVuSans-82"/>
      <use x="69.482422" xlink:href="#DejaVuSans-112"/>
      <use x="132.958984" xlink:href="#DejaVuSans-114"/>
      <use x="171.822266" xlink:href="#DejaVuSans-111"/>
      <use x="233.003906" xlink:href="#DejaVuSans-112"/>
     </g>
    </g>
    <g id="line2d_96">
     <path d="M 392.626125 167.519687 
L 412.626125 167.519687 
" style="fill:none;stroke:#17becf;stroke-dasharray:5.55,2.4;stroke-dashoffset:0;stroke-width:1.5;"/>
    </g>
    <g id="line2d_97"/>
    <g id="text_20">
     <!-- BFGS -->
     <g transform="translate(420.626125 171.019687)scale(0.1 -0.1)">
      <use xlink:href="#DejaVuSans-66"/>
      <use x="68.603516" xlink:href="#DejaVuSans-70"/>
      <use x="126.123047" xlink:href="#DejaVuSans-71"/>
      <use x="203.613281" xlink:href="#DejaVuSans-83"/>
     </g>
    </g>
    <g id="line2d_98">
     <path d="M 392.626125 182.197812 
L 412.626125 182.197812 
" style="fill:none;stroke:#1f77b4;stroke-dasharray:5.55,2.4;stroke-dashoffset:0;stroke-width:1.5;"/>
    </g>
    <g id="line2d_99"/>
    <g id="text_21">
     <!-- CG -->
     <g transform="translate(420.626125 185.697812)scale(0.1 -0.1)">
      <defs>
       <path d="M 64.40625 67.28125 
L 64.40625 56.890625 
Q 59.421875 61.53125 53.78125 63.8125 
Q 48.140625 66.109375 41.796875 66.109375 
Q 29.296875 66.109375 22.65625 58.46875 
Q 16.015625 50.828125 16.015625 36.375 
Q 16.015625 21.96875 22.65625 14.328125 
Q 29.296875 6.6875 41.796875 6.6875 
Q 48.140625 6.6875 53.78125 8.984375 
Q 59.421875 11.28125 64.40625 15.921875 
L 64.40625 5.609375 
Q 59.234375 2.09375 53.4375 0.328125 
Q 47.65625 -1.421875 41.21875 -1.421875 
Q 24.65625 -1.421875 15.125 8.703125 
Q 5.609375 18.84375 5.609375 36.375 
Q 5.609375 53.953125 15.125 64.078125 
Q 24.65625 74.21875 41.21875 74.21875 
Q 47.75 74.21875 53.53125 72.484375 
Q 59.328125 70.75 64.40625 67.28125 
z
" id="DejaVuSans-67"/>
      </defs>
      <use xlink:href="#DejaVuSans-67"/>
      <use x="69.824219" xlink:href="#DejaVuSans-71"/>
     </g>
    </g>
    <g id="line2d_100">
     <path d="M 392.626125 196.875937 
L 412.626125 196.875937 
" style="fill:none;stroke:#ff7f0e;stroke-dasharray:5.55,2.4;stroke-dashoffset:0;stroke-width:1.5;"/>
    </g>
    <g id="line2d_101"/>
    <g id="text_22">
     <!-- Newton-CG -->
     <g transform="translate(420.626125 200.375937)scale(0.1 -0.1)">
      <defs>
       <path d="M 4.203125 54.6875 
L 13.1875 54.6875 
L 24.421875 12.015625 
L 35.59375 54.6875 
L 46.1875 54.6875 
L 57.421875 12.015625 
L 68.609375 54.6875 
L 77.59375 54.6875 
L 63.28125 0 
L 52.6875 0 
L 40.921875 44.828125 
L 29.109375 0 
L 18.5 0 
z
" id="DejaVuSans-119"/>
       <path d="M 54.890625 33.015625 
L 54.890625 0 
L 45.90625 0 
L 45.90625 32.71875 
Q 45.90625 40.484375 42.875 44.328125 
Q 39.84375 48.1875 33.796875 48.1875 
Q 26.515625 48.1875 22.3125 43.546875 
Q 18.109375 38.921875 18.109375 30.90625 
L 18.109375 0 
L 9.078125 0 
L 9.078125 54.6875 
L 18.109375 54.6875 
L 18.109375 46.1875 
Q 21.34375 51.125 25.703125 53.5625 
Q 30.078125 56 35.796875 56 
Q 45.21875 56 50.046875 50.171875 
Q 54.890625 44.34375 54.890625 33.015625 
z
" id="DejaVuSans-110"/>
      </defs>
      <use xlink:href="#DejaVuSans-78"/>
      <use x="74.804688" xlink:href="#DejaVuSans-101"/>
      <use x="136.328125" xlink:href="#DejaVuSans-119"/>
      <use x="218.115234" xlink:href="#DejaVuSans-116"/>
      <use x="257.324219" xlink:href="#DejaVuSans-111"/>
      <use x="318.505859" xlink:href="#DejaVuSans-110"/>
      <use x="381.884766" xlink:href="#DejaVuSans-45"/>
      <use x="417.96875" xlink:href="#DejaVuSans-67"/>
      <use x="487.792969" xlink:href="#DejaVuSans-71"/>
     </g>
    </g>
    <g id="line2d_102">
     <path d="M 392.626125 211.554062 
L 412.626125 211.554062 
" style="fill:none;stroke:#2ca02c;stroke-dasharray:5.55,2.4;stroke-dashoffset:0;stroke-width:1.5;"/>
    </g>
    <g id="line2d_103"/>
    <g id="text_23">
     <!-- SLSQP -->
     <g transform="translate(420.626125 215.054062)scale(0.1 -0.1)">
      <defs>
       <path d="M 39.40625 66.21875 
Q 28.65625 66.21875 22.328125 58.203125 
Q 16.015625 50.203125 16.015625 36.375 
Q 16.015625 22.609375 22.328125 14.59375 
Q 28.65625 6.59375 39.40625 6.59375 
Q 50.140625 6.59375 56.421875 14.59375 
Q 62.703125 22.609375 62.703125 36.375 
Q 62.703125 50.203125 56.421875 58.203125 
Q 50.140625 66.21875 39.40625 66.21875 
z
M 53.21875 1.3125 
L 66.21875 -12.890625 
L 54.296875 -12.890625 
L 43.5 -1.21875 
Q 41.890625 -1.3125 41.03125 -1.359375 
Q 40.1875 -1.421875 39.40625 -1.421875 
Q 24.03125 -1.421875 14.8125 8.859375 
Q 5.609375 19.140625 5.609375 36.375 
Q 5.609375 53.65625 14.8125 63.9375 
Q 24.03125 74.21875 39.40625 74.21875 
Q 54.734375 74.21875 63.90625 63.9375 
Q 73.09375 53.65625 73.09375 36.375 
Q 73.09375 23.6875 67.984375 14.640625 
Q 62.890625 5.609375 53.21875 1.3125 
z
" id="DejaVuSans-81"/>
       <path d="M 19.671875 64.796875 
L 19.671875 37.40625 
L 32.078125 37.40625 
Q 38.96875 37.40625 42.71875 40.96875 
Q 46.484375 44.53125 46.484375 51.125 
Q 46.484375 57.671875 42.71875 61.234375 
Q 38.96875 64.796875 32.078125 64.796875 
z
M 9.8125 72.90625 
L 32.078125 72.90625 
Q 44.34375 72.90625 50.609375 67.359375 
Q 56.890625 61.8125 56.890625 51.125 
Q 56.890625 40.328125 50.609375 34.8125 
Q 44.34375 29.296875 32.078125 29.296875 
L 19.671875 29.296875 
L 19.671875 0 
L 9.8125 0 
z
" id="DejaVuSans-80"/>
      </defs>
      <use xlink:href="#DejaVuSans-83"/>
      <use x="63.476562" xlink:href="#DejaVuSans-76"/>
      <use x="119.189453" xlink:href="#DejaVuSans-83"/>
      <use x="182.666016" xlink:href="#DejaVuSans-81"/>
      <use x="261.376953" xlink:href="#DejaVuSans-80"/>
     </g>
    </g>
   </g>
  </g>
 </g>
 <defs>
  <clipPath id="p1fa10ff9d6">
   <rect height="217.44" width="334.8" x="45.478125" y="22.318125"/>
  </clipPath>
 </defs>
</svg>
