<?xml version="1.0" encoding="utf-8" standalone="no"?>
<!DOCTYPE svg PUBLIC "-//W3C//DTD SVG 1.1//EN"
  "http://www.w3.org/Graphics/SVG/1.1/DTD/svg11.dtd">
<!-- Created with matplotlib (https://matplotlib.org/) -->
<svg height="277.314375pt" version="1.1" viewBox="0 0 488.35425 277.314375" width="488.35425pt" xmlns="http://www.w3.org/2000/svg" xmlns:xlink="http://www.w3.org/1999/xlink">
 <metadata>
  <rdf:RDF xmlns:cc="http://creativecommons.org/ns#" xmlns:dc="http://purl.org/dc/elements/1.1/" xmlns:rdf="http://www.w3.org/1999/02/22-rdf-syntax-ns#">
   <cc:Work>
    <dc:type rdf:resource="http://purl.org/dc/dcmitype/StillImage"/>
    <dc:date>2023-05-25T09:37:53.795609</dc:date>
    <dc:format>image/svg+xml</dc:format>
    <dc:creator>
     <cc:Agent>
      <dc:title>Matplotlib v3.3.2, https://matplotlib.org/</dc:title>
     </cc:Agent>
    </dc:creator>
   </cc:Work>
  </rdf:RDF>
 </metadata>
 <defs>
  <style type="text/css">*{stroke-linecap:butt;stroke-linejoin:round;}</style>
 </defs>
 <g id="figure_1">
  <g id="patch_1">
   <path d="M 0 277.314375 
L 488.35425 277.314375 
L 488.35425 0 
L 0 0 
z
" style="fill:none;"/>
  </g>
  <g id="axes_1">
   <g id="patch_2">
    <path d="M 45.478125 239.758125 
L 380.278125 239.758125 
L 380.278125 22.318125 
L 45.478125 22.318125 
z
" style="fill:#ffffff;"/>
   </g>
   <g id="matplotlib.axis_1">
    <g id="xtick_1">
     <g id="line2d_1">
      <defs>
       <path d="M 0 0 
L 0 3.5 
" id="m5d73434d37" style="stroke:#000000;stroke-width:0.8;"/>
      </defs>
      <g>
       <use style="stroke:#000000;stroke-width:0.8;" x="60.696307" xlink:href="#m5d73434d37" y="239.758125"/>
      </g>
     </g>
     <g id="text_1">
      <!-- $\mathdefault{10^{0}}$ -->
      <g transform="translate(51.896307 254.356562)scale(0.1 -0.1)">
       <defs>
        <path d="M 12.40625 8.296875 
L 28.515625 8.296875 
L 28.515625 63.921875 
L 10.984375 60.40625 
L 10.984375 69.390625 
L 28.421875 72.90625 
L 38.28125 72.90625 
L 38.28125 8.296875 
L 54.390625 8.296875 
L 54.390625 0 
L 12.40625 0 
z
" id="DejaVuSans-49"/>
        <path d="M 31.78125 66.40625 
Q 24.171875 66.40625 20.328125 58.90625 
Q 16.5 51.421875 16.5 36.375 
Q 16.5 21.390625 20.328125 13.890625 
Q 24.171875 6.390625 31.78125 6.390625 
Q 39.453125 6.390625 43.28125 13.890625 
Q 47.125 21.390625 47.125 36.375 
Q 47.125 51.421875 43.28125 58.90625 
Q 39.453125 66.40625 31.78125 66.40625 
z
M 31.78125 74.21875 
Q 44.046875 74.21875 50.515625 64.515625 
Q 56.984375 54.828125 56.984375 36.375 
Q 56.984375 17.96875 50.515625 8.265625 
Q 44.046875 -1.421875 31.78125 -1.421875 
Q 19.53125 -1.421875 13.0625 8.265625 
Q 6.59375 17.96875 6.59375 36.375 
Q 6.59375 54.828125 13.0625 64.515625 
Q 19.53125 74.21875 31.78125 74.21875 
z
" id="DejaVuSans-48"/>
       </defs>
       <use transform="translate(0 0.765625)" xlink:href="#DejaVuSans-49"/>
       <use transform="translate(63.623047 0.765625)" xlink:href="#DejaVuSans-48"/>
       <use transform="translate(128.203125 39.046875)scale(0.7)" xlink:href="#DejaVuSans-48"/>
      </g>
     </g>
    </g>
    <g id="xtick_2">
     <g id="line2d_2">
      <g>
       <use style="stroke:#000000;stroke-width:0.8;" x="213.210973" xlink:href="#m5d73434d37" y="239.758125"/>
      </g>
     </g>
     <g id="text_2">
      <!-- $\mathdefault{10^{1}}$ -->
      <g transform="translate(204.410973 254.356562)scale(0.1 -0.1)">
       <use transform="translate(0 0.684375)" xlink:href="#DejaVuSans-49"/>
       <use transform="translate(63.623047 0.684375)" xlink:href="#DejaVuSans-48"/>
       <use transform="translate(128.203125 38.965625)scale(0.7)" xlink:href="#DejaVuSans-49"/>
      </g>
     </g>
    </g>
    <g id="xtick_3">
     <g id="line2d_3">
      <g>
       <use style="stroke:#000000;stroke-width:0.8;" x="365.72564" xlink:href="#m5d73434d37" y="239.758125"/>
      </g>
     </g>
     <g id="text_3">
      <!-- $\mathdefault{10^{2}}$ -->
      <g transform="translate(356.92564 254.356562)scale(0.1 -0.1)">
       <defs>
        <path d="M 19.1875 8.296875 
L 53.609375 8.296875 
L 53.609375 0 
L 7.328125 0 
L 7.328125 8.296875 
Q 12.9375 14.109375 22.625 23.890625 
Q 32.328125 33.6875 34.8125 36.53125 
Q 39.546875 41.84375 41.421875 45.53125 
Q 43.3125 49.21875 43.3125 52.78125 
Q 43.3125 58.59375 39.234375 62.25 
Q 35.15625 65.921875 28.609375 65.921875 
Q 23.96875 65.921875 18.8125 64.3125 
Q 13.671875 62.703125 7.8125 59.421875 
L 7.8125 69.390625 
Q 13.765625 71.78125 18.9375 73 
Q 24.125 74.21875 28.421875 74.21875 
Q 39.75 74.21875 46.484375 68.546875 
Q 53.21875 62.890625 53.21875 53.421875 
Q 53.21875 48.921875 51.53125 44.890625 
Q 49.859375 40.875 45.40625 35.40625 
Q 44.1875 33.984375 37.640625 27.21875 
Q 31.109375 20.453125 19.1875 8.296875 
z
" id="DejaVuSans-50"/>
       </defs>
       <use transform="translate(0 0.765625)" xlink:href="#DejaVuSans-49"/>
       <use transform="translate(63.623047 0.765625)" xlink:href="#DejaVuSans-48"/>
       <use transform="translate(128.203125 39.046875)scale(0.7)" xlink:href="#DejaVuSans-50"/>
      </g>
     </g>
    </g>
    <g id="xtick_4">
     <g id="line2d_4">
      <defs>
       <path d="M 0 0 
L 0 2 
" id="ma484fdf630" style="stroke:#000000;stroke-width:0.6;"/>
      </defs>
      <g>
       <use style="stroke:#000000;stroke-width:0.6;" x="45.916108" xlink:href="#ma484fdf630" y="239.758125"/>
      </g>
     </g>
    </g>
    <g id="xtick_5">
     <g id="line2d_5">
      <g>
       <use style="stroke:#000000;stroke-width:0.6;" x="53.717618" xlink:href="#ma484fdf630" y="239.758125"/>
      </g>
     </g>
    </g>
    <g id="xtick_6">
     <g id="line2d_6">
      <g>
       <use style="stroke:#000000;stroke-width:0.6;" x="106.607796" xlink:href="#ma484fdf630" y="239.758125"/>
      </g>
     </g>
    </g>
    <g id="xtick_7">
     <g id="line2d_7">
      <g>
       <use style="stroke:#000000;stroke-width:0.6;" x="133.464296" xlink:href="#ma484fdf630" y="239.758125"/>
      </g>
     </g>
    </g>
    <g id="xtick_8">
     <g id="line2d_8">
      <g>
       <use style="stroke:#000000;stroke-width:0.6;" x="152.519286" xlink:href="#ma484fdf630" y="239.758125"/>
      </g>
     </g>
    </g>
    <g id="xtick_9">
     <g id="line2d_9">
      <g>
       <use style="stroke:#000000;stroke-width:0.6;" x="167.299484" xlink:href="#ma484fdf630" y="239.758125"/>
      </g>
     </g>
    </g>
    <g id="xtick_10">
     <g id="line2d_10">
      <g>
       <use style="stroke:#000000;stroke-width:0.6;" x="179.375785" xlink:href="#ma484fdf630" y="239.758125"/>
      </g>
     </g>
    </g>
    <g id="xtick_11">
     <g id="line2d_11">
      <g>
       <use style="stroke:#000000;stroke-width:0.6;" x="189.586153" xlink:href="#ma484fdf630" y="239.758125"/>
      </g>
     </g>
    </g>
    <g id="xtick_12">
     <g id="line2d_12">
      <g>
       <use style="stroke:#000000;stroke-width:0.6;" x="198.430775" xlink:href="#ma484fdf630" y="239.758125"/>
      </g>
     </g>
    </g>
    <g id="xtick_13">
     <g id="line2d_13">
      <g>
       <use style="stroke:#000000;stroke-width:0.6;" x="206.232285" xlink:href="#ma484fdf630" y="239.758125"/>
      </g>
     </g>
    </g>
    <g id="xtick_14">
     <g id="line2d_14">
      <g>
       <use style="stroke:#000000;stroke-width:0.6;" x="259.122463" xlink:href="#ma484fdf630" y="239.758125"/>
      </g>
     </g>
    </g>
    <g id="xtick_15">
     <g id="line2d_15">
      <g>
       <use style="stroke:#000000;stroke-width:0.6;" x="285.978963" xlink:href="#ma484fdf630" y="239.758125"/>
      </g>
     </g>
    </g>
    <g id="xtick_16">
     <g id="line2d_16">
      <g>
       <use style="stroke:#000000;stroke-width:0.6;" x="305.033952" xlink:href="#ma484fdf630" y="239.758125"/>
      </g>
     </g>
    </g>
    <g id="xtick_17">
     <g id="line2d_17">
      <g>
       <use style="stroke:#000000;stroke-width:0.6;" x="319.814151" xlink:href="#ma484fdf630" y="239.758125"/>
      </g>
     </g>
    </g>
    <g id="xtick_18">
     <g id="line2d_18">
      <g>
       <use style="stroke:#000000;stroke-width:0.6;" x="331.890452" xlink:href="#ma484fdf630" y="239.758125"/>
      </g>
     </g>
    </g>
    <g id="xtick_19">
     <g id="line2d_19">
      <g>
       <use style="stroke:#000000;stroke-width:0.6;" x="342.100819" xlink:href="#ma484fdf630" y="239.758125"/>
      </g>
     </g>
    </g>
    <g id="xtick_20">
     <g id="line2d_20">
      <g>
       <use style="stroke:#000000;stroke-width:0.6;" x="350.945442" xlink:href="#ma484fdf630" y="239.758125"/>
      </g>
     </g>
    </g>
    <g id="xtick_21">
     <g id="line2d_21">
      <g>
       <use style="stroke:#000000;stroke-width:0.6;" x="358.746952" xlink:href="#ma484fdf630" y="239.758125"/>
      </g>
     </g>
    </g>
    <g id="text_4">
     <!-- iteration -->
     <g transform="translate(191.755469 268.034687)scale(0.1 -0.1)">
      <defs>
       <path d="M 9.421875 54.6875 
L 18.40625 54.6875 
L 18.40625 0 
L 9.421875 0 
z
M 9.421875 75.984375 
L 18.40625 75.984375 
L 18.40625 64.59375 
L 9.421875 64.59375 
z
" id="DejaVuSans-105"/>
       <path d="M 18.3125 70.21875 
L 18.3125 54.6875 
L 36.8125 54.6875 
L 36.8125 47.703125 
L 18.3125 47.703125 
L 18.3125 18.015625 
Q 18.3125 11.328125 20.140625 9.421875 
Q 21.96875 7.515625 27.59375 7.515625 
L 36.8125 7.515625 
L 36.8125 0 
L 27.59375 0 
Q 17.1875 0 13.234375 3.875 
Q 9.28125 7.765625 9.28125 18.015625 
L 9.28125 47.703125 
L 2.6875 47.703125 
L 2.6875 54.6875 
L 9.28125 54.6875 
L 9.28125 70.21875 
z
" id="DejaVuSans-116"/>
       <path d="M 56.203125 29.59375 
L 56.203125 25.203125 
L 14.890625 25.203125 
Q 15.484375 15.921875 20.484375 11.0625 
Q 25.484375 6.203125 34.421875 6.203125 
Q 39.59375 6.203125 44.453125 7.46875 
Q 49.3125 8.734375 54.109375 11.28125 
L 54.109375 2.78125 
Q 49.265625 0.734375 44.1875 -0.34375 
Q 39.109375 -1.421875 33.890625 -1.421875 
Q 20.796875 -1.421875 13.15625 6.1875 
Q 5.515625 13.8125 5.515625 26.8125 
Q 5.515625 40.234375 12.765625 48.109375 
Q 20.015625 56 32.328125 56 
Q 43.359375 56 49.78125 48.890625 
Q 56.203125 41.796875 56.203125 29.59375 
z
M 47.21875 32.234375 
Q 47.125 39.59375 43.09375 43.984375 
Q 39.0625 48.390625 32.421875 48.390625 
Q 24.90625 48.390625 20.390625 44.140625 
Q 15.875 39.890625 15.1875 32.171875 
z
" id="DejaVuSans-101"/>
       <path d="M 41.109375 46.296875 
Q 39.59375 47.171875 37.8125 47.578125 
Q 36.03125 48 33.890625 48 
Q 26.265625 48 22.1875 43.046875 
Q 18.109375 38.09375 18.109375 28.8125 
L 18.109375 0 
L 9.078125 0 
L 9.078125 54.6875 
L 18.109375 54.6875 
L 18.109375 46.1875 
Q 20.953125 51.171875 25.484375 53.578125 
Q 30.03125 56 36.53125 56 
Q 37.453125 56 38.578125 55.875 
Q 39.703125 55.765625 41.0625 55.515625 
z
" id="DejaVuSans-114"/>
       <path d="M 34.28125 27.484375 
Q 23.390625 27.484375 19.1875 25 
Q 14.984375 22.515625 14.984375 16.5 
Q 14.984375 11.71875 18.140625 8.90625 
Q 21.296875 6.109375 26.703125 6.109375 
Q 34.1875 6.109375 38.703125 11.40625 
Q 43.21875 16.703125 43.21875 25.484375 
L 43.21875 27.484375 
z
M 52.203125 31.203125 
L 52.203125 0 
L 43.21875 0 
L 43.21875 8.296875 
Q 40.140625 3.328125 35.546875 0.953125 
Q 30.953125 -1.421875 24.3125 -1.421875 
Q 15.921875 -1.421875 10.953125 3.296875 
Q 6 8.015625 6 15.921875 
Q 6 25.140625 12.171875 29.828125 
Q 18.359375 34.515625 30.609375 34.515625 
L 43.21875 34.515625 
L 43.21875 35.40625 
Q 43.21875 41.609375 39.140625 45 
Q 35.0625 48.390625 27.6875 48.390625 
Q 23 48.390625 18.546875 47.265625 
Q 14.109375 46.140625 10.015625 43.890625 
L 10.015625 52.203125 
Q 14.9375 54.109375 19.578125 55.046875 
Q 24.21875 56 28.609375 56 
Q 40.484375 56 46.34375 49.84375 
Q 52.203125 43.703125 52.203125 31.203125 
z
" id="DejaVuSans-97"/>
       <path d="M 30.609375 48.390625 
Q 23.390625 48.390625 19.1875 42.75 
Q 14.984375 37.109375 14.984375 27.296875 
Q 14.984375 17.484375 19.15625 11.84375 
Q 23.34375 6.203125 30.609375 6.203125 
Q 37.796875 6.203125 41.984375 11.859375 
Q 46.1875 17.53125 46.1875 27.296875 
Q 46.1875 37.015625 41.984375 42.703125 
Q 37.796875 48.390625 30.609375 48.390625 
z
M 30.609375 56 
Q 42.328125 56 49.015625 48.375 
Q 55.71875 40.765625 55.71875 27.296875 
Q 55.71875 13.875 49.015625 6.21875 
Q 42.328125 -1.421875 30.609375 -1.421875 
Q 18.84375 -1.421875 12.171875 6.21875 
Q 5.515625 13.875 5.515625 27.296875 
Q 5.515625 40.765625 12.171875 48.375 
Q 18.84375 56 30.609375 56 
z
" id="DejaVuSans-111"/>
       <path d="M 54.890625 33.015625 
L 54.890625 0 
L 45.90625 0 
L 45.90625 32.71875 
Q 45.90625 40.484375 42.875 44.328125 
Q 39.84375 48.1875 33.796875 48.1875 
Q 26.515625 48.1875 22.3125 43.546875 
Q 18.109375 38.921875 18.109375 30.90625 
L 18.109375 0 
L 9.078125 0 
L 9.078125 54.6875 
L 18.109375 54.6875 
L 18.109375 46.1875 
Q 21.34375 51.125 25.703125 53.5625 
Q 30.078125 56 35.796875 56 
Q 45.21875 56 50.046875 50.171875 
Q 54.890625 44.34375 54.890625 33.015625 
z
" id="DejaVuSans-110"/>
      </defs>
      <use xlink:href="#DejaVuSans-105"/>
      <use x="27.783203" xlink:href="#DejaVuSans-116"/>
      <use x="66.992188" xlink:href="#DejaVuSans-101"/>
      <use x="128.515625" xlink:href="#DejaVuSans-114"/>
      <use x="169.628906" xlink:href="#DejaVuSans-97"/>
      <use x="230.908203" xlink:href="#DejaVuSans-116"/>
      <use x="270.117188" xlink:href="#DejaVuSans-105"/>
      <use x="297.900391" xlink:href="#DejaVuSans-111"/>
      <use x="359.082031" xlink:href="#DejaVuSans-110"/>
     </g>
    </g>
   </g>
   <g id="matplotlib.axis_2">
    <g id="ytick_1">
     <g id="line2d_22">
      <defs>
       <path d="M 0 0 
L -3.5 0 
" id="m6157a9c06b" style="stroke:#000000;stroke-width:0.8;"/>
      </defs>
      <g>
       <use style="stroke:#000000;stroke-width:0.8;" x="45.478125" xlink:href="#m6157a9c06b" y="237.261345"/>
      </g>
     </g>
     <g id="text_5">
      <!-- $\mathdefault{10^{5}}$ -->
      <g transform="translate(20.878125 241.060564)scale(0.1 -0.1)">
       <defs>
        <path d="M 10.796875 72.90625 
L 49.515625 72.90625 
L 49.515625 64.59375 
L 19.828125 64.59375 
L 19.828125 46.734375 
Q 21.96875 47.46875 24.109375 47.828125 
Q 26.265625 48.1875 28.421875 48.1875 
Q 40.625 48.1875 47.75 41.5 
Q 54.890625 34.8125 54.890625 23.390625 
Q 54.890625 11.625 47.5625 5.09375 
Q 40.234375 -1.421875 26.90625 -1.421875 
Q 22.3125 -1.421875 17.546875 -0.640625 
Q 12.796875 0.140625 7.71875 1.703125 
L 7.71875 11.625 
Q 12.109375 9.234375 16.796875 8.0625 
Q 21.484375 6.890625 26.703125 6.890625 
Q 35.15625 6.890625 40.078125 11.328125 
Q 45.015625 15.765625 45.015625 23.390625 
Q 45.015625 31 40.078125 35.4375 
Q 35.15625 39.890625 26.703125 39.890625 
Q 22.75 39.890625 18.8125 39.015625 
Q 14.890625 38.140625 10.796875 36.28125 
z
" id="DejaVuSans-53"/>
       </defs>
       <use transform="translate(0 0.684375)" xlink:href="#DejaVuSans-49"/>
       <use transform="translate(63.623047 0.684375)" xlink:href="#DejaVuSans-48"/>
       <use transform="translate(128.203125 38.965625)scale(0.7)" xlink:href="#DejaVuSans-53"/>
      </g>
     </g>
    </g>
    <g id="ytick_2">
     <g id="line2d_23">
      <g>
       <use style="stroke:#000000;stroke-width:0.8;" x="45.478125" xlink:href="#m6157a9c06b" y="158.369624"/>
      </g>
     </g>
     <g id="text_6">
      <!-- $\mathdefault{10^{6}}$ -->
      <g transform="translate(20.878125 162.168843)scale(0.1 -0.1)">
       <defs>
        <path d="M 33.015625 40.375 
Q 26.375 40.375 22.484375 35.828125 
Q 18.609375 31.296875 18.609375 23.390625 
Q 18.609375 15.53125 22.484375 10.953125 
Q 26.375 6.390625 33.015625 6.390625 
Q 39.65625 6.390625 43.53125 10.953125 
Q 47.40625 15.53125 47.40625 23.390625 
Q 47.40625 31.296875 43.53125 35.828125 
Q 39.65625 40.375 33.015625 40.375 
z
M 52.59375 71.296875 
L 52.59375 62.3125 
Q 48.875 64.0625 45.09375 64.984375 
Q 41.3125 65.921875 37.59375 65.921875 
Q 27.828125 65.921875 22.671875 59.328125 
Q 17.53125 52.734375 16.796875 39.40625 
Q 19.671875 43.65625 24.015625 45.921875 
Q 28.375 48.1875 33.59375 48.1875 
Q 44.578125 48.1875 50.953125 41.515625 
Q 57.328125 34.859375 57.328125 23.390625 
Q 57.328125 12.15625 50.6875 5.359375 
Q 44.046875 -1.421875 33.015625 -1.421875 
Q 20.359375 -1.421875 13.671875 8.265625 
Q 6.984375 17.96875 6.984375 36.375 
Q 6.984375 53.65625 15.1875 63.9375 
Q 23.390625 74.21875 37.203125 74.21875 
Q 40.921875 74.21875 44.703125 73.484375 
Q 48.484375 72.75 52.59375 71.296875 
z
" id="DejaVuSans-54"/>
       </defs>
       <use transform="translate(0 0.765625)" xlink:href="#DejaVuSans-49"/>
       <use transform="translate(63.623047 0.765625)" xlink:href="#DejaVuSans-48"/>
       <use transform="translate(128.203125 39.046875)scale(0.7)" xlink:href="#DejaVuSans-54"/>
      </g>
     </g>
    </g>
    <g id="ytick_3">
     <g id="line2d_24">
      <g>
       <use style="stroke:#000000;stroke-width:0.8;" x="45.478125" xlink:href="#m6157a9c06b" y="79.477903"/>
      </g>
     </g>
     <g id="text_7">
      <!-- $\mathdefault{10^{7}}$ -->
      <g transform="translate(20.878125 83.277122)scale(0.1 -0.1)">
       <defs>
        <path d="M 8.203125 72.90625 
L 55.078125 72.90625 
L 55.078125 68.703125 
L 28.609375 0 
L 18.3125 0 
L 43.21875 64.59375 
L 8.203125 64.59375 
z
" id="DejaVuSans-55"/>
       </defs>
       <use transform="translate(0 0.684375)" xlink:href="#DejaVuSans-49"/>
       <use transform="translate(63.623047 0.684375)" xlink:href="#DejaVuSans-48"/>
       <use transform="translate(128.203125 38.965625)scale(0.7)" xlink:href="#DejaVuSans-55"/>
      </g>
     </g>
    </g>
    <g id="ytick_4">
     <g id="line2d_25">
      <defs>
       <path d="M 0 0 
L -2 0 
" id="m0e3bd637fc" style="stroke:#000000;stroke-width:0.6;"/>
      </defs>
      <g>
       <use style="stroke:#000000;stroke-width:0.6;" x="45.478125" xlink:href="#m0e3bd637fc" y="213.51257"/>
      </g>
     </g>
    </g>
    <g id="ytick_5">
     <g id="line2d_26">
      <g>
       <use style="stroke:#000000;stroke-width:0.6;" x="45.478125" xlink:href="#m0e3bd637fc" y="199.620428"/>
      </g>
     </g>
    </g>
    <g id="ytick_6">
     <g id="line2d_27">
      <g>
       <use style="stroke:#000000;stroke-width:0.6;" x="45.478125" xlink:href="#m0e3bd637fc" y="189.763796"/>
      </g>
     </g>
    </g>
    <g id="ytick_7">
     <g id="line2d_28">
      <g>
       <use style="stroke:#000000;stroke-width:0.6;" x="45.478125" xlink:href="#m0e3bd637fc" y="182.118398"/>
      </g>
     </g>
    </g>
    <g id="ytick_8">
     <g id="line2d_29">
      <g>
       <use style="stroke:#000000;stroke-width:0.6;" x="45.478125" xlink:href="#m0e3bd637fc" y="175.871654"/>
      </g>
     </g>
    </g>
    <g id="ytick_9">
     <g id="line2d_30">
      <g>
       <use style="stroke:#000000;stroke-width:0.6;" x="45.478125" xlink:href="#m0e3bd637fc" y="170.590106"/>
      </g>
     </g>
    </g>
    <g id="ytick_10">
     <g id="line2d_31">
      <g>
       <use style="stroke:#000000;stroke-width:0.6;" x="45.478125" xlink:href="#m0e3bd637fc" y="166.015022"/>
      </g>
     </g>
    </g>
    <g id="ytick_11">
     <g id="line2d_32">
      <g>
       <use style="stroke:#000000;stroke-width:0.6;" x="45.478125" xlink:href="#m0e3bd637fc" y="161.979511"/>
      </g>
     </g>
    </g>
    <g id="ytick_12">
     <g id="line2d_33">
      <g>
       <use style="stroke:#000000;stroke-width:0.6;" x="45.478125" xlink:href="#m0e3bd637fc" y="134.620849"/>
      </g>
     </g>
    </g>
    <g id="ytick_13">
     <g id="line2d_34">
      <g>
       <use style="stroke:#000000;stroke-width:0.6;" x="45.478125" xlink:href="#m0e3bd637fc" y="120.728707"/>
      </g>
     </g>
    </g>
    <g id="ytick_14">
     <g id="line2d_35">
      <g>
       <use style="stroke:#000000;stroke-width:0.6;" x="45.478125" xlink:href="#m0e3bd637fc" y="110.872075"/>
      </g>
     </g>
    </g>
    <g id="ytick_15">
     <g id="line2d_36">
      <g>
       <use style="stroke:#000000;stroke-width:0.6;" x="45.478125" xlink:href="#m0e3bd637fc" y="103.226677"/>
      </g>
     </g>
    </g>
    <g id="ytick_16">
     <g id="line2d_37">
      <g>
       <use style="stroke:#000000;stroke-width:0.6;" x="45.478125" xlink:href="#m0e3bd637fc" y="96.979933"/>
      </g>
     </g>
    </g>
    <g id="ytick_17">
     <g id="line2d_38">
      <g>
       <use style="stroke:#000000;stroke-width:0.6;" x="45.478125" xlink:href="#m0e3bd637fc" y="91.698385"/>
      </g>
     </g>
    </g>
    <g id="ytick_18">
     <g id="line2d_39">
      <g>
       <use style="stroke:#000000;stroke-width:0.6;" x="45.478125" xlink:href="#m0e3bd637fc" y="87.123301"/>
      </g>
     </g>
    </g>
    <g id="ytick_19">
     <g id="line2d_40">
      <g>
       <use style="stroke:#000000;stroke-width:0.6;" x="45.478125" xlink:href="#m0e3bd637fc" y="83.08779"/>
      </g>
     </g>
    </g>
    <g id="ytick_20">
     <g id="line2d_41">
      <g>
       <use style="stroke:#000000;stroke-width:0.6;" x="45.478125" xlink:href="#m0e3bd637fc" y="55.729129"/>
      </g>
     </g>
    </g>
    <g id="ytick_21">
     <g id="line2d_42">
      <g>
       <use style="stroke:#000000;stroke-width:0.6;" x="45.478125" xlink:href="#m0e3bd637fc" y="41.836986"/>
      </g>
     </g>
    </g>
    <g id="ytick_22">
     <g id="line2d_43">
      <g>
       <use style="stroke:#000000;stroke-width:0.6;" x="45.478125" xlink:href="#m0e3bd637fc" y="31.980354"/>
      </g>
     </g>
    </g>
    <g id="ytick_23">
     <g id="line2d_44">
      <g>
       <use style="stroke:#000000;stroke-width:0.6;" x="45.478125" xlink:href="#m0e3bd637fc" y="24.334956"/>
      </g>
     </g>
    </g>
    <g id="text_8">
     <!-- cost -->
     <g transform="translate(14.798438 141.411562)rotate(-90)scale(0.1 -0.1)">
      <defs>
       <path d="M 48.78125 52.59375 
L 48.78125 44.1875 
Q 44.96875 46.296875 41.140625 47.34375 
Q 37.3125 48.390625 33.40625 48.390625 
Q 24.65625 48.390625 19.8125 42.84375 
Q 14.984375 37.3125 14.984375 27.296875 
Q 14.984375 17.28125 19.8125 11.734375 
Q 24.65625 6.203125 33.40625 6.203125 
Q 37.3125 6.203125 41.140625 7.25 
Q 44.96875 8.296875 48.78125 10.40625 
L 48.78125 2.09375 
Q 45.015625 0.34375 40.984375 -0.53125 
Q 36.96875 -1.421875 32.421875 -1.421875 
Q 20.0625 -1.421875 12.78125 6.34375 
Q 5.515625 14.109375 5.515625 27.296875 
Q 5.515625 40.671875 12.859375 48.328125 
Q 20.21875 56 33.015625 56 
Q 37.15625 56 41.109375 55.140625 
Q 45.0625 54.296875 48.78125 52.59375 
z
" id="DejaVuSans-99"/>
       <path d="M 44.28125 53.078125 
L 44.28125 44.578125 
Q 40.484375 46.53125 36.375 47.5 
Q 32.28125 48.484375 27.875 48.484375 
Q 21.1875 48.484375 17.84375 46.4375 
Q 14.5 44.390625 14.5 40.28125 
Q 14.5 37.15625 16.890625 35.375 
Q 19.28125 33.59375 26.515625 31.984375 
L 29.59375 31.296875 
Q 39.15625 29.25 43.1875 25.515625 
Q 47.21875 21.78125 47.21875 15.09375 
Q 47.21875 7.46875 41.1875 3.015625 
Q 35.15625 -1.421875 24.609375 -1.421875 
Q 20.21875 -1.421875 15.453125 -0.5625 
Q 10.6875 0.296875 5.421875 2 
L 5.421875 11.28125 
Q 10.40625 8.6875 15.234375 7.390625 
Q 20.0625 6.109375 24.8125 6.109375 
Q 31.15625 6.109375 34.5625 8.28125 
Q 37.984375 10.453125 37.984375 14.40625 
Q 37.984375 18.0625 35.515625 20.015625 
Q 33.0625 21.96875 24.703125 23.78125 
L 21.578125 24.515625 
Q 13.234375 26.265625 9.515625 29.90625 
Q 5.8125 33.546875 5.8125 39.890625 
Q 5.8125 47.609375 11.28125 51.796875 
Q 16.75 56 26.8125 56 
Q 31.78125 56 36.171875 55.265625 
Q 40.578125 54.546875 44.28125 53.078125 
z
" id="DejaVuSans-115"/>
      </defs>
      <use xlink:href="#DejaVuSans-99"/>
      <use x="54.980469" xlink:href="#DejaVuSans-111"/>
      <use x="116.162109" xlink:href="#DejaVuSans-115"/>
      <use x="168.261719" xlink:href="#DejaVuSans-116"/>
     </g>
    </g>
   </g>
   <g id="line2d_45">
    <path clip-path="url(#pa730d0fd80)" d="M -1 34.933921 
L 60.696307 34.935026 
L 106.607796 36.994899 
L 133.464296 38.958297 
L 152.519286 40.957894 
L 167.299484 43.038616 
L 179.375785 45.217353 
L 189.586153 47.500213 
L 198.430775 49.88888 
L 206.232285 52.383238 
L 213.210973 54.982465 
L 219.523965 57.685485 
L 225.287275 60.491144 
L 230.589006 63.398238 
L 235.497642 66.405489 
L 240.067473 69.511379 
L 244.342265 72.714018 
L 248.357814 76.011104 
L 252.143774 79.399751 
L 255.724986 82.876228 
L 259.122463 86.436052 
L 262.354142 90.073738 
L 265.435454 93.782328 
L 268.379774 97.553227 
L 271.198764 101.37873 
L 273.902661 105.24857 
L 276.500495 109.147769 
L 279.000274 113.060834 
L 281.409131 116.969794 
L 283.73345 120.853486 
L 285.978963 124.689495 
L 288.150838 128.44901 
L 290.253754 132.105672 
L 292.291954 135.628913 
L 294.269303 138.990921 
L 296.18933 142.162731 
L 298.055264 145.120804 
L 299.87007 147.850782 
L 301.636475 150.355741 
L 303.356995 152.64729 
L 305.033952 154.753724 
L 306.669499 156.698482 
L 308.265631 158.488617 
L 309.824204 160.130992 
L 311.346944 161.654345 
L 312.835462 163.062867 
L 314.291263 164.362405 
L 315.715754 165.557797 
L 317.110254 166.665837 
L 318.475998 167.700446 
L 319.814151 168.674039 
L 321.125803 169.596081 
L 322.411985 170.47455 
L 323.673666 171.315085 
L 324.911764 172.117231 
L 326.127142 172.876339 
L 327.320621 173.58605 
L 328.492975 174.258425 
L 329.644939 174.908721 
L 330.777211 175.53486 
L 331.890452 176.137414 
L 332.985291 176.726589 
L 334.062328 177.290313 
L 335.122131 177.823079 
L 336.165243 178.330269 
L 337.192183 178.835688 
L 338.203444 179.350453 
L 339.199497 179.850443 
L 340.180793 180.320958 
L 341.147763 180.757894 
L 342.100819 181.158335 
L 343.040357 181.522347 
L 343.966753 181.872162 
L 344.880372 182.245674 
L 345.781559 182.642348 
L 346.67065 183.023082 
L 347.547965 183.371921 
L 348.413811 183.712869 
L 349.268484 184.053976 
L 350.11227 184.386095 
L 350.945442 184.699463 
L 351.768263 184.988749 
L 352.580988 185.255564 
L 353.383862 185.505214 
L 354.177121 185.747123 
L 354.960991 185.985056 
L 355.735693 186.222159 
L 356.501439 186.45694 
L 357.258433 186.69071 
L 358.006874 186.924202 
L 358.746952 187.158928 
L 359.478852 187.393777 
L 360.202753 187.625484 
L 360.918827 187.850936 
L 361.627244 188.067834 
L 362.328163 188.27579 
L 363.021743 188.474805 
L 363.708135 188.666072 
L 364.387488 188.850189 
L 365.059943 189.0281 
" style="fill:none;stroke:#1f77b4;stroke-linecap:square;stroke-width:1.5;"/>
   </g>
   <g id="line2d_46">
    <path clip-path="url(#pa730d0fd80)" d="M -1 32.212873 
L 60.696307 32.212877 
L 106.607796 32.223997 
L 133.464296 32.235114 
L 152.519286 32.246234 
L 167.299484 32.25735 
L 179.375785 32.257361 
L 189.586153 32.257371 
L 198.430775 32.257378 
L 206.232285 32.257392 
L 213.210973 32.257399 
L 219.523965 32.257413 
L 225.287275 32.257426 
L 230.589006 32.257447 
L 235.497642 32.257461 
L 240.067473 32.257482 
L 244.342265 32.257499 
L 248.357814 32.25752 
L 252.143774 32.257537 
L 255.724986 32.257558 
L 259.122463 32.257578 
L 262.354142 32.257603 
L 265.435454 32.257627 
L 268.379774 32.257651 
L 271.198764 32.257675 
L 273.902661 32.257699 
L 276.500495 32.257723 
L 279.000274 32.257751 
L 281.409131 32.257779 
L 283.73345 32.257806 
L 285.978963 32.257834 
L 288.150838 32.257862 
L 290.253754 32.257893 
L 292.291954 32.257924 
L 294.269303 32.257951 
L 296.18933 32.257986 
L 298.055264 32.258014 
L 299.87007 32.258045 
L 301.636475 32.258079 
L 303.356995 32.25811 
L 305.033952 32.258145 
L 306.669499 32.258179 
L 308.265631 32.258214 
L 309.824204 32.258248 
L 311.346944 32.258283 
L 312.835462 32.258318 
L 314.291263 32.258356 
L 315.715754 32.258394 
L 317.110254 32.258428 
L 318.475998 32.258463 
L 319.814151 32.258504 
L 321.125803 32.258546 
L 322.411985 32.25858 
L 323.673666 32.258622 
L 324.911764 32.258656 
L 326.127142 32.258697 
L 327.320621 32.258739 
L 328.492975 32.25878 
L 329.644939 32.258822 
L 330.777211 32.258863 
L 331.890452 32.258905 
L 332.985291 32.258946 
L 334.062328 32.258991 
L 335.122131 32.259033 
L 336.165243 32.259077 
L 337.192183 32.259119 
L 338.203444 32.259164 
L 339.199497 32.259209 
L 340.180793 32.25925 
L 341.147763 32.259299 
L 342.100819 32.259347 
L 343.040357 32.259388 
L 343.966753 32.259437 
L 344.880372 32.259485 
L 345.781559 32.25953 
L 346.67065 32.259575 
L 347.547965 32.259623 
L 348.413811 32.259672 
L 349.268484 32.25972 
L 350.11227 32.259768 
L 350.945442 32.259817 
L 351.768263 32.259865 
L 352.580988 32.259917 
L 353.383862 32.259969 
L 354.177121 32.260017 
L 354.960991 32.260069 
L 355.735693 32.260117 
L 356.501439 32.260169 
L 357.258433 32.260224 
L 358.006874 32.260273 
L 358.746952 32.260324 
L 359.478852 32.26038 
L 360.202753 32.260432 
L 360.918827 32.260483 
L 361.627244 32.260539 
L 362.328163 32.26059 
L 363.021743 32.260646 
L 363.708135 32.260698 
L 364.387488 32.260756 
L 365.059943 32.260808 
" style="fill:none;stroke:#ff7f0e;stroke-linecap:square;stroke-width:1.5;"/>
   </g>
   <g id="line2d_47">
    <path clip-path="url(#pa730d0fd80)" d="M -1 63.866923 
L 60.696307 63.879738 
L 106.607796 116.540178 
L 133.464296 173.359192 
L 152.519286 140.600933 
L 167.299484 107.272161 
L 179.375785 90.526774 
L 189.586153 83.212419 
L 198.430775 82.178444 
L 206.232285 86.006808 
L 213.210973 94.248854 
L 219.523965 107.05187 
L 225.287275 125.459562 
L 230.589006 150.527357 
L 235.497642 178.878974 
L 240.067473 185.314665 
L 244.342265 171.706762 
L 248.357814 151.132034 
L 252.143774 135.084938 
L 255.724986 127.17236 
L 259.122463 126.864167 
L 262.354142 133.435158 
L 265.435454 146.390725 
L 268.379774 164.349908 
L 271.198764 181.574706 
L 273.902661 192.06618 
L 276.500495 195.988252 
L 279.000274 191.365034 
L 281.409131 181.013032 
L 283.73345 171.590291 
L 285.978963 165.630167 
L 288.150838 163.346504 
L 290.253754 164.630076 
L 292.291954 169.339261 
L 294.269303 177.175647 
L 296.18933 187.385336 
L 298.055264 198.139818 
L 299.87007 205.731342 
L 301.636475 207.727288 
L 303.356995 205.686246 
L 305.033952 202.601878 
L 306.669499 199.583666 
L 308.265631 196.90511 
L 309.824204 195.199088 
L 311.346944 194.654385 
L 312.835462 195.468415 
L 314.291263 197.576933 
L 315.715754 200.651904 
L 317.110254 204.205376 
L 318.475998 207.65603 
L 319.814151 210.549033 
L 321.125803 212.747073 
L 322.411985 214.098146 
L 323.673666 214.641475 
L 324.911764 214.645835 
L 326.127142 214.37447 
L 327.320621 213.936403 
L 328.492975 213.727381 
L 329.644939 213.974389 
L 330.777211 214.740189 
L 331.890452 215.822937 
L 332.985291 217.107976 
L 334.062328 218.46291 
L 335.122131 219.527739 
L 336.165243 220.237168 
L 337.192183 220.58055 
L 338.203444 220.729321 
L 339.199497 220.78006 
L 340.180793 220.75396 
L 341.147763 220.816481 
L 342.100819 221.141192 
L 343.040357 221.482691 
L 343.966753 221.791279 
L 344.880372 222.173657 
L 345.781559 222.610344 
L 346.67065 223.114516 
L 347.547965 223.457513 
L 348.413811 223.660186 
L 349.268484 223.98037 
L 350.11227 224.184569 
L 350.945442 224.261375 
L 351.768263 224.466612 
L 352.580988 224.613292 
L 353.383862 224.799634 
L 354.177121 225.000007 
L 354.960991 225.111613 
L 355.735693 225.33052 
L 356.501439 225.489743 
L 357.258433 225.598616 
L 358.006874 225.781065 
L 358.746952 225.907853 
L 359.478852 226.087482 
L 360.202753 226.210545 
L 360.918827 226.257872 
L 361.627244 226.352731 
L 362.328163 226.463132 
L 363.021743 226.625819 
L 363.708135 226.784558 
L 364.387488 226.895084 
L 365.059943 226.996451 
" style="fill:none;stroke:#2ca02c;stroke-linecap:square;stroke-width:1.5;"/>
   </g>
   <g id="line2d_48">
    <path clip-path="url(#pa730d0fd80)" d="M -1 33.013836 
L 60.696307 33.014165 
L 106.607796 33.852665 
L 133.464296 34.709289 
L 152.519286 35.580094 
L 167.299484 36.462735 
L 179.375785 37.355676 
L 189.586153 38.257831 
L 198.430775 39.168402 
L 206.232285 40.08678 
L 213.210973 41.012491 
L 219.523965 41.94516 
L 225.287275 42.884482 
L 230.589006 43.83021 
L 235.497642 44.782138 
L 240.067473 45.7401 
L 244.342265 46.703956 
L 248.357814 47.673596 
L 252.143774 48.648922 
L 255.724986 49.629851 
L 259.122463 50.616327 
L 262.354142 51.6083 
L 265.435454 52.605732 
L 268.379774 53.608584 
L 271.198764 54.616843 
L 273.902661 55.630489 
L 276.500495 56.649515 
L 279.000274 57.673915 
L 281.409131 58.703702 
L 283.73345 59.738877 
L 285.978963 60.779451 
L 288.150838 61.825432 
L 290.253754 62.876844 
L 292.291954 63.93371 
L 294.269303 64.996045 
L 296.18933 66.063878 
L 298.055264 67.137225 
L 299.87007 68.216086 
L 301.636475 69.300483 
L 303.356995 70.390429 
L 305.033952 71.485943 
L 306.669499 72.587036 
L 308.265631 73.693723 
L 309.824204 74.806003 
L 311.346944 75.923884 
L 312.835462 77.047369 
L 314.291263 78.176437 
L 315.715754 79.311079 
L 317.110254 80.451282 
L 318.475998 81.597029 
L 319.814151 82.748291 
L 321.125803 83.905052 
L 322.411985 85.067281 
L 323.673666 86.234957 
L 324.911764 87.408035 
L 326.127142 88.586481 
L 327.320621 89.770245 
L 328.492975 90.959273 
L 329.644939 92.153502 
L 330.777211 93.35286 
L 331.890452 94.557256 
L 332.985291 95.76659 
L 334.062328 96.980761 
L 335.122131 98.199626 
L 336.165243 99.423048 
L 337.192183 100.650877 
L 338.203444 101.882951 
L 339.199497 103.119061 
L 340.180793 104.359008 
L 341.147763 105.602568 
L 342.100819 106.84948 
L 343.040357 108.099469 
L 343.966753 109.352249 
L 344.880372 110.60749 
L 345.781559 111.864841 
L 346.67065 113.123927 
L 347.547965 114.384345 
L 348.413811 115.645652 
L 349.268484 116.907384 
L 350.11227 118.169026 
L 350.945442 119.429974 
L 351.768263 120.68961 
L 352.580988 121.947253 
L 353.383862 123.202213 
L 354.177121 124.453744 
L 354.960991 125.701074 
L 355.735693 126.94337 
L 356.501439 128.17979 
L 357.258433 129.409409 
L 358.006874 130.631254 
L 358.746952 131.844294 
L 359.478852 133.047606 
L 360.202753 134.240258 
L 360.918827 135.421151 
L 361.627244 136.589362 
L 362.328163 137.743675 
L 363.021743 138.883089 
L 363.708135 140.0064 
L 364.387488 141.112455 
L 365.059943 142.200228 
" style="fill:none;stroke:#d62728;stroke-linecap:square;stroke-width:1.5;"/>
   </g>
   <g id="line2d_49">
    <path clip-path="url(#pa730d0fd80)" d="M -1 63.866928 
L 60.696307 63.879742 
L 106.607796 105.151195 
L 133.464296 153.12903 
L 152.519286 175.67647 
L 167.299484 162.878121 
L 179.375785 143.770786 
L 189.586153 130.51955 
L 198.430775 122.343664 
L 206.232285 117.736902 
L 213.210973 115.770652 
L 219.523965 115.834933 
L 225.287275 117.589646 
L 230.589006 120.808133 
L 235.497642 125.326422 
L 240.067473 131.051111 
L 244.342265 137.883501 
L 248.357814 145.732881 
L 252.143774 154.450253 
L 255.724986 163.723838 
L 259.122463 172.988646 
L 262.354142 181.363713 
L 265.435454 187.717024 
L 268.379774 191.290888 
L 271.198764 192.093038 
L 273.902661 191.098031 
L 276.500495 189.412077 
L 279.000274 187.63511 
L 281.409131 185.958545 
L 283.73345 184.466009 
L 285.978963 183.224461 
L 288.150838 182.284467 
L 290.253754 181.675587 
L 292.291954 181.418998 
L 294.269303 181.516615 
L 296.18933 181.954565 
L 298.055264 182.697973 
L 299.87007 183.69851 
L 301.636475 184.90489 
L 303.356995 186.251688 
L 305.033952 187.689893 
L 306.669499 189.159429 
L 308.265631 190.612909 
L 309.824204 192.013454 
L 311.346944 193.33918 
L 312.835462 194.571224 
L 314.291263 195.697444 
L 315.715754 196.71415 
L 317.110254 197.624506 
L 318.475998 198.431177 
L 319.814151 199.140761 
L 321.125803 199.761174 
L 322.411985 200.301101 
L 323.673666 200.774255 
L 324.911764 201.188636 
L 326.127142 201.55529 
L 327.320621 201.882126 
L 328.492975 202.176978 
L 329.644939 202.447814 
L 330.777211 202.700399 
L 331.890452 202.940679 
L 332.985291 203.173576 
L 334.062328 203.403423 
L 335.122131 203.633711 
L 336.165243 203.86679 
L 337.192183 204.103719 
L 338.203444 204.344919 
L 339.199497 204.589466 
L 340.180793 204.836397 
L 341.147763 205.086135 
L 342.100819 205.337719 
L 343.040357 205.58871 
L 343.966753 205.836911 
L 344.880372 206.079911 
L 345.781559 206.31552 
L 346.67065 206.544669 
L 347.547965 206.767479 
L 348.413811 206.982968 
L 349.268484 207.190834 
L 350.11227 207.39134 
L 350.945442 207.584622 
L 351.768263 207.771114 
L 352.580988 207.951313 
L 353.383862 208.125836 
L 354.177121 208.294466 
L 354.960991 208.458932 
L 355.735693 208.62054 
L 356.501439 208.780161 
L 357.258433 208.938005 
L 358.006874 209.093917 
L 358.746952 209.247177 
L 359.478852 209.397027 
L 360.202753 209.545922 
L 360.918827 209.694033 
L 361.627244 209.841219 
L 362.328163 209.985994 
L 363.021743 210.12769 
L 363.708135 210.268689 
L 364.387488 210.409345 
L 365.059943 210.549612 
" style="fill:none;stroke:#9467bd;stroke-linecap:square;stroke-width:1.5;"/>
   </g>
   <g id="line2d_50">
    <path clip-path="url(#pa730d0fd80)" d="M -1 32.212873 
L 60.696307 32.212877 
L 106.607796 32.223994 
L 133.464296 32.23511 
L 152.519286 32.24623 
L 167.299484 32.257343 
L 179.375785 32.26846 
L 189.586153 32.279577 
L 198.430775 32.290691 
L 206.232285 32.301808 
L 213.210973 32.312923 
L 219.523965 32.324037 
L 225.287275 32.335154 
L 230.589006 32.346269 
L 235.497642 32.35738 
L 240.067473 32.368498 
L 244.342265 32.37961 
L 248.357814 32.390725 
L 252.143774 32.401836 
L 255.724986 32.412952 
L 259.122463 32.424067 
L 262.354142 32.435179 
L 265.435454 32.446292 
L 268.379774 32.4574 
L 271.198764 32.468513 
L 273.902661 32.479626 
L 276.500495 32.490738 
L 279.000274 32.501851 
L 281.409131 32.512964 
L 283.73345 32.524077 
L 285.978963 32.535187 
L 288.150838 32.546293 
L 290.253754 32.557407 
L 292.291954 32.568521 
L 294.269303 32.579631 
L 296.18933 32.590734 
L 298.055264 32.601848 
L 299.87007 32.612955 
L 301.636475 32.624066 
L 303.356995 32.635177 
L 305.033952 32.646284 
L 306.669499 32.657392 
L 308.265631 32.668499 
L 309.824204 32.679611 
L 311.346944 32.690715 
L 312.835462 32.701826 
L 314.291263 32.712934 
L 315.715754 32.724043 
L 317.110254 32.735147 
L 318.475998 32.746256 
L 319.814151 32.757364 
L 321.125803 32.768469 
L 322.411985 32.779574 
L 323.673666 32.79068 
L 324.911764 32.801788 
L 326.127142 32.81289 
L 327.320621 32.823999 
L 328.492975 32.835105 
L 329.644939 32.846207 
L 330.777211 32.857313 
L 331.890452 32.868419 
L 332.985291 32.879521 
L 334.062328 32.890624 
L 335.122131 32.901733 
L 336.165243 32.912832 
L 337.192183 32.923939 
L 338.203444 32.935045 
L 339.199497 32.946144 
L 340.180793 32.957247 
L 341.147763 32.96835 
L 342.100819 32.979453 
L 343.040357 32.990557 
L 343.966753 33.001656 
L 344.880372 33.01276 
L 345.781559 33.023863 
L 346.67065 33.034963 
L 347.547965 33.046066 
L 348.413811 33.057163 
L 349.268484 33.068267 
L 350.11227 33.079363 
L 350.945442 33.090467 
L 351.768263 33.101567 
L 352.580988 33.112664 
L 353.383862 33.123768 
L 354.177121 33.134868 
L 354.960991 33.145965 
L 355.735693 33.157062 
L 356.501439 33.168163 
L 357.258433 33.17926 
L 358.006874 33.190357 
L 358.746952 33.201458 
L 359.478852 33.212559 
L 360.202753 33.223652 
L 360.918827 33.234753 
L 361.627244 33.245847 
L 362.328163 33.256944 
L 363.021743 33.268042 
L 363.708135 33.279139 
L 364.387488 33.290237 
L 365.059943 33.301331 
" style="fill:none;stroke:#8c564b;stroke-linecap:square;stroke-width:1.5;"/>
   </g>
   <g id="line2d_51">
    <path clip-path="url(#pa730d0fd80)" d="M -1 32.201779 
L 60.696307 32.201779 
L 106.607796 75.943351 
L 133.464296 110.643352 
L 152.519286 138.073279 
L 167.299484 152.414961 
L 179.375785 162.928328 
L 189.586153 169.105179 
L 198.430775 172.051545 
L 206.232285 173.565447 
L 213.210973 176.616807 
L 219.523965 180.631915 
L 225.287275 183.544084 
L 230.589006 186.408076 
L 235.497642 188.805153 
L 240.067473 190.169996 
L 244.342265 191.571122 
L 248.357814 193.395422 
L 252.143774 195.03162 
L 255.724986 196.628734 
L 259.122463 198.120276 
L 262.354142 199.459591 
L 265.435454 200.960525 
L 268.379774 202.194503 
L 271.198764 203.43433 
L 273.902661 204.75034 
L 276.500495 205.870122 
L 279.000274 206.860199 
L 281.409131 207.812552 
L 283.73345 208.65814 
L 285.978963 209.463783 
L 288.150838 210.364135 
L 290.253754 211.31099 
L 292.291954 212.172683 
L 294.269303 213.163109 
L 296.18933 214.102073 
L 298.055264 214.969777 
L 299.87007 215.841354 
L 301.636475 216.631418 
L 303.356995 217.346724 
L 305.033952 218.010017 
L 306.669499 218.59195 
L 308.265631 219.385213 
L 309.824204 220.067414 
L 311.346944 220.852851 
L 312.835462 221.533561 
L 314.291263 222.127824 
L 315.715754 222.632902 
L 317.110254 223.151814 
L 318.475998 223.633359 
L 319.814151 224.102504 
L 321.125803 224.507324 
L 322.411985 224.881825 
L 323.673666 225.204469 
L 324.911764 225.505196 
L 326.127142 225.799738 
L 327.320621 226.061652 
L 328.492975 226.357739 
L 329.644939 226.639629 
L 330.777211 226.837322 
L 331.890452 227.023755 
L 332.985291 227.210078 
L 334.062328 227.373559 
L 335.122131 227.566112 
L 336.165243 227.718494 
L 337.192183 227.884393 
L 338.203444 228.004809 
L 339.199497 228.110539 
L 340.180793 228.202604 
L 341.147763 228.286386 
L 342.100819 228.418992 
L 343.040357 228.521144 
L 343.966753 228.613011 
L 344.880372 228.695552 
L 345.781559 228.7647 
L 346.67065 228.854274 
L 347.547965 228.920737 
L 348.413811 229.007539 
L 349.268484 229.066261 
L 350.11227 229.11932 
L 350.945442 229.187107 
L 351.768263 229.251145 
L 352.580988 229.302237 
L 353.383862 229.351317 
L 354.177121 229.398616 
L 354.960991 229.432722 
L 355.735693 229.466196 
L 356.501439 229.507879 
L 357.258433 229.539568 
L 358.006874 229.572966 
L 358.746952 229.608742 
L 359.478852 229.640989 
L 360.202753 229.674714 
L 360.918827 229.706596 
L 361.627244 229.728536 
L 362.328163 229.7619 
L 363.021743 229.782833 
L 363.708135 229.812328 
L 364.387488 229.828689 
L 365.059943 229.874489 
" style="fill:none;stroke:#e377c2;stroke-linecap:square;stroke-width:1.5;"/>
   </g>
   <g id="line2d_52">
    <path clip-path="url(#pa730d0fd80)" d="M -1 63.86693 
L 60.696307 63.879744 
L 106.607796 88.595592 
L 133.464296 109.658984 
L 152.519286 126.734332 
L 167.299484 132.254683 
L 179.375785 131.479142 
L 189.586153 140.593511 
L 198.430775 150.357707 
L 206.232285 157.624307 
L 213.210973 162.228009 
L 219.523965 165.494436 
L 225.287275 168.157358 
L 230.589006 170.436324 
L 235.497642 172.613953 
L 240.067473 174.623554 
L 244.342265 176.409708 
L 248.357814 178.037726 
L 252.143774 179.556452 
L 255.724986 180.934716 
L 259.122463 182.16195 
L 262.354142 183.242428 
L 265.435454 184.18997 
L 268.379774 185.022286 
L 271.198764 185.750782 
L 273.902661 186.385629 
L 276.500495 186.933519 
L 279.000274 187.410225 
L 281.409131 187.833704 
L 283.73345 188.227622 
L 285.978963 188.603312 
L 288.150838 188.968171 
L 290.253754 189.314879 
L 292.291954 189.645229 
L 294.269303 189.959208 
L 296.18933 190.251763 
L 298.055264 190.515989 
L 299.87007 190.762383 
L 301.636475 190.995743 
L 303.356995 191.20984 
L 305.033952 191.392892 
L 306.669499 191.54092 
L 308.265631 191.656014 
L 309.824204 191.749577 
L 311.346944 191.836244 
L 312.835462 191.936302 
L 314.291263 192.061451 
L 315.715754 192.220299 
L 317.110254 192.409905 
L 318.475998 192.623927 
L 319.814151 192.853411 
L 321.125803 193.090864 
L 322.411985 193.334872 
L 323.673666 193.58364 
L 324.911764 193.839467 
L 326.127142 194.096621 
L 327.320621 194.350079 
L 328.492975 194.582308 
L 329.644939 194.774681 
L 330.777211 194.889398 
L 331.890452 194.87627 
L 332.985291 194.648547 
L 334.062328 194.116243 
L 335.122131 193.260196 
L 336.165243 192.292656 
L 337.192183 191.606078 
L 338.203444 191.470444 
L 339.199497 191.824809 
L 340.180793 192.436681 
L 341.147763 193.093002 
L 342.100819 193.67781 
L 343.040357 194.149169 
L 343.966753 194.513278 
L 344.880372 194.793921 
L 345.781559 195.018961 
L 346.67065 195.20913 
L 347.547965 195.382919 
L 348.413811 195.554086 
L 349.268484 195.739688 
L 350.11227 195.946483 
L 350.945442 196.176408 
L 351.768263 196.418761 
L 352.580988 196.664703 
L 353.383862 196.905693 
L 354.177121 197.135884 
L 354.960991 197.353452 
L 355.735693 197.555959 
L 356.501439 197.746782 
L 357.258433 197.925153 
L 358.006874 198.095553 
L 358.746952 198.255108 
L 359.478852 198.405356 
L 360.202753 198.539176 
L 360.918827 198.654022 
L 361.627244 198.74148 
L 362.328163 198.802009 
L 363.021743 198.834778 
L 363.708135 198.848716 
L 364.387488 198.84927 
L 365.059943 198.845139 
" style="fill:none;stroke:#7f7f7f;stroke-linecap:square;stroke-width:1.5;"/>
   </g>
   <g id="line2d_53">
    <path clip-path="url(#pa730d0fd80)" d="M -1 34.802559 
L 60.696307 34.803612 
L 106.607796 37.505465 
L 133.464296 40.315066 
L 152.519286 43.24106 
L 167.299484 46.293141 
L 179.375785 49.482195 
L 189.586153 52.820497 
L 198.430775 56.321962 
L 206.232285 60.002379 
L 213.210973 63.879742 
L 219.523965 67.974607 
L 225.287275 72.310246 
L 230.589006 76.913084 
L 235.497642 81.812869 
L 240.067473 87.042855 
L 244.342265 92.64003 
L 248.357814 98.644067 
L 252.143774 105.094089 
L 255.724986 112.021888 
L 259.122463 119.437152 
L 262.354142 127.29426 
L 265.435454 135.427677 
L 268.379774 143.468681 
L 271.198764 150.925973 
L 273.902661 157.521082 
L 276.500495 163.220113 
L 279.000274 168.3814 
L 281.409131 173.023865 
L 283.73345 176.521632 
L 285.978963 178.718634 
L 288.150838 180.202311 
L 290.253754 181.347164 
L 292.291954 182.543447 
L 294.269303 183.714572 
L 296.18933 184.837953 
L 298.055264 185.863612 
L 299.87007 186.778971 
L 301.636475 187.606782 
L 303.356995 188.337852 
L 305.033952 189.009502 
L 306.669499 189.608006 
L 308.265631 190.13888 
L 309.824204 190.656516 
L 311.346944 191.121853 
L 312.835462 191.534724 
L 314.291263 191.92818 
L 315.715754 192.299209 
L 317.110254 192.671588 
L 318.475998 193.039418 
L 319.814151 193.37976 
L 321.125803 193.712551 
L 322.411985 194.043174 
L 323.673666 194.361976 
L 324.911764 194.660956 
L 326.127142 194.964315 
L 327.320621 195.256705 
L 328.492975 195.544417 
L 329.644939 195.828296 
L 330.777211 196.099044 
L 331.890452 196.36706 
L 332.985291 196.638603 
L 334.062328 196.897293 
L 335.122131 197.15285 
L 336.165243 197.404533 
L 337.192183 197.650698 
L 338.203444 197.890303 
L 339.199497 198.133369 
L 340.180793 198.371172 
L 341.147763 198.604108 
L 342.100819 198.830805 
L 343.040357 199.059904 
L 343.966753 199.288618 
L 344.880372 199.513732 
L 345.781559 199.732502 
L 346.67065 199.935518 
L 347.547965 200.147021 
L 348.413811 200.350696 
L 349.268484 200.535159 
L 350.11227 200.722123 
L 350.945442 200.907001 
L 351.768263 201.090837 
L 352.580988 201.266717 
L 353.383862 201.437953 
L 354.177121 201.610919 
L 354.960991 201.776244 
L 355.735693 201.94661 
L 356.501439 202.113203 
L 357.258433 202.274465 
L 358.006874 202.43255 
L 358.746952 202.588787 
L 359.478852 202.746768 
L 360.202753 202.906219 
L 360.918827 203.068294 
L 361.627244 203.230279 
L 362.328163 203.390528 
L 363.021743 203.545238 
L 363.708135 203.702679 
L 364.387488 203.852015 
L 365.059943 204.000975 
" style="fill:none;stroke:#bcbd22;stroke-linecap:square;stroke-width:1.5;"/>
   </g>
   <g id="line2d_54">
    <path clip-path="url(#pa730d0fd80)" d="M -1 49.315494 
L 60.696307 49.319157 
L 106.607796 59.610659 
L 133.464296 71.475555 
L 152.519286 85.349008 
L 167.299484 101.697154 
L 179.375785 120.539591 
L 189.586153 125.512578 
L 198.430775 130.526128 
L 206.232285 135.550625 
L 213.210973 140.562389 
L 219.523965 145.547304 
L 225.287275 150.501364 
L 230.589006 155.411832 
L 235.497642 160.245262 
L 240.067473 164.917575 
L 244.342265 169.304168 
L 248.357814 173.25959 
L 252.143774 176.601462 
L 255.724986 176.845719 
L 259.122463 177.061637 
L 262.354142 177.840349 
L 265.435454 178.577846 
L 268.379774 178.778605 
L 271.198764 179.520306 
L 273.902661 180.21802 
L 276.500495 180.41006 
L 279.000274 181.114258 
L 281.409131 181.758952 
L 283.73345 181.947887 
L 285.978963 182.6088 
L 288.150838 182.786687 
L 290.253754 185.140264 
L 292.291954 185.409502 
L 294.269303 185.595378 
L 296.18933 186.150185 
L 298.055264 186.323919 
L 299.87007 186.904282 
L 301.636475 187.064503 
L 303.356995 189.268545 
L 305.033952 189.333692 
L 306.669499 189.391919 
L 308.265631 189.44401 
L 309.824204 189.490943 
L 311.346944 189.641196 
L 312.835462 191.818413 
L 314.291263 191.864507 
L 315.715754 191.905902 
L 317.110254 192.041472 
L 318.475998 193.999062 
L 319.814151 194.060678 
L 321.125803 194.11424 
L 322.411985 194.16085 
L 323.673666 194.201931 
L 324.911764 194.330466 
L 326.127142 194.811438 
L 327.320621 194.848978 
L 328.492975 194.971513 
L 329.644939 195.426005 
L 330.777211 195.467773 
L 331.890452 195.504546 
L 332.985291 195.624504 
L 334.062328 196.057629 
L 335.122131 196.102297 
L 336.165243 196.140835 
L 337.192183 196.175275 
L 338.203444 196.294123 
L 339.199497 196.718629 
L 340.180793 196.763652 
L 341.147763 196.802182 
L 342.100819 196.836343 
L 343.040357 196.95296 
L 343.966753 197.072325 
L 344.880372 197.515964 
L 345.781559 197.555213 
L 346.67065 197.589507 
L 347.547965 197.703173 
L 348.413811 197.81978 
L 349.268484 198.234146 
L 350.11227 198.278179 
L 350.945442 198.315363 
L 351.768263 198.34812 
L 352.580988 198.460774 
L 353.383862 198.575381 
L 354.177121 198.970149 
L 354.960991 199.016861 
L 355.735693 199.055712 
L 356.501439 199.089128 
L 357.258433 199.198125 
L 358.006874 199.309401 
L 358.746952 199.421717 
L 359.478852 199.534509 
L 360.202753 199.919205 
L 360.918827 199.966314 
L 361.627244 200.005063 
L 362.328163 200.038021 
L 363.021743 200.144071 
L 363.708135 200.251719 
L 364.387488 200.360122 
L 365.059943 200.468832 
" style="fill:none;stroke:#17becf;stroke-dasharray:5.55,2.4;stroke-dashoffset:0;stroke-width:1.5;"/>
   </g>
   <g id="line2d_55">
    <path clip-path="url(#pa730d0fd80)" d="M -1 147.502381 
L 60.696307 147.506403 
L 106.607796 152.352605 
L 133.464296 155.788746 
L 152.519286 158.01431 
L 167.299484 159.992869 
L 179.375785 161.77187 
L 189.586153 163.387145 
L 198.430775 164.861991 
L 206.232285 166.215452 
L 213.210973 167.462208 
L 219.523965 168.616302 
L 225.287275 169.522291 
L 230.589006 176.435542 
L 235.497642 180.259011 
L 240.067473 181.910749 
L 244.342265 182.995227 
L 248.357814 184.100519 
L 252.143774 184.858576 
L 255.724986 185.301153 
L 259.122463 185.651982 
L 262.354142 185.991663 
L 265.435454 186.322304 
L 268.379774 186.644537 
L 271.198764 186.960587 
L 273.902661 187.268951 
L 276.500495 187.57006 
L 279.000274 187.863939 
L 281.409131 188.157855 
L 283.73345 188.445079 
L 285.978963 188.725797 
L 288.150838 189.000006 
L 290.253754 189.274112 
L 292.291954 189.541964 
L 294.269303 189.804038 
L 296.18933 190.060428 
L 298.055264 190.315165 
L 299.87007 190.564478 
L 301.636475 190.808688 
L 303.356995 191.047914 
L 305.033952 191.284793 
L 306.669499 191.516999 
L 308.265631 191.744784 
L 309.824204 191.968196 
L 311.346944 192.189482 
L 312.835462 192.406262 
L 314.291263 192.619729 
L 315.715754 192.829317 
L 317.110254 193.037371 
L 318.475998 193.241766 
L 319.814151 193.443373 
L 321.125803 193.63751 
L 322.411985 193.829785 
L 323.673666 194.012159 
L 324.911764 194.192929 
L 326.127142 194.36613 
L 327.320621 194.53738 
L 328.492975 194.704673 
L 329.644939 194.870267 
L 330.777211 195.033384 
L 331.890452 195.194894 
L 332.985291 195.354242 
L 334.062328 195.51201 
L 335.122131 195.667767 
L 336.165243 195.821983 
L 337.192183 195.952024 
L 338.203444 198.561862 
L 339.199497 200.665202 
L 340.180793 200.816321 
L 341.147763 200.956955 
L 342.100819 206.335308 
L 343.040357 207.488866 
L 343.966753 207.639217 
L 344.880372 207.721921 
L 345.781559 207.790434 
L 346.67065 207.85717 
L 347.547965 207.923452 
L 348.413811 207.989336 
L 349.268484 208.054854 
L 350.11227 208.120168 
L 350.945442 208.185165 
L 351.768263 208.249861 
L 352.580988 208.314118 
L 353.383862 208.378438 
L 354.177121 208.442491 
L 354.960991 208.506276 
L 355.735693 208.569767 
L 356.501439 208.633515 
L 357.258433 208.696891 
L 358.006874 208.760101 
L 358.746952 208.822865 
L 359.478852 208.886218 
L 360.202753 208.949073 
L 360.918827 209.011987 
L 361.627244 209.074309 
L 362.328163 209.136952 
L 363.021743 209.198947 
L 363.708135 209.261275 
L 364.387488 209.322894 
L 365.059943 209.384577 
" style="fill:none;stroke:#1f77b4;stroke-dasharray:5.55,2.4;stroke-dashoffset:0;stroke-width:1.5;"/>
   </g>
   <g id="line2d_56">
    <path clip-path="url(#pa730d0fd80)" d="M -1 165.656006 
L 60.696307 165.667375 
L 106.607796 186.243866 
L 133.464296 204.578443 
L 152.519286 216.521516 
L 167.299484 222.984905 
L 179.375785 224.249776 
L 189.586153 225.599732 
L 198.430775 227.12198 
L 206.232285 228.137929 
" style="fill:none;stroke:#ff7f0e;stroke-dasharray:5.55,2.4;stroke-dashoffset:0;stroke-width:1.5;"/>
   </g>
   <g id="line2d_57">
    <path clip-path="url(#pa730d0fd80)" d="M -1 32.201761 
L 60.696307 32.201761 
L 106.607796 32.201761 
L 133.464296 32.201761 
L 152.519286 32.201761 
L 167.299484 32.201761 
L 179.375785 32.201761 
L 189.586153 32.201761 
L 198.430775 32.201761 
L 206.232285 32.201761 
L 213.210973 32.201761 
L 219.523965 32.201761 
L 225.287275 32.201761 
L 230.589006 32.201761 
L 235.497642 32.201761 
L 240.067473 32.201761 
L 244.342265 32.201761 
L 248.357814 32.201761 
L 252.143774 32.201761 
L 255.724986 32.201761 
L 259.122463 32.201761 
L 262.354142 32.201761 
L 265.435454 32.201761 
L 268.379774 32.201761 
L 271.198764 32.201761 
L 273.902661 32.201761 
L 276.500495 32.201761 
L 279.000274 32.201761 
L 281.409131 32.201761 
L 283.73345 32.201761 
L 285.978963 32.201761 
L 288.150838 32.201761 
L 290.253754 32.201761 
L 292.291954 32.201761 
L 294.269303 32.201761 
L 296.18933 32.201761 
L 298.055264 32.201761 
L 299.87007 32.201761 
L 301.636475 32.201761 
L 303.356995 32.201761 
L 305.033952 32.201761 
L 306.669499 32.201761 
L 308.265631 32.201761 
L 309.824204 32.201761 
L 311.346944 32.201761 
L 312.835462 32.201761 
L 314.291263 32.201761 
L 315.715754 32.201761 
L 317.110254 32.201761 
L 318.475998 32.201761 
L 319.814151 32.201761 
L 321.125803 32.201761 
L 322.411985 32.201761 
L 323.673666 32.201761 
L 324.911764 32.201761 
L 326.127142 32.201761 
L 327.320621 32.201761 
L 328.492975 32.201761 
L 329.644939 32.201761 
L 330.777211 32.201761 
L 331.890452 32.201761 
L 332.985291 32.201761 
L 334.062328 32.201761 
L 335.122131 32.201761 
L 336.165243 32.201761 
L 337.192183 32.201761 
L 338.203444 32.201761 
L 339.199497 32.201761 
L 340.180793 32.201761 
L 341.147763 32.201761 
L 342.100819 32.201761 
L 343.040357 32.201761 
L 343.966753 32.201761 
L 344.880372 32.201761 
L 345.781559 32.201761 
L 346.67065 32.201761 
L 347.547965 32.201761 
L 348.413811 32.201761 
L 349.268484 32.201761 
L 350.11227 32.201761 
L 350.945442 32.201761 
L 351.768263 32.201761 
L 352.580988 32.201761 
L 353.383862 32.201761 
L 354.177121 32.201761 
L 354.960991 32.201761 
L 355.735693 32.201761 
L 356.501439 32.201761 
L 357.258433 32.201761 
L 358.006874 32.201761 
L 358.746952 32.201761 
L 359.478852 32.201761 
L 360.202753 32.201761 
L 360.918827 32.201761 
L 361.627244 32.201761 
L 362.328163 32.201761 
L 363.021743 32.201761 
L 363.708135 32.201761 
L 364.387488 32.201761 
L 365.059943 32.201761 
" style="fill:none;stroke:#2ca02c;stroke-dasharray:5.55,2.4;stroke-dashoffset:0;stroke-width:1.5;"/>
   </g>
   <g id="patch_3">
    <path d="M 45.478125 239.758125 
L 45.478125 22.318125 
" style="fill:none;stroke:#000000;stroke-linecap:square;stroke-linejoin:miter;stroke-width:0.8;"/>
   </g>
   <g id="patch_4">
    <path d="M 380.278125 239.758125 
L 380.278125 22.318125 
" style="fill:none;stroke:#000000;stroke-linecap:square;stroke-linejoin:miter;stroke-width:0.8;"/>
   </g>
   <g id="patch_5">
    <path d="M 45.478125 239.758125 
L 380.278125 239.758125 
" style="fill:none;stroke:#000000;stroke-linecap:square;stroke-linejoin:miter;stroke-width:0.8;"/>
   </g>
   <g id="patch_6">
    <path d="M 45.478125 22.318125 
L 380.278125 22.318125 
" style="fill:none;stroke:#000000;stroke-linecap:square;stroke-linejoin:miter;stroke-width:0.8;"/>
   </g>
   <g id="text_9">
    <!-- TGG119 - Head &amp; Neck -->
    <g transform="translate(143.3475 16.318125)scale(0.12 -0.12)">
     <defs>
      <path d="M -0.296875 72.90625 
L 61.375 72.90625 
L 61.375 64.59375 
L 35.5 64.59375 
L 35.5 0 
L 25.59375 0 
L 25.59375 64.59375 
L -0.296875 64.59375 
z
" id="DejaVuSans-84"/>
      <path d="M 59.515625 10.40625 
L 59.515625 29.984375 
L 43.40625 29.984375 
L 43.40625 38.09375 
L 69.28125 38.09375 
L 69.28125 6.78125 
Q 63.578125 2.734375 56.6875 0.65625 
Q 49.8125 -1.421875 42 -1.421875 
Q 24.90625 -1.421875 15.25 8.5625 
Q 5.609375 18.5625 5.609375 36.375 
Q 5.609375 54.25 15.25 64.234375 
Q 24.90625 74.21875 42 74.21875 
Q 49.125 74.21875 55.546875 72.453125 
Q 61.96875 70.703125 67.390625 67.28125 
L 67.390625 56.78125 
Q 61.921875 61.421875 55.765625 63.765625 
Q 49.609375 66.109375 42.828125 66.109375 
Q 29.4375 66.109375 22.71875 58.640625 
Q 16.015625 51.171875 16.015625 36.375 
Q 16.015625 21.625 22.71875 14.15625 
Q 29.4375 6.6875 42.828125 6.6875 
Q 48.046875 6.6875 52.140625 7.59375 
Q 56.25 8.5 59.515625 10.40625 
z
" id="DejaVuSans-71"/>
      <path d="M 10.984375 1.515625 
L 10.984375 10.5 
Q 14.703125 8.734375 18.5 7.8125 
Q 22.3125 6.890625 25.984375 6.890625 
Q 35.75 6.890625 40.890625 13.453125 
Q 46.046875 20.015625 46.78125 33.40625 
Q 43.953125 29.203125 39.59375 26.953125 
Q 35.25 24.703125 29.984375 24.703125 
Q 19.046875 24.703125 12.671875 31.3125 
Q 6.296875 37.9375 6.296875 49.421875 
Q 6.296875 60.640625 12.9375 67.421875 
Q 19.578125 74.21875 30.609375 74.21875 
Q 43.265625 74.21875 49.921875 64.515625 
Q 56.59375 54.828125 56.59375 36.375 
Q 56.59375 19.140625 48.40625 8.859375 
Q 40.234375 -1.421875 26.421875 -1.421875 
Q 22.703125 -1.421875 18.890625 -0.6875 
Q 15.09375 0.046875 10.984375 1.515625 
z
M 30.609375 32.421875 
Q 37.25 32.421875 41.125 36.953125 
Q 45.015625 41.5 45.015625 49.421875 
Q 45.015625 57.28125 41.125 61.84375 
Q 37.25 66.40625 30.609375 66.40625 
Q 23.96875 66.40625 20.09375 61.84375 
Q 16.21875 57.28125 16.21875 49.421875 
Q 16.21875 41.5 20.09375 36.953125 
Q 23.96875 32.421875 30.609375 32.421875 
z
" id="DejaVuSans-57"/>
      <path id="DejaVuSans-32"/>
      <path d="M 4.890625 31.390625 
L 31.203125 31.390625 
L 31.203125 23.390625 
L 4.890625 23.390625 
z
" id="DejaVuSans-45"/>
      <path d="M 9.8125 72.90625 
L 19.671875 72.90625 
L 19.671875 43.015625 
L 55.515625 43.015625 
L 55.515625 72.90625 
L 65.375 72.90625 
L 65.375 0 
L 55.515625 0 
L 55.515625 34.71875 
L 19.671875 34.71875 
L 19.671875 0 
L 9.8125 0 
z
" id="DejaVuSans-72"/>
      <path d="M 45.40625 46.390625 
L 45.40625 75.984375 
L 54.390625 75.984375 
L 54.390625 0 
L 45.40625 0 
L 45.40625 8.203125 
Q 42.578125 3.328125 38.25 0.953125 
Q 33.9375 -1.421875 27.875 -1.421875 
Q 17.96875 -1.421875 11.734375 6.484375 
Q 5.515625 14.40625 5.515625 27.296875 
Q 5.515625 40.1875 11.734375 48.09375 
Q 17.96875 56 27.875 56 
Q 33.9375 56 38.25 53.625 
Q 42.578125 51.265625 45.40625 46.390625 
z
M 14.796875 27.296875 
Q 14.796875 17.390625 18.875 11.75 
Q 22.953125 6.109375 30.078125 6.109375 
Q 37.203125 6.109375 41.296875 11.75 
Q 45.40625 17.390625 45.40625 27.296875 
Q 45.40625 37.203125 41.296875 42.84375 
Q 37.203125 48.484375 30.078125 48.484375 
Q 22.953125 48.484375 18.875 42.84375 
Q 14.796875 37.203125 14.796875 27.296875 
z
" id="DejaVuSans-100"/>
      <path d="M 24.3125 39.203125 
Q 19.875 35.25 17.796875 31.3125 
Q 15.71875 27.390625 15.71875 23.09375 
Q 15.71875 15.96875 20.890625 11.234375 
Q 26.078125 6.5 33.890625 6.5 
Q 38.53125 6.5 42.578125 8.03125 
Q 46.625 9.578125 50.203125 12.703125 
z
M 31.203125 44.671875 
L 56 19.28125 
Q 58.890625 23.640625 60.5 28.59375 
Q 62.109375 33.546875 62.40625 39.109375 
L 71.484375 39.109375 
Q 70.90625 32.671875 68.359375 26.359375 
Q 65.828125 20.0625 61.28125 13.921875 
L 74.90625 0 
L 62.59375 0 
L 55.609375 7.171875 
Q 50.53125 2.828125 44.96875 0.703125 
Q 39.40625 -1.421875 33.015625 -1.421875 
Q 21.234375 -1.421875 13.765625 5.296875 
Q 6.296875 12.015625 6.296875 22.515625 
Q 6.296875 28.765625 9.5625 34.25 
Q 12.84375 39.75 19.390625 44.578125 
Q 17.046875 47.65625 15.8125 50.703125 
Q 14.59375 53.765625 14.59375 56.6875 
Q 14.59375 64.59375 20.015625 69.40625 
Q 25.4375 74.21875 34.421875 74.21875 
Q 38.484375 74.21875 42.5 73.34375 
Q 46.53125 72.46875 50.6875 70.703125 
L 50.6875 61.8125 
Q 46.4375 64.109375 42.578125 65.296875 
Q 38.71875 66.5 35.40625 66.5 
Q 30.28125 66.5 27.078125 63.78125 
Q 23.875 61.078125 23.875 56.78125 
Q 23.875 54.296875 25.3125 51.78125 
Q 26.765625 49.265625 31.203125 44.671875 
z
" id="DejaVuSans-38"/>
      <path d="M 9.8125 72.90625 
L 23.09375 72.90625 
L 55.421875 11.921875 
L 55.421875 72.90625 
L 64.984375 72.90625 
L 64.984375 0 
L 51.703125 0 
L 19.390625 60.984375 
L 19.390625 0 
L 9.8125 0 
z
" id="DejaVuSans-78"/>
      <path d="M 9.078125 75.984375 
L 18.109375 75.984375 
L 18.109375 31.109375 
L 44.921875 54.6875 
L 56.390625 54.6875 
L 27.390625 29.109375 
L 57.625 0 
L 45.90625 0 
L 18.109375 26.703125 
L 18.109375 0 
L 9.078125 0 
z
" id="DejaVuSans-107"/>
     </defs>
     <use xlink:href="#DejaVuSans-84"/>
     <use x="61.083984" xlink:href="#DejaVuSans-71"/>
     <use x="138.574219" xlink:href="#DejaVuSans-71"/>
     <use x="216.064453" xlink:href="#DejaVuSans-49"/>
     <use x="279.6875" xlink:href="#DejaVuSans-49"/>
     <use x="343.310547" xlink:href="#DejaVuSans-57"/>
     <use x="406.933594" xlink:href="#DejaVuSans-32"/>
     <use x="438.720703" xlink:href="#DejaVuSans-45"/>
     <use x="474.804688" xlink:href="#DejaVuSans-32"/>
     <use x="506.591797" xlink:href="#DejaVuSans-72"/>
     <use x="581.787109" xlink:href="#DejaVuSans-101"/>
     <use x="643.310547" xlink:href="#DejaVuSans-97"/>
     <use x="704.589844" xlink:href="#DejaVuSans-100"/>
     <use x="768.066406" xlink:href="#DejaVuSans-32"/>
     <use x="799.853516" xlink:href="#DejaVuSans-38"/>
     <use x="877.832031" xlink:href="#DejaVuSans-32"/>
     <use x="909.619141" xlink:href="#DejaVuSans-78"/>
     <use x="984.423828" xlink:href="#DejaVuSans-101"/>
     <use x="1045.947266" xlink:href="#DejaVuSans-99"/>
     <use x="1100.927734" xlink:href="#DejaVuSans-107"/>
    </g>
   </g>
   <g id="legend_1">
    <g id="patch_7">
     <path d="M 390.626125 221.13375 
L 479.15425 221.13375 
Q 481.15425 221.13375 481.15425 219.13375 
L 481.15425 29.318125 
Q 481.15425 27.318125 479.15425 27.318125 
L 390.626125 27.318125 
Q 388.626125 27.318125 388.626125 29.318125 
L 388.626125 219.13375 
Q 388.626125 221.13375 390.626125 221.13375 
z
" style="fill:#ffffff;opacity:0.8;stroke:#cccccc;stroke-linejoin:miter;"/>
    </g>
    <g id="line2d_58">
     <path d="M 392.626125 35.416562 
L 412.626125 35.416562 
" style="fill:none;stroke:#1f77b4;stroke-linecap:square;stroke-width:1.5;"/>
    </g>
    <g id="line2d_59"/>
    <g id="text_10">
     <!-- NAdam -->
     <g transform="translate(420.626125 38.916562)scale(0.1 -0.1)">
      <defs>
       <path d="M 34.1875 63.1875 
L 20.796875 26.90625 
L 47.609375 26.90625 
z
M 28.609375 72.90625 
L 39.796875 72.90625 
L 67.578125 0 
L 57.328125 0 
L 50.6875 18.703125 
L 17.828125 18.703125 
L 11.1875 0 
L 0.78125 0 
z
" id="DejaVuSans-65"/>
       <path d="M 52 44.1875 
Q 55.375 50.25 60.0625 53.125 
Q 64.75 56 71.09375 56 
Q 79.640625 56 84.28125 50.015625 
Q 88.921875 44.046875 88.921875 33.015625 
L 88.921875 0 
L 79.890625 0 
L 79.890625 32.71875 
Q 79.890625 40.578125 77.09375 44.375 
Q 74.3125 48.1875 68.609375 48.1875 
Q 61.625 48.1875 57.5625 43.546875 
Q 53.515625 38.921875 53.515625 30.90625 
L 53.515625 0 
L 44.484375 0 
L 44.484375 32.71875 
Q 44.484375 40.625 41.703125 44.40625 
Q 38.921875 48.1875 33.109375 48.1875 
Q 26.21875 48.1875 22.15625 43.53125 
Q 18.109375 38.875 18.109375 30.90625 
L 18.109375 0 
L 9.078125 0 
L 9.078125 54.6875 
L 18.109375 54.6875 
L 18.109375 46.1875 
Q 21.1875 51.21875 25.484375 53.609375 
Q 29.78125 56 35.6875 56 
Q 41.65625 56 45.828125 52.96875 
Q 50 49.953125 52 44.1875 
z
" id="DejaVuSans-109"/>
      </defs>
      <use xlink:href="#DejaVuSans-78"/>
      <use x="74.804688" xlink:href="#DejaVuSans-65"/>
      <use x="141.462891" xlink:href="#DejaVuSans-100"/>
      <use x="204.939453" xlink:href="#DejaVuSans-97"/>
      <use x="266.21875" xlink:href="#DejaVuSans-109"/>
     </g>
    </g>
    <g id="line2d_60">
     <path d="M 392.626125 50.094687 
L 412.626125 50.094687 
" style="fill:none;stroke:#ff7f0e;stroke-linecap:square;stroke-width:1.5;"/>
    </g>
    <g id="line2d_61"/>
    <g id="text_11">
     <!-- RAdam -->
     <g transform="translate(420.626125 53.594687)scale(0.1 -0.1)">
      <defs>
       <path d="M 44.390625 34.1875 
Q 47.5625 33.109375 50.5625 29.59375 
Q 53.5625 26.078125 56.59375 19.921875 
L 66.609375 0 
L 56 0 
L 46.6875 18.703125 
Q 43.0625 26.03125 39.671875 28.421875 
Q 36.28125 30.8125 30.421875 30.8125 
L 19.671875 30.8125 
L 19.671875 0 
L 9.8125 0 
L 9.8125 72.90625 
L 32.078125 72.90625 
Q 44.578125 72.90625 50.734375 67.671875 
Q 56.890625 62.453125 56.890625 51.90625 
Q 56.890625 45.015625 53.6875 40.46875 
Q 50.484375 35.9375 44.390625 34.1875 
z
M 19.671875 64.796875 
L 19.671875 38.921875 
L 32.078125 38.921875 
Q 39.203125 38.921875 42.84375 42.21875 
Q 46.484375 45.515625 46.484375 51.90625 
Q 46.484375 58.296875 42.84375 61.546875 
Q 39.203125 64.796875 32.078125 64.796875 
z
" id="DejaVuSans-82"/>
      </defs>
      <use xlink:href="#DejaVuSans-82"/>
      <use x="65.482422" xlink:href="#DejaVuSans-65"/>
      <use x="132.140625" xlink:href="#DejaVuSans-100"/>
      <use x="195.617188" xlink:href="#DejaVuSans-97"/>
      <use x="256.896484" xlink:href="#DejaVuSans-109"/>
     </g>
    </g>
    <g id="line2d_62">
     <path d="M 392.626125 64.772812 
L 412.626125 64.772812 
" style="fill:none;stroke:#2ca02c;stroke-linecap:square;stroke-width:1.5;"/>
    </g>
    <g id="line2d_63"/>
    <g id="text_12">
     <!-- Adam -->
     <g transform="translate(420.626125 68.272812)scale(0.1 -0.1)">
      <use xlink:href="#DejaVuSans-65"/>
      <use x="66.658203" xlink:href="#DejaVuSans-100"/>
      <use x="130.134766" xlink:href="#DejaVuSans-97"/>
      <use x="191.414062" xlink:href="#DejaVuSans-109"/>
     </g>
    </g>
    <g id="line2d_64">
     <path d="M 392.626125 79.450937 
L 412.626125 79.450937 
" style="fill:none;stroke:#d62728;stroke-linecap:square;stroke-width:1.5;"/>
    </g>
    <g id="line2d_65"/>
    <g id="text_13">
     <!-- Adadelta -->
     <g transform="translate(420.626125 82.950937)scale(0.1 -0.1)">
      <defs>
       <path d="M 9.421875 75.984375 
L 18.40625 75.984375 
L 18.40625 0 
L 9.421875 0 
z
" id="DejaVuSans-108"/>
      </defs>
      <use xlink:href="#DejaVuSans-65"/>
      <use x="66.658203" xlink:href="#DejaVuSans-100"/>
      <use x="130.134766" xlink:href="#DejaVuSans-97"/>
      <use x="191.414062" xlink:href="#DejaVuSans-100"/>
      <use x="254.890625" xlink:href="#DejaVuSans-101"/>
      <use x="316.414062" xlink:href="#DejaVuSans-108"/>
      <use x="344.197266" xlink:href="#DejaVuSans-116"/>
      <use x="383.40625" xlink:href="#DejaVuSans-97"/>
     </g>
    </g>
    <g id="line2d_66">
     <path d="M 392.626125 94.129062 
L 412.626125 94.129062 
" style="fill:none;stroke:#9467bd;stroke-linecap:square;stroke-width:1.5;"/>
    </g>
    <g id="line2d_67"/>
    <g id="text_14">
     <!-- Adamax -->
     <g transform="translate(420.626125 97.629062)scale(0.1 -0.1)">
      <defs>
       <path d="M 54.890625 54.6875 
L 35.109375 28.078125 
L 55.90625 0 
L 45.3125 0 
L 29.390625 21.484375 
L 13.484375 0 
L 2.875 0 
L 24.125 28.609375 
L 4.6875 54.6875 
L 15.28125 54.6875 
L 29.78125 35.203125 
L 44.28125 54.6875 
z
" id="DejaVuSans-120"/>
      </defs>
      <use xlink:href="#DejaVuSans-65"/>
      <use x="66.658203" xlink:href="#DejaVuSans-100"/>
      <use x="130.134766" xlink:href="#DejaVuSans-97"/>
      <use x="191.414062" xlink:href="#DejaVuSans-109"/>
      <use x="288.826172" xlink:href="#DejaVuSans-97"/>
      <use x="350.105469" xlink:href="#DejaVuSans-120"/>
     </g>
    </g>
    <g id="line2d_68">
     <path d="M 392.626125 108.807187 
L 412.626125 108.807187 
" style="fill:none;stroke:#8c564b;stroke-linecap:square;stroke-width:1.5;"/>
    </g>
    <g id="line2d_69"/>
    <g id="text_15">
     <!-- SGD -->
     <g transform="translate(420.626125 112.307187)scale(0.1 -0.1)">
      <defs>
       <path d="M 53.515625 70.515625 
L 53.515625 60.890625 
Q 47.90625 63.578125 42.921875 64.890625 
Q 37.9375 66.21875 33.296875 66.21875 
Q 25.25 66.21875 20.875 63.09375 
Q 16.5 59.96875 16.5 54.203125 
Q 16.5 49.359375 19.40625 46.890625 
Q 22.3125 44.4375 30.421875 42.921875 
L 36.375 41.703125 
Q 47.40625 39.59375 52.65625 34.296875 
Q 57.90625 29 57.90625 20.125 
Q 57.90625 9.515625 50.796875 4.046875 
Q 43.703125 -1.421875 29.984375 -1.421875 
Q 24.8125 -1.421875 18.96875 -0.25 
Q 13.140625 0.921875 6.890625 3.21875 
L 6.890625 13.375 
Q 12.890625 10.015625 18.65625 8.296875 
Q 24.421875 6.59375 29.984375 6.59375 
Q 38.421875 6.59375 43.015625 9.90625 
Q 47.609375 13.234375 47.609375 19.390625 
Q 47.609375 24.75 44.3125 27.78125 
Q 41.015625 30.8125 33.5 32.328125 
L 27.484375 33.5 
Q 16.453125 35.6875 11.515625 40.375 
Q 6.59375 45.0625 6.59375 53.421875 
Q 6.59375 63.09375 13.40625 68.65625 
Q 20.21875 74.21875 32.171875 74.21875 
Q 37.3125 74.21875 42.625 73.28125 
Q 47.953125 72.359375 53.515625 70.515625 
z
" id="DejaVuSans-83"/>
       <path d="M 19.671875 64.796875 
L 19.671875 8.109375 
L 31.59375 8.109375 
Q 46.6875 8.109375 53.6875 14.9375 
Q 60.6875 21.78125 60.6875 36.53125 
Q 60.6875 51.171875 53.6875 57.984375 
Q 46.6875 64.796875 31.59375 64.796875 
z
M 9.8125 72.90625 
L 30.078125 72.90625 
Q 51.265625 72.90625 61.171875 64.09375 
Q 71.09375 55.28125 71.09375 36.53125 
Q 71.09375 17.671875 61.125 8.828125 
Q 51.171875 0 30.078125 0 
L 9.8125 0 
z
" id="DejaVuSans-68"/>
      </defs>
      <use xlink:href="#DejaVuSans-83"/>
      <use x="63.476562" xlink:href="#DejaVuSans-71"/>
      <use x="140.966797" xlink:href="#DejaVuSans-68"/>
     </g>
    </g>
    <g id="line2d_70">
     <path d="M 392.626125 123.485312 
L 412.626125 123.485312 
" style="fill:none;stroke:#e377c2;stroke-linecap:square;stroke-width:1.5;"/>
    </g>
    <g id="line2d_71"/>
    <g id="text_16">
     <!-- LBFGS -->
     <g transform="translate(420.626125 126.985312)scale(0.1 -0.1)">
      <defs>
       <path d="M 9.8125 72.90625 
L 19.671875 72.90625 
L 19.671875 8.296875 
L 55.171875 8.296875 
L 55.171875 0 
L 9.8125 0 
z
" id="DejaVuSans-76"/>
       <path d="M 19.671875 34.8125 
L 19.671875 8.109375 
L 35.5 8.109375 
Q 43.453125 8.109375 47.28125 11.40625 
Q 51.125 14.703125 51.125 21.484375 
Q 51.125 28.328125 47.28125 31.5625 
Q 43.453125 34.8125 35.5 34.8125 
z
M 19.671875 64.796875 
L 19.671875 42.828125 
L 34.28125 42.828125 
Q 41.5 42.828125 45.03125 45.53125 
Q 48.578125 48.25 48.578125 53.8125 
Q 48.578125 59.328125 45.03125 62.0625 
Q 41.5 64.796875 34.28125 64.796875 
z
M 9.8125 72.90625 
L 35.015625 72.90625 
Q 46.296875 72.90625 52.390625 68.21875 
Q 58.5 63.53125 58.5 54.890625 
Q 58.5 48.1875 55.375 44.234375 
Q 52.25 40.28125 46.1875 39.3125 
Q 53.46875 37.75 57.5 32.78125 
Q 61.53125 27.828125 61.53125 20.40625 
Q 61.53125 10.640625 54.890625 5.3125 
Q 48.25 0 35.984375 0 
L 9.8125 0 
z
" id="DejaVuSans-66"/>
       <path d="M 9.8125 72.90625 
L 51.703125 72.90625 
L 51.703125 64.59375 
L 19.671875 64.59375 
L 19.671875 43.109375 
L 48.578125 43.109375 
L 48.578125 34.8125 
L 19.671875 34.8125 
L 19.671875 0 
L 9.8125 0 
z
" id="DejaVuSans-70"/>
      </defs>
      <use xlink:href="#DejaVuSans-76"/>
      <use x="55.712891" xlink:href="#DejaVuSans-66"/>
      <use x="124.316406" xlink:href="#DejaVuSans-70"/>
      <use x="181.835938" xlink:href="#DejaVuSans-71"/>
      <use x="259.326172" xlink:href="#DejaVuSans-83"/>
     </g>
    </g>
    <g id="line2d_72">
     <path d="M 392.626125 138.163437 
L 412.626125 138.163437 
" style="fill:none;stroke:#7f7f7f;stroke-linecap:square;stroke-width:1.5;"/>
    </g>
    <g id="line2d_73"/>
    <g id="text_17">
     <!-- RMSprop -->
     <g transform="translate(420.626125 141.663437)scale(0.1 -0.1)">
      <defs>
       <path d="M 9.8125 72.90625 
L 24.515625 72.90625 
L 43.109375 23.296875 
L 61.8125 72.90625 
L 76.515625 72.90625 
L 76.515625 0 
L 66.890625 0 
L 66.890625 64.015625 
L 48.09375 14.015625 
L 38.1875 14.015625 
L 19.390625 64.015625 
L 19.390625 0 
L 9.8125 0 
z
" id="DejaVuSans-77"/>
       <path d="M 18.109375 8.203125 
L 18.109375 -20.796875 
L 9.078125 -20.796875 
L 9.078125 54.6875 
L 18.109375 54.6875 
L 18.109375 46.390625 
Q 20.953125 51.265625 25.265625 53.625 
Q 29.59375 56 35.59375 56 
Q 45.5625 56 51.78125 48.09375 
Q 58.015625 40.1875 58.015625 27.296875 
Q 58.015625 14.40625 51.78125 6.484375 
Q 45.5625 -1.421875 35.59375 -1.421875 
Q 29.59375 -1.421875 25.265625 0.953125 
Q 20.953125 3.328125 18.109375 8.203125 
z
M 48.6875 27.296875 
Q 48.6875 37.203125 44.609375 42.84375 
Q 40.53125 48.484375 33.40625 48.484375 
Q 26.265625 48.484375 22.1875 42.84375 
Q 18.109375 37.203125 18.109375 27.296875 
Q 18.109375 17.390625 22.1875 11.75 
Q 26.265625 6.109375 33.40625 6.109375 
Q 40.53125 6.109375 44.609375 11.75 
Q 48.6875 17.390625 48.6875 27.296875 
z
" id="DejaVuSans-112"/>
      </defs>
      <use xlink:href="#DejaVuSans-82"/>
      <use x="69.482422" xlink:href="#DejaVuSans-77"/>
      <use x="155.761719" xlink:href="#DejaVuSans-83"/>
      <use x="219.238281" xlink:href="#DejaVuSans-112"/>
      <use x="282.714844" xlink:href="#DejaVuSans-114"/>
      <use x="321.578125" xlink:href="#DejaVuSans-111"/>
      <use x="382.759766" xlink:href="#DejaVuSans-112"/>
     </g>
    </g>
    <g id="line2d_74">
     <path d="M 392.626125 152.841562 
L 412.626125 152.841562 
" style="fill:none;stroke:#bcbd22;stroke-linecap:square;stroke-width:1.5;"/>
    </g>
    <g id="line2d_75"/>
    <g id="text_18">
     <!-- Rprop -->
     <g transform="translate(420.626125 156.341562)scale(0.1 -0.1)">
      <use xlink:href="#DejaVuSans-82"/>
      <use x="69.482422" xlink:href="#DejaVuSans-112"/>
      <use x="132.958984" xlink:href="#DejaVuSans-114"/>
      <use x="171.822266" xlink:href="#DejaVuSans-111"/>
      <use x="233.003906" xlink:href="#DejaVuSans-112"/>
     </g>
    </g>
    <g id="line2d_76">
     <path d="M 392.626125 167.519687 
L 412.626125 167.519687 
" style="fill:none;stroke:#17becf;stroke-dasharray:5.55,2.4;stroke-dashoffset:0;stroke-width:1.5;"/>
    </g>
    <g id="line2d_77"/>
    <g id="text_19">
     <!-- BFGS -->
     <g transform="translate(420.626125 171.019687)scale(0.1 -0.1)">
      <use xlink:href="#DejaVuSans-66"/>
      <use x="68.603516" xlink:href="#DejaVuSans-70"/>
      <use x="126.123047" xlink:href="#DejaVuSans-71"/>
      <use x="203.613281" xlink:href="#DejaVuSans-83"/>
     </g>
    </g>
    <g id="line2d_78">
     <path d="M 392.626125 182.197812 
L 412.626125 182.197812 
" style="fill:none;stroke:#1f77b4;stroke-dasharray:5.55,2.4;stroke-dashoffset:0;stroke-width:1.5;"/>
    </g>
    <g id="line2d_79"/>
    <g id="text_20">
     <!-- CG -->
     <g transform="translate(420.626125 185.697812)scale(0.1 -0.1)">
      <defs>
       <path d="M 64.40625 67.28125 
L 64.40625 56.890625 
Q 59.421875 61.53125 53.78125 63.8125 
Q 48.140625 66.109375 41.796875 66.109375 
Q 29.296875 66.109375 22.65625 58.46875 
Q 16.015625 50.828125 16.015625 36.375 
Q 16.015625 21.96875 22.65625 14.328125 
Q 29.296875 6.6875 41.796875 6.6875 
Q 48.140625 6.6875 53.78125 8.984375 
Q 59.421875 11.28125 64.40625 15.921875 
L 64.40625 5.609375 
Q 59.234375 2.09375 53.4375 0.328125 
Q 47.65625 -1.421875 41.21875 -1.421875 
Q 24.65625 -1.421875 15.125 8.703125 
Q 5.609375 18.84375 5.609375 36.375 
Q 5.609375 53.953125 15.125 64.078125 
Q 24.65625 74.21875 41.21875 74.21875 
Q 47.75 74.21875 53.53125 72.484375 
Q 59.328125 70.75 64.40625 67.28125 
z
" id="DejaVuSans-67"/>
      </defs>
      <use xlink:href="#DejaVuSans-67"/>
      <use x="69.824219" xlink:href="#DejaVuSans-71"/>
     </g>
    </g>
    <g id="line2d_80">
     <path d="M 392.626125 196.875937 
L 412.626125 196.875937 
" style="fill:none;stroke:#ff7f0e;stroke-dasharray:5.55,2.4;stroke-dashoffset:0;stroke-width:1.5;"/>
    </g>
    <g id="line2d_81"/>
    <g id="text_21">
     <!-- Newton-CG -->
     <g transform="translate(420.626125 200.375937)scale(0.1 -0.1)">
      <defs>
       <path d="M 4.203125 54.6875 
L 13.1875 54.6875 
L 24.421875 12.015625 
L 35.59375 54.6875 
L 46.1875 54.6875 
L 57.421875 12.015625 
L 68.609375 54.6875 
L 77.59375 54.6875 
L 63.28125 0 
L 52.6875 0 
L 40.921875 44.828125 
L 29.109375 0 
L 18.5 0 
z
" id="DejaVuSans-119"/>
      </defs>
      <use xlink:href="#DejaVuSans-78"/>
      <use x="74.804688" xlink:href="#DejaVuSans-101"/>
      <use x="136.328125" xlink:href="#DejaVuSans-119"/>
      <use x="218.115234" xlink:href="#DejaVuSans-116"/>
      <use x="257.324219" xlink:href="#DejaVuSans-111"/>
      <use x="318.505859" xlink:href="#DejaVuSans-110"/>
      <use x="381.884766" xlink:href="#DejaVuSans-45"/>
      <use x="417.96875" xlink:href="#DejaVuSans-67"/>
      <use x="487.792969" xlink:href="#DejaVuSans-71"/>
     </g>
    </g>
    <g id="line2d_82">
     <path d="M 392.626125 211.554062 
L 412.626125 211.554062 
" style="fill:none;stroke:#2ca02c;stroke-dasharray:5.55,2.4;stroke-dashoffset:0;stroke-width:1.5;"/>
    </g>
    <g id="line2d_83"/>
    <g id="text_22">
     <!-- SLSQP -->
     <g transform="translate(420.626125 215.054062)scale(0.1 -0.1)">
      <defs>
       <path d="M 39.40625 66.21875 
Q 28.65625 66.21875 22.328125 58.203125 
Q 16.015625 50.203125 16.015625 36.375 
Q 16.015625 22.609375 22.328125 14.59375 
Q 28.65625 6.59375 39.40625 6.59375 
Q 50.140625 6.59375 56.421875 14.59375 
Q 62.703125 22.609375 62.703125 36.375 
Q 62.703125 50.203125 56.421875 58.203125 
Q 50.140625 66.21875 39.40625 66.21875 
z
M 53.21875 1.3125 
L 66.21875 -12.890625 
L 54.296875 -12.890625 
L 43.5 -1.21875 
Q 41.890625 -1.3125 41.03125 -1.359375 
Q 40.1875 -1.421875 39.40625 -1.421875 
Q 24.03125 -1.421875 14.8125 8.859375 
Q 5.609375 19.140625 5.609375 36.375 
Q 5.609375 53.65625 14.8125 63.9375 
Q 24.03125 74.21875 39.40625 74.21875 
Q 54.734375 74.21875 63.90625 63.9375 
Q 73.09375 53.65625 73.09375 36.375 
Q 73.09375 23.6875 67.984375 14.640625 
Q 62.890625 5.609375 53.21875 1.3125 
z
" id="DejaVuSans-81"/>
       <path d="M 19.671875 64.796875 
L 19.671875 37.40625 
L 32.078125 37.40625 
Q 38.96875 37.40625 42.71875 40.96875 
Q 46.484375 44.53125 46.484375 51.125 
Q 46.484375 57.671875 42.71875 61.234375 
Q 38.96875 64.796875 32.078125 64.796875 
z
M 9.8125 72.90625 
L 32.078125 72.90625 
Q 44.34375 72.90625 50.609375 67.359375 
Q 56.890625 61.8125 56.890625 51.125 
Q 56.890625 40.328125 50.609375 34.8125 
Q 44.34375 29.296875 32.078125 29.296875 
L 19.671875 29.296875 
L 19.671875 0 
L 9.8125 0 
z
" id="DejaVuSans-80"/>
      </defs>
      <use xlink:href="#DejaVuSans-83"/>
      <use x="63.476562" xlink:href="#DejaVuSans-76"/>
      <use x="119.189453" xlink:href="#DejaVuSans-83"/>
      <use x="182.666016" xlink:href="#DejaVuSans-81"/>
      <use x="261.376953" xlink:href="#DejaVuSans-80"/>
     </g>
    </g>
   </g>
  </g>
 </g>
 <defs>
  <clipPath id="pa730d0fd80">
   <rect height="217.44" width="334.8" x="45.478125" y="22.318125"/>
  </clipPath>
 </defs>
</svg>
