<?xml version="1.0" encoding="utf-8" standalone="no"?>
<!DOCTYPE svg PUBLIC "-//W3C//DTD SVG 1.1//EN"
  "http://www.w3.org/Graphics/SVG/1.1/DTD/svg11.dtd">
<!-- Created with matplotlib (https://matplotlib.org/) -->
<svg height="277.314375pt" version="1.1" viewBox="0 0 488.35425 277.314375" width="488.35425pt" xmlns="http://www.w3.org/2000/svg" xmlns:xlink="http://www.w3.org/1999/xlink">
 <metadata>
  <rdf:RDF xmlns:cc="http://creativecommons.org/ns#" xmlns:dc="http://purl.org/dc/elements/1.1/" xmlns:rdf="http://www.w3.org/1999/02/22-rdf-syntax-ns#">
   <cc:Work>
    <dc:type rdf:resource="http://purl.org/dc/dcmitype/StillImage"/>
    <dc:date>2023-05-25T09:39:14.857828</dc:date>
    <dc:format>image/svg+xml</dc:format>
    <dc:creator>
     <cc:Agent>
      <dc:title>Matplotlib v3.3.2, https://matplotlib.org/</dc:title>
     </cc:Agent>
    </dc:creator>
   </cc:Work>
  </rdf:RDF>
 </metadata>
 <defs>
  <style type="text/css">*{stroke-linecap:butt;stroke-linejoin:round;}</style>
 </defs>
 <g id="figure_1">
  <g id="patch_1">
   <path d="M 0 277.314375 
L 488.35425 277.314375 
L 488.35425 0 
L 0 0 
z
" style="fill:none;"/>
  </g>
  <g id="axes_1">
   <g id="patch_2">
    <path d="M 45.478125 239.758125 
L 380.278125 239.758125 
L 380.278125 22.318125 
L 45.478125 22.318125 
z
" style="fill:#ffffff;"/>
   </g>
   <g id="matplotlib.axis_1">
    <g id="xtick_1">
     <g id="line2d_1">
      <defs>
       <path d="M 0 0 
L 0 3.5 
" id="m2876c6c63c" style="stroke:#000000;stroke-width:0.8;"/>
      </defs>
      <g>
       <use style="stroke:#000000;stroke-width:0.8;" x="50.88615" xlink:href="#m2876c6c63c" y="239.758125"/>
      </g>
     </g>
     <g id="text_1">
      <!-- $\mathdefault{10^{-3}}$ -->
      <g transform="translate(39.13615 254.356562)scale(0.1 -0.1)">
       <defs>
        <path d="M 12.40625 8.296875 
L 28.515625 8.296875 
L 28.515625 63.921875 
L 10.984375 60.40625 
L 10.984375 69.390625 
L 28.421875 72.90625 
L 38.28125 72.90625 
L 38.28125 8.296875 
L 54.390625 8.296875 
L 54.390625 0 
L 12.40625 0 
z
" id="DejaVuSans-49"/>
        <path d="M 31.78125 66.40625 
Q 24.171875 66.40625 20.328125 58.90625 
Q 16.5 51.421875 16.5 36.375 
Q 16.5 21.390625 20.328125 13.890625 
Q 24.171875 6.390625 31.78125 6.390625 
Q 39.453125 6.390625 43.28125 13.890625 
Q 47.125 21.390625 47.125 36.375 
Q 47.125 51.421875 43.28125 58.90625 
Q 39.453125 66.40625 31.78125 66.40625 
z
M 31.78125 74.21875 
Q 44.046875 74.21875 50.515625 64.515625 
Q 56.984375 54.828125 56.984375 36.375 
Q 56.984375 17.96875 50.515625 8.265625 
Q 44.046875 -1.421875 31.78125 -1.421875 
Q 19.53125 -1.421875 13.0625 8.265625 
Q 6.59375 17.96875 6.59375 36.375 
Q 6.59375 54.828125 13.0625 64.515625 
Q 19.53125 74.21875 31.78125 74.21875 
z
" id="DejaVuSans-48"/>
        <path d="M 10.59375 35.5 
L 73.1875 35.5 
L 73.1875 27.203125 
L 10.59375 27.203125 
z
" id="DejaVuSans-8722"/>
        <path d="M 40.578125 39.3125 
Q 47.65625 37.796875 51.625 33 
Q 55.609375 28.21875 55.609375 21.1875 
Q 55.609375 10.40625 48.1875 4.484375 
Q 40.765625 -1.421875 27.09375 -1.421875 
Q 22.515625 -1.421875 17.65625 -0.515625 
Q 12.796875 0.390625 7.625 2.203125 
L 7.625 11.71875 
Q 11.71875 9.328125 16.59375 8.109375 
Q 21.484375 6.890625 26.8125 6.890625 
Q 36.078125 6.890625 40.9375 10.546875 
Q 45.796875 14.203125 45.796875 21.1875 
Q 45.796875 27.640625 41.28125 31.265625 
Q 36.765625 34.90625 28.71875 34.90625 
L 20.21875 34.90625 
L 20.21875 43.015625 
L 29.109375 43.015625 
Q 36.375 43.015625 40.234375 45.921875 
Q 44.09375 48.828125 44.09375 54.296875 
Q 44.09375 59.90625 40.109375 62.90625 
Q 36.140625 65.921875 28.71875 65.921875 
Q 24.65625 65.921875 20.015625 65.03125 
Q 15.375 64.15625 9.8125 62.3125 
L 9.8125 71.09375 
Q 15.4375 72.65625 20.34375 73.4375 
Q 25.25 74.21875 29.59375 74.21875 
Q 40.828125 74.21875 47.359375 69.109375 
Q 53.90625 64.015625 53.90625 55.328125 
Q 53.90625 49.265625 50.4375 45.09375 
Q 46.96875 40.921875 40.578125 39.3125 
z
" id="DejaVuSans-51"/>
       </defs>
       <use transform="translate(0 0.765625)" xlink:href="#DejaVuSans-49"/>
       <use transform="translate(63.623047 0.765625)" xlink:href="#DejaVuSans-48"/>
       <use transform="translate(128.203125 39.046875)scale(0.7)" xlink:href="#DejaVuSans-8722"/>
       <use transform="translate(186.855469 39.046875)scale(0.7)" xlink:href="#DejaVuSans-51"/>
      </g>
     </g>
    </g>
    <g id="xtick_2">
     <g id="line2d_2">
      <g>
       <use style="stroke:#000000;stroke-width:0.8;" x="128.273342" xlink:href="#m2876c6c63c" y="239.758125"/>
      </g>
     </g>
     <g id="text_2">
      <!-- $\mathdefault{10^{-2}}$ -->
      <g transform="translate(116.523342 254.356562)scale(0.1 -0.1)">
       <defs>
        <path d="M 19.1875 8.296875 
L 53.609375 8.296875 
L 53.609375 0 
L 7.328125 0 
L 7.328125 8.296875 
Q 12.9375 14.109375 22.625 23.890625 
Q 32.328125 33.6875 34.8125 36.53125 
Q 39.546875 41.84375 41.421875 45.53125 
Q 43.3125 49.21875 43.3125 52.78125 
Q 43.3125 58.59375 39.234375 62.25 
Q 35.15625 65.921875 28.609375 65.921875 
Q 23.96875 65.921875 18.8125 64.3125 
Q 13.671875 62.703125 7.8125 59.421875 
L 7.8125 69.390625 
Q 13.765625 71.78125 18.9375 73 
Q 24.125 74.21875 28.421875 74.21875 
Q 39.75 74.21875 46.484375 68.546875 
Q 53.21875 62.890625 53.21875 53.421875 
Q 53.21875 48.921875 51.53125 44.890625 
Q 49.859375 40.875 45.40625 35.40625 
Q 44.1875 33.984375 37.640625 27.21875 
Q 31.109375 20.453125 19.1875 8.296875 
z
" id="DejaVuSans-50"/>
       </defs>
       <use transform="translate(0 0.765625)" xlink:href="#DejaVuSans-49"/>
       <use transform="translate(63.623047 0.765625)" xlink:href="#DejaVuSans-48"/>
       <use transform="translate(128.203125 39.046875)scale(0.7)" xlink:href="#DejaVuSans-8722"/>
       <use transform="translate(186.855469 39.046875)scale(0.7)" xlink:href="#DejaVuSans-50"/>
      </g>
     </g>
    </g>
    <g id="xtick_3">
     <g id="line2d_3">
      <g>
       <use style="stroke:#000000;stroke-width:0.8;" x="205.660534" xlink:href="#m2876c6c63c" y="239.758125"/>
      </g>
     </g>
     <g id="text_3">
      <!-- $\mathdefault{10^{-1}}$ -->
      <g transform="translate(193.910534 254.356562)scale(0.1 -0.1)">
       <use transform="translate(0 0.684375)" xlink:href="#DejaVuSans-49"/>
       <use transform="translate(63.623047 0.684375)" xlink:href="#DejaVuSans-48"/>
       <use transform="translate(128.203125 38.965625)scale(0.7)" xlink:href="#DejaVuSans-8722"/>
       <use transform="translate(186.855469 38.965625)scale(0.7)" xlink:href="#DejaVuSans-49"/>
      </g>
     </g>
    </g>
    <g id="xtick_4">
     <g id="line2d_4">
      <g>
       <use style="stroke:#000000;stroke-width:0.8;" x="283.047726" xlink:href="#m2876c6c63c" y="239.758125"/>
      </g>
     </g>
     <g id="text_4">
      <!-- $\mathdefault{10^{0}}$ -->
      <g transform="translate(274.247726 254.356562)scale(0.1 -0.1)">
       <use transform="translate(0 0.765625)" xlink:href="#DejaVuSans-49"/>
       <use transform="translate(63.623047 0.765625)" xlink:href="#DejaVuSans-48"/>
       <use transform="translate(128.203125 39.046875)scale(0.7)" xlink:href="#DejaVuSans-48"/>
      </g>
     </g>
    </g>
    <g id="xtick_5">
     <g id="line2d_5">
      <g>
       <use style="stroke:#000000;stroke-width:0.8;" x="360.434918" xlink:href="#m2876c6c63c" y="239.758125"/>
      </g>
     </g>
     <g id="text_5">
      <!-- $\mathdefault{10^{1}}$ -->
      <g transform="translate(351.634918 254.356562)scale(0.1 -0.1)">
       <use transform="translate(0 0.684375)" xlink:href="#DejaVuSans-49"/>
       <use transform="translate(63.623047 0.684375)" xlink:href="#DejaVuSans-48"/>
       <use transform="translate(128.203125 38.965625)scale(0.7)" xlink:href="#DejaVuSans-49"/>
      </g>
     </g>
    </g>
    <g id="xtick_6">
     <g id="line2d_6">
      <defs>
       <path d="M 0 0 
L 0 2 
" id="m28c905158f" style="stroke:#000000;stroke-width:0.6;"/>
      </defs>
      <g>
       <use style="stroke:#000000;stroke-width:0.6;" x="47.345106" xlink:href="#m28c905158f" y="239.758125"/>
      </g>
     </g>
    </g>
    <g id="xtick_7">
     <g id="line2d_7">
      <g>
       <use style="stroke:#000000;stroke-width:0.6;" x="74.182016" xlink:href="#m28c905158f" y="239.758125"/>
      </g>
     </g>
    </g>
    <g id="xtick_8">
     <g id="line2d_8">
      <g>
       <use style="stroke:#000000;stroke-width:0.6;" x="87.809224" xlink:href="#m28c905158f" y="239.758125"/>
      </g>
     </g>
    </g>
    <g id="xtick_9">
     <g id="line2d_9">
      <g>
       <use style="stroke:#000000;stroke-width:0.6;" x="97.477882" xlink:href="#m28c905158f" y="239.758125"/>
      </g>
     </g>
    </g>
    <g id="xtick_10">
     <g id="line2d_10">
      <g>
       <use style="stroke:#000000;stroke-width:0.6;" x="104.977476" xlink:href="#m28c905158f" y="239.758125"/>
      </g>
     </g>
    </g>
    <g id="xtick_11">
     <g id="line2d_11">
      <g>
       <use style="stroke:#000000;stroke-width:0.6;" x="111.10509" xlink:href="#m28c905158f" y="239.758125"/>
      </g>
     </g>
    </g>
    <g id="xtick_12">
     <g id="line2d_12">
      <g>
       <use style="stroke:#000000;stroke-width:0.6;" x="116.285914" xlink:href="#m28c905158f" y="239.758125"/>
      </g>
     </g>
    </g>
    <g id="xtick_13">
     <g id="line2d_13">
      <g>
       <use style="stroke:#000000;stroke-width:0.6;" x="120.773748" xlink:href="#m28c905158f" y="239.758125"/>
      </g>
     </g>
    </g>
    <g id="xtick_14">
     <g id="line2d_14">
      <g>
       <use style="stroke:#000000;stroke-width:0.6;" x="124.732298" xlink:href="#m28c905158f" y="239.758125"/>
      </g>
     </g>
    </g>
    <g id="xtick_15">
     <g id="line2d_15">
      <g>
       <use style="stroke:#000000;stroke-width:0.6;" x="151.569208" xlink:href="#m28c905158f" y="239.758125"/>
      </g>
     </g>
    </g>
    <g id="xtick_16">
     <g id="line2d_16">
      <g>
       <use style="stroke:#000000;stroke-width:0.6;" x="165.196416" xlink:href="#m28c905158f" y="239.758125"/>
      </g>
     </g>
    </g>
    <g id="xtick_17">
     <g id="line2d_17">
      <g>
       <use style="stroke:#000000;stroke-width:0.6;" x="174.865074" xlink:href="#m28c905158f" y="239.758125"/>
      </g>
     </g>
    </g>
    <g id="xtick_18">
     <g id="line2d_18">
      <g>
       <use style="stroke:#000000;stroke-width:0.6;" x="182.364668" xlink:href="#m28c905158f" y="239.758125"/>
      </g>
     </g>
    </g>
    <g id="xtick_19">
     <g id="line2d_19">
      <g>
       <use style="stroke:#000000;stroke-width:0.6;" x="188.492282" xlink:href="#m28c905158f" y="239.758125"/>
      </g>
     </g>
    </g>
    <g id="xtick_20">
     <g id="line2d_20">
      <g>
       <use style="stroke:#000000;stroke-width:0.6;" x="193.673106" xlink:href="#m28c905158f" y="239.758125"/>
      </g>
     </g>
    </g>
    <g id="xtick_21">
     <g id="line2d_21">
      <g>
       <use style="stroke:#000000;stroke-width:0.6;" x="198.16094" xlink:href="#m28c905158f" y="239.758125"/>
      </g>
     </g>
    </g>
    <g id="xtick_22">
     <g id="line2d_22">
      <g>
       <use style="stroke:#000000;stroke-width:0.6;" x="202.11949" xlink:href="#m28c905158f" y="239.758125"/>
      </g>
     </g>
    </g>
    <g id="xtick_23">
     <g id="line2d_23">
      <g>
       <use style="stroke:#000000;stroke-width:0.6;" x="228.9564" xlink:href="#m28c905158f" y="239.758125"/>
      </g>
     </g>
    </g>
    <g id="xtick_24">
     <g id="line2d_24">
      <g>
       <use style="stroke:#000000;stroke-width:0.6;" x="242.583608" xlink:href="#m28c905158f" y="239.758125"/>
      </g>
     </g>
    </g>
    <g id="xtick_25">
     <g id="line2d_25">
      <g>
       <use style="stroke:#000000;stroke-width:0.6;" x="252.252266" xlink:href="#m28c905158f" y="239.758125"/>
      </g>
     </g>
    </g>
    <g id="xtick_26">
     <g id="line2d_26">
      <g>
       <use style="stroke:#000000;stroke-width:0.6;" x="259.75186" xlink:href="#m28c905158f" y="239.758125"/>
      </g>
     </g>
    </g>
    <g id="xtick_27">
     <g id="line2d_27">
      <g>
       <use style="stroke:#000000;stroke-width:0.6;" x="265.879474" xlink:href="#m28c905158f" y="239.758125"/>
      </g>
     </g>
    </g>
    <g id="xtick_28">
     <g id="line2d_28">
      <g>
       <use style="stroke:#000000;stroke-width:0.6;" x="271.060298" xlink:href="#m28c905158f" y="239.758125"/>
      </g>
     </g>
    </g>
    <g id="xtick_29">
     <g id="line2d_29">
      <g>
       <use style="stroke:#000000;stroke-width:0.6;" x="275.548132" xlink:href="#m28c905158f" y="239.758125"/>
      </g>
     </g>
    </g>
    <g id="xtick_30">
     <g id="line2d_30">
      <g>
       <use style="stroke:#000000;stroke-width:0.6;" x="279.506682" xlink:href="#m28c905158f" y="239.758125"/>
      </g>
     </g>
    </g>
    <g id="xtick_31">
     <g id="line2d_31">
      <g>
       <use style="stroke:#000000;stroke-width:0.6;" x="306.343592" xlink:href="#m28c905158f" y="239.758125"/>
      </g>
     </g>
    </g>
    <g id="xtick_32">
     <g id="line2d_32">
      <g>
       <use style="stroke:#000000;stroke-width:0.6;" x="319.9708" xlink:href="#m28c905158f" y="239.758125"/>
      </g>
     </g>
    </g>
    <g id="xtick_33">
     <g id="line2d_33">
      <g>
       <use style="stroke:#000000;stroke-width:0.6;" x="329.639458" xlink:href="#m28c905158f" y="239.758125"/>
      </g>
     </g>
    </g>
    <g id="xtick_34">
     <g id="line2d_34">
      <g>
       <use style="stroke:#000000;stroke-width:0.6;" x="337.139052" xlink:href="#m28c905158f" y="239.758125"/>
      </g>
     </g>
    </g>
    <g id="xtick_35">
     <g id="line2d_35">
      <g>
       <use style="stroke:#000000;stroke-width:0.6;" x="343.266666" xlink:href="#m28c905158f" y="239.758125"/>
      </g>
     </g>
    </g>
    <g id="xtick_36">
     <g id="line2d_36">
      <g>
       <use style="stroke:#000000;stroke-width:0.6;" x="348.44749" xlink:href="#m28c905158f" y="239.758125"/>
      </g>
     </g>
    </g>
    <g id="xtick_37">
     <g id="line2d_37">
      <g>
       <use style="stroke:#000000;stroke-width:0.6;" x="352.935324" xlink:href="#m28c905158f" y="239.758125"/>
      </g>
     </g>
    </g>
    <g id="xtick_38">
     <g id="line2d_38">
      <g>
       <use style="stroke:#000000;stroke-width:0.6;" x="356.893874" xlink:href="#m28c905158f" y="239.758125"/>
      </g>
     </g>
    </g>
    <g id="text_6">
     <!-- time (s) -->
     <g transform="translate(193.486719 268.034687)scale(0.1 -0.1)">
      <defs>
       <path d="M 18.3125 70.21875 
L 18.3125 54.6875 
L 36.8125 54.6875 
L 36.8125 47.703125 
L 18.3125 47.703125 
L 18.3125 18.015625 
Q 18.3125 11.328125 20.140625 9.421875 
Q 21.96875 7.515625 27.59375 7.515625 
L 36.8125 7.515625 
L 36.8125 0 
L 27.59375 0 
Q 17.1875 0 13.234375 3.875 
Q 9.28125 7.765625 9.28125 18.015625 
L 9.28125 47.703125 
L 2.6875 47.703125 
L 2.6875 54.6875 
L 9.28125 54.6875 
L 9.28125 70.21875 
z
" id="DejaVuSans-116"/>
       <path d="M 9.421875 54.6875 
L 18.40625 54.6875 
L 18.40625 0 
L 9.421875 0 
z
M 9.421875 75.984375 
L 18.40625 75.984375 
L 18.40625 64.59375 
L 9.421875 64.59375 
z
" id="DejaVuSans-105"/>
       <path d="M 52 44.1875 
Q 55.375 50.25 60.0625 53.125 
Q 64.75 56 71.09375 56 
Q 79.640625 56 84.28125 50.015625 
Q 88.921875 44.046875 88.921875 33.015625 
L 88.921875 0 
L 79.890625 0 
L 79.890625 32.71875 
Q 79.890625 40.578125 77.09375 44.375 
Q 74.3125 48.1875 68.609375 48.1875 
Q 61.625 48.1875 57.5625 43.546875 
Q 53.515625 38.921875 53.515625 30.90625 
L 53.515625 0 
L 44.484375 0 
L 44.484375 32.71875 
Q 44.484375 40.625 41.703125 44.40625 
Q 38.921875 48.1875 33.109375 48.1875 
Q 26.21875 48.1875 22.15625 43.53125 
Q 18.109375 38.875 18.109375 30.90625 
L 18.109375 0 
L 9.078125 0 
L 9.078125 54.6875 
L 18.109375 54.6875 
L 18.109375 46.1875 
Q 21.1875 51.21875 25.484375 53.609375 
Q 29.78125 56 35.6875 56 
Q 41.65625 56 45.828125 52.96875 
Q 50 49.953125 52 44.1875 
z
" id="DejaVuSans-109"/>
       <path d="M 56.203125 29.59375 
L 56.203125 25.203125 
L 14.890625 25.203125 
Q 15.484375 15.921875 20.484375 11.0625 
Q 25.484375 6.203125 34.421875 6.203125 
Q 39.59375 6.203125 44.453125 7.46875 
Q 49.3125 8.734375 54.109375 11.28125 
L 54.109375 2.78125 
Q 49.265625 0.734375 44.1875 -0.34375 
Q 39.109375 -1.421875 33.890625 -1.421875 
Q 20.796875 -1.421875 13.15625 6.1875 
Q 5.515625 13.8125 5.515625 26.8125 
Q 5.515625 40.234375 12.765625 48.109375 
Q 20.015625 56 32.328125 56 
Q 43.359375 56 49.78125 48.890625 
Q 56.203125 41.796875 56.203125 29.59375 
z
M 47.21875 32.234375 
Q 47.125 39.59375 43.09375 43.984375 
Q 39.0625 48.390625 32.421875 48.390625 
Q 24.90625 48.390625 20.390625 44.140625 
Q 15.875 39.890625 15.1875 32.171875 
z
" id="DejaVuSans-101"/>
       <path id="DejaVuSans-32"/>
       <path d="M 31 75.875 
Q 24.46875 64.65625 21.28125 53.65625 
Q 18.109375 42.671875 18.109375 31.390625 
Q 18.109375 20.125 21.3125 9.0625 
Q 24.515625 -2 31 -13.1875 
L 23.1875 -13.1875 
Q 15.875 -1.703125 12.234375 9.375 
Q 8.59375 20.453125 8.59375 31.390625 
Q 8.59375 42.28125 12.203125 53.3125 
Q 15.828125 64.359375 23.1875 75.875 
z
" id="DejaVuSans-40"/>
       <path d="M 44.28125 53.078125 
L 44.28125 44.578125 
Q 40.484375 46.53125 36.375 47.5 
Q 32.28125 48.484375 27.875 48.484375 
Q 21.1875 48.484375 17.84375 46.4375 
Q 14.5 44.390625 14.5 40.28125 
Q 14.5 37.15625 16.890625 35.375 
Q 19.28125 33.59375 26.515625 31.984375 
L 29.59375 31.296875 
Q 39.15625 29.25 43.1875 25.515625 
Q 47.21875 21.78125 47.21875 15.09375 
Q 47.21875 7.46875 41.1875 3.015625 
Q 35.15625 -1.421875 24.609375 -1.421875 
Q 20.21875 -1.421875 15.453125 -0.5625 
Q 10.6875 0.296875 5.421875 2 
L 5.421875 11.28125 
Q 10.40625 8.6875 15.234375 7.390625 
Q 20.0625 6.109375 24.8125 6.109375 
Q 31.15625 6.109375 34.5625 8.28125 
Q 37.984375 10.453125 37.984375 14.40625 
Q 37.984375 18.0625 35.515625 20.015625 
Q 33.0625 21.96875 24.703125 23.78125 
L 21.578125 24.515625 
Q 13.234375 26.265625 9.515625 29.90625 
Q 5.8125 33.546875 5.8125 39.890625 
Q 5.8125 47.609375 11.28125 51.796875 
Q 16.75 56 26.8125 56 
Q 31.78125 56 36.171875 55.265625 
Q 40.578125 54.546875 44.28125 53.078125 
z
" id="DejaVuSans-115"/>
       <path d="M 8.015625 75.875 
L 15.828125 75.875 
Q 23.140625 64.359375 26.78125 53.3125 
Q 30.421875 42.28125 30.421875 31.390625 
Q 30.421875 20.453125 26.78125 9.375 
Q 23.140625 -1.703125 15.828125 -13.1875 
L 8.015625 -13.1875 
Q 14.5 -2 17.703125 9.0625 
Q 20.90625 20.125 20.90625 31.390625 
Q 20.90625 42.671875 17.703125 53.65625 
Q 14.5 64.65625 8.015625 75.875 
z
" id="DejaVuSans-41"/>
      </defs>
      <use xlink:href="#DejaVuSans-116"/>
      <use x="39.208984" xlink:href="#DejaVuSans-105"/>
      <use x="66.992188" xlink:href="#DejaVuSans-109"/>
      <use x="164.404297" xlink:href="#DejaVuSans-101"/>
      <use x="225.927734" xlink:href="#DejaVuSans-32"/>
      <use x="257.714844" xlink:href="#DejaVuSans-40"/>
      <use x="296.728516" xlink:href="#DejaVuSans-115"/>
      <use x="348.828125" xlink:href="#DejaVuSans-41"/>
     </g>
    </g>
   </g>
   <g id="matplotlib.axis_2">
    <g id="ytick_1">
     <g id="line2d_39">
      <defs>
       <path d="M 0 0 
L -3.5 0 
" id="mf2ef374975" style="stroke:#000000;stroke-width:0.8;"/>
      </defs>
      <g>
       <use style="stroke:#000000;stroke-width:0.8;" x="45.478125" xlink:href="#mf2ef374975" y="163.30803"/>
      </g>
     </g>
     <g id="text_7">
      <!-- $\mathdefault{10^{6}}$ -->
      <g transform="translate(20.878125 167.107249)scale(0.1 -0.1)">
       <defs>
        <path d="M 33.015625 40.375 
Q 26.375 40.375 22.484375 35.828125 
Q 18.609375 31.296875 18.609375 23.390625 
Q 18.609375 15.53125 22.484375 10.953125 
Q 26.375 6.390625 33.015625 6.390625 
Q 39.65625 6.390625 43.53125 10.953125 
Q 47.40625 15.53125 47.40625 23.390625 
Q 47.40625 31.296875 43.53125 35.828125 
Q 39.65625 40.375 33.015625 40.375 
z
M 52.59375 71.296875 
L 52.59375 62.3125 
Q 48.875 64.0625 45.09375 64.984375 
Q 41.3125 65.921875 37.59375 65.921875 
Q 27.828125 65.921875 22.671875 59.328125 
Q 17.53125 52.734375 16.796875 39.40625 
Q 19.671875 43.65625 24.015625 45.921875 
Q 28.375 48.1875 33.59375 48.1875 
Q 44.578125 48.1875 50.953125 41.515625 
Q 57.328125 34.859375 57.328125 23.390625 
Q 57.328125 12.15625 50.6875 5.359375 
Q 44.046875 -1.421875 33.015625 -1.421875 
Q 20.359375 -1.421875 13.671875 8.265625 
Q 6.984375 17.96875 6.984375 36.375 
Q 6.984375 53.65625 15.1875 63.9375 
Q 23.390625 74.21875 37.203125 74.21875 
Q 40.921875 74.21875 44.703125 73.484375 
Q 48.484375 72.75 52.59375 71.296875 
z
" id="DejaVuSans-54"/>
       </defs>
       <use transform="translate(0 0.765625)" xlink:href="#DejaVuSans-49"/>
       <use transform="translate(63.623047 0.765625)" xlink:href="#DejaVuSans-48"/>
       <use transform="translate(128.203125 39.046875)scale(0.7)" xlink:href="#DejaVuSans-54"/>
      </g>
     </g>
    </g>
    <g id="ytick_2">
     <g id="line2d_40">
      <defs>
       <path d="M 0 0 
L -2 0 
" id="m8ed7250b4e" style="stroke:#000000;stroke-width:0.6;"/>
      </defs>
      <g>
       <use style="stroke:#000000;stroke-width:0.6;" x="45.478125" xlink:href="#m8ed7250b4e" y="237.400591"/>
      </g>
     </g>
    </g>
    <g id="ytick_3">
     <g id="line2d_41">
      <g>
       <use style="stroke:#000000;stroke-width:0.6;" x="45.478125" xlink:href="#m8ed7250b4e" y="219.696619"/>
      </g>
     </g>
    </g>
    <g id="ytick_4">
     <g id="line2d_42">
      <g>
       <use style="stroke:#000000;stroke-width:0.6;" x="45.478125" xlink:href="#m8ed7250b4e" y="205.964351"/>
      </g>
     </g>
    </g>
    <g id="ytick_5">
     <g id="line2d_43">
      <g>
       <use style="stroke:#000000;stroke-width:0.6;" x="45.478125" xlink:href="#m8ed7250b4e" y="194.744271"/>
      </g>
     </g>
    </g>
    <g id="ytick_6">
     <g id="line2d_44">
      <g>
       <use style="stroke:#000000;stroke-width:0.6;" x="45.478125" xlink:href="#m8ed7250b4e" y="185.257828"/>
      </g>
     </g>
    </g>
    <g id="ytick_7">
     <g id="line2d_45">
      <g>
       <use style="stroke:#000000;stroke-width:0.6;" x="45.478125" xlink:href="#m8ed7250b4e" y="177.040298"/>
      </g>
     </g>
    </g>
    <g id="ytick_8">
     <g id="line2d_46">
      <g>
       <use style="stroke:#000000;stroke-width:0.6;" x="45.478125" xlink:href="#m8ed7250b4e" y="169.791923"/>
      </g>
     </g>
    </g>
    <g id="ytick_9">
     <g id="line2d_47">
      <g>
       <use style="stroke:#000000;stroke-width:0.6;" x="45.478125" xlink:href="#m8ed7250b4e" y="120.651709"/>
      </g>
     </g>
    </g>
    <g id="ytick_10">
     <g id="line2d_48">
      <g>
       <use style="stroke:#000000;stroke-width:0.6;" x="45.478125" xlink:href="#m8ed7250b4e" y="95.699361"/>
      </g>
     </g>
    </g>
    <g id="ytick_11">
     <g id="line2d_49">
      <g>
       <use style="stroke:#000000;stroke-width:0.6;" x="45.478125" xlink:href="#m8ed7250b4e" y="77.995389"/>
      </g>
     </g>
    </g>
    <g id="ytick_12">
     <g id="line2d_50">
      <g>
       <use style="stroke:#000000;stroke-width:0.6;" x="45.478125" xlink:href="#m8ed7250b4e" y="64.263121"/>
      </g>
     </g>
    </g>
    <g id="ytick_13">
     <g id="line2d_51">
      <g>
       <use style="stroke:#000000;stroke-width:0.6;" x="45.478125" xlink:href="#m8ed7250b4e" y="53.043041"/>
      </g>
     </g>
    </g>
    <g id="ytick_14">
     <g id="line2d_52">
      <g>
       <use style="stroke:#000000;stroke-width:0.6;" x="45.478125" xlink:href="#m8ed7250b4e" y="43.556598"/>
      </g>
     </g>
    </g>
    <g id="ytick_15">
     <g id="line2d_53">
      <g>
       <use style="stroke:#000000;stroke-width:0.6;" x="45.478125" xlink:href="#m8ed7250b4e" y="35.339068"/>
      </g>
     </g>
    </g>
    <g id="ytick_16">
     <g id="line2d_54">
      <g>
       <use style="stroke:#000000;stroke-width:0.6;" x="45.478125" xlink:href="#m8ed7250b4e" y="28.090693"/>
      </g>
     </g>
    </g>
    <g id="text_8">
     <!-- cost -->
     <g transform="translate(14.798438 141.411562)rotate(-90)scale(0.1 -0.1)">
      <defs>
       <path d="M 48.78125 52.59375 
L 48.78125 44.1875 
Q 44.96875 46.296875 41.140625 47.34375 
Q 37.3125 48.390625 33.40625 48.390625 
Q 24.65625 48.390625 19.8125 42.84375 
Q 14.984375 37.3125 14.984375 27.296875 
Q 14.984375 17.28125 19.8125 11.734375 
Q 24.65625 6.203125 33.40625 6.203125 
Q 37.3125 6.203125 41.140625 7.25 
Q 44.96875 8.296875 48.78125 10.40625 
L 48.78125 2.09375 
Q 45.015625 0.34375 40.984375 -0.53125 
Q 36.96875 -1.421875 32.421875 -1.421875 
Q 20.0625 -1.421875 12.78125 6.34375 
Q 5.515625 14.109375 5.515625 27.296875 
Q 5.515625 40.671875 12.859375 48.328125 
Q 20.21875 56 33.015625 56 
Q 37.15625 56 41.109375 55.140625 
Q 45.0625 54.296875 48.78125 52.59375 
z
" id="DejaVuSans-99"/>
       <path d="M 30.609375 48.390625 
Q 23.390625 48.390625 19.1875 42.75 
Q 14.984375 37.109375 14.984375 27.296875 
Q 14.984375 17.484375 19.15625 11.84375 
Q 23.34375 6.203125 30.609375 6.203125 
Q 37.796875 6.203125 41.984375 11.859375 
Q 46.1875 17.53125 46.1875 27.296875 
Q 46.1875 37.015625 41.984375 42.703125 
Q 37.796875 48.390625 30.609375 48.390625 
z
M 30.609375 56 
Q 42.328125 56 49.015625 48.375 
Q 55.71875 40.765625 55.71875 27.296875 
Q 55.71875 13.875 49.015625 6.21875 
Q 42.328125 -1.421875 30.609375 -1.421875 
Q 18.84375 -1.421875 12.171875 6.21875 
Q 5.515625 13.875 5.515625 27.296875 
Q 5.515625 40.765625 12.171875 48.375 
Q 18.84375 56 30.609375 56 
z
" id="DejaVuSans-111"/>
      </defs>
      <use xlink:href="#DejaVuSans-99"/>
      <use x="54.980469" xlink:href="#DejaVuSans-111"/>
      <use x="116.162109" xlink:href="#DejaVuSans-115"/>
      <use x="168.261719" xlink:href="#DejaVuSans-116"/>
     </g>
    </g>
   </g>
   <g id="line2d_55">
    <path clip-path="url(#p9a5652c1d3)" d="M 262.124186 32.201761 
L 263.760644 34.532354 
L 263.980014 36.269787 
L 264.203044 37.907076 
L 264.449544 39.555268 
L 264.678086 41.2499 
L 264.908742 43.00241 
L 265.138467 44.813458 
L 265.372178 46.651367 
L 265.617872 48.52032 
L 265.863693 50.501768 
L 266.118379 52.53515 
L 266.372097 54.601695 
L 266.629204 56.700192 
L 266.908459 58.823965 
L 267.184797 60.993598 
L 267.475237 63.196694 
L 267.760688 65.424634 
L 268.052788 67.676605 
L 268.354904 69.952823 
L 268.653984 72.251481 
L 268.887595 74.569547 
L 269.121182 76.904607 
L 269.36007 79.253494 
L 269.600846 81.615765 
L 269.846093 83.986418 
L 270.086382 86.366406 
L 270.331494 88.750649 
L 270.563111 91.142866 
L 270.797238 93.534514 
L 271.069434 95.926483 
L 271.360041 98.312516 
L 271.655064 100.693507 
L 271.9556 103.064497 
L 272.260433 105.425625 
L 272.569618 107.772318 
L 272.878718 110.104504 
L 273.24345 112.417846 
L 273.569875 114.712448 
L 273.902186 116.984459 
L 274.227223 119.234392 
L 274.545617 121.458277 
L 274.871061 123.655714 
L 275.200367 125.823171 
L 275.529334 127.95991 
L 275.85557 130.06424 
L 276.185883 132.134688 
L 276.504415 134.170357 
L 276.818617 136.169306 
L 277.135756 138.129993 
L 277.449722 140.051941 
L 277.756786 141.933068 
L 278.060606 143.77466 
L 278.372195 145.57476 
L 278.670563 147.3347 
L 278.969916 149.054565 
L 279.262151 150.733375 
L 279.552329 152.371906 
L 279.839573 153.966747 
L 280.123623 155.518865 
L 280.406818 157.025107 
L 280.686916 158.487205 
L 280.977117 159.903285 
L 281.252885 161.276648 
L 281.526912 162.606377 
L 281.799886 163.896834 
L 282.068937 165.147378 
L 282.336195 166.361872 
L 282.60141 167.540914 
L 282.872853 168.686669 
L 283.13481 169.800291 
L 283.394067 170.882341 
L 283.650567 171.93296 
L 283.905164 172.952892 
L 284.15808 173.941155 
L 284.409452 174.901366 
L 284.65734 175.834003 
L 284.903472 176.747766 
L 285.148682 177.646287 
L 285.395425 178.537291 
L 285.638553 179.418874 
L 285.885296 180.287709 
L 286.12494 181.136537 
L 286.364179 181.963348 
L 286.601396 182.766995 
L 286.836156 183.548892 
L 287.069046 184.30977 
L 287.299973 185.051121 
L 287.530089 185.773601 
L 287.757351 186.478266 
L 287.983453 187.165482 
L 288.207433 187.835666 
L 288.430585 188.488886 
L 288.651689 189.12522 
L 288.874562 189.744823 
L 289.092131 190.347577 
L 289.308793 190.933815 
L 289.523479 191.503531 
L 289.737761 192.057839 
L 289.951462 192.597358 
" style="fill:none;stroke:#1f77b4;stroke-linecap:square;stroke-width:1.5;"/>
   </g>
   <g id="line2d_56">
    <path clip-path="url(#p9a5652c1d3)" d="M 92.932617 32.201761 
L 132.861357 32.205314 
L 150.078227 32.208853 
L 161.44065 32.212399 
L 169.995809 32.215945 
L 176.723398 32.219491 
L 182.55608 32.219498 
L 187.449924 32.219498 
L 191.697966 32.219513 
L 195.512308 32.219528 
L 198.899541 32.219528 
L 202.012091 32.219542 
L 204.861562 32.219557 
L 207.466502 32.219572 
L 209.888222 32.219586 
L 212.136472 32.219601 
L 214.247743 32.219615 
L 216.265648 32.21963 
L 218.139282 32.219652 
L 219.929158 32.219667 
L 221.787331 32.219689 
L 223.395687 32.219703 
L 224.921904 32.219725 
L 226.38441 32.219747 
L 227.786085 32.219769 
L 229.303098 32.219791 
L 230.590615 32.219806 
L 231.84548 32.219835 
L 233.038074 32.219849 
L 234.188219 32.219879 
L 235.302492 32.219901 
L 236.382611 32.21993 
L 237.437999 32.219952 
L 238.468288 32.219981 
L 239.446472 32.22001 
L 240.400524 32.22004 
L 241.10572 32.220061 
L 242.030427 32.220091 
L 242.938487 32.22012 
L 243.82958 32.220142 
L 244.951076 32.220178 
L 246.03469 32.220208 
L 246.836535 32.22023 
L 247.683073 32.220266 
L 248.432163 32.220295 
L 249.16604 32.220325 
L 249.890037 32.220354 
L 250.595421 32.220391 
L 251.284448 32.22042 
L 251.963148 32.220449 
L 252.623718 32.220478 
L 253.275422 32.220515 
L 253.921764 32.220551 
L 254.544684 32.220581 
L 255.180184 32.220617 
L 255.785428 32.220654 
L 256.375997 32.220683 
L 256.954103 32.22072 
L 257.525224 32.220756 
L 258.086516 32.220793 
L 258.637013 32.220829 
L 259.178786 32.220866 
L 259.712413 32.220902 
L 260.238252 32.220932 
L 260.771402 32.220975 
L 261.300648 32.221012 
L 261.809332 32.221049 
L 262.302692 32.221092 
L 262.787597 32.221129 
L 263.266399 32.221166 
L 263.739202 32.221209 
L 264.242889 32.221246 
L 264.708744 32.221283 
L 265.24125 32.221326 
L 265.700101 32.22137 
L 266.149659 32.221407 
L 266.642262 32.221451 
L 267.071327 32.221487 
L 267.499031 32.221531 
L 267.925885 32.221575 
L 268.338895 32.221619 
L 268.7478 32.221656 
L 269.148748 32.221692 
L 269.563812 32.221736 
L 269.967144 32.221787 
L 270.3548 32.221831 
L 270.737804 32.221875 
L 271.116847 32.221919 
L 271.491019 32.221963 
L 271.865687 32.222007 
L 272.23461 32.222058 
L 272.642986 32.222102 
L 273.033563 32.222146 
L 273.394588 32.222189 
L 273.753446 32.222233 
L 274.100932 32.222277 
L 274.444603 32.222321 
L 274.786793 32.22238 
L 275.124632 32.222423 
L 275.459078 32.222467 
" style="fill:none;stroke:#ff7f0e;stroke-linecap:square;stroke-width:1.5;"/>
   </g>
   <g id="line2d_57">
    <path clip-path="url(#p9a5652c1d3)" d="M 93.575444 32.201761 
L 139.122341 56.093417 
L 154.0592 83.946105 
L 164.333625 115.486851 
L 172.259764 146.983962 
L 178.716314 157.900275 
L 184.052802 160.799559 
L 188.619282 148.663687 
L 192.686297 141.151833 
L 196.27034 137.27914 
L 199.498639 137.407603 
L 202.528294 142.3016 
L 205.264257 151.484207 
L 207.787321 162.194067 
L 210.20021 171.498335 
L 212.380106 180.337393 
L 214.426627 187.759846 
L 216.370046 190.976261 
L 218.206707 191.864863 
L 219.952839 191.919809 
L 221.604439 190.619579 
L 223.17243 188.847421 
L 224.673111 187.975734 
L 226.118097 188.391139 
L 227.502381 189.992955 
L 228.83833 193.02536 
L 230.232767 197.286655 
L 231.443155 201.780557 
L 232.615631 206.223776 
L 233.749413 210.371941 
L 234.852648 213.434619 
L 235.921272 215.591346 
L 236.970222 217.121961 
L 237.980654 217.74801 
L 238.961266 217.621169 
L 239.912079 217.224734 
L 240.828488 216.576577 
L 241.720324 216.153551 
L 242.594525 216.258119 
L 243.447188 216.893293 
L 244.272454 218.032804 
L 245.087164 219.414413 
L 245.883705 220.884551 
L 246.650873 222.270814 
L 247.4024 223.356149 
L 248.140478 224.068153 
L 248.859658 224.458004 
L 249.564596 224.693227 
L 250.2552 224.767009 
L 250.932419 224.699709 
L 251.597978 224.720348 
L 252.247286 224.80451 
L 252.885702 224.918057 
L 253.509458 225.1341 
L 254.12397 225.431252 
L 254.725847 225.772179 
L 255.317501 226.120993 
L 255.900914 226.475053 
L 256.47469 226.771329 
L 257.039946 227.020253 
L 257.594144 227.246905 
L 258.138948 227.377689 
L 258.59592 227.459431 
L 259.098536 227.549655 
L 259.610647 227.598331 
L 260.066351 227.63074 
L 260.589773 227.700159 
L 261.088846 227.778438 
L 261.581573 227.860907 
L 262.145893 227.989009 
L 262.682362 228.144481 
L 263.190054 228.282379 
L 263.666021 228.379415 
L 264.138548 228.459734 
L 264.598281 228.545342 
L 265.05786 228.608042 
L 265.495249 228.647264 
L 265.959357 228.688888 
L 266.389886 228.744399 
L 266.843558 228.795229 
L 267.264592 228.845587 
L 267.702347 228.906919 
L 268.109175 228.973908 
L 268.514829 229.030976 
L 268.910386 229.082463 
L 269.319611 229.134682 
L 269.706149 229.178403 
L 270.095914 229.211644 
L 270.612276 229.248052 
L 271.018458 229.279358 
L 271.391737 229.311569 
L 271.780339 229.345505 
L 272.141882 229.380575 
L 272.514106 229.416504 
L 272.870671 229.45269 
L 273.221238 229.485464 
L 273.566932 229.51604 
L 273.908749 229.547709 
L 274.237399 229.577068 
L 274.578283 229.59697 
" style="fill:none;stroke:#2ca02c;stroke-linecap:square;stroke-width:1.5;"/>
   </g>
   <g id="line2d_58">
    <path clip-path="url(#p9a5652c1d3)" d="M 91.820497 32.201761 
L 131.445017 32.899954 
L 148.775909 33.617682 
L 160.083912 34.34859 
L 168.456928 35.08953 
L 175.0313 35.83863 
L 180.602539 36.594653 
L 185.451656 37.356721 
L 189.534955 38.124187 
L 193.123959 38.896512 
L 196.37423 39.672887 
L 199.305868 40.450577 
L 202.024325 41.231544 
L 204.610516 42.013272 
L 206.984966 42.796084 
L 209.166671 43.581378 
L 211.215004 44.371962 
L 213.144483 45.165985 
L 215.002632 45.963658 
L 216.721403 46.764462 
L 218.367242 47.568335 
L 219.962579 48.37449 
L 221.485959 49.182699 
L 222.916573 49.993114 
L 224.284304 50.803438 
L 225.659587 51.615099 
L 226.94279 52.42597 
L 228.196342 53.240681 
L 229.530336 54.057709 
L 230.706394 54.878877 
L 231.860476 55.703499 
L 232.957787 56.531151 
L 234.007647 57.361846 
L 235.00891 58.194822 
L 235.969923 59.030388 
L 236.9064 59.867942 
L 237.817643 60.707771 
L 238.704621 61.549378 
L 239.573727 62.392738 
L 240.490812 63.237951 
L 241.315815 64.085048 
L 242.149175 64.934305 
L 242.946441 65.785472 
L 243.711752 66.638681 
L 244.473307 67.493716 
L 245.201808 68.350656 
L 245.912433 69.209279 
L 246.612868 70.069609 
L 247.2984 70.931376 
L 247.969864 71.794788 
L 248.638304 72.659905 
L 249.283688 73.526869 
L 249.922666 74.395548 
L 250.543906 75.265938 
L 251.149813 76.137951 
L 251.747918 77.011614 
L 252.344637 77.886809 
L 252.923229 78.763611 
L 253.489209 79.641865 
L 254.048456 80.521689 
L 254.604769 81.402887 
L 255.149782 82.285598 
L 255.681956 83.169607 
L 256.207632 84.055078 
L 256.726423 84.941766 
L 257.241386 85.829853 
L 257.748373 86.719065 
L 258.249602 87.609613 
L 258.74875 88.501187 
L 259.243799 89.394026 
L 259.753895 90.287802 
L 260.239437 91.18275 
L 260.724852 92.078583 
L 261.209419 92.975461 
L 261.687356 93.873191 
L 262.163588 94.771844 
L 262.638741 95.67129 
L 263.10843 96.571535 
L 263.618631 97.472497 
L 264.119527 98.374129 
L 264.574785 99.276383 
L 265.019505 100.179181 
L 265.457661 101.082496 
L 265.888148 101.98622 
L 266.313561 102.890345 
L 266.733421 103.794753 
L 267.148641 104.699419 
L 267.559645 105.60425 
L 267.973853 106.509189 
L 268.385869 107.414145 
L 268.78589 108.31907 
L 269.188626 109.22386 
L 269.624807 110.128469 
L 270.007599 111.032782 
L 270.385355 111.936753 
L 270.759549 112.840262 
L 271.063311 113.743275 
L 271.411182 114.645647 
L 271.840195 115.547364 
L 272.208379 116.448248 
" style="fill:none;stroke:#d62728;stroke-linecap:square;stroke-width:1.5;"/>
   </g>
   <g id="line2d_59">
    <path clip-path="url(#p9a5652c1d3)" d="M 92.829258 32.201761 
L 132.283193 56.093417 
L 149.362857 81.179194 
L 160.885324 106.873642 
L 169.476139 129.403247 
L 176.575796 150.156185 
L 182.042093 165.336753 
L 186.925549 175.175562 
L 191.17074 179.417964 
L 194.93064 179.76347 
L 198.291466 178.111719 
L 201.343823 176.184011 
L 204.120431 174.676665 
L 206.627252 174.495908 
L 209.003411 176.01803 
L 211.243723 178.545844 
L 213.320453 181.610685 
L 215.280626 185.110682 
L 217.080992 188.96539 
L 218.829571 192.886135 
L 220.47547 196.413847 
L 222.044269 199.565575 
L 223.534008 202.38522 
L 224.946922 204.642759 
L 226.295497 206.341537 
L 227.625572 207.7508 
L 228.920049 208.950713 
L 230.288381 209.854413 
L 231.514406 210.478481 
L 232.695592 210.9608 
L 233.842249 211.396805 
L 234.949463 211.7941 
L 236.023536 212.200003 
L 237.05512 212.64664 
L 238.054117 213.089452 
L 239.032381 213.514719 
L 239.979279 213.996073 
L 240.908035 214.55988 
L 241.804789 215.163089 
L 242.681858 215.758283 
L 243.537347 216.31875 
L 244.348444 216.882255 
L 245.129954 217.466132 
L 245.923341 218.031835 
L 246.692758 218.552926 
L 247.451102 219.032829 
L 248.192825 219.485974 
L 248.925786 219.903852 
L 249.6339 220.274492 
L 250.329312 220.607606 
L 251.027105 220.914884 
L 251.693335 221.187509 
L 252.359896 221.415756 
L 253.005953 221.613374 
L 253.636192 221.794628 
L 254.256095 221.958848 
L 254.86729 222.101221 
L 255.466951 222.22492 
L 256.062681 222.343432 
L 256.511241 222.46411 
L 256.982498 222.581023 
L 257.414028 222.691431 
L 257.851552 222.801865 
L 258.284425 222.915841 
L 258.704404 223.031211 
L 259.124327 223.146355 
L 259.537988 223.262765 
L 260.027939 223.380207 
L 260.513248 223.494876 
L 261.009669 223.605518 
L 261.495197 223.713685 
L 261.968845 223.81941 
L 262.451488 223.920384 
L 262.931058 224.016154 
L 263.438324 224.107828 
L 263.919973 224.195501 
L 264.375549 224.279124 
L 264.825529 224.358333 
L 265.268652 224.433402 
L 265.707995 224.505516 
L 266.141179 224.575159 
L 266.569021 224.642141 
L 266.993668 224.706979 
L 267.413591 224.77047 
L 267.824651 224.832652 
L 268.231355 224.893469 
L 268.634574 224.953184 
L 269.031529 225.012066 
L 269.435699 225.07018 
L 269.823168 225.127598 
L 270.205504 225.184297 
L 270.584016 225.240291 
L 270.960023 225.295594 
L 271.328486 225.350171 
L 271.693987 225.403874 
L 272.057 225.456684 
L 272.415519 225.508704 
L 272.776769 225.559843 
L 273.132897 225.609966 
L 273.488443 225.65916 
" style="fill:none;stroke:#9467bd;stroke-linecap:square;stroke-width:1.5;"/>
   </g>
   <g id="line2d_60">
    <path clip-path="url(#p9a5652c1d3)" d="M 92.628525 32.201761 
L 131.232165 32.205314 
L 148.628868 32.208853 
L 160.0067 32.212399 
L 168.479464 32.215945 
L 175.339254 32.219491 
L 180.917551 32.223038 
L 185.73539 32.226577 
L 189.949539 32.230117 
L 193.794423 32.233671 
L 197.151902 32.237211 
L 200.222508 32.240752 
L 203.030104 32.244299 
L 205.603802 32.247847 
L 208.00549 32.251388 
L 210.245333 32.254937 
L 212.356018 32.258485 
L 214.340337 32.262027 
L 216.232376 32.265568 
L 217.992645 32.26911 
L 219.682136 32.272652 
L 221.28667 32.276195 
L 222.837887 32.279745 
L 224.318448 32.28328 
L 225.84267 32.28683 
L 227.189289 32.290373 
L 228.479839 32.293917 
L 229.76309 32.297467 
L 230.955982 32.301004 
L 232.126215 32.304548 
L 233.352539 32.308099 
L 234.429637 32.311629 
L 235.466817 32.315173 
L 236.474995 32.318711 
L 237.447772 32.322256 
L 238.406827 32.325801 
L 239.327679 32.329346 
L 240.241074 32.332892 
L 241.113366 32.33643 
L 241.967889 32.339976 
L 242.802258 32.343515 
L 243.61644 32.347062 
L 244.470454 32.350608 
L 245.251558 32.35414 
L 246.001773 32.357695 
L 246.737542 32.361235 
L 247.459443 32.364775 
L 248.184777 32.368315 
L 248.879065 32.371855 
L 249.559149 32.375403 
L 250.225063 32.378944 
L 250.871715 32.382493 
L 251.510644 32.386034 
L 252.137272 32.389576 
L 252.75235 32.39311 
L 253.365639 32.396652 
L 253.973876 32.400194 
L 254.559818 32.403736 
L 255.144048 32.407279 
L 255.726606 32.410822 
L 256.315502 32.414364 
L 256.854573 32.417908 
L 257.39074 32.421447 
L 257.92045 32.424987 
L 258.448723 32.428531 
L 258.956268 32.432075 
L 259.468451 32.435612 
L 259.972023 32.439156 
L 260.461963 32.442697 
L 260.947245 32.446242 
L 261.421182 32.449783 
L 261.890334 32.453324 
L 262.347805 32.456862 
L 262.803845 32.460401 
L 263.294448 32.463943 
L 263.745022 32.467489 
L 264.222089 32.471024 
L 264.656183 32.474567 
L 265.082047 32.47811 
L 265.503515 32.481653 
L 265.915708 32.485189 
L 266.32371 32.488729 
L 266.728225 32.492272 
L 267.130297 32.495816 
L 267.525925 32.49935 
L 267.947064 32.502898 
L 268.345684 32.506427 
L 268.741668 32.509976 
L 269.147972 32.513517 
L 269.530093 32.517051 
L 269.923788 32.5206 
L 270.286169 32.524131 
L 270.657407 32.527673 
L 271.016899 32.531212 
L 271.381058 32.534754 
L 271.736355 32.538294 
L 272.084537 32.54184 
L 272.429413 32.545376 
L 272.789406 32.548912 
L 273.129722 32.552452 
" style="fill:none;stroke:#8c564b;stroke-linecap:square;stroke-width:1.5;"/>
   </g>
   <g id="line2d_61">
    <path clip-path="url(#p9a5652c1d3)" d="M 93.122427 32.201761 
L 136.303479 32.201827 
L 155.14818 63.070318 
L 167.71876 122.274601 
L 176.892429 147.902716 
L 184.162814 158.495023 
L 190.37789 162.939705 
L 195.746985 166.129987 
L 200.517384 169.826626 
L 204.728036 175.147797 
L 208.598145 182.070601 
L 212.129069 188.895989 
L 215.417507 193.634412 
L 218.38777 197.398781 
L 221.230045 199.379295 
L 223.92754 200.569701 
L 226.304993 201.618655 
L 228.587558 202.93426 
L 231.130765 204.603548 
L 233.176598 206.329472 
L 235.097101 208.117606 
L 236.711817 209.658406 
L 238.258271 210.902818 
L 239.723166 212.013188 
L 241.145497 213.053076 
L 242.486104 214.171464 
L 243.761254 215.271803 
L 244.947939 216.167591 
L 246.136925 216.928642 
L 247.312558 217.517895 
L 248.470296 218.025874 
L 249.626601 218.534986 
L 250.802723 219.07861 
L 251.947849 219.701518 
L 253.176661 220.296296 
L 254.342422 220.853003 
L 255.435641 221.352668 
L 256.470078 221.762317 
L 257.473402 222.150715 
L 258.45915 222.537516 
L 259.45151 222.914838 
L 260.39815 223.267508 
L 261.514714 223.580348 
L 262.561589 223.864322 
L 263.756974 224.118614 
L 264.687442 224.392193 
L 265.462232 224.64818 
L 266.156057 224.907748 
L 266.835589 225.126884 
L 267.5223 225.349201 
L 268.444893 225.60725 
L 269.149669 225.829443 
L 269.858244 226.010933 
L 270.534531 226.242077 
L 271.226547 226.443494 
L 271.968204 226.622464 
L 272.627617 226.796549 
L 273.346659 226.948725 
L 274.033752 227.127572 
L 274.679257 227.308192 
L 275.305838 227.476074 
L 276.127612 227.635663 
L 276.894261 227.76658 
L 277.528314 227.880009 
L 278.113461 227.982029 
L 278.666419 228.096611 
L 279.236518 228.173575 
L 279.797417 228.313994 
L 280.335969 228.37348 
L 280.907598 228.450693 
L 281.485579 228.534867 
L 282.080963 228.591573 
L 282.61767 228.654855 
L 283.137983 228.692121 
L 283.675295 228.732416 
L 284.219618 228.757851 
L 284.756331 228.821359 
L 285.304611 228.870098 
L 285.806805 228.897483 
L 286.304805 228.937533 
L 286.844982 228.970353 
L 287.357264 228.994925 
L 287.885711 229.018886 
L 288.401099 229.036381 
L 288.854909 229.062995 
L 289.295521 229.11034 
L 289.867569 229.172279 
L 290.350188 229.209955 
L 290.738796 229.27505 
L 291.279235 229.355849 
L 291.705705 229.414741 
L 292.126183 229.462178 
L 292.54077 229.521821 
L 292.953308 229.576814 
L 293.365582 229.631336 
L 293.773938 229.666026 
L 294.199745 229.696301 
L 294.609319 229.731283 
L 295.058351 229.798841 
L 295.482096 229.874489 
" style="fill:none;stroke:#e377c2;stroke-linecap:square;stroke-width:1.5;"/>
   </g>
   <g id="line2d_62">
    <path clip-path="url(#p9a5652c1d3)" d="M 60.696307 32.201761 
L 111.541852 56.093423 
L 130.601106 73.223128 
L 143.066253 87.304282 
L 151.851645 85.32515 
L 158.842847 93.704605 
L 164.68855 108.80092 
L 170.113234 118.880745 
L 174.318138 126.951629 
L 178.159929 133.836035 
L 181.883311 139.590622 
L 185.186143 144.463774 
L 188.096762 149.080767 
L 190.871099 153.232036 
L 193.585275 156.835526 
L 195.930943 159.957635 
L 198.132951 162.821419 
L 200.412823 165.529791 
L 202.912483 168.110815 
L 205.365616 170.539092 
L 208.124994 172.792999 
L 210.417572 174.871626 
L 212.46987 176.791612 
L 214.133478 178.578434 
L 215.690855 180.255239 
L 217.115145 181.838456 
L 218.455904 183.336689 
L 219.760658 184.755819 
L 221.178577 186.096628 
L 222.123065 187.361179 
L 223.497502 188.549917 
L 224.690992 189.666095 
L 226.05762 190.716394 
L 227.209004 191.706962 
L 228.362763 192.646792 
L 229.586926 193.538463 
L 230.660724 194.387566 
L 231.727036 195.193262 
L 232.73611 195.959602 
L 233.775111 196.685966 
L 234.802351 197.376758 
L 235.802588 198.032681 
L 236.726478 198.658551 
L 237.654889 199.255551 
L 238.516737 199.827159 
L 239.385894 200.373947 
L 240.227267 200.898158 
L 241.035367 201.400124 
L 241.79306 201.881213 
L 242.567707 202.341587 
L 243.395031 202.781372 
L 244.109136 203.199239 
L 244.846336 203.593266 
L 245.514341 203.960911 
L 246.170863 204.300136 
L 246.82081 204.609151 
L 247.476166 204.888047 
L 248.121863 205.13793 
L 248.7755 205.362956 
L 249.38712 205.568176 
L 249.998093 205.762155 
L 250.638409 205.952451 
L 251.247274 206.14921 
L 251.839242 206.358536 
L 252.411774 206.587562 
L 252.954927 206.836372 
L 253.495387 207.104884 
L 254.045379 207.385321 
L 254.516905 207.671007 
L 254.989681 207.951086 
L 255.404194 208.219234 
L 255.897139 208.468855 
L 256.301759 208.699359 
L 256.756903 208.910387 
L 257.168588 209.106531 
L 257.640764 209.290537 
L 258.090069 209.467627 
L 258.558911 209.637964 
L 259.01675 209.802957 
L 259.499322 209.960557 
L 259.95562 210.113168 
L 260.402033 210.264434 
L 260.844037 210.421373 
L 261.289413 210.589055 
L 261.704734 210.767756 
L 262.110026 210.952783 
L 262.550266 211.136444 
L 262.979195 211.313559 
L 263.389086 211.481349 
L 263.794167 211.641929 
L 264.193062 211.796489 
L 264.583503 211.947966 
L 264.985002 212.094186 
L 265.373276 212.234179 
L 265.752826 212.36289 
L 266.122516 212.478833 
L 266.498832 212.579553 
L 266.858608 212.665667 
L 267.212687 212.737639 
L 267.574555 212.795641 
" style="fill:none;stroke:#7f7f7f;stroke-linecap:square;stroke-width:1.5;"/>
   </g>
   <g id="line2d_63">
    <path clip-path="url(#p9a5652c1d3)" d="M 88.0755 32.201761 
L 132.973715 34.421503 
L 149.221805 36.676453 
L 160.56711 38.967514 
L 169.597968 41.295585 
L 176.618985 43.661596 
L 182.079449 46.066469 
L 186.605566 48.511148 
L 191.669546 50.996578 
L 195.08466 53.523695 
L 198.191043 56.093423 
L 201.005468 58.706682 
L 203.587062 61.364362 
L 205.994024 64.067323 
L 208.288195 66.816362 
L 210.469836 69.612212 
L 212.915517 72.455534 
L 215.181598 75.346879 
L 217.310214 78.286658 
L 219.330365 81.275128 
L 221.354453 84.312341 
L 223.050477 87.398091 
L 224.599896 90.531895 
L 226.00014 93.712917 
L 227.368574 96.939859 
L 229.054104 100.210965 
L 230.215869 103.523842 
L 231.09755 106.875388 
L 232.029095 110.261685 
L 232.987331 113.677812 
L 233.833136 117.11774 
L 234.825541 120.57411 
L 235.616214 124.038068 
L 236.539193 127.499067 
L 237.289029 130.944646 
L 238.219881 134.360246 
L 238.728414 137.729001 
L 239.136479 141.031596 
L 239.541403 144.246201 
L 240.130636 147.347098 
L 240.549801 150.300605 
L 240.978486 153.075583 
L 241.336666 155.677375 
L 241.777004 158.149771 
L 242.308624 160.48119 
L 242.823295 162.684049 
L 243.243913 164.714186 
L 243.569759 166.629714 
L 243.900978 168.417792 
L 244.231432 170.081422 
L 244.574355 171.672649 
L 244.917353 173.190278 
L 245.221346 174.620939 
L 245.521194 175.993848 
L 245.868424 177.304486 
L 246.190374 178.603599 
L 246.480643 179.847319 
L 246.881481 181.022322 
L 247.172555 182.152975 
L 247.510716 183.255982 
L 247.812238 184.304414 
L 248.117038 185.323821 
L 248.459287 186.28975 
L 248.780587 187.222048 
L 249.104036 188.123172 
L 249.502172 189.013596 
L 249.880924 189.902212 
L 250.273371 190.761209 
L 250.654841 191.599488 
L 251.057528 192.414209 
L 251.440265 193.198399 
L 251.828228 193.955095 
L 252.208956 194.700836 
L 252.586589 195.439846 
L 252.97299 196.166277 
L 253.374165 196.891574 
L 253.737275 197.601551 
L 254.108524 198.289948 
L 254.531265 198.953664 
L 254.971672 199.603183 
L 255.373739 200.234129 
L 255.78339 200.855828 
L 256.178735 201.456012 
L 256.597765 202.035068 
L 256.970836 202.609024 
L 257.368727 203.16641 
L 257.741636 203.699087 
L 258.08116 204.223032 
L 258.407282 204.726117 
L 258.808452 205.22043 
L 259.167585 205.705604 
L 259.55848 206.192197 
L 260.003103 206.662778 
L 260.48571 207.129072 
L 260.985115 207.584376 
L 261.560668 208.04155 
L 262.011652 208.477116 
L 262.447435 208.912191 
L 262.899683 209.325929 
L 263.324751 209.717668 
" style="fill:none;stroke:#bcbd22;stroke-linecap:square;stroke-width:1.5;"/>
   </g>
   <g id="line2d_64">
    <path clip-path="url(#p9a5652c1d3)" d="M 210.744206 45.241276 
L 230.170725 59.376413 
L 239.984128 74.615862 
L 251.26601 90.096482 
L 259.951334 94.539555 
L 264.560843 112.327002 
L 268.640159 116.882448 
L 273.680432 134.588032 
L 276.201574 135.985594 
L 280.191946 137.221446 
L 283.670639 141.645215 
L 286.683615 145.865808 
L 289.376817 147.062107 
L 292.011271 151.422816 
L 293.780594 152.569922 
L 295.242732 156.972056 
L 297.600892 161.053433 
L 298.943445 162.188247 
L 300.236118 166.372119 
L 301.450858 167.432009 
L 302.6323 171.560375 
L 303.996515 175.463923 
L 304.993467 176.433124 
L 306.044499 180.18511 
L 306.96695 181.085166 
L 307.973395 184.388329 
L 308.723213 184.661236 
L 309.46601 184.901719 
L 310.286362 185.714148 
L 311.085502 186.528241 
L 311.867455 187.334684 
L 312.644664 188.131099 
L 313.390553 188.914429 
L 314.125833 189.682501 
L 314.857743 190.433463 
L 315.55909 191.162541 
L 316.247751 191.866301 
L 316.948178 192.536497 
L 317.522247 192.730744 
L 318.178388 193.427533 
L 318.821489 194.086404 
L 319.364727 194.271508 
L 319.986278 194.944929 
L 320.585786 195.574794 
L 321.102487 195.753619 
L 321.689238 196.39706 
L 322.666297 196.983341 
L 323.483364 197.159211 
L 324.025913 197.764203 
L 324.496822 197.929366 
L 325.07167 198.540099 
L 325.906918 199.096943 
L 326.352079 199.260476 
L 326.852916 199.82947 
L 327.283519 199.982986 
L 327.85369 202.021538 
L 328.302539 202.238605 
L 328.714742 202.391978 
L 329.183187 202.8959 
L 329.585038 203.035055 
L 330.463292 204.850667 
L 331.21067 205.05687 
L 331.697582 205.194466 
L 332.268264 205.651853 
L 332.646238 205.773415 
L 333.126966 207.494006 
L 333.631085 207.636001 
L 334.100329 207.754197 
L 334.499629 208.175286 
L 334.899639 208.580856 
L 335.244547 208.689335 
L 335.685398 210.163043 
L 336.059631 210.302289 
L 336.391623 210.41083 
L 336.767147 210.782112 
L 337.090341 210.880392 
L 337.504607 212.227633 
L 337.990366 212.356071 
L 338.315908 212.454645 
L 338.668391 212.783819 
L 338.979366 212.873433 
L 339.395985 214.03569 
L 340.066351 214.174136 
L 340.475906 214.272411 
L 340.872389 214.35596 
L 341.214986 214.666132 
L 341.553683 214.947425 
L 341.792918 214.97084 
L 342.069508 215.046953 
L 342.564184 215.121307 
L 342.87421 215.195591 
L 343.171953 215.269798 
L 343.491472 215.528282 
L 343.724525 215.556684 
L 343.94474 215.580211 
L 344.176068 215.600711 
L 344.440812 215.6715 
L 344.701809 215.742181 
L 344.958418 215.812063 
L 345.294378 215.881804 
" style="fill:none;stroke:#17becf;stroke-dasharray:5.55,2.4;stroke-dashoffset:0;stroke-width:1.5;"/>
   </g>
   <g id="line2d_65">
    <path clip-path="url(#p9a5652c1d3)" d="M 201.631414 131.7332 
L 212.011601 142.713238 
L 219.08598 146.692998 
L 226.61209 149.946752 
L 233.488199 152.578561 
L 239.408036 154.968536 
L 244.18272 157.174159 
L 247.672583 159.244512 
L 250.712604 161.191035 
L 253.370329 163.040827 
L 255.94863 164.794862 
L 259.040084 166.47085 
L 262.157293 168.068011 
L 265.357803 169.594942 
L 268.586382 171.055663 
L 271.813353 172.453062 
L 274.348101 173.792457 
L 276.795018 175.075161 
L 279.177707 176.306165 
L 281.741823 177.485895 
L 284.325351 178.616733 
L 286.643967 179.698075 
L 288.536967 180.605293 
L 290.8961 189.719402 
L 292.788793 193.202044 
L 294.625579 195.142838 
L 296.125093 195.999773 
L 297.910439 196.932173 
L 299.290287 197.741618 
L 300.783579 198.338405 
L 302.13657 198.939916 
L 303.411831 199.393721 
L 304.611668 199.728914 
L 305.779499 200.056243 
L 306.886288 200.374847 
L 307.980356 200.686911 
L 309.039707 200.990341 
L 310.045756 201.287823 
L 311.015848 201.577273 
L 312.026402 201.862031 
L 312.94083 202.139669 
L 313.828076 202.412734 
L 314.687047 202.680525 
L 315.526599 202.941152 
L 316.295521 203.198342 
L 317.077231 203.447121 
L 317.835913 203.699984 
L 318.595166 203.944033 
L 319.342522 204.184272 
L 320.074437 204.415714 
L 320.786845 204.646218 
L 321.492775 204.868211 
L 322.181006 205.089248 
L 322.856108 205.302048 
L 323.513571 205.514521 
L 324.158163 205.719275 
L 324.823427 205.924124 
L 325.472207 206.121636 
L 326.093289 206.319258 
L 326.709502 206.509751 
L 327.288313 206.700299 
L 327.962507 206.88416 
L 328.573999 207.068032 
L 329.065704 207.24552 
L 329.561729 207.422914 
L 330.069116 207.594162 
L 330.642296 207.766992 
L 331.193178 207.933717 
L 331.671051 208.103786 
L 332.156955 208.267669 
L 332.632344 208.429896 
L 333.113807 208.586455 
L 333.556415 208.743796 
L 333.988896 208.89573 
L 334.446002 209.050221 
L 334.839397 209.199367 
L 335.254546 209.347288 
L 335.677742 209.490228 
L 336.134719 209.635772 
L 336.636257 209.774429 
L 337.048965 209.915119 
L 337.457838 210.048156 
L 337.890638 210.18158 
L 338.301263 210.309681 
L 338.707582 210.436915 
L 339.118528 210.561408 
L 339.531585 210.684592 
L 339.913147 210.80598 
L 340.124499 210.925877 
L 340.368717 211.044171 
L 340.657892 211.160985 
L 340.957029 211.276293 
L 341.199577 211.373278 
L 341.645586 213.172888 
L 342.003914 214.697898 
L 342.338857 214.828705 
L 342.635266 214.910201 
L 342.969923 215.122387 
L 343.244989 215.235983 
L 343.602875 215.586502 
" style="fill:none;stroke:#1f77b4;stroke-dasharray:5.55,2.4;stroke-dashoffset:0;stroke-width:1.5;"/>
   </g>
   <g id="line2d_66">
    <path clip-path="url(#p9a5652c1d3)" d="M 289.589243 144.234385 
L 312.075321 195.17745 
L 326.157799 213.402431 
L 334.925227 216.714219 
L 342.509766 224.300006 
L 348.394556 227.390229 
L 353.447132 227.991436 
L 357.741661 228.774893 
L 361.562171 229.061047 
L 365.059943 229.353526 
" style="fill:none;stroke:#ff7f0e;stroke-dasharray:5.55,2.4;stroke-dashoffset:0;stroke-width:1.5;"/>
   </g>
   <g id="line2d_67">
    <path clip-path="url(#p9a5652c1d3)" d="M 126.584093 32.201761 
L 164.256805 32.201761 
L 175.245698 32.201761 
L 183.512306 32.201761 
L 189.968589 32.201761 
L 193.154431 32.201761 
L 196.082162 32.201761 
L 198.894641 32.201761 
L 201.471501 32.201761 
L 203.873908 32.201761 
L 206.139928 32.201761 
L 208.301383 32.201761 
L 210.334073 32.201761 
L 212.261933 32.201761 
L 214.105568 32.201761 
L 215.880099 32.201761 
L 217.601526 32.201761 
L 219.294066 32.201761 
L 220.921779 32.201761 
L 222.533998 32.201761 
L 224.142801 32.201761 
L 225.708474 32.201761 
L 227.1933 32.201761 
L 228.621566 32.201761 
L 230.207455 32.201761 
L 231.589508 32.201761 
L 232.905176 32.201761 
L 234.193259 32.201761 
L 235.444099 32.201761 
L 236.671141 32.201761 
L 237.884306 32.201761 
L 239.07104 32.201761 
L 240.22996 32.201761 
L 241.374898 32.201761 
L 242.55469 32.201761 
L 243.664556 32.201761 
L 244.746905 32.201761 
L 245.847053 32.201761 
L 246.919042 32.201761 
L 247.960966 32.201761 
L 248.979685 32.201761 
L 249.957023 32.201761 
L 250.911036 32.201761 
L 251.838248 32.201761 
L 252.741158 32.201761 
L 253.634039 32.201761 
L 254.5252 32.201761 
L 255.354236 32.201761 
L 256.19283 32.201761 
L 257.003931 32.201761 
L 257.796682 32.201761 
L 258.580076 32.201761 
L 259.311349 32.201761 
L 260.001639 32.201761 
L 260.694464 32.201761 
L 261.386395 32.201761 
L 262.108607 32.201761 
L 262.795795 32.201761 
L 263.47151 32.201761 
L 264.135412 32.201761 
L 264.785155 32.201761 
L 265.428505 32.201761 
L 266.059133 32.201761 
L 266.675132 32.201761 
L 267.289433 32.201761 
L 267.883963 32.201761 
L 268.46534 32.201761 
L 269.038326 32.201761 
L 269.60246 32.201761 
L 270.146402 32.201761 
L 270.712634 32.201761 
L 271.29922 32.201761 
L 271.862959 32.201761 
L 272.40164 32.201761 
L 272.93191 32.201761 
L 273.460339 32.201761 
L 274.003415 32.201761 
L 274.507072 32.201761 
L 275.00822 32.201761 
L 275.484437 32.201761 
L 275.954921 32.201761 
L 276.436853 32.201761 
L 276.899631 32.201761 
L 277.357888 32.201761 
L 277.811207 32.201761 
L 278.255333 32.201761 
L 278.712597 32.201761 
L 279.148366 32.201761 
L 279.586622 32.201761 
L 280.010345 32.201761 
L 280.43347 32.201761 
L 280.824386 32.201761 
L 281.241354 32.201761 
L 281.681657 32.201761 
L 282.087898 32.201761 
L 282.485157 32.201761 
L 282.875407 32.201761 
L 283.25964 32.201761 
L 283.647616 32.201761 
L 284.026681 32.201761 
" style="fill:none;stroke:#2ca02c;stroke-dasharray:5.55,2.4;stroke-dashoffset:0;stroke-width:1.5;"/>
   </g>
   <g id="patch_3">
    <path d="M 45.478125 239.758125 
L 45.478125 22.318125 
" style="fill:none;stroke:#000000;stroke-linecap:square;stroke-linejoin:miter;stroke-width:0.8;"/>
   </g>
   <g id="patch_4">
    <path d="M 380.278125 239.758125 
L 380.278125 22.318125 
" style="fill:none;stroke:#000000;stroke-linecap:square;stroke-linejoin:miter;stroke-width:0.8;"/>
   </g>
   <g id="patch_5">
    <path d="M 45.478125 239.758125 
L 380.278125 239.758125 
" style="fill:none;stroke:#000000;stroke-linecap:square;stroke-linejoin:miter;stroke-width:0.8;"/>
   </g>
   <g id="patch_6">
    <path d="M 45.478125 22.318125 
L 380.278125 22.318125 
" style="fill:none;stroke:#000000;stroke-linecap:square;stroke-linejoin:miter;stroke-width:0.8;"/>
   </g>
   <g id="text_9">
    <!-- TGG119 - Multi -->
    <g transform="translate(167.819063 16.318125)scale(0.12 -0.12)">
     <defs>
      <path d="M -0.296875 72.90625 
L 61.375 72.90625 
L 61.375 64.59375 
L 35.5 64.59375 
L 35.5 0 
L 25.59375 0 
L 25.59375 64.59375 
L -0.296875 64.59375 
z
" id="DejaVuSans-84"/>
      <path d="M 59.515625 10.40625 
L 59.515625 29.984375 
L 43.40625 29.984375 
L 43.40625 38.09375 
L 69.28125 38.09375 
L 69.28125 6.78125 
Q 63.578125 2.734375 56.6875 0.65625 
Q 49.8125 -1.421875 42 -1.421875 
Q 24.90625 -1.421875 15.25 8.5625 
Q 5.609375 18.5625 5.609375 36.375 
Q 5.609375 54.25 15.25 64.234375 
Q 24.90625 74.21875 42 74.21875 
Q 49.125 74.21875 55.546875 72.453125 
Q 61.96875 70.703125 67.390625 67.28125 
L 67.390625 56.78125 
Q 61.921875 61.421875 55.765625 63.765625 
Q 49.609375 66.109375 42.828125 66.109375 
Q 29.4375 66.109375 22.71875 58.640625 
Q 16.015625 51.171875 16.015625 36.375 
Q 16.015625 21.625 22.71875 14.15625 
Q 29.4375 6.6875 42.828125 6.6875 
Q 48.046875 6.6875 52.140625 7.59375 
Q 56.25 8.5 59.515625 10.40625 
z
" id="DejaVuSans-71"/>
      <path d="M 10.984375 1.515625 
L 10.984375 10.5 
Q 14.703125 8.734375 18.5 7.8125 
Q 22.3125 6.890625 25.984375 6.890625 
Q 35.75 6.890625 40.890625 13.453125 
Q 46.046875 20.015625 46.78125 33.40625 
Q 43.953125 29.203125 39.59375 26.953125 
Q 35.25 24.703125 29.984375 24.703125 
Q 19.046875 24.703125 12.671875 31.3125 
Q 6.296875 37.9375 6.296875 49.421875 
Q 6.296875 60.640625 12.9375 67.421875 
Q 19.578125 74.21875 30.609375 74.21875 
Q 43.265625 74.21875 49.921875 64.515625 
Q 56.59375 54.828125 56.59375 36.375 
Q 56.59375 19.140625 48.40625 8.859375 
Q 40.234375 -1.421875 26.421875 -1.421875 
Q 22.703125 -1.421875 18.890625 -0.6875 
Q 15.09375 0.046875 10.984375 1.515625 
z
M 30.609375 32.421875 
Q 37.25 32.421875 41.125 36.953125 
Q 45.015625 41.5 45.015625 49.421875 
Q 45.015625 57.28125 41.125 61.84375 
Q 37.25 66.40625 30.609375 66.40625 
Q 23.96875 66.40625 20.09375 61.84375 
Q 16.21875 57.28125 16.21875 49.421875 
Q 16.21875 41.5 20.09375 36.953125 
Q 23.96875 32.421875 30.609375 32.421875 
z
" id="DejaVuSans-57"/>
      <path d="M 4.890625 31.390625 
L 31.203125 31.390625 
L 31.203125 23.390625 
L 4.890625 23.390625 
z
" id="DejaVuSans-45"/>
      <path d="M 9.8125 72.90625 
L 24.515625 72.90625 
L 43.109375 23.296875 
L 61.8125 72.90625 
L 76.515625 72.90625 
L 76.515625 0 
L 66.890625 0 
L 66.890625 64.015625 
L 48.09375 14.015625 
L 38.1875 14.015625 
L 19.390625 64.015625 
L 19.390625 0 
L 9.8125 0 
z
" id="DejaVuSans-77"/>
      <path d="M 8.5 21.578125 
L 8.5 54.6875 
L 17.484375 54.6875 
L 17.484375 21.921875 
Q 17.484375 14.15625 20.5 10.265625 
Q 23.53125 6.390625 29.59375 6.390625 
Q 36.859375 6.390625 41.078125 11.03125 
Q 45.3125 15.671875 45.3125 23.6875 
L 45.3125 54.6875 
L 54.296875 54.6875 
L 54.296875 0 
L 45.3125 0 
L 45.3125 8.40625 
Q 42.046875 3.421875 37.71875 1 
Q 33.40625 -1.421875 27.6875 -1.421875 
Q 18.265625 -1.421875 13.375 4.4375 
Q 8.5 10.296875 8.5 21.578125 
z
M 31.109375 56 
z
" id="DejaVuSans-117"/>
      <path d="M 9.421875 75.984375 
L 18.40625 75.984375 
L 18.40625 0 
L 9.421875 0 
z
" id="DejaVuSans-108"/>
     </defs>
     <use xlink:href="#DejaVuSans-84"/>
     <use x="61.083984" xlink:href="#DejaVuSans-71"/>
     <use x="138.574219" xlink:href="#DejaVuSans-71"/>
     <use x="216.064453" xlink:href="#DejaVuSans-49"/>
     <use x="279.6875" xlink:href="#DejaVuSans-49"/>
     <use x="343.310547" xlink:href="#DejaVuSans-57"/>
     <use x="406.933594" xlink:href="#DejaVuSans-32"/>
     <use x="438.720703" xlink:href="#DejaVuSans-45"/>
     <use x="474.804688" xlink:href="#DejaVuSans-32"/>
     <use x="506.591797" xlink:href="#DejaVuSans-77"/>
     <use x="592.871094" xlink:href="#DejaVuSans-117"/>
     <use x="656.25" xlink:href="#DejaVuSans-108"/>
     <use x="684.033203" xlink:href="#DejaVuSans-116"/>
     <use x="723.242188" xlink:href="#DejaVuSans-105"/>
    </g>
   </g>
   <g id="legend_1">
    <g id="patch_7">
     <path d="M 390.626125 221.13375 
L 479.15425 221.13375 
Q 481.15425 221.13375 481.15425 219.13375 
L 481.15425 29.318125 
Q 481.15425 27.318125 479.15425 27.318125 
L 390.626125 27.318125 
Q 388.626125 27.318125 388.626125 29.318125 
L 388.626125 219.13375 
Q 388.626125 221.13375 390.626125 221.13375 
z
" style="fill:#ffffff;opacity:0.8;stroke:#cccccc;stroke-linejoin:miter;"/>
    </g>
    <g id="line2d_68">
     <path d="M 392.626125 35.416562 
L 412.626125 35.416562 
" style="fill:none;stroke:#1f77b4;stroke-linecap:square;stroke-width:1.5;"/>
    </g>
    <g id="line2d_69"/>
    <g id="text_10">
     <!-- NAdam -->
     <g transform="translate(420.626125 38.916562)scale(0.1 -0.1)">
      <defs>
       <path d="M 9.8125 72.90625 
L 23.09375 72.90625 
L 55.421875 11.921875 
L 55.421875 72.90625 
L 64.984375 72.90625 
L 64.984375 0 
L 51.703125 0 
L 19.390625 60.984375 
L 19.390625 0 
L 9.8125 0 
z
" id="DejaVuSans-78"/>
       <path d="M 34.1875 63.1875 
L 20.796875 26.90625 
L 47.609375 26.90625 
z
M 28.609375 72.90625 
L 39.796875 72.90625 
L 67.578125 0 
L 57.328125 0 
L 50.6875 18.703125 
L 17.828125 18.703125 
L 11.1875 0 
L 0.78125 0 
z
" id="DejaVuSans-65"/>
       <path d="M 45.40625 46.390625 
L 45.40625 75.984375 
L 54.390625 75.984375 
L 54.390625 0 
L 45.40625 0 
L 45.40625 8.203125 
Q 42.578125 3.328125 38.25 0.953125 
Q 33.9375 -1.421875 27.875 -1.421875 
Q 17.96875 -1.421875 11.734375 6.484375 
Q 5.515625 14.40625 5.515625 27.296875 
Q 5.515625 40.1875 11.734375 48.09375 
Q 17.96875 56 27.875 56 
Q 33.9375 56 38.25 53.625 
Q 42.578125 51.265625 45.40625 46.390625 
z
M 14.796875 27.296875 
Q 14.796875 17.390625 18.875 11.75 
Q 22.953125 6.109375 30.078125 6.109375 
Q 37.203125 6.109375 41.296875 11.75 
Q 45.40625 17.390625 45.40625 27.296875 
Q 45.40625 37.203125 41.296875 42.84375 
Q 37.203125 48.484375 30.078125 48.484375 
Q 22.953125 48.484375 18.875 42.84375 
Q 14.796875 37.203125 14.796875 27.296875 
z
" id="DejaVuSans-100"/>
       <path d="M 34.28125 27.484375 
Q 23.390625 27.484375 19.1875 25 
Q 14.984375 22.515625 14.984375 16.5 
Q 14.984375 11.71875 18.140625 8.90625 
Q 21.296875 6.109375 26.703125 6.109375 
Q 34.1875 6.109375 38.703125 11.40625 
Q 43.21875 16.703125 43.21875 25.484375 
L 43.21875 27.484375 
z
M 52.203125 31.203125 
L 52.203125 0 
L 43.21875 0 
L 43.21875 8.296875 
Q 40.140625 3.328125 35.546875 0.953125 
Q 30.953125 -1.421875 24.3125 -1.421875 
Q 15.921875 -1.421875 10.953125 3.296875 
Q 6 8.015625 6 15.921875 
Q 6 25.140625 12.171875 29.828125 
Q 18.359375 34.515625 30.609375 34.515625 
L 43.21875 34.515625 
L 43.21875 35.40625 
Q 43.21875 41.609375 39.140625 45 
Q 35.0625 48.390625 27.6875 48.390625 
Q 23 48.390625 18.546875 47.265625 
Q 14.109375 46.140625 10.015625 43.890625 
L 10.015625 52.203125 
Q 14.9375 54.109375 19.578125 55.046875 
Q 24.21875 56 28.609375 56 
Q 40.484375 56 46.34375 49.84375 
Q 52.203125 43.703125 52.203125 31.203125 
z
" id="DejaVuSans-97"/>
      </defs>
      <use xlink:href="#DejaVuSans-78"/>
      <use x="74.804688" xlink:href="#DejaVuSans-65"/>
      <use x="141.462891" xlink:href="#DejaVuSans-100"/>
      <use x="204.939453" xlink:href="#DejaVuSans-97"/>
      <use x="266.21875" xlink:href="#DejaVuSans-109"/>
     </g>
    </g>
    <g id="line2d_70">
     <path d="M 392.626125 50.094687 
L 412.626125 50.094687 
" style="fill:none;stroke:#ff7f0e;stroke-linecap:square;stroke-width:1.5;"/>
    </g>
    <g id="line2d_71"/>
    <g id="text_11">
     <!-- RAdam -->
     <g transform="translate(420.626125 53.594687)scale(0.1 -0.1)">
      <defs>
       <path d="M 44.390625 34.1875 
Q 47.5625 33.109375 50.5625 29.59375 
Q 53.5625 26.078125 56.59375 19.921875 
L 66.609375 0 
L 56 0 
L 46.6875 18.703125 
Q 43.0625 26.03125 39.671875 28.421875 
Q 36.28125 30.8125 30.421875 30.8125 
L 19.671875 30.8125 
L 19.671875 0 
L 9.8125 0 
L 9.8125 72.90625 
L 32.078125 72.90625 
Q 44.578125 72.90625 50.734375 67.671875 
Q 56.890625 62.453125 56.890625 51.90625 
Q 56.890625 45.015625 53.6875 40.46875 
Q 50.484375 35.9375 44.390625 34.1875 
z
M 19.671875 64.796875 
L 19.671875 38.921875 
L 32.078125 38.921875 
Q 39.203125 38.921875 42.84375 42.21875 
Q 46.484375 45.515625 46.484375 51.90625 
Q 46.484375 58.296875 42.84375 61.546875 
Q 39.203125 64.796875 32.078125 64.796875 
z
" id="DejaVuSans-82"/>
      </defs>
      <use xlink:href="#DejaVuSans-82"/>
      <use x="65.482422" xlink:href="#DejaVuSans-65"/>
      <use x="132.140625" xlink:href="#DejaVuSans-100"/>
      <use x="195.617188" xlink:href="#DejaVuSans-97"/>
      <use x="256.896484" xlink:href="#DejaVuSans-109"/>
     </g>
    </g>
    <g id="line2d_72">
     <path d="M 392.626125 64.772812 
L 412.626125 64.772812 
" style="fill:none;stroke:#2ca02c;stroke-linecap:square;stroke-width:1.5;"/>
    </g>
    <g id="line2d_73"/>
    <g id="text_12">
     <!-- Adam -->
     <g transform="translate(420.626125 68.272812)scale(0.1 -0.1)">
      <use xlink:href="#DejaVuSans-65"/>
      <use x="66.658203" xlink:href="#DejaVuSans-100"/>
      <use x="130.134766" xlink:href="#DejaVuSans-97"/>
      <use x="191.414062" xlink:href="#DejaVuSans-109"/>
     </g>
    </g>
    <g id="line2d_74">
     <path d="M 392.626125 79.450937 
L 412.626125 79.450937 
" style="fill:none;stroke:#d62728;stroke-linecap:square;stroke-width:1.5;"/>
    </g>
    <g id="line2d_75"/>
    <g id="text_13">
     <!-- Adadelta -->
     <g transform="translate(420.626125 82.950937)scale(0.1 -0.1)">
      <use xlink:href="#DejaVuSans-65"/>
      <use x="66.658203" xlink:href="#DejaVuSans-100"/>
      <use x="130.134766" xlink:href="#DejaVuSans-97"/>
      <use x="191.414062" xlink:href="#DejaVuSans-100"/>
      <use x="254.890625" xlink:href="#DejaVuSans-101"/>
      <use x="316.414062" xlink:href="#DejaVuSans-108"/>
      <use x="344.197266" xlink:href="#DejaVuSans-116"/>
      <use x="383.40625" xlink:href="#DejaVuSans-97"/>
     </g>
    </g>
    <g id="line2d_76">
     <path d="M 392.626125 94.129062 
L 412.626125 94.129062 
" style="fill:none;stroke:#9467bd;stroke-linecap:square;stroke-width:1.5;"/>
    </g>
    <g id="line2d_77"/>
    <g id="text_14">
     <!-- Adamax -->
     <g transform="translate(420.626125 97.629062)scale(0.1 -0.1)">
      <defs>
       <path d="M 54.890625 54.6875 
L 35.109375 28.078125 
L 55.90625 0 
L 45.3125 0 
L 29.390625 21.484375 
L 13.484375 0 
L 2.875 0 
L 24.125 28.609375 
L 4.6875 54.6875 
L 15.28125 54.6875 
L 29.78125 35.203125 
L 44.28125 54.6875 
z
" id="DejaVuSans-120"/>
      </defs>
      <use xlink:href="#DejaVuSans-65"/>
      <use x="66.658203" xlink:href="#DejaVuSans-100"/>
      <use x="130.134766" xlink:href="#DejaVuSans-97"/>
      <use x="191.414062" xlink:href="#DejaVuSans-109"/>
      <use x="288.826172" xlink:href="#DejaVuSans-97"/>
      <use x="350.105469" xlink:href="#DejaVuSans-120"/>
     </g>
    </g>
    <g id="line2d_78">
     <path d="M 392.626125 108.807187 
L 412.626125 108.807187 
" style="fill:none;stroke:#8c564b;stroke-linecap:square;stroke-width:1.5;"/>
    </g>
    <g id="line2d_79"/>
    <g id="text_15">
     <!-- SGD -->
     <g transform="translate(420.626125 112.307187)scale(0.1 -0.1)">
      <defs>
       <path d="M 53.515625 70.515625 
L 53.515625 60.890625 
Q 47.90625 63.578125 42.921875 64.890625 
Q 37.9375 66.21875 33.296875 66.21875 
Q 25.25 66.21875 20.875 63.09375 
Q 16.5 59.96875 16.5 54.203125 
Q 16.5 49.359375 19.40625 46.890625 
Q 22.3125 44.4375 30.421875 42.921875 
L 36.375 41.703125 
Q 47.40625 39.59375 52.65625 34.296875 
Q 57.90625 29 57.90625 20.125 
Q 57.90625 9.515625 50.796875 4.046875 
Q 43.703125 -1.421875 29.984375 -1.421875 
Q 24.8125 -1.421875 18.96875 -0.25 
Q 13.140625 0.921875 6.890625 3.21875 
L 6.890625 13.375 
Q 12.890625 10.015625 18.65625 8.296875 
Q 24.421875 6.59375 29.984375 6.59375 
Q 38.421875 6.59375 43.015625 9.90625 
Q 47.609375 13.234375 47.609375 19.390625 
Q 47.609375 24.75 44.3125 27.78125 
Q 41.015625 30.8125 33.5 32.328125 
L 27.484375 33.5 
Q 16.453125 35.6875 11.515625 40.375 
Q 6.59375 45.0625 6.59375 53.421875 
Q 6.59375 63.09375 13.40625 68.65625 
Q 20.21875 74.21875 32.171875 74.21875 
Q 37.3125 74.21875 42.625 73.28125 
Q 47.953125 72.359375 53.515625 70.515625 
z
" id="DejaVuSans-83"/>
       <path d="M 19.671875 64.796875 
L 19.671875 8.109375 
L 31.59375 8.109375 
Q 46.6875 8.109375 53.6875 14.9375 
Q 60.6875 21.78125 60.6875 36.53125 
Q 60.6875 51.171875 53.6875 57.984375 
Q 46.6875 64.796875 31.59375 64.796875 
z
M 9.8125 72.90625 
L 30.078125 72.90625 
Q 51.265625 72.90625 61.171875 64.09375 
Q 71.09375 55.28125 71.09375 36.53125 
Q 71.09375 17.671875 61.125 8.828125 
Q 51.171875 0 30.078125 0 
L 9.8125 0 
z
" id="DejaVuSans-68"/>
      </defs>
      <use xlink:href="#DejaVuSans-83"/>
      <use x="63.476562" xlink:href="#DejaVuSans-71"/>
      <use x="140.966797" xlink:href="#DejaVuSans-68"/>
     </g>
    </g>
    <g id="line2d_80">
     <path d="M 392.626125 123.485312 
L 412.626125 123.485312 
" style="fill:none;stroke:#e377c2;stroke-linecap:square;stroke-width:1.5;"/>
    </g>
    <g id="line2d_81"/>
    <g id="text_16">
     <!-- LBFGS -->
     <g transform="translate(420.626125 126.985312)scale(0.1 -0.1)">
      <defs>
       <path d="M 9.8125 72.90625 
L 19.671875 72.90625 
L 19.671875 8.296875 
L 55.171875 8.296875 
L 55.171875 0 
L 9.8125 0 
z
" id="DejaVuSans-76"/>
       <path d="M 19.671875 34.8125 
L 19.671875 8.109375 
L 35.5 8.109375 
Q 43.453125 8.109375 47.28125 11.40625 
Q 51.125 14.703125 51.125 21.484375 
Q 51.125 28.328125 47.28125 31.5625 
Q 43.453125 34.8125 35.5 34.8125 
z
M 19.671875 64.796875 
L 19.671875 42.828125 
L 34.28125 42.828125 
Q 41.5 42.828125 45.03125 45.53125 
Q 48.578125 48.25 48.578125 53.8125 
Q 48.578125 59.328125 45.03125 62.0625 
Q 41.5 64.796875 34.28125 64.796875 
z
M 9.8125 72.90625 
L 35.015625 72.90625 
Q 46.296875 72.90625 52.390625 68.21875 
Q 58.5 63.53125 58.5 54.890625 
Q 58.5 48.1875 55.375 44.234375 
Q 52.25 40.28125 46.1875 39.3125 
Q 53.46875 37.75 57.5 32.78125 
Q 61.53125 27.828125 61.53125 20.40625 
Q 61.53125 10.640625 54.890625 5.3125 
Q 48.25 0 35.984375 0 
L 9.8125 0 
z
" id="DejaVuSans-66"/>
       <path d="M 9.8125 72.90625 
L 51.703125 72.90625 
L 51.703125 64.59375 
L 19.671875 64.59375 
L 19.671875 43.109375 
L 48.578125 43.109375 
L 48.578125 34.8125 
L 19.671875 34.8125 
L 19.671875 0 
L 9.8125 0 
z
" id="DejaVuSans-70"/>
      </defs>
      <use xlink:href="#DejaVuSans-76"/>
      <use x="55.712891" xlink:href="#DejaVuSans-66"/>
      <use x="124.316406" xlink:href="#DejaVuSans-70"/>
      <use x="181.835938" xlink:href="#DejaVuSans-71"/>
      <use x="259.326172" xlink:href="#DejaVuSans-83"/>
     </g>
    </g>
    <g id="line2d_82">
     <path d="M 392.626125 138.163437 
L 412.626125 138.163437 
" style="fill:none;stroke:#7f7f7f;stroke-linecap:square;stroke-width:1.5;"/>
    </g>
    <g id="line2d_83"/>
    <g id="text_17">
     <!-- RMSprop -->
     <g transform="translate(420.626125 141.663437)scale(0.1 -0.1)">
      <defs>
       <path d="M 18.109375 8.203125 
L 18.109375 -20.796875 
L 9.078125 -20.796875 
L 9.078125 54.6875 
L 18.109375 54.6875 
L 18.109375 46.390625 
Q 20.953125 51.265625 25.265625 53.625 
Q 29.59375 56 35.59375 56 
Q 45.5625 56 51.78125 48.09375 
Q 58.015625 40.1875 58.015625 27.296875 
Q 58.015625 14.40625 51.78125 6.484375 
Q 45.5625 -1.421875 35.59375 -1.421875 
Q 29.59375 -1.421875 25.265625 0.953125 
Q 20.953125 3.328125 18.109375 8.203125 
z
M 48.6875 27.296875 
Q 48.6875 37.203125 44.609375 42.84375 
Q 40.53125 48.484375 33.40625 48.484375 
Q 26.265625 48.484375 22.1875 42.84375 
Q 18.109375 37.203125 18.109375 27.296875 
Q 18.109375 17.390625 22.1875 11.75 
Q 26.265625 6.109375 33.40625 6.109375 
Q 40.53125 6.109375 44.609375 11.75 
Q 48.6875 17.390625 48.6875 27.296875 
z
" id="DejaVuSans-112"/>
       <path d="M 41.109375 46.296875 
Q 39.59375 47.171875 37.8125 47.578125 
Q 36.03125 48 33.890625 48 
Q 26.265625 48 22.1875 43.046875 
Q 18.109375 38.09375 18.109375 28.8125 
L 18.109375 0 
L 9.078125 0 
L 9.078125 54.6875 
L 18.109375 54.6875 
L 18.109375 46.1875 
Q 20.953125 51.171875 25.484375 53.578125 
Q 30.03125 56 36.53125 56 
Q 37.453125 56 38.578125 55.875 
Q 39.703125 55.765625 41.0625 55.515625 
z
" id="DejaVuSans-114"/>
      </defs>
      <use xlink:href="#DejaVuSans-82"/>
      <use x="69.482422" xlink:href="#DejaVuSans-77"/>
      <use x="155.761719" xlink:href="#DejaVuSans-83"/>
      <use x="219.238281" xlink:href="#DejaVuSans-112"/>
      <use x="282.714844" xlink:href="#DejaVuSans-114"/>
      <use x="321.578125" xlink:href="#DejaVuSans-111"/>
      <use x="382.759766" xlink:href="#DejaVuSans-112"/>
     </g>
    </g>
    <g id="line2d_84">
     <path d="M 392.626125 152.841562 
L 412.626125 152.841562 
" style="fill:none;stroke:#bcbd22;stroke-linecap:square;stroke-width:1.5;"/>
    </g>
    <g id="line2d_85"/>
    <g id="text_18">
     <!-- Rprop -->
     <g transform="translate(420.626125 156.341562)scale(0.1 -0.1)">
      <use xlink:href="#DejaVuSans-82"/>
      <use x="69.482422" xlink:href="#DejaVuSans-112"/>
      <use x="132.958984" xlink:href="#DejaVuSans-114"/>
      <use x="171.822266" xlink:href="#DejaVuSans-111"/>
      <use x="233.003906" xlink:href="#DejaVuSans-112"/>
     </g>
    </g>
    <g id="line2d_86">
     <path d="M 392.626125 167.519687 
L 412.626125 167.519687 
" style="fill:none;stroke:#17becf;stroke-dasharray:5.55,2.4;stroke-dashoffset:0;stroke-width:1.5;"/>
    </g>
    <g id="line2d_87"/>
    <g id="text_19">
     <!-- BFGS -->
     <g transform="translate(420.626125 171.019687)scale(0.1 -0.1)">
      <use xlink:href="#DejaVuSans-66"/>
      <use x="68.603516" xlink:href="#DejaVuSans-70"/>
      <use x="126.123047" xlink:href="#DejaVuSans-71"/>
      <use x="203.613281" xlink:href="#DejaVuSans-83"/>
     </g>
    </g>
    <g id="line2d_88">
     <path d="M 392.626125 182.197812 
L 412.626125 182.197812 
" style="fill:none;stroke:#1f77b4;stroke-dasharray:5.55,2.4;stroke-dashoffset:0;stroke-width:1.5;"/>
    </g>
    <g id="line2d_89"/>
    <g id="text_20">
     <!-- CG -->
     <g transform="translate(420.626125 185.697812)scale(0.1 -0.1)">
      <defs>
       <path d="M 64.40625 67.28125 
L 64.40625 56.890625 
Q 59.421875 61.53125 53.78125 63.8125 
Q 48.140625 66.109375 41.796875 66.109375 
Q 29.296875 66.109375 22.65625 58.46875 
Q 16.015625 50.828125 16.015625 36.375 
Q 16.015625 21.96875 22.65625 14.328125 
Q 29.296875 6.6875 41.796875 6.6875 
Q 48.140625 6.6875 53.78125 8.984375 
Q 59.421875 11.28125 64.40625 15.921875 
L 64.40625 5.609375 
Q 59.234375 2.09375 53.4375 0.328125 
Q 47.65625 -1.421875 41.21875 -1.421875 
Q 24.65625 -1.421875 15.125 8.703125 
Q 5.609375 18.84375 5.609375 36.375 
Q 5.609375 53.953125 15.125 64.078125 
Q 24.65625 74.21875 41.21875 74.21875 
Q 47.75 74.21875 53.53125 72.484375 
Q 59.328125 70.75 64.40625 67.28125 
z
" id="DejaVuSans-67"/>
      </defs>
      <use xlink:href="#DejaVuSans-67"/>
      <use x="69.824219" xlink:href="#DejaVuSans-71"/>
     </g>
    </g>
    <g id="line2d_90">
     <path d="M 392.626125 196.875937 
L 412.626125 196.875937 
" style="fill:none;stroke:#ff7f0e;stroke-dasharray:5.55,2.4;stroke-dashoffset:0;stroke-width:1.5;"/>
    </g>
    <g id="line2d_91"/>
    <g id="text_21">
     <!-- Newton-CG -->
     <g transform="translate(420.626125 200.375937)scale(0.1 -0.1)">
      <defs>
       <path d="M 4.203125 54.6875 
L 13.1875 54.6875 
L 24.421875 12.015625 
L 35.59375 54.6875 
L 46.1875 54.6875 
L 57.421875 12.015625 
L 68.609375 54.6875 
L 77.59375 54.6875 
L 63.28125 0 
L 52.6875 0 
L 40.921875 44.828125 
L 29.109375 0 
L 18.5 0 
z
" id="DejaVuSans-119"/>
       <path d="M 54.890625 33.015625 
L 54.890625 0 
L 45.90625 0 
L 45.90625 32.71875 
Q 45.90625 40.484375 42.875 44.328125 
Q 39.84375 48.1875 33.796875 48.1875 
Q 26.515625 48.1875 22.3125 43.546875 
Q 18.109375 38.921875 18.109375 30.90625 
L 18.109375 0 
L 9.078125 0 
L 9.078125 54.6875 
L 18.109375 54.6875 
L 18.109375 46.1875 
Q 21.34375 51.125 25.703125 53.5625 
Q 30.078125 56 35.796875 56 
Q 45.21875 56 50.046875 50.171875 
Q 54.890625 44.34375 54.890625 33.015625 
z
" id="DejaVuSans-110"/>
      </defs>
      <use xlink:href="#DejaVuSans-78"/>
      <use x="74.804688" xlink:href="#DejaVuSans-101"/>
      <use x="136.328125" xlink:href="#DejaVuSans-119"/>
      <use x="218.115234" xlink:href="#DejaVuSans-116"/>
      <use x="257.324219" xlink:href="#DejaVuSans-111"/>
      <use x="318.505859" xlink:href="#DejaVuSans-110"/>
      <use x="381.884766" xlink:href="#DejaVuSans-45"/>
      <use x="417.96875" xlink:href="#DejaVuSans-67"/>
      <use x="487.792969" xlink:href="#DejaVuSans-71"/>
     </g>
    </g>
    <g id="line2d_92">
     <path d="M 392.626125 211.554062 
L 412.626125 211.554062 
" style="fill:none;stroke:#2ca02c;stroke-dasharray:5.55,2.4;stroke-dashoffset:0;stroke-width:1.5;"/>
    </g>
    <g id="line2d_93"/>
    <g id="text_22">
     <!-- SLSQP -->
     <g transform="translate(420.626125 215.054062)scale(0.1 -0.1)">
      <defs>
       <path d="M 39.40625 66.21875 
Q 28.65625 66.21875 22.328125 58.203125 
Q 16.015625 50.203125 16.015625 36.375 
Q 16.015625 22.609375 22.328125 14.59375 
Q 28.65625 6.59375 39.40625 6.59375 
Q 50.140625 6.59375 56.421875 14.59375 
Q 62.703125 22.609375 62.703125 36.375 
Q 62.703125 50.203125 56.421875 58.203125 
Q 50.140625 66.21875 39.40625 66.21875 
z
M 53.21875 1.3125 
L 66.21875 -12.890625 
L 54.296875 -12.890625 
L 43.5 -1.21875 
Q 41.890625 -1.3125 41.03125 -1.359375 
Q 40.1875 -1.421875 39.40625 -1.421875 
Q 24.03125 -1.421875 14.8125 8.859375 
Q 5.609375 19.140625 5.609375 36.375 
Q 5.609375 53.65625 14.8125 63.9375 
Q 24.03125 74.21875 39.40625 74.21875 
Q 54.734375 74.21875 63.90625 63.9375 
Q 73.09375 53.65625 73.09375 36.375 
Q 73.09375 23.6875 67.984375 14.640625 
Q 62.890625 5.609375 53.21875 1.3125 
z
" id="DejaVuSans-81"/>
       <path d="M 19.671875 64.796875 
L 19.671875 37.40625 
L 32.078125 37.40625 
Q 38.96875 37.40625 42.71875 40.96875 
Q 46.484375 44.53125 46.484375 51.125 
Q 46.484375 57.671875 42.71875 61.234375 
Q 38.96875 64.796875 32.078125 64.796875 
z
M 9.8125 72.90625 
L 32.078125 72.90625 
Q 44.34375 72.90625 50.609375 67.359375 
Q 56.890625 61.8125 56.890625 51.125 
Q 56.890625 40.328125 50.609375 34.8125 
Q 44.34375 29.296875 32.078125 29.296875 
L 19.671875 29.296875 
L 19.671875 0 
L 9.8125 0 
z
" id="DejaVuSans-80"/>
      </defs>
      <use xlink:href="#DejaVuSans-83"/>
      <use x="63.476562" xlink:href="#DejaVuSans-76"/>
      <use x="119.189453" xlink:href="#DejaVuSans-83"/>
      <use x="182.666016" xlink:href="#DejaVuSans-81"/>
      <use x="261.376953" xlink:href="#DejaVuSans-80"/>
     </g>
    </g>
   </g>
  </g>
 </g>
 <defs>
  <clipPath id="p9a5652c1d3">
   <rect height="217.44" width="334.8" x="45.478125" y="22.318125"/>
  </clipPath>
 </defs>
</svg>
